<svg id="Layer_1" data-name="Layer 1" xmlns="http://www.w3.org/2000/svg" viewBox="0 0 205.97 28.52"><title>Mojave Wordmark</title><path d="M0,6.36H3.73V9.23h.08A4.87,4.87,0,0,1,8.53,6.05a4.46,4.46,0,0,1,4.63,3.33h.09a5.35,5.35,0,0,1,5.16-3.33,5.14,5.14,0,0,1,5.4,5.51V22.92H19.92V12.52c0-2-1.06-3.19-3-3.19a3.1,3.1,0,0,0-3.15,3.36V22.92H10V12.31a2.75,2.75,0,0,0-2.94-3,3.2,3.2,0,0,0-3.19,3.45V22.92H0Z"/><path d="M26.27,18.19c0-2.94,2.26-4.71,6.29-5L36.94,13V11.8c0-1.74-1.17-2.74-3.1-2.74s-3,.89-3.26,2.27H27C27.14,8.23,29.78,6,34,6s6.78,2.17,6.78,5.5v11.4H37V20.28H37a5.84,5.84,0,0,1-5.15,2.91C28.59,23.19,26.27,21.17,26.27,18.19Zm10.67-1.41V15.52l-3.83.23c-1.88.13-2.95,1-2.95,2.28s1.12,2.22,2.81,2.22A3.69,3.69,0,0,0,36.94,16.78Z"/><path d="M54.83,12.27a3.51,3.51,0,0,0-3.63-3.1c-2.45,0-4,2.06-4,5.47s1.6,5.47,4.06,5.47a3.44,3.44,0,0,0,3.61-3h3.68c-.32,3.7-3.18,6.14-7.33,6.14-4.85,0-8-3.23-8-8.61S46.34,6,51.16,6c4.37,0,7.07,2.76,7.34,6.25Z"/><path d="M81.84,11.66c0,7.17-4.12,11.64-10.68,11.64S60.45,18.83,60.45,11.66,64.58,0,71.16,0,81.84,4.48,81.84,11.66Zm-17.26,0c0,5,2.54,8.2,6.58,8.2s6.57-3.19,6.57-8.2-2.56-8.22-6.57-8.22S64.58,6.62,64.58,11.66Z"/><path d="M88,16.58c.25,2.08,2.33,3.44,5.08,3.44s4.61-1.35,4.61-3.22c0-1.63-1.16-2.57-4-3.24l-2.92-.68c-4.16-1-6.13-3-6.13-6.18,0-4,3.49-6.7,8.39-6.7s8.25,2.69,8.35,6.66H97.56c-.18-2.11-2-3.38-4.53-3.38s-4.26,1.25-4.26,3.13c0,1.5,1.14,2.37,3.9,3l2.6.59c4.57,1.05,6.51,2.94,6.51,6.3,0,4.28-3.44,7-8.89,7-5.19,0-8.59-2.57-8.77-6.72Z"/><path d="M131.17,22.92V5.55h-.11l-7.18,17.22H121.5L114.31,5.55h-.11V22.92h-2.62V.38h3.26l7.78,18.81h.13L130.53.38h3.27V22.92Z"/><path d="M137,14.8c0-5.19,3-8.41,7.53-8.41S152,9.61,152,14.8s-3,8.4-7.52,8.4S137,20,137,14.8Zm12.28,0c0-3.83-1.87-6-4.75-6s-4.76,2.19-4.76,6,1.89,6,4.76,6S149.23,18.62,149.23,14.8Z"/><path d="M157.59,23.72c0,3.3-1.56,4.8-5,4.8a4.26,4.26,0,0,1-.51,0V26.23h.42c1.76,0,2.41-.67,2.41-2.48V6.67h2.71Zm-3-21.47a1.7,1.7,0,0,1,3.39,0,1.7,1.7,0,0,1-3.39,0Z"/><path d="M160.61,18.33c0-2.78,2.14-4.53,5.89-4.75l4.66-.27V12c0-2-1.32-3.17-3.57-3.17-2.09,0-3.4,1-3.75,2.58h-2.62c.19-2.81,2.59-5,6.44-5s6.22,2.06,6.22,5.3V22.92H171.3v-2.8h-.07A5.91,5.91,0,0,1,166,23.2C162.78,23.2,160.61,21.25,160.61,18.33Zm10.55-1.58V15.42l-4.35.27c-2.19.14-3.43,1.11-3.43,2.64s1.29,2.56,3.24,2.56A4.28,4.28,0,0,0,171.16,16.75Z"/><path d="M184.69,22.92h-2.78l-6-16.25h2.86L183.27,20h.06l4.5-13.36h2.83Z"/><path d="M205.77,18.27c-.47,2.84-3.22,4.93-6.77,4.93-4.66,0-7.48-3.23-7.48-8.34s2.87-8.47,7.36-8.47S206,9.58,206,14.5v1H194.31v.16c0,3.11,1.83,5.15,4.75,5.15a3.92,3.92,0,0,0,4-2.57Zm-11.44-4.86h8.83c-.07-2.72-1.77-4.66-4.33-4.66S194.5,10.7,194.33,13.41Z"/></svg>