<?xml version="1.0" encoding="UTF-8" standalone="no"?>
<!-- Created with Inkscape (http://www.inkscape.org/) -->

<svg
   xmlns:dc="http://purl.org/dc/elements/1.1/"
   xmlns:cc="http://creativecommons.org/ns#"
   xmlns:rdf="http://www.w3.org/1999/02/22-rdf-syntax-ns#"
   xmlns:svg="http://www.w3.org/2000/svg"
   xmlns="http://www.w3.org/2000/svg"
   xmlns:sodipodi="http://sodipodi.sourceforge.net/DTD/sodipodi-0.dtd"
   xmlns:inkscape="http://www.inkscape.org/namespaces/inkscape"
   width="1000mm"
   height="158.3475mm"
   viewBox="0 0 1000 158.34751"
   version="1.1"
   id="svg8"
   inkscape:version="0.92.2 (5c3e80d, 2017-08-06)"
   sodipodi:docname="iPod touch logo (2016).svg">
  <defs
     id="defs2" />
  <sodipodi:namedview
     id="base"
     pagecolor="#ffffff"
     bordercolor="#666666"
     borderopacity="1.0"
     inkscape:pageopacity="0.0"
     inkscape:pageshadow="2"
     inkscape:zoom="0.35"
     inkscape:cx="971.76094"
     inkscape:cy="-86.602691"
     inkscape:document-units="mm"
     inkscape:current-layer="layer1"
     showgrid="false"
     fit-margin-top="0"
     fit-margin-left="0"
     fit-margin-right="0"
     fit-margin-bottom="0"
     inkscape:window-width="1600"
     inkscape:window-height="837"
     inkscape:window-x="-8"
     inkscape:window-y="-8"
     inkscape:window-maximized="1" />
  <metadata
     id="metadata5">
    <rdf:RDF>
      <cc:Work
         rdf:about="">
        <dc:format>image/svg+xml</dc:format>
        <dc:type
           rdf:resource="http://purl.org/dc/dcmitype/StillImage" />
        <dc:title></dc:title>
      </cc:Work>
    </rdf:RDF>
  </metadata>
  <g
     inkscape:label="Layer 1"
     inkscape:groupmode="layer"
     id="layer1"
     transform="translate(-65.831643,32.427795)">
    <g
       aria-label="iPod touch"
       style="font-style:normal;font-variant:normal;font-weight:600;font-stretch:normal;font-size:50.79999924px;line-height:125%;font-family:'SF Pro Display';-inkscape-font-specification:'SF Pro Display Semi-Bold';letter-spacing:0px;word-spacing:0px;fill:#000000;fill-opacity:1;stroke:none;stroke-width:0.26458332px;stroke-linecap:butt;stroke-linejoin:miter;stroke-opacity:1"
       id="text817"
       transform="matrix(4.281538,0,0,4.281538,-216.02903,-413.21032)">
      <path
         d="m 66.178906,125.39881 h 6.176367 V 99.105843 h -6.176367 z m 3.075781,-29.740819 c 1.934766,0 3.447852,-1.488281 3.447852,-3.348632 0,-1.885157 -1.513086,-3.373438 -3.447852,-3.373438 -1.90996,0 -3.423046,1.488281 -3.423046,3.373438 0,1.860351 1.513086,3.348632 3.423046,3.348632 z"
         style="stroke-width:0.26458332px"
         id="path819"
         inkscape:connector-curvature="0" />
      <path
         d="m 78.15957,89.605648 v 35.793162 h 6.399609 v -11.83183 h 7.242969 c 7.242968,0 12.327932,-4.83692 12.327932,-11.98067 0,-7.143748 -4.936135,-11.980662 -12.055081,-11.980662 z m 6.399609,5.233789 h 5.829102 c 4.588867,0 7.242968,2.455664 7.242968,6.746873 0,4.34082 -2.678906,6.82129 -7.267773,6.82129 h -5.804297 z"
         style="stroke-width:0.26458332px"
         id="path821"
         inkscape:connector-curvature="0" />
      <path
         d="m 118.83926,125.91971 c 7.71426,0 12.7248,-5.13457 12.7248,-13.66738 0,-8.50801 -5.06015,-13.69219 -12.7248,-13.69219 -7.66465,0 -12.72481,5.20898 -12.72481,13.69219 0,8.53281 5.01055,13.66738 12.72481,13.66738 z m 0,-4.88652 c -3.91914,0 -6.44922,-3.175 -6.44922,-8.78086 0,-5.58106 2.55488,-8.78086 6.44922,-8.78086 3.91914,0 6.44922,3.1998 6.44922,8.78086 0,5.60586 -2.53008,8.78086 -6.44922,8.78086 z"
         style="stroke-width:0.26458332px"
         id="path823"
         inkscape:connector-curvature="0" />
      <path
         d="m 145.40508,125.82049 c 3.84473,0 6.8709,-1.95957 8.30957,-4.91133 h 0.0992 v 4.48965 h 6.05234 V 89.605648 h -6.17637 V 103.52108 H 153.541 c -1.38907,-2.90215 -4.36563,-4.861721 -8.13594,-4.861721 -6.62285,0 -10.91406,5.258591 -10.91406,13.568161 0,8.35918 4.29121,13.59297 10.91406,13.59297 z m 1.86035,-22.07617 c 3.89434,0 6.44922,3.34863 6.44922,8.50801 0,5.20898 -2.55488,8.508 -6.44922,8.508 -3.99355,0 -6.44922,-3.27421 -6.44922,-8.508 0,-5.20899 2.48047,-8.50801 6.44922,-8.50801 z"
         style="stroke-width:0.26458332px"
         id="path825"
         inkscape:connector-curvature="0" />
      <path
         d="m 176.98145,92.954281 v 6.151562 h -3.77032 v 4.762497 h 3.77032 v 14.53555 c 0,5.10977 2.23242,7.11894 7.91269,7.11894 1.31465,0 2.53008,-0.0992 3.19981,-0.24804 v -4.71289 c -0.39688,0.0744 -1.19063,0.12402 -1.76114,0.12402 -2.18281,0 -3.175,-0.99219 -3.175,-3.15019 v -13.66739 h 4.96094 v -4.762497 h -4.96094 v -6.151562 z"
         style="stroke-width:0.26458332px"
         id="path827"
         inkscape:connector-curvature="0" />
      <path
         d="m 203.47285,125.91971 c 7.71426,0 12.7248,-5.13457 12.7248,-13.66738 0,-8.50801 -5.06015,-13.69219 -12.7248,-13.69219 -7.66465,0 -12.72481,5.20898 -12.72481,13.69219 0,8.53281 5.01055,13.66738 12.72481,13.66738 z m 0,-4.88652 c -3.91914,0 -6.44922,-3.175 -6.44922,-8.78086 0,-5.58106 2.55488,-8.78086 6.44922,-8.78086 3.91914,0 6.44922,3.1998 6.44922,8.78086 0,5.60586 -2.53008,8.78086 -6.44922,8.78086 z"
         style="stroke-width:0.26458332px"
         id="path829"
         inkscape:connector-curvature="0" />
      <path
         d="m 243.53241,99.105843 h -6.17636 v 15.205277 c 0,3.81992 -2.20762,6.35 -5.7795,6.35 -3.47265,0 -5.3082,-2.03399 -5.3082,-5.8043 V 99.105843 h -6.17637 v 16.991207 c 0,6.07715 3.62149,9.77305 9.32657,9.77305 3.99355,0 6.64765,-1.83555 8.03671,-5.03535 h 0.12403 v 4.56406 h 5.95312 z"
         style="stroke-width:0.26458332px"
         id="path831"
         inkscape:connector-curvature="0" />
      <path
         d="m 271.76016,108.48201 c -0.42168,-5.53144 -4.71289,-9.92187 -11.65821,-9.92187 -7.63984,0 -12.60078,5.2834 -12.60078,13.69219 0,8.53281 4.96094,13.66738 12.65039,13.66738 6.59805,0 11.13731,-3.86953 11.6334,-9.74824 h -5.8291 c -0.57051,2.97656 -2.60449,4.7625 -5.72988,4.7625 -3.91914,0 -6.44922,-3.175 -6.44922,-8.68164 0,-5.40742 2.50527,-8.68164 6.39961,-8.68164 3.29902,0 5.25859,2.1084 5.75468,4.91132 z"
         style="stroke-width:0.26458332px"
         id="path833"
         inkscape:connector-curvature="0" />
      <path
         d="m 275.65449,125.39881 h 6.17636 v -15.10605 c 0,-3.86953 2.25723,-6.44922 5.97793,-6.44922 3.57188,0 5.40742,2.20762 5.40742,5.87871 v 15.67656 h 6.17637 v -16.9416 c 0,-6.02754 -3.39824,-9.847461 -9.20254,-9.847461 -3.99355,0 -6.8957,1.810741 -8.30957,5.010551 h -0.12402 V 89.605648 h -6.10195 z"
         style="stroke-width:0.26458332px"
         id="path835"
         inkscape:connector-curvature="0" />
    </g>
  </g>
</svg>
