<?xml version="1.0" encoding="UTF-8"?>
<svg xmlns="http://www.w3.org/2000/svg" height="56px" width="384px" version="1.1" viewBox="0 0 384 56"><path d="m241.08 54.88c-2.08-0.613-3.79-1.4-5.12-2.36l0.88-2.4c1.17 0.96 2.76 1.76 4.76 2.4s3.96 0.96 5.88 0.96c4.27 0 7.57-1.173 9.92-3.52s3.52-5.307 3.52-8.88c0-3.04-0.95-5.507-2.84-7.4s-4.71-3.693-8.44-5.4c-4.05-1.813-7.17-3.76-9.36-5.84s-3.28-4.853-3.28-8.32c0-2.667 0.63-5.0533 1.88-7.16s3.03-3.7467 5.32-4.92 4.91-1.76 7.84-1.76c2.03 0 3.88 0.24 5.56 0.72s3.03 1.0667 4.04 1.76l-0.88 2.24c-0.96-0.64-2.23-1.2-3.8-1.68s-3.24-0.72-5-0.72c-3.73 0-6.68 1.0667-8.84 3.2s-3.24 4.8-3.24 8c0 2.08 0.48 3.853 1.44 5.32s2.21 2.707 3.76 3.72 3.6 2.107 6.16 3.28c4.05 1.867 7.16 3.907 9.32 6.12s3.24 5.08 3.24 8.6c0 2.773-0.63 5.293-1.88 7.56s-3.12 4.067-5.6 5.4-5.48 2-9 2c-2.08 0-4.16-0.307-6.24-0.92zm30.6-46.92c-0.45-0.48-0.68-1.0933-0.68-1.84s0.23-1.36 0.68-1.84 1.03-0.72 1.72-0.72 1.27 0.24 1.72 0.72 0.68 1.0933 0.68 1.84-0.23 1.36-0.68 1.84-1.03 0.72-1.72 0.72-1.27-0.24-1.72-0.72zm0.36 8.4h2.72v38.64h-2.72v-38.64zm14.96 34.04c-3.09-3.6-4.64-8.493-4.64-14.68 0-3.733 0.69-7.133 2.08-10.2s3.33-5.493 5.84-7.28 5.36-2.68 8.56-2.68c3.52 0 6.35 0.88 8.48 2.64s3.64 3.893 4.52 6.4 1.32 4.987 1.32 7.44c0 1.28-0.08 2.4-0.24 3.36h-27.68c0 5.547 1.27 9.96 3.8 13.24s6.15 4.92 10.84 4.92c4.05 0 7.57-0.72 10.56-2.16l0.48 2c-1.17 0.64-2.73 1.2-4.68 1.68s-4.17 0.72-6.68 0.72c-5.28 0-9.47-1.8-12.56-5.4zm23.28-17.24v-1.36c0-3.787-0.93-7.067-2.8-9.84s-4.83-4.16-8.88-4.16c-3.73 0-6.8 1.467-9.2 4.4s-3.76 6.587-4.08 10.96h24.96zm10.4-5.76c0-1.6-0.05-3.893-0.16-6.88-0.11-1.92-0.16-3.307-0.16-4.16h2.48l0.24 8.48h0.16c0.91-2.72 2.32-4.947 4.24-6.68s3.97-2.6 6.16-2.6c0.43 0 1.01 0.053 1.76 0.16l-0.08 2.64c-0.37-0.107-0.99-0.16-1.84-0.16-1.87 0-3.52 0.64-4.96 1.92s-2.61 3.067-3.52 5.36c-1.07 2.72-1.6 5.92-1.6 9.6v19.92h-2.72v-27.6zm20.32 0c0-1.6-0.05-3.893-0.16-6.88-0.11-1.92-0.16-3.307-0.16-4.16h2.48l0.24 8.48h0.16c0.91-2.72 2.32-4.947 4.24-6.68s3.97-2.6 6.16-2.6c0.43 0 1.01 0.053 1.76 0.16l-0.08 2.64c-0.37-0.107-0.99-0.16-1.84-0.16-1.87 0-3.52 0.64-4.96 1.92s-2.61 3.067-3.52 5.36c-1.07 2.72-1.6 5.92-1.6 9.6v19.92h-2.72v-27.6zm19.16 25.48c-2-2-3-4.467-3-7.4 0-4.32 2-7.68 6-10.08s9.68-3.6 17.04-3.6v-0.96c0-3.733-0.67-6.84-2-9.32s-3.89-3.72-7.68-3.72c-1.65 0-3.32 0.253-5 0.76s-3.13 1.24-4.36 2.2l-0.8-2.08c1.44-1.013 3.11-1.787 5-2.32s3.69-0.8 5.4-0.8c4.59 0 7.76 1.453 9.52 4.36s2.64 6.653 2.64 11.24v11.04c0 6.24 0.19 10.507 0.56 12.8h-2.48c-0.21-1.493-0.37-3.573-0.48-6.24h-0.16c-1.28 2.08-2.93 3.787-4.96 5.12s-4.43 2-7.2 2c-3.36 0-6.04-1-8.04-3zm13.76-0.64c1.68-0.933 3.08-2.227 4.2-3.88 1.39-2.08 2.08-4.453 2.08-7.12v-7.28c-6.24 0-11.16 0.92-14.76 2.76s-5.4 4.653-5.4 8.44c0 2.667 0.81 4.747 2.44 6.24s3.69 2.24 6.2 2.24c1.81 0 3.56-0.467 5.24-1.4zm-373.6-25.56c0-3.627-0.10667-7.12-0.32-10.48h6.08l0.32 6.16h0.16c2.8267-4.64 6.827-6.96 12-6.96 2.507 0 4.72 0.693 6.64 2.08s3.28 3.227 4.08 5.52h0.16c1.333-2.347 3.08-4.2 5.24-5.56s4.627-2.04 7.4-2.04c3.733 0 6.76 1.373 9.08 4.12s3.48 6.893 3.48 12.44v23.04h-6.8v-22.08c0-7.893-2.747-11.84-8.24-11.84-2.027 0-3.76 0.64-5.2 1.92s-2.48 2.96-3.12 5.04c-0.267 0.96-0.4 1.973-0.4 3.04v23.92h-6.8v-23.44c0-3.2-0.68-5.747-2.04-7.64s-3.293-2.84-5.8-2.84c-2.027 0-3.827 0.693-5.4 2.08-1.5733 1.387-2.68 3.12-3.32 5.2-0.2667 0.853-0.4 1.893-0.4 3.12v23.52h-6.8v-28.32zm64 26.08c-2.187-2.027-3.28-4.693-3.28-8 0-4.693 1.973-8.28 5.92-10.76s9.573-3.693 16.88-3.64v-0.8c0-6.027-2.88-9.04-8.64-9.04-3.733 0-7.013 0.933-9.84 2.8l-1.6-4.64c3.467-2.187 7.653-3.28 12.56-3.28 9.6 0 14.4 5.253 14.4 15.76v14.64c0 3.68 0.213 6.747 0.64 9.2h-6.32l-0.64-4.8h-0.16c-2.613 3.733-6.48 5.6-11.6 5.6-3.36 0-6.133-1.013-8.32-3.04zm13.72-2.68c1.04-0.4 2.067-1.053 3.08-1.96 1.867-1.707 2.8-3.733 2.8-6.08v-6.8c-10.613-0.213-15.92 2.693-15.92 8.72 0 2.133 0.6 3.787 1.8 4.96s2.76 1.76 4.68 1.76c1.333 0 2.52-0.2 3.56-0.6zm28.2 3.2c-2.88-1.627-5.09-3.92-6.64-6.88-1.547-2.96-2.32-6.413-2.32-10.36 0-4 0.84-7.56 2.52-10.68s4.07-5.56 7.16-7.32 6.67-2.64 10.72-2.64c3.84 0 6.99 0.667 9.44 2l-1.52 5.36c-2.29-1.227-4.93-1.84-7.92-1.84-4.16 0-7.43 1.387-9.8 4.16s-3.56 6.32-3.56 10.64 1.23 7.813 3.68 10.48 5.63 4 9.52 4c2.67 0 5.44-0.613 8.32-1.84l1.12 5.28c-3.04 1.387-6.61 2.08-10.72 2.08-3.79 0-7.12-0.813-10-2.44zm36.4-0.88c-3.57-2.32-6.33-5.56-8.28-9.72s-2.92-8.88-2.92-14.16c0-5.493 1.03-10.387 3.08-14.68 2.05-4.2934 4.92-7.64 8.6-10.04s7.92-3.6 12.72-3.6c4.64 0 8.75 1.1467 12.32 3.44s6.35 5.52 8.32 9.68 2.96 8.907 2.96 14.24c0 5.6-1 10.533-3 14.8s-4.84 7.587-8.52 9.96-7.97 3.56-12.88 3.56c-4.69 0-8.83-1.16-12.4-3.48zm21.52-5c2.56-1.92 4.53-4.587 5.92-8s2.08-7.253 2.08-11.52c0-4.213-0.71-8-2.12-11.36s-3.39-5.987-5.92-7.88c-2.53-1.8933-5.43-2.84-8.68-2.84-3.31 0-6.23 0.9733-8.76 2.92-2.53 1.947-4.49 4.627-5.88 8.04s-2.08 7.28-2.08 11.6c0 4.16 0.69 7.907 2.08 11.24s3.35 5.947 5.88 7.84 5.43 2.84 8.68 2.84c3.31 0 6.24-0.96 8.8-2.88zm19.52 5.04l1.76-5.76c3.57 2.293 7.63 3.44 12.16 3.44 3.36 0 6.08-0.84 8.16-2.52s3.12-3.907 3.12-6.68c0-2.507-0.8-4.6-2.4-6.28s-4.19-3.187-7.76-4.52c-9.33-3.52-14-8.64-14-15.36 0-2.773 0.73-5.2667 2.2-7.48s3.52-3.9467 6.16-5.2 5.61-1.88 8.92-1.88c4.75 0 8.61 0.8533 11.6 2.56l-1.92 5.68c-2.83-1.7067-6.13-2.56-9.92-2.56-2.93 0-5.36 0.7467-7.28 2.24s-2.88 3.44-2.88 5.84c0 2.347 0.76 4.267 2.28 5.76s4.31 3.067 8.36 4.72c4.69 1.92 8.12 4.12 10.28 6.6s3.24 5.587 3.24 9.32c0 3.093-0.76 5.8-2.28 8.12s-3.68 4.12-6.48 5.4-6.09 1.92-9.88 1.92c-5.6 0-10.08-1.12-13.44-3.36z"/></svg>