<?xml version="1.0" encoding="UTF-8" standalone="no"?>
<!-- Created with Inkscape (http://www.inkscape.org/) -->

<svg
   xmlns:dc="http://purl.org/dc/elements/1.1/"
   xmlns:cc="http://creativecommons.org/ns#"
   xmlns:rdf="http://www.w3.org/1999/02/22-rdf-syntax-ns#"
   xmlns:svg="http://www.w3.org/2000/svg"
   xmlns="http://www.w3.org/2000/svg"
   xmlns:sodipodi="http://sodipodi.sourceforge.net/DTD/sodipodi-0.dtd"
   xmlns:inkscape="http://www.inkscape.org/namespaces/inkscape"
   width="819.97925mm"
   height="153.93373mm"
   viewBox="0 0 819.97924 153.93373"
   version="1.1"
   id="svg8"
   inkscape:version="0.92.3 (2405546, 2018-03-11)"
   sodipodi:docname="IPad_mini_4.svg">
  <defs
     id="defs2" />
  <sodipodi:namedview
     id="base"
     pagecolor="#ffffff"
     bordercolor="#666666"
     borderopacity="1.0"
     inkscape:pageopacity="0.0"
     inkscape:pageshadow="2"
     inkscape:zoom="0.35"
     inkscape:cx="300.39436"
     inkscape:cy="-89.834842"
     inkscape:document-units="mm"
     inkscape:current-layer="layer1"
     showgrid="false"
     fit-margin-top="0"
     fit-margin-left="0"
     fit-margin-right="0"
     fit-margin-bottom="0"
     inkscape:window-width="1280"
     inkscape:window-height="705"
     inkscape:window-x="-8"
     inkscape:window-y="-8"
     inkscape:window-maximized="1" />
  <metadata
     id="metadata5">
    <rdf:RDF>
      <cc:Work
         rdf:about="">
        <dc:format>image/svg+xml</dc:format>
        <dc:type
           rdf:resource="http://purl.org/dc/dcmitype/StillImage" />
        <dc:title></dc:title>
      </cc:Work>
    </rdf:RDF>
  </metadata>
  <g
     inkscape:label="Layer 1"
     inkscape:groupmode="layer"
     id="layer1"
     transform="translate(-19.718545,28.8692)">
    <g
       aria-label="iPad mini 4"
       style="font-style:normal;font-variant:normal;font-weight:600;font-stretch:normal;font-size:50.79999924px;line-height:125%;font-family:'SF Pro Display';-inkscape-font-specification:'SF Pro Display Semi-Bold';letter-spacing:0px;word-spacing:0px;fill:#000000;fill-opacity:1;stroke:none;stroke-width:0.26458332px;stroke-linecap:butt;stroke-linejoin:miter;stroke-opacity:1"
       id="text817"
       transform="matrix(4.1733913,0,0,4.1733913,-62.574663,-396.87869)">
      <path
         d="m 20.065812,124.64285 h 6.176367 V 98.349884 h -6.176367 z m 3.075781,-29.740817 c 1.934766,0 3.447852,-1.488281 3.447852,-3.348633 0,-1.885156 -1.513086,-3.373437 -3.447852,-3.373437 -1.909961,0 -3.423047,1.488281 -3.423047,3.373437 0,1.860352 1.513086,3.348633 3.423047,3.348633 z"
         style="stroke-width:0.26458332px"
         id="path819"
         inkscape:connector-curvature="0" />
      <path
         d="m 32.046476,88.849689 v 35.793161 h 6.399609 v -11.83183 h 7.242968 c 7.242969,0 12.32793,-4.83692 12.32793,-11.98067 0,-7.143747 -4.936133,-11.980661 -12.055078,-11.980661 z m 6.399609,5.233789 h 5.829101 c 4.588867,0 7.242969,2.455664 7.242969,6.746872 0,4.34082 -2.678906,6.82129 -7.267773,6.82129 h -5.804297 z"
         style="stroke-width:0.26458332px"
         id="path821"
         inkscape:connector-curvature="0" />
      <path
         d="m 69.799212,120.40125 c -2.678907,0 -4.464844,-1.36426 -4.464844,-3.52226 0,-2.0836 1.711523,-3.42305 4.688086,-3.62149 l 6.077148,-0.37207 v 2.00918 c 0,3.175 -2.802929,5.50664 -6.30039,5.50664 z m -1.860352,4.66328 c 3.373438,0 6.672461,-1.76113 8.185547,-4.61367 h 0.124023 v 4.19199 h 5.953125 v -18.10742 c 0,-5.2834 -4.241601,-8.731249 -10.765234,-8.731249 -6.697265,0 -10.889258,3.522269 -11.162109,8.433589 h 5.729883 c 0.396875,-2.18281 2.257226,-3.59667 5.184179,-3.59667 3.050977,0 4.911328,1.5875 4.911328,4.34082 v 1.88515 l -6.945312,0.39688 c -6.399609,0.39687 -9.996289,3.1998 -9.996289,7.86308 0,4.7377 3.695898,7.9375 8.780859,7.9375 z"
         style="stroke-width:0.26458332px"
         id="path823"
         inkscape:connector-curvature="0" />
      <path
         d="m 97.009949,125.06453 c 3.844731,0 6.870901,-1.95957 8.309571,-4.91133 h 0.0992 v 4.48965 h 6.05234 V 88.849689 h -6.17637 v 13.915431 h -0.14882 c -1.38907,-2.90215 -4.36563,-4.86172 -8.135941,-4.86172 -6.622851,0 -10.914062,5.25859 -10.914062,13.56816 0,8.35918 4.291211,13.59297 10.914062,13.59297 z m 1.860352,-22.07617 c 3.894339,0 6.449219,3.34863 6.449219,8.50801 0,5.20898 -2.55488,8.50801 -6.449219,8.50801 -3.993555,0 -6.449219,-3.27422 -6.449219,-8.50801 0,-5.20899 2.480469,-8.50801 6.449219,-8.50801 z"
         style="stroke-width:0.26458332px"
         id="path825"
         inkscape:connector-curvature="0" />
      <path
         d="m 126.87479,124.64285 h 6.17637 v -16.09824 c 0,-3.175 2.08359,-5.48184 5.06016,-5.48184 2.87734,0 4.66328,1.81075 4.66328,4.7377 v 16.84238 h 6.00273 v -16.24707 c 0,-3.15019 2.03399,-5.33301 5.01055,-5.33301 3.02617,0 4.71289,1.83555 4.71289,5.06016 v 16.51992 h 6.17637 v -18.033 c 0,-5.2586 -3.39825,-8.756059 -8.58243,-8.756059 -3.79511,0 -6.9205,2.033984 -8.18554,5.283399 h -0.14883 c -0.96738,-3.373438 -3.62148,-5.283399 -7.34219,-5.283399 -3.57187,0 -6.35,2.009179 -7.49101,5.060159 h -0.12403 v -4.564066 h -5.92832 z"
         style="stroke-width:0.26458332px"
         id="path827"
         inkscape:connector-curvature="0" />
      <path
         d="m 169.7869,124.64285 h 6.17636 V 98.349884 h -6.17636 z m 3.07578,-29.740817 c 1.93476,0 3.44785,-1.488281 3.44785,-3.348633 0,-1.885156 -1.51309,-3.373437 -3.44785,-3.373437 -1.90996,0 -3.42305,1.488281 -3.42305,3.373437 0,1.860352 1.51309,3.348633 3.42305,3.348633 z"
         style="stroke-width:0.26458332px"
         id="path829"
         inkscape:connector-curvature="0" />
      <path
         d="m 181.14745,124.64285 h 6.17637 v -15.23008 c 0,-3.77031 2.25723,-6.32519 5.8043,-6.32519 3.52226,0 5.25859,2.08359 5.25859,5.8043 v 15.75097 h 6.17637 v -16.99121 c 0,-6.07715 -3.29903,-9.797849 -9.10332,-9.797849 -4.04317,0 -6.8461,1.885156 -8.25996,5.010549 h -0.12403 v -4.514456 h -5.92832 z"
         style="stroke-width:0.26458332px"
         id="path831"
         inkscape:connector-curvature="0" />
      <path
         d="m 209.67284,124.64285 h 6.17636 V 98.349884 h -6.17636 z m 3.07578,-29.740817 c 1.93476,0 3.44785,-1.488281 3.44785,-3.348633 0,-1.885156 -1.51309,-3.373437 -3.44785,-3.373437 -1.90996,0 -3.42305,1.488281 -3.42305,3.373437 0,1.860352 1.51309,3.348633 3.42305,3.348633 z"
         style="stroke-width:0.26458332px"
         id="path833"
         inkscape:connector-curvature="0" />
    </g>
  </g>
</svg>
