<svg xmlns="http://www.w3.org/2000/svg" width="1169.626" height="272.461" viewBox="0 0 1169.626 272.461">
  <g id="Group_1" data-name="Group 1" transform="translate(-417.48 -386)">
    <path id="Apple_logo_black" d="M241.46,216.329a148.131,148.131,0,0,1-14.649,26.337q-11.554,16.473-18.87,22.805-11.3,10.394-24.252,10.679c-6.206,0-13.69-1.766-22.4-5.348q-13.111-5.348-24.117-5.331-11.554,0-24.8,5.331-13.275,5.373-21.43,5.634-12.434.53-24.8-10.965-7.9-6.887-19.736-23.613A163.305,163.305,0,0,1,25.534,200.4q-8.756-25.5-8.764-49.408,0-27.389,11.848-47.2a69.5,69.5,0,0,1,24.815-25.1,66.755,66.755,0,0,1,33.549-9.467c6.584,0,15.219,2.037,25.949,6.039,10.7,4.016,17.57,6.053,20.582,6.053,2.252,0,9.884-2.381,22.822-7.129q18.353-6.6,31.021-5.508,34.385,2.775,51.6,27.166-30.752,18.633-30.441,52.139.278,26.077,18.887,43.338a62.065,62.065,0,0,0,18.87,12.378q-2.27,6.584-4.81,12.63ZM188.886,9.45q0,20.439-14.9,38.125c-11.974,14-26.458,22.089-42.165,20.812a42.422,42.422,0,0,1-.316-5.163c0-13.081,5.695-27.08,15.807-38.527a60.861,60.861,0,0,1,19.257-14.459Q178.224,4.558,188.6,4a49.49,49.49,0,0,1,.286,5.451Z" transform="translate(400.71 382.001)"/>
    <path id="Path_1" data-name="Path 1" d="M134.531-134.8h1.23L173.223,0h38.965l52.363-197.285H221.758L190.586-54.414h-1.094L152.578-197.285H117.715L80.8-54.414H79.707L48.672-197.285H5.879L58.105,0H97.07Zm270.853,0h1.23L444.076,0H483.04L535.4-197.285H492.611L461.439-54.414h-1.094L423.431-197.285H388.568L351.654-54.414H350.56L319.525-197.285H276.732L328.958,0h38.965Zm147.033-62.48V0h75.332c59.2,0,94.063-36.777,94.063-99.395s-34.863-97.891-94.062-97.891Zm41.289,34.043h29.121c36.367,0,56.875,22.7,56.875,63.984,0,42.656-19.961,65.078-56.875,65.078H593.706ZM826.29,3.418c48.4,0,82.168-27.891,86.816-71.914h-40.2c-4.375,23.379-22.012,37.734-46.484,37.734-31.582,0-51.406-25.977-51.406-68.086,0-41.562,20.1-67.676,51.27-67.676,24.063,0,42.656,15.859,46.484,40.059h40.2c-3.145-44.16-39.238-74.238-86.68-74.238-57.148,0-93.379,38.418-93.379,101.992C732.911-35,768.868,3.418,826.29,3.418Z" transform="translate(674 653)"/>
  </g>
</svg>
