<?xml version="1.0" encoding="utf-8"?>
<!-- Generator: Adobe Illustrator 16.0.3, SVG Export Plug-In . SVG Version: 6.00 Build 0)  -->
<!DOCTYPE svg PUBLIC "-//W3C//DTD SVG 1.1//EN" "http://www.w3.org/Graphics/SVG/1.1/DTD/svg11.dtd">
<svg version="1.1" id="Layer_1" xmlns="http://www.w3.org/2000/svg" xmlns:xlink="http://www.w3.org/1999/xlink" x="0px" y="0px"
	 width="1000px" height="1405.488px" viewBox="0 0 1000 1405.488" enable-background="new 0 0 1000 1405.488" xml:space="preserve">
<rect fill="#FFFFFF" stroke="#010101" stroke-width="6" stroke-miterlimit="10" width="1000" height="1405.488"/>
<path fill="#A8B9CC" d="M564.748,448.169c0,0-5.446-50.776-55.826-52.186s-76.254,38.083-76.254,94.5s28.595,101.553,77.614,101.553
	s54.466-56.417,54.466-56.417l93.953,5.641c0,0,5.532,50.954-33.784,89.829c-39.317,38.872-87.575,45.223-121.276,44.959
	c-33.7-0.269-80.427,0.528-125.612-45.752c-45.187-46.28-52.854-91.239-52.854-135.403c0-44.166,8.569-102.673,62.296-147.04
	c36.515-30.148,73.529-41.256,110.55-41.256c154.552,0,164.932,142.544,164.932,142.544L564.748,448.169z"/>
<g>
	<g>
		<path fill="#1B75B3" d="M400.974,207.588h51.648l0.083,17.922h-2.469c-0.806-6.41-3.127-10.749-6.954-13.013
			c-2.146-1.248-5.357-1.93-9.629-2.042v46.806c0,3.272,0.55,5.442,1.654,6.512c1.102,1.07,3.399,1.607,6.891,1.607v2.256H411.62
			v-2.256c3.351,0,5.578-0.542,6.686-1.628c1.102-1.083,1.651-3.248,1.651-6.492v-46.806c-4.185,0.112-7.4,0.794-9.63,2.042
			c-4.105,2.318-6.423,6.657-6.953,13.013h-2.473L400.974,207.588z"/>
		<path fill="#1B75B3" d="M463.48,265.381c2.291-0.111,3.909-0.446,4.857-0.996c1.597-0.93,2.387-2.678,2.387-5.252v-43.042
			c0-2.5-0.714-4.194-2.13-5.087c-0.87-0.516-2.573-0.904-5.114-1.165v-2.256h29.024v2.256c-2.509,0.144-4.26,0.491-5.233,1.033
			c-1.619,0.917-2.426,2.657-2.426,5.214v18.438h20.44v-18.438c0-2.557-0.771-4.281-2.306-5.172
			c-0.948-0.546-2.722-0.906-5.321-1.075v-2.256h29.192v2.256c-2.51,0.198-4.229,0.574-5.149,1.119
			c-1.54,0.897-2.303,2.604-2.303,5.132v43.042c0,2.599,0.852,4.363,2.554,5.293c0.975,0.549,2.613,0.868,4.898,0.955v2.256h-29.192
			v-2.256c2.457-0.087,4.205-0.434,5.237-1.042c1.592-0.925,2.39-2.661,2.39-5.202v-20.479h-20.44v20.479
			c0,2.632,0.861,4.409,2.594,5.334c1.006,0.521,2.696,0.826,5.065,0.909v2.256H463.48V265.381z"/>
		<path fill="#1B75B3" d="M536.045,267.638v-2.256c2.461-0.087,4.205-0.434,5.236-1.042c1.594-0.925,2.391-2.661,2.391-5.202
			v-43.042c0-2.587-0.825-4.322-2.468-5.215c-0.95-0.541-2.669-0.889-5.159-1.033v-2.251h49.431v17.917h-2.095
			c-1.092-5.727-2.938-9.648-5.549-11.76c-2.612-2.112-7.364-3.169-14.262-3.169c-2.624,0-4.291,0.284-5.006,0.847
			c-0.712,0.566-1.074,1.686-1.074,3.363v20.566c4.888,0.058,8.202-0.859,9.936-2.756c1.729-1.888,3.059-5.355,3.976-10.393h2.179
			v30.029h-2.18c-0.609-5.062-1.862-8.628-3.744-10.698c-1.89-2.066-5.274-3.103-10.157-3.103v21.52c0,1.88,0.466,3.162,1.403,3.842
			c0.934,0.682,2.856,1.021,5.762,1.021c5.472,0,9.94-1.1,13.399-3.298c3.462-2.194,6.538-6.318,9.22-12.363h2.384l-3.478,18.483
			h-50.146L536.045,267.638L536.045,267.638z"/>
	</g>
</g>
<g>
	<g>
		<path fill="#1B75B3" d="M142.125,771.558c2.816-0.202,4.715-0.813,5.672-1.843c0.966-1.025,1.449-3.116,1.449-6.272v-39.307
			c0-3.338-0.491-5.445-1.469-6.321c-0.977-0.881-2.864-1.479-5.652-1.794v-2.257h27.601c7.316,0,12.882,1.231,16.691,3.687
			c3.818,2.463,5.721,6.686,5.721,12.67c0,2.925-0.746,5.665-2.238,8.223c-1.496,2.558-3.958,4.619-7.396,6.183
			c-2.597,1.099-5.19,1.768-7.787,2c-2.601,0.234-6.451,0.347-11.561,0.347v16.569c0,3.272,0.53,5.413,1.592,6.426
			c1.061,1.013,3.043,1.579,5.948,1.69v2.256h-28.567v-2.256H142.125L142.125,771.558z M173.372,741.967
			c2.708-1.793,4.065-5.657,4.065-11.578c0-4.05-0.659-7.322-1.971-9.811c-1.312-2.487-3.83-3.728-7.54-3.728
			c-1.704,0-2.928,0.207-3.666,0.628c-0.742,0.423-1.109,1.235-1.109,2.447v23.867C168.261,743.703,171.668,743.095,173.372,741.967
			z"/>
		<path fill="#1B75B3" d="M196.414,771.558c2.904-0.145,4.887-0.711,5.949-1.69c1.06-0.983,1.591-3.123,1.591-6.425v-39.307
			c0-3.425-0.626-5.651-1.883-6.693c-0.838-0.687-2.725-1.161-5.653-1.421v-2.258h27.602c5.724,0,10.359,0.62,13.906,1.868
			c6.869,2.512,10.3,7.041,10.3,13.578c0,4.831-1.795,8.636-5.394,11.413c-2.748,2.083-5.665,3.414-8.736,3.988l18.235,25.297
			c0.471,0.693,0.974,1.145,1.504,1.367c0.53,0.215,1.188,0.355,1.97,0.414v2.123h-17.899l-20.014-27.764h-0.036v17.394
			c0,3.124,0.502,5.23,1.508,6.312c1.005,1.086,3.016,1.687,6.032,1.802v2.256H196.41v-2.256L196.414,771.558L196.414,771.558z
			 M229.899,740.732c2.414-1.542,3.623-5.129,3.623-10.74c0-3.438-0.462-6.161-1.38-8.157c-1.592-3.385-4.496-5.079-8.713-5.079
			c-2.294,0-3.793,0.298-4.507,0.894c-0.711,0.599-1.065,1.569-1.065,2.925v22.606C223.473,743.095,227.486,742.277,229.899,740.732
			z"/>
		<path fill="#1B75B3" d="M313.697,721.095c5.892,5.935,8.84,13.57,8.84,22.909c0,9.347-2.944,16.983-8.84,22.909
			c-5.753,5.785-12.941,8.678-21.574,8.678c-9.155,0-16.631-3.166-22.407-9.5c-5.39-5.958-8.086-13.157-8.086-21.604
			c0-9.314,2.821-16.972,8.461-22.955c5.697-6.074,13.037-9.111,22.032-9.111C300.78,712.418,307.973,715.31,313.697,721.095z
			 M305.36,760.756c1.28-4.281,1.926-9.868,1.926-16.752c0-9.455-1.36-16.587-4.089-21.388c-2.729-4.807-6.422-7.202-11.093-7.202
			c-6.487,0-10.935,4-13.341,12.02c-1.26,4.248-1.886,9.777-1.886,16.57c0,6.917,0.642,12.496,1.926,16.752
			c2.378,7.893,6.81,11.842,13.296,11.842C298.538,772.599,302.954,768.648,305.36,760.756z"/>
		<path fill="#1B75B3" d="M338.877,721.963c5.701-6.215,12.969-9.326,21.821-9.326c3.546,0,7.081,0.69,10.599,2.062
			c3.516,1.371,5.708,2.053,6.574,2.053c0.926,0,1.664-0.326,2.218-0.992c0.555-0.666,1.021-1.677,1.38-3.036h2.387v20.78h-2.18
			c-2.065-4.508-4.172-8.07-6.322-10.673c-4.017-4.801-8.572-7.198-13.654-7.198c-5.529,0-9.562,2.487-12.104,7.463
			c-2.541,4.979-3.81,11.976-3.81,21c0,7.405,1.177,14.014,3.538,19.811c2.356,5.797,6.918,8.698,13.679,8.698
			c3.659,0,6.116-0.794,7.373-2.386c0.726-0.893,1.089-2.256,1.089-4.073v-9.376c0-2.694-0.793-4.454-2.385-5.298
			c-1.033-0.521-3.128-0.806-6.279-0.868v-2.251h29.401v2.251c-2.96,0.115-4.923,0.739-5.884,1.852
			c-0.962,1.112-1.449,3.203-1.449,6.264v11.327c-1.899,1.214-4.97,2.426-9.214,3.642c-4.245,1.214-8.992,1.83-14.242,1.83
			c-9.519,0-17.13-3.111-22.826-9.33c-5.306-5.814-7.955-13.108-7.955-21.868C330.624,735.459,333.376,728.013,338.877,721.963z"/>
		<path fill="#1B75B3" d="M397.475,771.558c2.904-0.145,4.888-0.711,5.948-1.69c1.064-0.983,1.597-3.123,1.597-6.425v-39.307
			c0-3.425-0.631-5.651-1.888-6.693c-0.833-0.687-2.721-1.161-5.651-1.421v-2.258h27.602c5.725,0,10.36,0.62,13.906,1.868
			c6.87,2.512,10.304,7.041,10.304,13.578c0,4.831-1.799,8.636-5.397,11.413c-2.748,2.083-5.66,3.414-8.732,3.988l18.23,25.297
			c0.476,0.693,0.979,1.145,1.509,1.367c0.525,0.215,1.188,0.355,1.966,0.414v2.123h-17.9l-20.014-27.764h-0.036v17.394
			c0,3.124,0.503,5.23,1.507,6.312c1.006,1.086,3.018,1.687,6.036,1.802v2.256h-28.989v-2.256L397.475,771.558L397.475,771.558z
			 M430.964,740.732c2.414-1.542,3.623-5.129,3.623-10.74c0-3.438-0.458-6.161-1.38-8.157c-1.591-3.385-4.496-5.079-8.712-5.079
			c-2.294,0-3.79,0.298-4.508,0.894c-0.71,0.599-1.065,1.569-1.065,2.925v22.606C424.534,743.095,428.551,742.277,430.964,740.732z"
			/>
		<path fill="#1B75B3" d="M461.482,771.558c2.065-0.145,3.729-1.115,4.981-2.909c0.811-1.127,1.971-3.615,3.479-7.468l19.061-48.631
			h2.387l19.14,46.682c2.154,5.234,3.759,8.611,4.822,10.136c1.062,1.513,2.569,2.248,4.521,2.189v2.257h-27.769v-2.257
			c2.796-0.111,4.631-0.363,5.513-0.735c0.878-0.38,1.315-1.327,1.315-2.868c0-0.693-0.223-1.748-0.667-3.165
			c-0.277-0.839-0.656-1.854-1.132-3.037l-2.183-5.38h-19.26c-1.258,3.529-2.066,5.831-2.431,6.896
			c-0.757,2.289-1.133,3.955-1.133,4.996c0,1.272,0.827,2.198,2.473,2.773c0.975,0.318,2.442,0.492,4.397,0.521v2.256h-17.505
			v-2.256L461.482,771.558L461.482,771.558z M493.688,752.855l-8.255-20.559h-0.718l-7.747,20.559H493.688z"/>
		<path fill="#1B75B3" d="M524.942,771.558c3.268-0.028,5.39-0.625,6.37-1.802c0.975-1.169,1.465-2.925,1.465-5.272V722.27
			c0-2.413-0.562-4-1.681-4.76c-1.112-0.765-3.096-1.257-5.942-1.492v-2.256h21.609l16.887,41.137h0.71l16.781-41.137h21.626v2.256
			c-2.903,0.235-4.883,0.79-5.946,1.666c-1.062,0.876-1.593,3.028-1.593,6.45v39.307c0,3.271,0.53,5.413,1.593,6.425
			c1.063,1.013,3.043,1.578,5.946,1.689v2.256h-28.481v-2.256c2.54-0.087,4.451-0.528,5.74-1.317
			c1.275-0.798,1.923-2.542,1.923-5.231v-43.43h-0.626l-21.024,52.239h-2.301l-21.234-51.198h-0.384v40.177
			c0,2.959,0.536,5.128,1.601,6.492c1.057,1.368,3.402,2.124,7.036,2.269v2.256h-20.064v-2.252L524.942,771.558L524.942,771.558z"/>
		<path fill="#1B75B3" d="M607.8,771.558c3.268-0.028,5.388-0.625,6.365-1.802c0.978-1.169,1.469-2.925,1.469-5.272V722.27
			c0-2.413-0.562-4-1.676-4.76c-1.12-0.765-3.104-1.257-5.952-1.492v-2.256h21.615l16.881,41.137h0.71L664,713.761h21.626v2.256
			c-2.905,0.235-4.888,0.79-5.948,1.666c-1.062,0.876-1.594,3.028-1.594,6.45v39.307c0,3.271,0.532,5.412,1.594,6.425
			s3.043,1.578,5.948,1.689v2.256h-28.483v-2.256c2.536-0.087,4.451-0.528,5.734-1.317c1.282-0.799,1.928-2.542,1.928-5.231v-43.43
			h-0.625l-21.022,52.239h-2.304l-21.237-51.198h-0.379v40.177c0,2.959,0.53,5.128,1.596,6.492c1.061,1.368,3.403,2.124,7.04,2.269
			v2.256h-20.065v-2.252H607.8L607.8,771.558z"/>
		<path fill="#1B75B3" d="M690.859,771.558c2.433-0.058,4.172-0.363,5.236-0.909c1.731-0.926,2.598-2.707,2.598-5.339v-43.04
			c0-2.611-0.825-4.363-2.475-5.257c-1.005-0.545-2.792-0.876-5.356-0.991v-2.257h29.991v2.257c-2.68,0.115-4.521,0.435-5.529,0.954
			c-1.675,0.89-2.514,2.653-2.514,5.298v43.04c0,2.488,0.672,4.146,2.012,4.992c1.336,0.834,3.347,1.256,6.031,1.256v2.257h-29.991
			v-2.261H690.859L690.859,771.558z"/>
		<path fill="#1B75B3" d="M726.133,771.558c3.184-0.087,5.237-0.716,6.158-1.885c0.925-1.169,1.381-2.901,1.381-5.189v-42.082
			c-2.625-3.041-4.24-4.827-4.855-5.359c-0.614-0.533-1.446-0.876-2.514-1.021v-2.258h18.184l29.487,37.124h0.42v-26.103
			c0-3.008-0.526-5.153-1.579-6.442c-1.062-1.289-3.168-2.058-6.34-2.322v-2.257h18.436v2.257c-2.683,0.464-4.479,1.078-5.382,1.855
			c-0.91,0.772-1.359,2.516-1.359,5.215v52.367h-2.391l-37.741-47.507h-0.583v34.834c0,2.735,0.357,4.669,1.085,5.798
			c1.146,1.839,3.491,2.822,7.041,2.966v2.256h-19.44v-2.248L726.133,771.558L726.133,771.558z"/>
		<path fill="#1B75B3" d="M799.98,721.963c5.694-6.215,12.969-9.326,21.82-9.326c3.547,0,7.079,0.69,10.604,2.062
			c3.519,1.371,5.705,2.053,6.574,2.053c0.916,0,1.659-0.326,2.219-0.992c0.559-0.666,1.017-1.677,1.379-3.036h2.391v20.78h-2.174
			c-2.07-4.508-4.177-8.07-6.328-10.673c-4.016-4.801-8.577-7.198-13.658-7.198c-5.529,0-9.562,2.487-12.104,7.463
			c-2.539,4.979-3.812,11.976-3.812,21c0,7.405,1.182,14.014,3.538,19.811c2.357,5.797,6.918,8.698,13.681,8.698
			c3.657,0,6.113-0.794,7.371-2.386c0.727-0.893,1.093-2.256,1.093-4.073v-9.376c0-2.694-0.792-4.454-2.395-5.298
			c-1.031-0.521-3.127-0.806-6.273-0.868v-2.251h29.396v2.251c-2.961,0.115-4.915,0.739-5.881,1.852
			c-0.962,1.112-1.448,3.203-1.448,6.264v11.327c-1.897,1.214-4.971,2.426-9.214,3.642c-4.246,1.214-8.992,1.83-14.237,1.83
			c-9.522,0-17.135-3.111-22.834-9.33c-5.307-5.814-7.951-13.108-7.951-21.868C791.73,735.459,794.479,728.013,799.98,721.963z"/>
		<path fill="#1B75B3" d="M243.327,860.416c2.342-0.086,4.018-0.405,5.023-0.954c1.704-0.93,2.554-2.689,2.554-5.302v-43.032
			c0-2.587-0.811-4.323-2.43-5.215c-0.95-0.545-2.669-0.888-5.15-1.033v-2.256h29.991v2.256c-3.491,0.116-5.816,0.62-6.977,1.512
			c-1.161,0.894-1.735,3.087-1.735,6.604v41.991c0,1.976,0.495,3.272,1.484,3.913c0.994,0.637,2.928,0.959,5.8,0.959
			c5.171,0,9.503-1.183,13.009-3.537c3.499-2.355,6.527-6.95,9.068-13.777h2.513l-3.479,20.132h-49.674v-2.261L243.327,860.416
			L243.327,860.416z"/>
		<path fill="#1B75B3" d="M302.946,860.416c2.066-0.145,3.729-1.115,4.982-2.909c0.811-1.128,1.972-3.616,3.476-7.467l19.061-48.632
			h2.385l19.145,46.682c2.149,5.235,3.755,8.611,4.814,10.136c1.062,1.513,2.569,2.248,4.524,2.189v2.257h-27.77v-2.257
			c2.791-0.111,4.627-0.363,5.508-0.735c0.878-0.38,1.32-1.326,1.32-2.867c0-0.694-0.227-1.748-0.67-3.166
			c-0.278-0.84-0.657-1.855-1.133-3.037l-2.182-5.38h-19.259c-1.258,3.528-2.067,5.831-2.431,6.896
			c-0.753,2.29-1.128,3.955-1.128,4.996c0,1.271,0.822,2.198,2.47,2.771c0.978,0.319,2.441,0.492,4.4,0.521v2.257H302.95v-2.257
			h-0.004V860.416z M335.146,841.714l-8.25-20.557h-0.722l-7.744,20.557H335.146z"/>
		<path fill="#1B75B3" d="M367.128,860.416c3.185-0.086,5.238-0.715,6.156-1.884c0.925-1.169,1.381-2.901,1.381-5.19V811.26
			c-2.626-3.042-4.245-4.826-4.855-5.359c-0.613-0.533-1.451-0.875-2.513-1.021v-2.256h18.179l29.488,37.124h0.423v-26.104
			c0-3.008-0.53-5.152-1.588-6.441c-1.057-1.286-3.164-2.059-6.331-2.322v-2.256h18.432v2.256c-2.678,0.463-4.477,1.079-5.378,1.855
			c-0.913,0.771-1.36,2.517-1.36,5.214v52.367h-2.386l-37.742-47.508h-0.59v34.833c0,2.736,0.361,4.67,1.093,5.797
			c1.145,1.84,3.487,2.823,7.038,2.968v2.256h-19.437v-2.248L367.128,860.416L367.128,860.416z"/>
		<path fill="#1B75B3" d="M441.496,810.822c5.697-6.215,12.969-9.327,21.821-9.327c3.547,0,7.082,0.689,10.596,2.062
			c3.518,1.372,5.712,2.054,6.578,2.054c0.921,0,1.663-0.326,2.217-0.992c0.555-0.665,1.022-1.678,1.38-3.038h2.387v20.781h-2.179
			c-2.065-4.509-4.172-8.07-6.323-10.674c-4.017-4.802-8.572-7.197-13.654-7.197c-5.529,0-9.562,2.486-12.104,7.463
			c-2.541,4.979-3.812,11.974-3.812,21c0,7.404,1.181,14.012,3.543,19.81c2.356,5.797,6.917,8.698,13.678,8.698
			c3.659,0,6.116-0.793,7.373-2.384c0.726-0.894,1.089-2.256,1.089-4.075v-9.376c0-2.694-0.794-4.455-2.385-5.297
			c-1.034-0.521-3.128-0.806-6.279-0.868v-2.252h29.4v2.252c-2.959,0.115-4.922,0.739-5.885,1.852
			c-0.961,1.111-1.447,3.201-1.447,6.264v11.326c-1.899,1.215-4.973,2.426-9.215,3.641c-4.245,1.215-8.992,1.831-14.241,1.831
			c-9.523,0-17.13-3.111-22.827-9.33c-5.306-5.813-7.955-13.106-7.955-21.868C433.242,824.317,435.995,816.871,441.496,810.822z"/>
		<path fill="#1B75B3" d="M529.599,802.624v2.256c-3.322,0.116-5.541,0.648-6.661,1.595c-1.113,0.955-1.677,3.124-1.677,6.521
			v29.777c0,4.52,0.52,8.012,1.554,10.475c1.873,4.574,5.46,6.863,10.767,6.863c6.59,0,11.041-2.529,13.358-7.596
			c1.28-2.78,1.927-6.673,1.927-11.686v-27.187c0-3.182-0.565-5.376-1.694-6.574c-1.13-1.198-3.343-1.931-6.638-2.194v-2.256h18.846
			v2.256c-2.738,0.549-4.541,1.223-5.422,2.021c-0.882,0.793-1.316,2.628-1.316,5.487v28.421c0,7.549-1.768,13.379-5.28,17.487
			c-3.521,4.107-9.049,6.157-16.588,6.157c-9.861,0-16.602-3.05-20.233-9.161c-1.927-3.244-2.889-7.425-2.889-12.549v-29.744
			c0-3.338-0.429-5.438-1.276-6.307c-0.85-0.854-2.773-1.463-5.757-1.81v-2.256L529.599,802.624L529.599,802.624z"/>
		<path fill="#1B75B3" d="M565.131,860.416c2.065-0.145,3.729-1.115,4.989-2.909c0.808-1.128,1.967-3.616,3.479-7.467l19.057-48.632
			h2.391l19.14,46.682c2.15,5.235,3.758,8.611,4.824,10.136c1.058,1.513,2.563,2.248,4.519,2.189v2.257h-27.771v-2.257
			c2.796-0.111,4.631-0.363,5.513-0.735c0.879-0.38,1.316-1.326,1.316-2.867c0-0.694-0.228-1.748-0.666-3.166
			c-0.284-0.84-0.658-1.855-1.133-3.037l-2.183-5.38h-19.261c-1.261,3.528-2.069,5.831-2.434,6.896
			c-0.758,2.29-1.13,3.955-1.13,4.996c0,1.271,0.823,2.198,2.472,2.771c0.972,0.319,2.438,0.492,4.396,0.521v2.257h-17.51v-2.257
			h-0.008V860.416z M597.335,841.714l-8.25-20.557h-0.722l-7.747,20.557H597.335z"/>
		<path fill="#1B75B3" d="M639.326,810.822c5.701-6.215,12.969-9.327,21.82-9.327c3.547,0,7.081,0.689,10.604,2.062
			c3.518,1.372,5.704,2.054,6.574,2.054c0.922,0,1.659-0.326,2.217-0.992c0.559-0.665,1.018-1.678,1.382-3.038h2.389v20.781h-2.174
			c-2.065-4.509-4.177-8.07-6.328-10.674c-4.016-4.802-8.575-7.197-13.657-7.197c-5.529,0-9.562,2.486-12.104,7.463
			c-2.541,4.979-3.812,11.974-3.812,21c0,7.404,1.18,14.012,3.543,19.81c2.354,5.797,6.913,8.698,13.675,8.698
			c3.658,0,6.114-0.793,7.371-2.384c0.727-0.894,1.094-2.256,1.094-4.075v-9.376c0-2.694-0.794-4.455-2.39-5.297
			c-1.033-0.521-3.132-0.806-6.279-0.868v-2.252h29.396v2.252c-2.961,0.115-4.916,0.739-5.881,1.852
			c-0.961,1.111-1.442,3.201-1.442,6.264v11.326c-1.904,1.215-4.976,2.426-9.222,3.641c-4.239,1.215-8.986,1.831-14.235,1.831
			c-9.522,0-17.135-3.111-22.831-9.33c-5.311-5.813-7.954-13.106-7.954-21.868C631.076,824.317,633.824,816.871,639.326,810.822z"/>
		<path fill="#1B75B3" d="M698.446,862.673v-2.257c2.457-0.086,4.2-0.434,5.232-1.041c1.598-0.925,2.391-2.661,2.391-5.203v-43.041
			c0-2.587-0.825-4.322-2.469-5.215c-0.949-0.545-2.669-0.888-5.154-1.033v-2.252h49.427v17.914h-2.091
			c-1.098-5.729-2.943-9.646-5.553-11.756c-2.608-2.112-7.364-3.169-14.263-3.169c-2.624,0-4.291,0.285-5.006,0.847
			c-0.711,0.566-1.069,1.686-1.069,3.363v20.565c4.884,0.058,8.197-0.859,9.931-2.757c1.729-1.889,3.06-5.359,3.977-10.392h2.179
			v30.028h-2.179c-0.609-5.059-1.863-8.624-3.745-10.693c-1.888-2.066-5.273-3.1-10.157-3.1v21.524c0,1.872,0.467,3.153,1.403,3.835
			c0.935,0.682,2.856,1.021,5.763,1.021c5.472,0,9.94-1.101,13.398-3.298c3.463-2.193,6.538-6.317,9.219-12.367h2.386l-3.479,18.483
			h-50.141V862.673z"/>
	</g>
</g>
<g>
	<g>
		<path fill="#1B75B3" d="M38.731,1131.306c1.971-0.114,3.248-0.434,3.826-0.954c0.579-0.517,0.87-1.715,0.87-3.611v-22.586
			c0-1.868-0.291-3.074-0.87-3.611c-0.578-0.537-1.855-0.854-3.826-0.955v-0.944h13.728c3.921,0,7.033,0.651,9.338,1.962
			c2.298,1.31,3.455,3.558,3.455,6.753c0,2.393-0.806,4.219-2.417,5.457c-0.91,0.712-2.274,1.303-4.093,1.766
			c2.25,0.562,4.173,1.496,5.769,2.811c1.595,1.311,2.394,3.147,2.394,5.513c0,3.962-1.767,6.686-5.31,8.173
			c-1.867,0.781-4.165,1.165-6.889,1.165H38.727v-0.934h0.004V1131.306z M57.166,1112.885c2.075-0.99,3.112-2.777,3.112-5.344
			c0-3.028-1.197-5.073-3.59-6.135c-1.325-0.579-3.335-0.869-6.036-0.869c-1.021,0-1.647,0.092-1.891,0.273
			c-0.24,0.182-0.359,0.677-0.359,1.49v11.478l4.671-0.075C54.72,1113.67,56.084,1113.396,57.166,1112.885z M58.745,1128.901
			c1.691-1.01,2.538-2.942,2.538-5.804c0-2.842-0.99-4.783-2.972-5.824c-1.979-1.042-4.5-1.562-7.563-1.562c-0.75,0-1.225,0-1.424,0
			c-0.203,0-0.506-0.007-0.925-0.023v12.645c0,0.875,0.243,1.441,0.722,1.693c0.475,0.257,1.588,0.389,3.322,0.389
			C54.956,1130.413,57.054,1129.909,58.745,1128.901z"/>
		<path fill="#1B75B3" d="M74.215,1131.429c1.468-0.127,2.441-0.399,2.92-0.8c0.479-0.401,0.718-1.27,0.718-2.591v-11.183
			c0-1.642-0.147-2.806-0.438-3.509c-0.295-0.703-0.833-1.054-1.62-1.054c-0.159,0-0.371,0.021-0.634,0.062
			c-0.259,0.041-0.538,0.095-0.822,0.16v-0.812c0.906-0.331,1.832-0.67,2.792-1.019c0.954-0.347,1.612-0.6,1.979-0.742
			c0.791-0.314,1.616-0.67,2.458-1.067c0.111,0,0.18,0.041,0.203,0.12c0.028,0.084,0.04,0.261,0.04,0.521v4.066
			c1.025-1.471,2.006-2.619,2.964-3.441c0.958-0.827,1.939-1.24,2.964-1.24c0.818,0,1.48,0.253,1.991,0.757
			c0.514,0.504,0.77,1.137,0.77,1.896c0,0.674-0.195,1.247-0.591,1.708c-0.391,0.462-0.881,0.693-1.472,0.693
			c-0.602,0-1.217-0.285-1.827-0.866c-0.614-0.58-1.101-0.869-1.448-0.869c-0.559,0-1.245,0.468-2.059,1.4
			c-0.814,0.938-1.221,1.896-1.221,2.893v11.183c0,1.422,0.319,2.408,0.958,2.963c0.634,0.554,1.7,0.812,3.18,0.781v0.817h-11.8
			v-0.828H74.215z"/>
		<path fill="#1B75B3" d="M94.716,1131.555c1.708-0.166,2.785-0.464,3.232-0.904c0.442-0.441,0.667-1.623,0.667-3.56v-11.826
			c0-1.073-0.072-1.821-0.216-2.229c-0.239-0.679-0.742-1.018-1.508-1.018c-0.175,0-0.347,0.017-0.515,0.055
			c-0.167,0.031-0.65,0.165-1.444,0.396v-0.769l1.029-0.348c2.792-0.946,4.739-1.656,5.841-2.138
			c0.446-0.198,0.733-0.293,0.861-0.293c0.032,0.112,0.047,0.239,0.047,0.372v17.801c0,1.885,0.224,3.066,0.659,3.546
			c0.438,0.479,1.436,0.784,2.98,0.918v0.694H94.716V1131.555z M98.518,1098.401c0.474-0.51,1.069-0.766,1.771-0.766
			c0.686,0,1.277,0.252,1.759,0.752c0.486,0.504,0.734,1.116,0.734,1.839c0,0.707-0.248,1.314-0.734,1.819
			c-0.482,0.503-1.073,0.752-1.759,0.752c-0.703,0-1.289-0.253-1.771-0.752c-0.483-0.505-0.722-1.112-0.722-1.819
			S98.039,1098.909,98.518,1098.401z"/>
		<path fill="#1B75B3" d="M116.07,1121.314c1.464-0.992,4.396-2.34,8.78-4.041v-2.108c0-1.683-0.155-2.859-0.475-3.521
			c-0.546-1.107-1.667-1.662-3.375-1.662c-0.814,0-1.592,0.217-2.321,0.642c-0.734,0.446-1.102,1.059-1.102,1.839
			c0,0.199,0.04,0.533,0.116,1.005c0.08,0.466,0.12,0.772,0.12,0.904c0,0.926-0.295,1.569-0.886,1.935
			c-0.335,0.215-0.733,0.318-1.197,0.318c-0.718,0-1.269-0.245-1.651-0.732c-0.379-0.482-0.574-1.024-0.574-1.624
			c0-1.151,0.69-2.365,2.07-3.628c1.38-1.264,3.403-1.896,6.068-1.896c3.096,0,5.19,1.04,6.295,3.124
			c0.591,1.141,0.885,2.798,0.885,4.982v9.942c0,0.963,0.064,1.619,0.191,1.984c0.208,0.643,0.639,0.969,1.293,0.969
			c0.367,0,0.67-0.058,0.91-0.173c0.24-0.115,0.654-0.396,1.244-0.844v1.289c-0.51,0.646-1.061,1.176-1.647,1.588
			c-0.897,0.627-1.803,0.946-2.729,0.946c-1.09,0-1.871-0.364-2.358-1.092c-0.486-0.728-0.757-1.595-0.801-2.604
			c-1.213,1.093-2.25,1.9-3.112,2.432c-1.453,0.893-2.833,1.334-4.145,1.334c-1.373,0-2.561-0.5-3.566-1.496
			c-1.006-1-1.508-2.27-1.508-3.804C112.596,1124.918,113.757,1122.918,116.07,1121.314z M124.851,1118.514
			c-1.831,0.626-3.346,1.321-4.543,2.081c-2.297,1.474-3.451,3.142-3.451,5.01c0,1.504,0.479,2.61,1.44,3.322
			c0.623,0.462,1.316,0.693,2.083,0.693c1.057,0,2.062-0.306,3.028-0.917c0.966-0.612,1.444-1.389,1.444-2.331L124.851,1118.514
			L124.851,1118.514z"/>
		<path fill="#1B75B3" d="M136.882,1131.555c1.133-0.149,1.931-0.438,2.381-0.882c0.456-0.438,0.683-1.417,0.683-2.938v-12.595
			c0-1.051-0.092-1.784-0.284-2.215c-0.303-0.615-0.929-0.935-1.867-0.935c-0.144,0-0.291,0.01-0.443,0.024
			c-0.151,0.017-0.339,0.047-0.562,0.077v-0.866c0.654-0.197,2.202-0.711,4.644-1.537l2.25-0.77c0.111,0,0.18,0.041,0.203,0.12
			c0.028,0.082,0.04,0.201,0.04,0.347v3.646c1.46-1.423,2.613-2.396,3.439-2.928c1.245-0.805,2.533-1.21,3.874-1.21
			c1.081,0,2.07,0.317,2.96,0.967c1.719,1.257,2.581,3.497,2.581,6.72v11.578c0,1.189,0.231,2.051,0.69,2.579
			c0.459,0.529,1.225,0.797,2.303,0.813v0.694h-10.222v-0.694c1.166-0.166,1.975-0.5,2.442-1c0.467-0.505,0.694-1.604,0.694-3.284
			v-10.587c0-1.423-0.25-2.601-0.762-3.533c-0.51-0.938-1.448-1.4-2.812-1.4c-0.934,0-1.887,0.33-2.857,0.987
			c-0.539,0.384-1.236,1.009-2.094,1.884v13.885c0,1.188,0.255,1.987,0.77,2.389c0.515,0.404,1.316,0.624,2.417,0.656v0.694h-10.459
			v-0.688H136.882L136.882,1131.555z"/>
		<path fill="#1B75B3" d="M191,1098.652v0.941c-0.974,0.034-1.667,0.125-2.083,0.271c-0.734,0.28-1.105,0.797-1.105,1.537
			c0,0.331,0.048,0.652,0.132,0.972c0.087,0.312,0.219,0.719,0.399,1.214l7.084,19.092l5.188-14.229l-2.297-6.224
			c-0.427-1.131-1.077-1.88-1.938-2.261c-0.511-0.229-1.285-0.354-2.322-0.372v-0.941h13.124v0.941
			c-1.228,0.019-2.074,0.108-2.537,0.271c-0.734,0.28-1.101,0.858-1.101,1.735c0,0.298,0.032,0.558,0.091,0.784
			c0.064,0.224,0.228,0.683,0.479,1.376l7.084,19.041l6.131-17.23c0.351-0.975,0.591-1.848,0.718-2.604
			c0.079-0.43,0.12-0.776,0.12-1.042c0-0.941-0.431-1.595-1.292-1.959c-0.479-0.214-1.197-0.338-2.154-0.372v-0.941h9.738v0.941
			c-0.878,0.135-1.548,0.341-2.011,0.616c-0.83,0.479-1.448,1.311-1.867,2.484l-5.134,15.135l-1.979,5.844l-3.108,9.165h-0.762
			l-2.138-5.807l-5.673-15.645l-7.535,21.45h-0.738l-3.658-10.513l-4.133-11.903c-1.708-4.909-2.896-7.918-3.574-9.034
			c-0.678-1.11-1.735-1.709-3.171-1.793v-0.942L191,1098.652L191,1098.652z"/>
		<path fill="#1B75B3" d="M230.015,1132.012c-0.527-0.553-0.786-1.218-0.786-1.999c0-0.775,0.264-1.438,0.803-1.981
			c0.533-0.547,1.172-0.814,1.926-0.814c0.75,0,1.388,0.27,1.915,0.814c0.526,0.545,0.79,1.206,0.79,1.981
			c0,0.781-0.259,1.446-0.778,1.999c-0.519,0.557-1.161,0.827-1.926,0.827C231.188,1132.839,230.541,1132.567,230.015,1132.012z"/>
		<path fill="#1B75B3" d="M256.216,1131.38c1.994-0.165,3.231-0.532,3.71-1.105c0.478-0.572,0.719-1.932,0.719-4.083v-22.023
			c0-1.844-0.265-3.025-0.798-3.562c-0.534-0.545-1.748-0.875-3.63-1.01v-0.944h13.954v0.944c-1.915,0.097-3.147,0.432-3.706,0.987
			c-0.562,0.563-0.838,1.753-0.838,3.571v10.409c3.02-2.669,5.485-4.935,7.4-6.807c3.435-3.38,5.154-5.551,5.154-6.505
			c0-0.674-0.291-1.119-0.878-1.331c-0.583-0.21-1.408-0.321-2.478-0.321v-0.941h12.846v0.941c-1.568,0.161-2.8,0.473-3.698,0.938
			c-0.91,0.467-2.154,1.488-3.758,3.058l-9.566,9.191l11.672,13.062c2.126,2.348,3.57,3.811,4.336,4.396
			c0.77,0.584,1.895,0.963,3.379,1.146v0.868H275.04v-0.868c1.361-0.05,2.278-0.16,2.756-0.334c0.478-0.175,0.723-0.518,0.723-1.033
			c0-0.277-0.156-0.71-0.467-1.293c-0.312-0.579-0.803-1.248-1.477-2.01l-9.438-10.569l-1.512,1.456v9.188
			c0,1.89,0.275,3.087,0.826,3.587c0.55,0.509,1.751,0.844,3.603,1.009v0.868H256.22v-0.877L256.216,1131.38L256.216,1131.38z"/>
		<path fill="#1B75B3" d="M311.304,1111.41c1.691,1.609,2.537,3.896,2.537,6.854h-15.199c0.156,3.822,0.993,6.607,2.509,8.364
			c1.516,1.743,3.315,2.619,5.386,2.619c1.675,0,3.087-0.454,4.236-1.359c1.148-0.904,2.21-2.193,3.184-3.854l0.837,0.289
			c-0.654,2.105-1.883,4.049-3.674,5.838c-1.795,1.79-3.997,2.683-6.594,2.683c-3,0-5.317-1.171-6.953-3.521
			c-1.631-2.348-2.454-5.046-2.454-8.108c0-3.318,0.95-6.188,2.848-8.599c1.899-2.414,4.368-3.62,7.417-3.62
			C307.646,1108.993,309.612,1109.798,311.304,1111.41z M299.839,1113.308c-0.511,0.892-0.882,2.017-1.105,3.371h10.101
			c-0.175-1.657-0.474-2.891-0.91-3.693c-0.782-1.455-2.09-2.188-3.925-2.188C302.185,1110.802,300.795,1111.637,299.839,1113.308z"
			/>
		<path fill="#1B75B3" d="M319.565,1131.429c1.468-0.127,2.444-0.399,2.924-0.8c0.475-0.401,0.718-1.27,0.718-2.591v-11.183
			c0-1.642-0.147-2.806-0.442-3.509s-0.834-1.054-1.615-1.054c-0.159,0-0.371,0.021-0.635,0.062
			c-0.263,0.041-0.538,0.095-0.825,0.16v-0.812c0.904-0.331,1.835-0.67,2.796-1.019c0.948-0.347,1.61-0.6,1.975-0.742
			c0.794-0.314,1.62-0.67,2.461-1.067c0.108,0,0.18,0.041,0.203,0.12c0.024,0.084,0.036,0.261,0.036,0.521v4.066
			c1.025-1.471,2.011-2.619,2.968-3.441c0.954-0.827,1.939-1.24,2.964-1.24c0.818,0,1.479,0.253,1.991,0.757
			c0.515,0.504,0.766,1.137,0.766,1.896c0,0.674-0.194,1.247-0.586,1.708c-0.395,0.462-0.881,0.693-1.473,0.693
			c-0.606,0-1.216-0.285-1.831-0.866c-0.61-0.58-1.097-0.869-1.444-0.869c-0.562,0-1.249,0.468-2.059,1.4
			c-0.814,0.938-1.225,1.896-1.225,2.893v11.183c0,1.422,0.319,2.408,0.958,2.963c0.638,0.554,1.698,0.812,3.184,0.781v0.817
			h-11.801v-0.828H319.565z"/>
		<path fill="#1B75B3" d="M339.991,1131.555c1.132-0.149,1.93-0.438,2.385-0.882c0.451-0.438,0.678-1.417,0.678-2.938v-12.595
			c0-1.051-0.092-1.784-0.282-2.215c-0.305-0.615-0.931-0.935-1.867-0.935c-0.145,0-0.292,0.01-0.442,0.024
			c-0.151,0.017-0.339,0.047-0.562,0.077v-0.866c0.653-0.197,2.202-0.711,4.644-1.537l2.253-0.77c0.108,0,0.176,0.041,0.204,0.12
			c0.024,0.082,0.036,0.201,0.036,0.347v3.646c1.463-1.423,2.612-2.396,3.438-2.928c1.249-0.805,2.534-1.21,3.874-1.21
			c1.082,0,2.07,0.317,2.96,0.967c1.72,1.257,2.581,3.497,2.581,6.72v11.578c0,1.189,0.231,2.051,0.695,2.579
			c0.454,0.529,1.224,0.797,2.298,0.813v0.694H352.66v-0.694c1.165-0.166,1.979-0.5,2.441-1c0.468-0.505,0.694-1.604,0.694-3.284
			v-10.587c0-1.423-0.251-2.601-0.762-3.533c-0.51-0.938-1.448-1.4-2.812-1.4c-0.933,0-1.887,0.33-2.852,0.987
			c-0.539,0.384-1.241,1.009-2.095,1.884v13.885c0,1.188,0.251,1.987,0.766,2.389c0.515,0.404,1.317,0.624,2.417,0.656v0.694
			h-10.459v-0.688H339.991L339.991,1131.555z"/>
		<path fill="#1B75B3" d="M368.007,1131.555c1.707-0.166,2.789-0.464,3.231-0.904c0.446-0.441,0.67-1.623,0.67-3.56v-11.826
			c0-1.073-0.071-1.821-0.215-2.229c-0.243-0.679-0.746-1.018-1.509-1.018c-0.175,0-0.347,0.017-0.514,0.055
			c-0.168,0.031-0.649,0.165-1.449,0.396v-0.769l1.03-0.348c2.796-0.946,4.739-1.656,5.844-2.138
			c0.442-0.198,0.734-0.293,0.862-0.293c0.032,0.112,0.048,0.239,0.048,0.372v17.801c0,1.885,0.22,3.066,0.658,3.546
			s1.433,0.784,2.979,0.918v0.694h-11.636L368.007,1131.555L368.007,1131.555z M371.816,1098.401
			c0.475-0.51,1.068-0.766,1.771-0.766c0.687,0,1.271,0.252,1.758,0.752c0.487,0.504,0.73,1.116,0.73,1.839
			c0,0.707-0.243,1.314-0.73,1.819c-0.481,0.503-1.071,0.752-1.758,0.752c-0.703,0-1.293-0.253-1.771-0.752
			c-0.483-0.505-0.724-1.112-0.724-1.819S371.333,1098.909,371.816,1098.401z"/>
		<path fill="#1B75B3" d="M388.635,1121.266c-0.806-1.272-1.209-2.707-1.209-4.294c0-1.93,0.746-3.769,2.227-5.504
			c1.483-1.733,3.583-2.604,6.295-2.604c1.165,0,2.454,0.285,3.854,0.854c1.4,0.574,2.752,0.854,4.045,0.854
			c0.335,0,0.843-0.013,1.521-0.037c0.675-0.024,1.166-0.037,1.468-0.037h0.288v2.009h-4.146c0.287,0.694,0.512,1.301,0.671,1.812
			c0.271,0.962,0.41,1.866,0.41,2.73c0,1.884-0.758,3.611-2.266,5.193c-1.503,1.582-3.534,2.372-6.087,2.372
			c-0.403,0-1.118-0.079-2.154-0.226c-0.463,0-1.078,0.406-1.843,1.212c-0.762,0.811-1.147,1.476-1.147,1.989
			c0,0.526,0.562,0.915,1.679,1.159c0.739,0.166,1.548,0.253,2.45,0.253c4.104,0,6.894,0.239,8.364,0.718
			c2.414,0.777,3.619,2.446,3.619,5.01c0,2.61-1.409,4.693-4.225,6.252c-2.816,1.559-5.661,2.33-8.533,2.33
			c-2.617,0-4.688-0.549-6.219-1.648c-1.533-1.103-2.298-2.252-2.298-3.458c0-0.595,0.203-1.179,0.605-1.749
			c0.407-0.568,1.205-1.417,2.398-2.541l1.57-1.467l0.283-0.293c-0.729-0.298-1.271-0.592-1.636-0.867
			c-0.634-0.514-0.949-1.104-0.949-1.761c0-0.616,0.274-1.289,0.825-2.025c0.551-0.734,1.727-1.93,3.53-3.582
			C390.57,1123.421,389.44,1122.537,388.635,1121.266z M391.172,1139.711c1.507,0.529,3.234,0.797,5.187,0.797
			c2.645,0,4.803-0.476,6.462-1.425c1.66-0.955,2.484-2.119,2.484-3.508c0-1.107-0.667-1.849-2.015-2.207
			c-0.83-0.216-2.406-0.336-4.719-0.373c-0.6-0.017-1.218-0.035-1.871-0.062c-0.659-0.023-1.261-0.054-1.8-0.09
			c-0.352-0.017-0.922-0.083-1.703-0.198c-0.778-0.111-1.368-0.216-1.751-0.294c-0.191,0-0.658,0.521-1.399,1.56
			c-0.758,1.058-1.133,2.031-1.133,2.925C388.91,1138.224,389.664,1139.183,391.172,1139.711z M398.771,1122.679
			c0.952-0.799,1.436-2.18,1.436-4.146c0-1.57-0.387-3.34-1.161-5.307c-0.77-1.966-2.062-2.949-3.861-2.949
			c-1.563,0-2.641,0.771-3.23,2.306c-0.304,0.812-0.455,1.813-0.455,3c0,2.021,0.471,3.826,1.412,5.43
			c0.946,1.604,2.162,2.404,3.662,2.404C397.447,1123.421,398.181,1123.174,398.771,1122.679z"/>
		<path fill="#1B75B3" d="M412.471,1131.555c1.309-0.184,2.166-0.518,2.573-1.005c0.411-0.483,0.61-1.641,0.61-3.455v-23.801
			c0-0.925-0.116-1.606-0.348-2.046c-0.23-0.433-0.79-0.652-1.687-0.652c-0.176,0-0.347,0.013-0.515,0.037s-0.354,0.053-0.562,0.087
			v-0.893c0.703-0.215,1.567-0.476,2.597-0.78c1.03-0.312,1.748-0.525,2.143-0.658l2.294-0.743l0.052,0.175v15.223
			c1.001-1.189,1.899-2.066,2.677-2.628c1.408-0.987,2.92-1.488,4.548-1.488c2.585,0,4.349,1.126,5.29,3.372
			c0.511,1.189,0.771,2.753,0.771,4.684v10.119c0,1.752,0.196,2.892,0.586,3.422c0.395,0.526,1.192,0.875,2.406,1.041v0.693h-10.36
			v-0.693c1.388-0.199,2.282-0.537,2.677-1.018c0.398-0.477,0.599-1.628,0.599-3.442v-10.041c0-1.604-0.261-2.904-0.778-3.894
			c-0.519-0.99-1.492-1.488-2.932-1.488c-1.245,0-2.449,0.461-3.614,1.387s-1.751,1.527-1.751,1.811v12.227
			c0,1.853,0.211,3.01,0.623,3.469c0.415,0.462,1.301,0.796,2.657,0.991v0.693h-10.557v-0.702h0.002V1131.555z"/>
		<path fill="#1B75B3" d="M445.25,1121.314c1.469-0.992,4.396-2.34,8.785-4.041v-2.108c0-1.683-0.16-2.859-0.479-3.521
			c-0.542-1.107-1.667-1.662-3.375-1.662c-0.812,0-1.587,0.217-2.32,0.642c-0.734,0.446-1.102,1.059-1.102,1.839
			c0,0.199,0.04,0.533,0.12,1.005c0.076,0.466,0.115,0.772,0.115,0.904c0,0.926-0.291,1.569-0.886,1.935
			c-0.335,0.215-0.733,0.318-1.196,0.318c-0.718,0-1.273-0.245-1.652-0.732c-0.378-0.482-0.574-1.024-0.574-1.624
			c0-1.151,0.691-2.365,2.07-3.628c1.38-1.264,3.403-1.896,6.068-1.896c3.095,0,5.189,1.04,6.295,3.124
			c0.59,1.141,0.885,2.798,0.885,4.982v9.942c0,0.963,0.064,1.619,0.191,1.984c0.208,0.643,0.639,0.969,1.293,0.969
			c0.367,0,0.666-0.058,0.91-0.173c0.243-0.115,0.653-0.396,1.244-0.844v1.289c-0.511,0.646-1.061,1.176-1.646,1.588
			c-0.897,0.627-1.803,0.946-2.729,0.946c-1.088,0-1.87-0.364-2.357-1.092c-0.486-0.728-0.757-1.595-0.801-2.604
			c-1.214,1.093-2.25,1.9-3.112,2.432c-1.452,0.893-2.833,1.334-4.146,1.334c-1.372,0-2.561-0.5-3.566-1.496
			c-1.005-1-1.503-2.27-1.503-3.804C441.779,1124.918,442.936,1122.918,445.25,1121.314z M454.034,1118.514
			c-1.835,0.626-3.352,1.321-4.547,2.081c-2.298,1.474-3.447,3.142-3.447,5.01c0,1.504,0.475,2.61,1.436,3.322
			c0.622,0.462,1.316,0.693,2.082,0.693c1.054,0,2.062-0.306,3.027-0.917c0.966-0.612,1.449-1.389,1.449-2.331V1118.514
			L454.034,1118.514z"/>
		<path fill="#1B75B3" d="M466.058,1131.555c1.134-0.149,1.932-0.438,2.383-0.882c0.454-0.438,0.682-1.417,0.682-2.938v-12.595
			c0-1.051-0.091-1.784-0.287-2.215c-0.299-0.615-0.926-0.935-1.868-0.935c-0.139,0-0.287,0.01-0.438,0.024
			c-0.151,0.016-0.339,0.047-0.562,0.077v-0.866c0.65-0.197,2.199-0.711,4.645-1.537l2.25-0.77c0.11,0,0.179,0.041,0.204,0.12
			c0.025,0.082,0.038,0.201,0.038,0.347v3.646c1.462-1.423,2.613-2.396,3.439-2.928c1.245-0.805,2.532-1.21,3.874-1.21
			c1.081,0,2.07,0.317,2.96,0.967c1.719,1.257,2.581,3.497,2.581,6.72v11.578c0,1.189,0.231,2.051,0.69,2.579
			c0.459,0.529,1.224,0.797,2.302,0.813v0.694h-10.22v-0.694c1.164-0.166,1.975-0.5,2.44-1c0.467-0.505,0.694-1.604,0.694-3.284
			v-10.587c0-1.423-0.251-2.601-0.762-3.533c-0.511-0.938-1.448-1.4-2.812-1.4c-0.932,0-1.887,0.33-2.855,0.987
			c-0.539,0.384-1.236,1.009-2.095,1.884v13.885c0,1.188,0.256,1.987,0.771,2.389c0.516,0.404,1.312,0.624,2.418,0.656v0.694
			h-10.464v-0.688H466.058L466.058,1131.555z"/>
		<path fill="#1B75B3" d="M512.293,1120.545c-1.357-1.421-2.035-3.14-2.035-5.16c0-2,0.684-3.702,2.047-5.104
			c1.365-1.405,3.013-2.107,4.942-2.107s3.566,0.702,4.907,2.107c1.341,1.4,2.007,3.104,2.007,5.104c0,2.021-0.678,3.739-2.034,5.16
			c-1.355,1.424-2.979,2.134-4.88,2.134C515.302,1122.679,513.649,1121.969,512.293,1120.545z"/>
		<path fill="#1B75B3" d="M545.866,1131.306c1.791-0.198,2.952-0.528,3.495-0.998c0.541-0.47,0.81-1.653,0.81-3.562v-22.587
			c0-1.855-0.26-3.045-0.786-3.575c-0.525-0.527-1.699-0.854-3.519-0.987v-0.944h13.213c4.451,0,8.218,0.765,11.297,2.279
			c5.554,2.731,8.329,7.608,8.329,14.628c0,2.533-0.498,4.935-1.495,7.216c-0.998,2.281-2.501,4.207-4.508,5.776
			c-1.277,0.992-2.605,1.744-3.979,2.256c-2.502,0.96-5.581,1.438-9.238,1.438h-13.619V1131.306L545.866,1131.306z
			 M555.739,1129.967c0.392,0.267,1.201,0.396,2.429,0.396c3.835,0,6.981-0.785,9.455-2.354c3.798-2.417,5.696-6.547,5.696-12.385
			c0-5.21-1.563-9.131-4.687-11.765c-2.682-2.246-6.231-3.371-10.65-3.371c-1.104,0-1.85,0.124-2.238,0.372
			c-0.393,0.247-0.588,0.793-0.588,1.637v25.834C555.154,1129.156,555.349,1129.701,555.739,1129.967z"/>
		<path fill="#1B75B3" d="M601.05,1111.41c1.69,1.609,2.537,3.896,2.537,6.854h-15.199c0.16,3.822,0.997,6.607,2.515,8.364
			c1.512,1.743,3.311,2.619,5.381,2.619c1.675,0,3.088-0.454,4.235-1.359c1.149-0.904,2.21-2.193,3.186-3.854l0.838,0.289
			c-0.656,2.105-1.88,4.049-3.674,5.838c-1.793,1.79-3.994,2.683-6.597,2.683c-2.995,0-5.317-1.171-6.949-3.521
			c-1.636-2.348-2.456-5.046-2.456-8.108c0-3.318,0.948-6.188,2.848-8.599c1.899-2.414,4.373-3.62,7.421-3.62
			C597.387,1108.993,599.358,1109.798,601.05,1111.41z M589.585,1113.308c-0.512,0.892-0.878,2.017-1.106,3.371h10.105
			c-0.176-1.657-0.479-2.891-0.914-3.693c-0.776-1.455-2.09-2.188-3.925-2.188C591.93,1110.802,590.538,1111.637,589.585,1113.308z"
			/>
		<path fill="#1B75B3" d="M609.985,1131.555c1.13-0.149,1.927-0.438,2.382-0.882c0.449-0.438,0.683-1.417,0.683-2.938v-12.595
			c0-1.051-0.097-1.784-0.288-2.215c-0.303-0.615-0.925-0.935-1.867-0.935c-0.143,0-0.291,0.01-0.441,0.024
			c-0.148,0.017-0.335,0.047-0.563,0.077v-0.866c0.655-0.197,2.203-0.711,4.647-1.537l2.251-0.77c0.105,0,0.18,0.041,0.203,0.12
			c0.023,0.082,0.036,0.201,0.036,0.347v3.646c1.463-1.423,2.616-2.396,3.438-2.928c1.248-0.805,2.533-1.21,3.874-1.21
			c1.085,0,2.069,0.317,2.964,0.967c1.72,1.257,2.581,3.497,2.581,6.72v11.578c0,1.189,0.228,2.051,0.689,2.579
			c0.456,0.529,1.226,0.797,2.298,0.813v0.694h-10.22v-0.694c1.165-0.166,1.979-0.5,2.443-1c0.463-0.505,0.694-1.604,0.694-3.284
			v-10.587c0-1.423-0.255-2.601-0.766-3.533c-0.512-0.938-1.444-1.4-2.81-1.4c-0.937,0-1.886,0.33-2.856,0.987
			c-0.539,0.384-1.235,1.009-2.094,1.884v13.885c0,1.188,0.251,1.987,0.768,2.389c0.514,0.404,1.314,0.624,2.417,0.656v0.694h-10.46
			v-0.688H609.985L609.985,1131.555z"/>
		<path fill="#1B75B3" d="M637.926,1131.555c1.128-0.149,1.928-0.438,2.381-0.882c0.455-0.438,0.685-1.417,0.685-2.938v-12.595
			c0-1.051-0.097-1.784-0.289-2.215c-0.299-0.615-0.925-0.935-1.866-0.935c-0.144,0-0.291,0.01-0.438,0.024
			c-0.151,0.017-0.341,0.047-0.566,0.077v-0.866c0.654-0.197,2.201-0.711,4.646-1.537l2.25-0.77c0.111,0,0.181,0.041,0.204,0.12
			c0.021,0.082,0.035,0.201,0.035,0.347v3.646c1.465-1.423,2.617-2.396,3.442-2.928c1.244-0.805,2.533-1.21,3.87-1.21
			c1.085,0,2.068,0.317,2.963,0.967c1.72,1.257,2.582,3.497,2.582,6.72v11.578c0,1.189,0.227,2.051,0.689,2.579
			c0.459,0.529,1.226,0.797,2.298,0.813v0.694h-10.221v-0.694c1.165-0.166,1.979-0.5,2.445-1c0.467-0.505,0.693-1.604,0.693-3.284
			v-10.587c0-1.423-0.256-2.601-0.767-3.533c-0.511-0.938-1.442-1.4-2.809-1.4c-0.938,0-1.888,0.33-2.856,0.987
			c-0.538,0.384-1.236,1.009-2.094,1.884v13.885c0,1.188,0.252,1.987,0.766,2.389c0.517,0.404,1.316,0.624,2.421,0.656v0.694H637.93
			v-0.688H637.926L637.926,1131.555z"/>
		<path fill="#1B75B3" d="M665.934,1131.555c1.709-0.166,2.789-0.464,3.232-0.904c0.446-0.441,0.67-1.623,0.67-3.56v-11.826
			c0-1.073-0.071-1.821-0.216-2.229c-0.238-0.679-0.742-1.018-1.508-1.018c-0.177,0-0.348,0.017-0.516,0.055
			c-0.167,0.031-0.649,0.165-1.442,0.396v-0.769l1.027-0.348c2.792-0.946,4.739-1.656,5.841-2.138
			c0.446-0.198,0.738-0.293,0.861-0.293c0.036,0.112,0.052,0.239,0.052,0.372v17.801c0,1.885,0.221,3.066,0.653,3.546
			c0.44,0.479,1.438,0.784,2.981,0.918v0.694h-11.639v-0.697H665.934z M669.744,1098.401c0.478-0.51,1.068-0.766,1.771-0.766
			c0.687,0,1.275,0.252,1.764,0.752c0.482,0.504,0.729,1.116,0.729,1.839c0,0.707-0.246,1.314-0.729,1.819
			c-0.487,0.503-1.077,0.752-1.764,0.752c-0.702,0-1.289-0.253-1.771-0.752c-0.484-0.505-0.718-1.112-0.718-1.819
			S669.266,1098.909,669.744,1098.401z"/>
		<path fill="#1B75B3" d="M684.592,1124.438h0.789c0.367,1.882,0.862,3.332,1.48,4.336c1.109,1.855,2.744,2.776,4.891,2.776
			c1.198,0,2.14-0.344,2.833-1.028c0.69-0.687,1.037-1.573,1.037-2.666c0-0.693-0.2-1.363-0.599-2.009
			c-0.395-0.647-1.103-1.271-2.106-1.884l-2.68-1.587c-1.96-1.091-3.407-2.189-4.333-3.297c-0.931-1.104-1.391-2.409-1.391-3.918
			c0-1.852,0.641-3.371,1.915-4.562c1.277-1.186,2.882-1.784,4.812-1.784c0.845,0,1.777,0.165,2.792,0.495
			c1.014,0.33,1.585,0.497,1.711,0.497c0.283,0,0.492-0.043,0.618-0.125c0.129-0.079,0.244-0.215,0.335-0.396h0.58l0.167,6.917
			h-0.747c-0.317-1.604-0.749-2.852-1.288-3.742c-0.989-1.658-2.42-2.479-4.288-2.479c-1.112,0-1.99,0.355-2.634,1.065
			c-0.643,0.711-0.956,1.546-0.956,2.504c0,1.521,1.104,2.875,3.306,4.066l3.156,1.762c3.398,1.916,5.098,4.146,5.098,6.692
			c0,1.949-0.705,3.546-2.113,4.784c-1.411,1.24-3.255,1.859-5.533,1.859c-0.948,0-2.038-0.165-3.246-0.495
			c-1.212-0.331-1.927-0.497-2.147-0.497c-0.193,0-0.36,0.074-0.502,0.213c-0.145,0.14-0.255,0.31-0.335,0.507h-0.622V1124.438
			L684.592,1124.438z"/>
		<path fill="#1B75B3" d="M720.774,1131.306c2.021-0.219,3.322-0.688,3.896-1.421c0.578-0.74,0.865-2.441,0.865-5.121v-20.609
			c0-1.834-0.28-3.029-0.837-3.583c-0.562-0.554-1.829-0.88-3.811-0.977v-0.944h9.665l11.258,25.297l10.982-25.297h9.742v0.944
			c-1.819,0.135-2.993,0.473-3.521,1.029c-0.525,0.551-0.786,1.729-0.786,3.529v22.569c0,1.849,0.261,3.037,0.786,3.559
			c0.526,0.517,1.7,0.859,3.521,1.023v0.943H748.82v-0.943c1.979-0.164,3.212-0.532,3.697-1.105c0.485-0.566,0.73-1.931,0.73-4.076
			v-22.792l-12.55,28.913h-0.671l-12.344-27.724v20.238c0,2.773,0.392,4.579,1.173,5.423c0.512,0.546,1.651,0.918,3.424,1.119v0.942
			h-11.51v-0.938H720.774z"/>
		<path fill="#1B75B3" d="M773.3,1132.012c-0.524-0.553-0.784-1.218-0.784-1.999c0-0.775,0.264-1.438,0.797-1.981
			c0.539-0.547,1.178-0.814,1.932-0.814c0.75,0,1.388,0.27,1.913,0.814c0.528,0.545,0.792,1.206,0.792,1.981
			c0,0.781-0.26,1.446-0.778,1.999c-0.519,0.557-1.161,0.827-1.927,0.827C774.474,1132.839,773.828,1132.567,773.3,1132.012z"/>
		<path fill="#1B75B3" d="M799.166,1131.306c1.884-0.182,3.057-0.562,3.52-1.136c0.464-0.578,0.692-1.917,0.692-4.025v-21.986
			c0-1.784-0.255-2.955-0.772-3.507c-0.519-0.556-1.663-0.906-3.438-1.057v-0.944h13.571c2.825,0,5.179,0.376,7.064,1.119
			c3.574,1.399,5.357,3.979,5.357,7.747c0,2.525-0.789,4.468-2.381,5.819c-1.588,1.347-3.746,2.239-6.477,2.673l10.103,12.885
			c0.622,0.789,1.248,1.363,1.866,1.729c0.623,0.354,1.425,0.585,2.397,0.685v0.943h-7.898l-12.263-15.646l-2.146,0.125v10.008
			c0,1.872,0.271,3.064,0.825,3.572c0.55,0.502,1.752,0.832,3.602,0.998v0.942h-13.618v-0.942L799.166,1131.306L799.166,1131.306z
			 M815.921,1113.703c2.603-1.107,3.902-3.182,3.902-6.239c0-2.935-1.165-4.942-3.496-6.012c-1.244-0.579-2.896-0.87-4.954-0.87
			c-1.388,0-2.238,0.104-2.549,0.311c-0.312,0.207-0.467,0.69-0.467,1.447v12.499
			C811.884,1114.712,814.405,1114.33,815.921,1113.703z"/>
		<path fill="#1B75B3" d="M835.7,1131.555c1.706-0.166,2.783-0.464,3.229-0.904c0.447-0.441,0.672-1.623,0.672-3.56v-11.826
			c0-1.073-0.076-1.821-0.217-2.229c-0.242-0.679-0.746-1.018-1.508-1.018c-0.176,0-0.347,0.017-0.514,0.055
			c-0.169,0.031-0.651,0.165-1.449,0.396v-0.769l1.03-0.348c2.792-0.946,4.737-1.656,5.839-2.138
			c0.447-0.198,0.739-0.293,0.866-0.293c0.032,0.112,0.049,0.239,0.049,0.372v17.801c0,1.885,0.218,3.066,0.658,3.546
			c0.434,0.479,1.431,0.784,2.975,0.918v0.694H835.7V1131.555z M839.506,1098.401c0.479-0.51,1.068-0.766,1.775-0.766
			c0.686,0,1.271,0.252,1.759,0.752c0.486,0.504,0.729,1.116,0.729,1.839c0,0.707-0.243,1.314-0.729,1.819
			c-0.487,0.503-1.073,0.752-1.759,0.752c-0.707,0-1.293-0.253-1.775-0.752c-0.479-0.505-0.719-1.112-0.719-1.819
			S839.027,1098.909,839.506,1098.401z"/>
		<path fill="#1B75B3" d="M864.263,1109.389v1.784h-4.884l-0.047,14.281c0,1.26,0.104,2.208,0.311,2.857
			c0.384,1.139,1.129,1.704,2.25,1.704c0.575,0,1.075-0.136,1.496-0.421c0.419-0.284,0.906-0.728,1.444-1.339l0.622,0.549
			l-0.526,0.744c-0.83,1.152-1.707,1.976-2.636,2.455c-0.927,0.477-1.816,0.719-2.682,0.719c-1.885,0-3.155-0.867-3.83-2.604
			c-0.367-0.941-0.551-2.247-0.551-3.916v-15.025h-2.611c-0.081-0.054-0.141-0.099-0.182-0.146c-0.041-0.057-0.06-0.117-0.06-0.199
			c0-0.165,0.036-0.294,0.106-0.389c0.067-0.092,0.296-0.299,0.684-0.629c1.101-0.945,1.894-1.705,2.382-2.293
			c0.486-0.587,1.627-2.137,3.435-4.652c0.207,0,0.332,0.021,0.371,0.055c0.039,0.031,0.06,0.157,0.06,0.371v6.095L864.263,1109.389
			L864.263,1109.389z"/>
		<path fill="#1B75B3" d="M886.188,1110.464c1.444,1.065,2.162,2.229,2.162,3.495c0,0.545-0.184,1.05-0.55,1.521
			c-0.366,0.468-0.935,0.702-1.7,0.702c-0.559,0-1.049-0.197-1.473-0.596c-0.419-0.401-0.73-0.975-0.92-1.735l-0.288-1.188
			c-0.208-0.876-0.567-1.497-1.078-1.86c-0.524-0.348-1.22-0.521-2.081-0.521c-1.818,0-3.354,0.827-4.607,2.472
			c-1.258,1.648-1.879,3.834-1.879,6.57c0,2.499,0.69,4.738,2.07,6.727c1.379,1.988,3.243,2.979,5.589,2.979
			c1.655,0,3.136-0.562,4.429-1.689c0.733-0.641,1.563-1.673,2.484-3.077l0.67,0.422c-0.908,1.981-1.867,3.558-2.871,4.714
			c-1.932,2.216-4.164,3.327-6.701,3.327c-2.49,0-4.692-1.018-6.606-3.056c-1.915-2.032-2.873-4.793-2.873-8.278
			c0-3.423,1.046-6.364,3.142-8.827c2.09-2.462,4.728-3.694,7.918-3.694C883.02,1108.868,884.739,1109.396,886.188,1110.464z"/>
		<path fill="#1B75B3" d="M894.465,1131.555c1.311-0.184,2.166-0.518,2.573-1.005c0.411-0.483,0.61-1.641,0.61-3.455v-23.801
			c0-0.925-0.116-1.606-0.348-2.046c-0.23-0.433-0.794-0.652-1.688-0.652c-0.176,0-0.346,0.013-0.514,0.037
			c-0.169,0.024-0.354,0.053-0.563,0.087v-0.893c0.702-0.215,1.569-0.476,2.599-0.78c1.028-0.312,1.742-0.525,2.143-0.658
			l2.293-0.743l0.048,0.175v15.223c1.006-1.189,1.899-2.066,2.682-2.628c1.405-0.987,2.92-1.488,4.548-1.488
			c2.584,0,4.346,1.126,5.289,3.372c0.513,1.189,0.768,2.753,0.768,4.684v10.119c0,1.752,0.197,2.892,0.59,3.422
			c0.391,0.526,1.191,0.875,2.406,1.041v0.693h-10.364v-0.693c1.388-0.199,2.285-0.537,2.681-1.018
			c0.396-0.477,0.594-1.628,0.594-3.442v-10.041c0-1.604-0.256-2.904-0.772-3.894c-0.519-0.99-1.496-1.488-2.933-1.488
			c-1.248,0-2.452,0.461-3.618,1.387c-1.16,0.926-1.746,1.527-1.746,1.811v12.227c0,1.853,0.207,3.01,0.622,3.469
			c0.41,0.462,1.299,0.796,2.656,0.991v0.693h-10.557v-0.702h0.002V1131.555z"/>
		<path fill="#1B75B3" d="M922.933,1131.555c1.707-0.166,2.788-0.464,3.23-0.904c0.447-0.441,0.671-1.623,0.671-3.56v-11.826
			c0-1.073-0.072-1.821-0.216-2.229c-0.239-0.679-0.741-1.018-1.508-1.018c-0.175,0-0.349,0.017-0.516,0.055
			c-0.168,0.031-0.649,0.165-1.442,0.396v-0.769l1.028-0.348c2.792-0.946,4.738-1.656,5.839-2.138
			c0.448-0.198,0.735-0.293,0.862-0.293c0.031,0.112,0.047,0.239,0.047,0.372v17.801c0,1.885,0.226,3.066,0.659,3.546
			c0.438,0.479,1.436,0.784,2.979,0.918v0.694h-11.636v-0.697H922.933z M926.737,1098.401c0.476-0.51,1.069-0.766,1.771-0.766
			c0.688,0,1.275,0.252,1.759,0.752c0.487,0.504,0.733,1.116,0.733,1.839c0,0.707-0.246,1.314-0.733,1.819
			c-0.482,0.503-1.071,0.752-1.759,0.752c-0.702,0-1.289-0.253-1.771-0.752c-0.481-0.505-0.723-1.112-0.723-1.819
			S926.26,1098.909,926.737,1098.401z"/>
		<path fill="#1B75B3" d="M956.162,1111.41c1.688,1.609,2.534,3.896,2.534,6.854h-15.2c0.16,3.822,0.998,6.607,2.515,8.364
			c1.516,1.743,3.311,2.619,5.386,2.619c1.675,0,3.086-0.454,4.236-1.359c1.145-0.904,2.209-2.193,3.18-3.854l0.838,0.289
			c-0.653,2.105-1.881,4.049-3.674,5.838c-1.793,1.79-3.994,2.683-6.591,2.683c-3.001,0-5.321-1.171-6.954-3.521
			c-1.635-2.348-2.453-5.046-2.453-8.108c0-3.318,0.945-6.188,2.846-8.599c1.896-2.414,4.371-3.62,7.419-3.62
			C952.499,1108.993,954.471,1109.798,956.162,1111.41z M944.697,1113.308c-0.512,0.892-0.877,2.017-1.102,3.371h10.102
			c-0.176-1.657-0.479-2.891-0.909-3.693c-0.782-1.455-2.094-2.188-3.926-2.188C947.043,1110.802,945.655,1111.637,944.697,1113.308
			z"/>
	</g>
</g>
<g>
	<g>
		<path fill="#1B75B3" d="M294.5,1307.479h6.559c1.292,0,2.341,0.38,3.14,1.14c0.797,0.765,1.192,1.836,1.192,3.212
			c0,1.181-0.354,2.211-1.065,3.091c-0.711,0.876-1.795,1.321-3.263,1.321h-4.576v6.411H294.5V1307.479L294.5,1307.479z
			 M302.204,1309.561c-0.435-0.211-1.037-0.318-1.791-0.318h-3.921v5.262h3.921c0.881,0,1.6-0.199,2.154-0.596
			c0.55-0.393,0.826-1.086,0.826-2.074C303.393,1310.717,302.99,1309.961,302.204,1309.561z"/>
		<path fill="#1B75B3" d="M309.297,1307.479h6.658c1.101,0,2.002,0.164,2.713,0.503c1.352,0.645,2.026,1.845,2.026,3.589
			c0,0.909-0.18,1.656-0.542,2.229c-0.359,0.579-0.866,1.042-1.521,1.395c0.57,0.237,1.001,0.557,1.293,0.948
			c0.282,0.395,0.446,1.029,0.479,1.914l0.071,2.029c0.021,0.582,0.063,1.008,0.141,1.292c0.115,0.48,0.335,0.795,0.634,0.935v0.341
			h-2.433c-0.064-0.135-0.12-0.298-0.16-0.505c-0.04-0.209-0.072-0.608-0.097-1.199l-0.119-2.533
			c-0.044-0.991-0.392-1.656-1.038-1.996c-0.367-0.182-0.945-0.275-1.73-0.275h-4.393v6.51h-1.987v-15.176H309.297L309.297,1307.479
			z M315.744,1314.429c0.9,0,1.62-0.194,2.149-0.579c0.526-0.384,0.786-1.083,0.786-2.087c0-1.083-0.367-1.817-1.104-2.206
			c-0.399-0.207-0.925-0.31-1.584-0.31h-4.711v5.186h4.464V1314.429L315.744,1314.429z"/>
		<path fill="#1B75B3" d="M325.123,1307.479h10.635v1.858h-8.7v4.604h8.041v1.761h-8.041v5.141h8.848v1.812h-10.779v-15.176H325.123
			L325.123,1307.479z"/>
		<path fill="#1B75B3" d="M339.683,1307.479h2.333l7.309,12.257v-12.257h1.898v15.175h-2.233l-7.413-12.249v12.249h-1.896v-15.175
			H339.683z"/>
		<path fill="#1B75B3" d="M366.208,1307.479v1.805h-4.938v13.37h-2.004v-13.37h-4.934v-1.805H366.208z"/>
		<path fill="#1B75B3" d="M369.605,1307.479h2.003v15.175h-2.003V1307.479z"/>
		<path fill="#1B75B3" d="M386.312,1308.581c1.015,1.012,1.572,2.161,1.685,3.45h-1.935c-0.217-0.979-0.646-1.752-1.285-2.323
			c-0.643-0.576-1.543-0.858-2.708-0.858c-1.421,0-2.562,0.524-3.436,1.579c-0.874,1.05-1.308,2.661-1.308,4.829
			c0,1.782,0.391,3.225,1.181,4.327c0.786,1.107,1.958,1.661,3.522,1.661c1.437,0,2.529-0.582,3.278-1.744
			c0.399-0.616,0.694-1.421,0.891-2.421h1.935c-0.167,1.599-0.734,2.938-1.69,4.021c-1.153,1.307-2.7,1.954-4.655,1.954
			c-1.684,0-3.095-0.537-4.241-1.604c-1.508-1.413-2.257-3.595-2.257-6.545c0-2.24,0.562-4.074,1.695-5.509
			c1.22-1.558,2.907-2.335,5.058-2.335C383.875,1307.064,385.303,1307.569,386.312,1308.581z"/>
		<path fill="#1B75B3" d="M392.014,1307.479h10.636v1.858h-8.701v4.604h8.043v1.761h-8.043v5.141h8.849v1.812h-10.779v-15.176
			H392.014L392.014,1307.479z"/>
		<path fill="#1B75B3" d="M413.42,1307.479h2.006v6.265h7.528v-6.265h2.006v15.175h-2.006v-7.102h-7.528v7.102h-2.006V1307.479z"/>
		<path fill="#1B75B3" d="M433.518,1307.479h2.242l5.318,15.175h-2.174l-1.524-4.546h-5.752l-1.592,4.546H428L433.518,1307.479z
			 M436.809,1316.433l-2.258-6.707l-2.342,6.707H436.809z"/>
		<path fill="#1B75B3" d="M443.989,1307.479h1.982v13.362h7.35v1.812h-9.335v-15.175H443.989z"/>
		<path fill="#1B75B3" d="M456.472,1307.479h1.983v13.362h7.351v1.812h-9.334V1307.479L456.472,1307.479z"/>
		<path fill="#1B75B3" d="M476.302,1317.755c0.048,0.858,0.239,1.558,0.57,2.094c0.635,1.009,1.751,1.515,3.354,1.515
			c0.715,0,1.365-0.112,1.956-0.331c1.142-0.435,1.712-1.192,1.712-2.298c0-0.826-0.244-1.413-0.727-1.766
			c-0.491-0.343-1.261-0.644-2.303-0.896l-1.918-0.468c-1.256-0.302-2.146-0.636-2.669-1.004c-0.901-0.629-1.353-1.578-1.353-2.839
			c0-1.358,0.442-2.482,1.329-3.359c0.885-0.871,2.142-1.311,3.767-1.311c1.495,0,2.768,0.385,3.813,1.149
			c1.045,0.769,1.567,1.999,1.567,3.681h-1.863c-0.096-0.81-0.303-1.432-0.614-1.866c-0.579-0.794-1.563-1.186-2.957-1.186
			c-1.121,0-1.927,0.256-2.417,0.764c-0.491,0.508-0.742,1.104-0.742,1.776c0,0.745,0.291,1.29,0.874,1.633
			c0.384,0.224,1.24,0.496,2.577,0.826l1.99,0.483c0.961,0.233,1.704,0.558,2.222,0.963c0.901,0.711,1.354,1.738,1.354,3.087
			c0,1.678-0.576,2.884-1.725,3.608c-1.152,0.722-2.484,1.09-4.01,1.09c-1.779,0-3.167-0.483-4.172-1.45
			c-1.005-0.959-1.5-2.253-1.476-3.896H476.302L476.302,1317.755z"/>
		<path fill="#1B75B3" d="M501.822,1309.643c0.969,1.348,1.455,3.066,1.455,5.157c0,2.265-0.56,4.148-1.668,5.658
			c-1.301,1.759-3.16,2.644-5.572,2.644c-2.254,0-4.021-0.775-5.318-2.317c-1.147-1.486-1.724-3.371-1.724-5.645
			c0-2.046,0.491-3.804,1.477-5.261c1.266-1.877,3.132-2.811,5.602-2.811C498.662,1307.064,500.576,1307.925,501.822,1309.643z
			 M500.07,1319.316c0.781-1.299,1.172-2.793,1.172-4.479c0-1.789-0.45-3.228-1.352-4.317c-0.901-1.088-2.131-1.633-3.694-1.633
			c-1.517,0-2.752,0.541-3.709,1.62c-0.954,1.078-1.438,2.67-1.438,4.768c0,1.683,0.411,3.104,1.234,4.259
			c0.821,1.156,2.148,1.729,3.997,1.729C498.024,1321.267,499.288,1320.618,500.07,1319.316z"/>
		<path fill="#1B75B3" d="M506.955,1307.479h10.161v1.858h-8.179v4.604h7.191v1.811h-7.191v6.902h-1.979v-15.175H506.955z"/>
		<path fill="#1B75B3" d="M531.014,1307.479v1.805h-4.938v13.37h-2.004v-13.37h-4.938v-1.805H531.014z"/>
		<path fill="#1B75B3" d="M534.938,1307.479l2.76,12.326l3.314-12.326h2.143l3.318,12.352l2.761-12.352h2.179l-3.85,15.175h-2.088
			l-3.378-12.584l-3.402,12.584h-2.082l-3.834-15.175H534.938z"/>
		<path fill="#1B75B3" d="M557.89,1307.479h2.239l5.316,15.175h-2.174l-1.527-4.546h-5.745l-1.593,4.546h-2.033L557.89,1307.479z
			 M561.181,1316.433l-2.257-6.707l-2.343,6.707H561.181z"/>
		<path fill="#1B75B3" d="M568.601,1307.479h6.658c1.098,0,2.004,0.164,2.713,0.503c1.354,0.645,2.026,1.845,2.026,3.589
			c0,0.909-0.183,1.656-0.547,2.229c-0.362,0.575-0.869,1.042-1.52,1.395c0.574,0.237,1.001,0.557,1.291,0.948
			c0.287,0.395,0.452,1.029,0.483,1.914l0.067,2.029c0.022,0.582,0.071,1.008,0.145,1.292c0.119,0.48,0.33,0.795,0.638,0.935v0.341
			h-2.434c-0.071-0.135-0.119-0.298-0.16-0.505c-0.039-0.209-0.078-0.608-0.103-1.199l-0.12-2.533
			c-0.045-0.991-0.388-1.656-1.033-1.996c-0.37-0.182-0.946-0.275-1.735-0.275h-4.388v6.51H568.6L568.601,1307.479L568.601,1307.479
			z M575.043,1314.429c0.911,0,1.62-0.194,2.146-0.579c0.526-0.384,0.792-1.083,0.792-2.087c0-1.083-0.368-1.817-1.11-2.206
			c-0.396-0.207-0.921-0.31-1.579-0.31h-4.712v5.186h4.464L575.043,1314.429L575.043,1314.429z"/>
		<path fill="#1B75B3" d="M584.426,1307.479h10.627v1.858h-8.695v4.604h8.042v1.761h-8.042v5.141h8.849v1.812h-10.779
			L584.426,1307.479L584.426,1307.479z"/>
		<path fill="#1B75B3" d="M607.077,1317.755c0.044,0.858,0.235,1.558,0.565,2.094c0.635,1.009,1.752,1.515,3.354,1.515
			c0.714,0,1.369-0.112,1.955-0.331c1.142-0.435,1.712-1.192,1.712-2.298c0-0.826-0.243-1.413-0.727-1.766
			c-0.49-0.343-1.257-0.644-2.299-0.896l-1.922-0.468c-1.257-0.302-2.144-0.636-2.666-1.004c-0.903-0.629-1.353-1.578-1.353-2.839
			c0-1.358,0.438-2.482,1.325-3.359c0.889-0.871,2.141-1.311,3.771-1.311c1.49,0,2.763,0.385,3.81,1.149
			c1.045,0.769,1.566,1.999,1.566,3.681h-1.862c-0.092-0.81-0.303-1.432-0.609-1.866c-0.582-0.794-1.568-1.186-2.961-1.186
			c-1.116,0-1.925,0.256-2.416,0.764s-0.743,1.104-0.743,1.776c0,0.745,0.292,1.29,0.879,1.633c0.378,0.224,1.235,0.496,2.576,0.826
			l1.986,0.483c0.963,0.233,1.708,0.558,2.227,0.963c0.901,0.711,1.349,1.738,1.349,3.087c0,1.678-0.573,2.884-1.724,3.608
			c-1.148,0.722-2.485,1.09-4.01,1.09c-1.778,0-3.167-0.483-4.172-1.45c-1.006-0.959-1.497-2.253-1.474-3.896H607.077
			L607.077,1317.755z"/>
		<path fill="#1B75B3" d="M620.716,1307.479h10.629v1.858h-8.697v4.604h8.047v1.761h-8.047v5.141h8.849v1.812h-10.779
			L620.716,1307.479L620.716,1307.479z"/>
		<path fill="#1B75B3" d="M635.513,1307.479h6.658c1.097,0,2.002,0.164,2.713,0.503c1.353,0.645,2.03,1.845,2.03,3.589
			c0,0.909-0.185,1.656-0.552,2.229c-0.363,0.575-0.868,1.042-1.516,1.395c0.569,0.237,0.996,0.557,1.288,0.948
			c0.287,0.395,0.45,1.029,0.481,1.914l0.067,2.029c0.028,0.582,0.072,1.008,0.146,1.292c0.119,0.48,0.331,0.795,0.638,0.935v0.341
			h-2.434c-0.071-0.135-0.119-0.298-0.158-0.505c-0.041-0.209-0.081-0.608-0.104-1.199l-0.116-2.533
			c-0.047-0.991-0.391-1.656-1.036-1.996c-0.371-0.182-0.946-0.275-1.736-0.275h-4.388v6.51h-1.982V1307.479z M641.959,1314.429
			c0.905,0,1.616-0.194,2.143-0.579c0.525-0.384,0.789-1.083,0.789-2.087c0-1.083-0.366-1.817-1.107-2.206
			c-0.396-0.207-0.922-0.31-1.58-0.31h-4.712v5.186h4.469L641.959,1314.429L641.959,1314.429z"/>
		<path fill="#1B75B3" d="M651.592,1307.479h2.007v15.175h-2.007V1307.479z"/>
		<path fill="#1B75B3" d="M658.136,1307.479h10.628v1.858h-8.697v4.604h8.043v1.761h-8.043v5.141h8.849v1.812h-10.778
			L658.136,1307.479L658.136,1307.479z"/>
		<path fill="#1B75B3" d="M673.988,1317.755c0.044,0.858,0.233,1.558,0.565,2.094c0.634,1.009,1.751,1.515,3.355,1.515
			c0.715,0,1.368-0.112,1.954-0.331c1.142-0.435,1.712-1.192,1.712-2.298c0-0.826-0.243-1.413-0.728-1.766
			c-0.49-0.343-1.257-0.644-2.298-0.896l-1.922-0.468c-1.257-0.302-2.144-0.636-2.666-1.004c-0.905-0.629-1.352-1.578-1.352-2.839
			c0-1.358,0.438-2.482,1.323-3.359c0.891-0.871,2.144-1.311,3.771-1.311c1.491,0,2.764,0.385,3.809,1.149
			c1.045,0.769,1.567,1.999,1.567,3.681h-1.862c-0.092-0.81-0.303-1.432-0.608-1.866c-0.582-0.794-1.567-1.186-2.962-1.186
			c-1.116,0-1.927,0.256-2.416,0.764c-0.491,0.508-0.738,1.104-0.738,1.776c0,0.745,0.286,1.29,0.873,1.633
			c0.38,0.224,1.236,0.496,2.578,0.826l1.989,0.483c0.957,0.233,1.703,0.558,2.222,0.963c0.902,0.711,1.354,1.738,1.354,3.087
			c0,1.678-0.579,2.884-1.725,3.608c-1.151,0.722-2.487,1.09-4.014,1.09c-1.777,0-3.166-0.483-4.172-1.45
			c-1.006-0.959-1.496-2.253-1.473-3.896H673.988L673.988,1317.755z"/>
	</g>
</g>
</svg>
