<?xml version="1.0" standalone="no"?>
<!DOCTYPE svg PUBLIC "-//W3C//DTD SVG 20010904//EN"
 "http://www.w3.org/TR/2001/REC-SVG-20010904/DTD/svg10.dtd">
<svg version="1.0" xmlns="http://www.w3.org/2000/svg"
 width="988.000000pt" height="120.000000pt" viewBox="0 0 988.000000 120.000000"
 preserveAspectRatio="xMidYMid meet">

<g transform="translate(0.000000,120.000000) scale(0.100000,-0.100000)"
fill="#000000" stroke="none">
<path d="M3131 1184 c-222 -60 -341 -236 -341 -504 0 -177 45 -303 139 -397
91 -89 190 -126 336 -126 244 0 408 128 465 363 19 76 17 250 -4 329 -47 180
-177 309 -346 341 -74 14 -185 11 -249 -6z m233 -156 c27 -8 61 -32 98 -69 48
-48 60 -67 78 -128 19 -62 22 -90 18 -181 -4 -97 -8 -115 -37 -174 -57 -117
-157 -175 -283 -163 -115 10 -205 86 -245 206 -27 83 -24 256 5 332 48 120
142 189 261 189 35 0 82 -5 105 -12z"/>
<path d="M4090 1185 c-194 -55 -293 -242 -211 -402 44 -88 120 -130 311 -174
194 -44 250 -80 250 -158 0 -89 -79 -143 -208 -143 -115 0 -192 39 -222 113
-12 29 -13 29 -97 29 l-86 0 7 -41 c21 -133 139 -227 311 -249 87 -11 202 -1
272 24 128 45 203 147 203 274 0 76 -17 126 -61 176 -50 56 -123 88 -286 125
-155 35 -208 59 -230 105 -48 101 61 196 209 183 81 -7 134 -40 161 -99 l22
-48 84 0 84 0 -7 47 c-13 94 -91 184 -195 224 -74 29 -233 35 -311 14z"/>
<path d="M4970 1098 c43 -127 297 -859 310 -896 l12 -33 105 3 105 3 174 500
c95 275 174 501 174 503 0 1 -44 2 -98 2 l-98 0 -73 -232 c-144 -460 -183
-580 -187 -575 -5 4 -254 794 -254 803 0 2 -45 4 -99 4 l-100 0 29 -82z"/>
<path d="M7428 1008 l-3 -93 -52 -3 -53 -3 0 -65 0 -64 55 0 55 0 0 -232 c1
-243 7 -285 47 -330 34 -39 92 -58 181 -58 l82 0 0 65 0 65 -39 0 c-24 0 -48
8 -65 21 l-26 20 0 225 0 224 65 0 65 0 0 65 0 65 -65 0 -65 0 0 95 0 95 -90
0 -89 0 -3 -92z"/>
<path d="M417 915 c-44 -15 -81 -46 -108 -90 l-19 -30 0 58 0 57 -90 0 -90 0
0 -370 0 -370 90 0 90 0 0 251 c0 279 5 304 64 340 38 23 106 25 146 4 57 -29
60 -48 60 -335 l0 -260 85 0 85 0 0 238 c0 130 5 254 10 274 6 20 26 50 46 67
29 26 43 31 88 31 40 0 60 -6 81 -22 51 -40 55 -65 55 -338 l0 -250 85 0 85 0
0 283 c0 166 -4 298 -11 320 -22 81 -127 157 -217 157 -99 0 -190 -49 -229
-123 l-16 -31 -23 46 c-47 93 -160 132 -267 93z"/>
<path d="M1513 915 c-109 -30 -193 -118 -193 -201 0 -23 2 -24 78 -24 77 0 77
0 92 33 39 84 212 90 254 8 9 -16 16 -48 16 -69 0 -38 -2 -40 -37 -46 -21 -3
-62 -6 -92 -6 -81 0 -180 -20 -233 -46 -155 -78 -151 -293 6 -377 33 -17 58
-22 126 -22 98 0 128 12 191 77 l39 40 0 -56 0 -56 85 0 85 0 1 203 c2 334 0
367 -22 414 -24 50 -67 89 -129 116 -59 26 -196 32 -267 12z m245 -470 c-3
-34 -13 -67 -24 -83 -26 -35 -99 -72 -141 -72 -43 0 -111 28 -123 51 -11 20
-13 69 -4 94 15 37 103 61 233 64 l63 1 -4 -55z"/>
<path d="M2254 910 c-154 -50 -245 -208 -230 -401 10 -148 70 -251 177 -310
62 -33 67 -34 179 -34 100 0 120 3 157 23 89 47 150 124 166 210 l7 32 -83 0
-83 0 -19 -42 c-11 -24 -36 -54 -55 -66 -29 -20 -45 -23 -95 -20 -75 5 -114
30 -147 96 -19 40 -23 62 -23 147 1 108 16 155 67 202 85 80 236 39 264 -71 6
-25 8 -26 90 -26 l84 0 -6 33 c-18 94 -82 173 -173 215 -77 35 -191 40 -277
12z"/>
<path d="M6050 916 c-173 -46 -272 -230 -242 -446 22 -152 105 -259 231 -296
79 -24 222 -16 281 15 76 39 131 99 160 176 l10 25 -85 0 c-75 0 -84 -2 -90
-20 -18 -57 -148 -96 -220 -66 -69 29 -99 69 -114 151 l-8 45 264 0 265 0 -7
73 c-9 98 -28 163 -65 219 -74 111 -235 164 -380 124z m190 -148 c45 -31 69
-66 77 -111 l6 -37 -172 0 c-193 0 -188 -3 -152 76 17 38 54 73 91 87 39 15
118 7 150 -15z"/>
<path d="M6918 921 c-48 -16 -98 -52 -123 -89 l-25 -37 0 58 0 57 -90 0 -90 0
0 -370 0 -370 90 0 90 0 0 247 c0 244 0 247 25 288 29 50 75 75 140 75 63 0
103 -23 126 -73 17 -38 19 -68 19 -289 l0 -248 90 0 89 0 -3 278 c-2 174 -7
290 -15 313 -18 56 -66 116 -113 140 -47 24 -163 35 -210 20z"/>
<path d="M8915 916 c-35 -16 -75 -56 -91 -94 -12 -25 -12 -23 -13 31 l-1 57
-90 0 -90 0 0 -370 0 -370 90 0 90 0 0 245 c0 222 2 249 19 283 27 53 69 74
147 74 l65 -1 -3 77 -3 77 -45 2 c-25 2 -58 -3 -75 -11z"/>
<path d="M9293 915 c-109 -30 -193 -118 -193 -201 0 -23 2 -24 78 -24 77 0 77
0 92 33 39 84 212 90 254 8 9 -16 16 -48 16 -69 0 -38 -2 -40 -37 -46 -21 -3
-60 -6 -86 -6 -81 0 -190 -21 -239 -46 -155 -78 -151 -293 6 -377 33 -17 58
-22 126 -22 98 0 128 12 191 77 l39 40 0 -56 0 -56 85 0 85 0 1 203 c1 350 0
368 -22 414 -24 50 -67 89 -129 116 -59 26 -196 32 -267 12z m245 -470 c-3
-34 -13 -67 -24 -83 -26 -35 -99 -72 -141 -72 -43 0 -111 28 -123 51 -11 20
-13 69 -4 94 15 37 103 61 233 64 l63 1 -4 -55z"/>
<path d="M7840 640 c0 -220 3 -278 16 -317 37 -109 115 -163 239 -163 86 0
143 24 197 82 l38 41 0 -56 0 -57 85 0 85 0 0 370 0 370 -85 0 -85 0 0 -222
c0 -125 -5 -240 -11 -261 -42 -154 -257 -169 -298 -21 -6 23 -11 135 -11 272
l0 232 -85 0 -85 0 0 -270z"/>
</g>
</svg>
