<?xml version="1.0" encoding="utf-8"?>
<!-- Generator: Adobe Illustrator 15.1.0, SVG Export Plug-In . SVG Version: 6.00 Build 0)  -->
<!DOCTYPE svg PUBLIC "-//W3C//DTD SVG 1.1//EN" "http://www.w3.org/Graphics/SVG/1.1/DTD/svg11.dtd">
<svg version="1.1" id="Layer_1" xmlns="http://www.w3.org/2000/svg" xmlns:xlink="http://www.w3.org/1999/xlink" x="0px" y="0px"
	 width="802px" height="454px" viewBox="0 0 802 454" enable-background="new 0 0 802 454" xml:space="preserve">
<rect x="1" y="1" fill="#DF9FFF" stroke="#231F20" stroke-width="2" width="431" height="298"/>
<g>
	<rect x="25" y="24" fill="#BBE0E3" stroke="#231F20" stroke-width="2" width="121" height="163"/>
	<rect x="157.5" y="24" fill="#BBE0E3" stroke="#231F20" stroke-width="2" width="121" height="163"/>
	<rect x="290" y="24" fill="#BBE0E3" stroke="#231F20" stroke-width="2" width="121" height="163"/>
	<g>
		<path d="M188.6,105.445c-0.11-2.068-0.242-4.577-0.242-6.403h-0.044c-0.528,1.716-1.122,3.587-1.87,5.633l-2.618,7.195h-1.452
			l-2.42-7.063c-0.704-2.112-1.276-4.005-1.694-5.765h-0.044c-0.044,1.849-0.154,4.313-0.286,6.557l-0.396,6.359h-1.826l1.034-14.83
			h2.442l2.53,7.173c0.616,1.826,1.1,3.455,1.496,4.995h0.044c0.396-1.496,0.924-3.124,1.584-4.995l2.64-7.173h2.442l0.924,14.83
			h-1.893L188.6,105.445z"/>
		<path d="M201.337,109.405c0,0.924,0.044,1.826,0.154,2.552h-1.738l-0.154-1.342h-0.066c-0.594,0.836-1.738,1.584-3.257,1.584
			c-2.156,0-3.256-1.519-3.256-3.059c0-2.574,2.289-3.982,6.403-3.96v-0.22c0-0.858-0.242-2.464-2.42-2.442
			c-1.012,0-2.046,0.286-2.794,0.792l-0.44-1.298c0.88-0.55,2.179-0.924,3.521-0.924c3.257,0,4.049,2.222,4.049,4.334V109.405z
			 M199.467,106.523c-2.112-0.044-4.511,0.33-4.511,2.398c0,1.276,0.836,1.849,1.804,1.849c1.408,0,2.31-0.88,2.618-1.782
			c0.066-0.22,0.088-0.44,0.088-0.616V106.523z"/>
		<path d="M212.05,111.583c-0.506,0.242-1.628,0.616-3.059,0.616c-3.212,0-5.303-2.179-5.303-5.435c0-3.278,2.245-5.677,5.721-5.677
			c1.144,0,2.156,0.286,2.684,0.572l-0.44,1.474c-0.462-0.242-1.188-0.506-2.244-0.506c-2.442,0-3.763,1.826-3.763,4.026
			c0,2.464,1.584,3.982,3.696,3.982c1.101,0,1.827-0.264,2.376-0.506L212.05,111.583z"/>
		<path d="M216.802,111.958l-3.763-14.83h2.024l1.76,7.503c0.44,1.848,0.836,3.697,1.1,5.127h0.044
			c0.242-1.474,0.704-3.234,1.21-5.149l1.98-7.481h2.002l1.804,7.525c0.418,1.76,0.814,3.521,1.034,5.083h0.044
			c0.308-1.628,0.726-3.279,1.188-5.127l1.958-7.481h1.958l-4.203,14.83h-2.002l-1.871-7.723c-0.462-1.892-0.77-3.344-0.968-4.841
			h-0.044c-0.242,1.474-0.594,2.927-1.145,4.841l-2.112,7.723H216.802z"/>
		<path d="M232.576,104.63c0-1.254-0.022-2.332-0.088-3.322h1.694l0.088,2.112h0.066c0.484-1.43,1.672-2.333,2.97-2.333
			c0.198,0,0.352,0.022,0.528,0.044v1.826c-0.198-0.044-0.396-0.044-0.66-0.044c-1.364,0-2.333,1.012-2.597,2.464
			c-0.044,0.264-0.066,0.594-0.066,0.902v5.677h-1.936V104.63z"/>
		<path d="M242.014,98.315c0,0.66-0.462,1.188-1.232,1.188c-0.704,0-1.166-0.528-1.166-1.188s0.484-1.21,1.21-1.21
			C241.529,97.105,242.014,97.633,242.014,98.315z M239.857,111.958v-10.649h1.936v10.649H239.857z"/>
		<path d="M247.337,98.755v2.553h2.772v1.474h-2.772v5.743c0,1.32,0.374,2.068,1.452,2.068c0.528,0,0.836-0.044,1.123-0.132
			l0.088,1.474c-0.374,0.132-0.968,0.264-1.716,0.264c-0.902,0-1.628-0.308-2.09-0.814c-0.528-0.594-0.748-1.54-0.748-2.794v-5.809
			h-1.65v-1.474h1.65v-1.98L247.337,98.755z"/>
		<path d="M253.233,106.985c0.044,2.618,1.694,3.696,3.652,3.696c1.386,0,2.244-0.242,2.948-0.55l0.352,1.386
			c-0.682,0.308-1.87,0.682-3.564,0.682c-3.278,0-5.237-2.179-5.237-5.391s1.893-5.721,4.995-5.721c3.498,0,4.4,3.037,4.4,4.995
			c0,0.396-0.022,0.682-0.066,0.902H253.233z M258.91,105.599c0.022-1.21-0.506-3.125-2.685-3.125c-1.98,0-2.816,1.782-2.97,3.125
			H258.91z"/>
	</g>
	<g>
		<path d="M301.166,97.303c0.924-0.154,2.134-0.286,3.674-0.286c1.893,0,3.278,0.44,4.159,1.232
			c0.792,0.704,1.298,1.782,1.298,3.103c0,1.342-0.396,2.398-1.145,3.168c-1.034,1.078-2.662,1.628-4.532,1.628
			c-0.572,0-1.101-0.022-1.541-0.132v5.941h-1.914V97.303z M303.08,104.454c0.418,0.11,0.946,0.154,1.584,0.154
			c2.31,0,3.718-1.144,3.718-3.146c0-1.98-1.408-2.926-3.499-2.926c-0.836,0-1.474,0.066-1.804,0.154V104.454z"/>
		<path d="M319.713,109.405c0,0.924,0.044,1.826,0.154,2.552h-1.738l-0.154-1.342h-0.066c-0.594,0.836-1.738,1.584-3.257,1.584
			c-2.156,0-3.256-1.519-3.256-3.059c0-2.574,2.289-3.982,6.403-3.96v-0.22c0-0.858-0.242-2.464-2.42-2.442
			c-1.012,0-2.046,0.286-2.794,0.792l-0.44-1.298c0.88-0.55,2.179-0.924,3.521-0.924c3.257,0,4.049,2.222,4.049,4.334V109.405z
			 M317.843,106.522c-2.112-0.044-4.511,0.33-4.511,2.398c0,1.276,0.836,1.849,1.804,1.849c1.408,0,2.31-0.88,2.618-1.782
			c0.066-0.22,0.088-0.44,0.088-0.616V106.522z"/>
		<path d="M331.945,110.395c0,2.464-0.506,3.938-1.518,4.884c-1.056,0.946-2.552,1.276-3.895,1.276c-1.276,0-2.685-0.308-3.542-0.88
			l0.484-1.497c0.704,0.462,1.805,0.858,3.125,0.858c1.98,0,3.433-1.034,3.433-3.741v-1.166h-0.044
			c-0.572,0.99-1.738,1.782-3.389,1.782c-2.64,0-4.533-2.244-4.533-5.193c0-3.608,2.354-5.633,4.819-5.633
			c1.848,0,2.838,0.946,3.323,1.826h0.044l0.066-1.606h1.716c-0.066,0.748-0.088,1.628-0.088,2.904V110.395z M330.009,105.51
			c0-0.33-0.022-0.616-0.11-0.858c-0.352-1.144-1.276-2.068-2.707-2.068c-1.848,0-3.168,1.563-3.168,4.027
			c0,2.09,1.078,3.829,3.146,3.829c1.21,0,2.288-0.748,2.684-1.98c0.11-0.33,0.154-0.704,0.154-1.034V105.51z"/>
		<path d="M336.212,106.984c0.044,2.618,1.694,3.696,3.652,3.696c1.386,0,2.244-0.242,2.948-0.55l0.352,1.386
			c-0.682,0.308-1.87,0.682-3.564,0.682c-3.278,0-5.237-2.179-5.237-5.391s1.893-5.721,4.995-5.721c3.498,0,4.4,3.037,4.4,4.995
			c0,0.396-0.022,0.682-0.066,0.902H336.212z M341.889,105.598c0.022-1.21-0.506-3.125-2.685-3.125c-1.98,0-2.816,1.782-2.97,3.125
			H341.889z"/>
		<path d="M358.719,105.444c-0.11-2.068-0.242-4.577-0.242-6.403h-0.044c-0.528,1.716-1.122,3.587-1.87,5.633l-2.618,7.195h-1.452
			l-2.42-7.063c-0.704-2.112-1.276-4.005-1.694-5.765h-0.044c-0.044,1.849-0.154,4.313-0.286,6.557l-0.396,6.359h-1.826l1.034-14.83
			h2.442l2.53,7.173c0.616,1.826,1.1,3.455,1.496,4.995h0.044c0.396-1.496,0.924-3.124,1.584-4.995l2.64-7.173h2.442l0.924,14.83
			h-1.893L358.719,105.444z"/>
		<path d="M371.457,109.405c0,0.924,0.044,1.826,0.154,2.552h-1.738l-0.154-1.342h-0.066c-0.594,0.836-1.738,1.584-3.257,1.584
			c-2.156,0-3.256-1.519-3.256-3.059c0-2.574,2.289-3.982,6.403-3.96v-0.22c0-0.858-0.242-2.464-2.42-2.442
			c-1.012,0-2.046,0.286-2.794,0.792l-0.44-1.298c0.88-0.55,2.179-0.924,3.521-0.924c3.257,0,4.049,2.222,4.049,4.334V109.405z
			 M369.586,106.522c-2.112-0.044-4.511,0.33-4.511,2.398c0,1.276,0.836,1.849,1.804,1.849c1.408,0,2.31-0.88,2.618-1.782
			c0.066-0.22,0.088-0.44,0.088-0.616V106.522z"/>
		<path d="M376.494,106.192h0.044c0.264-0.374,0.616-0.836,0.924-1.21l3.146-3.674h2.31l-4.092,4.378l4.686,6.271h-2.376
			l-3.652-5.104l-0.99,1.1v4.004h-1.914V96.335h1.914V106.192z"/>
		<path d="M385.975,106.984c0.044,2.618,1.694,3.696,3.652,3.696c1.386,0,2.244-0.242,2.948-0.55l0.353,1.386
			c-0.683,0.308-1.87,0.682-3.564,0.682c-3.279,0-5.237-2.179-5.237-5.391s1.893-5.721,4.995-5.721c3.498,0,4.4,3.037,4.4,4.995
			c0,0.396-0.022,0.682-0.066,0.902H385.975z M391.652,105.598c0.021-1.21-0.506-3.125-2.685-3.125c-1.98,0-2.816,1.782-2.971,3.125
			H391.652z"/>
		<path d="M395.919,104.63c0-1.254-0.022-2.332-0.088-3.322h1.694l0.088,2.112h0.065c0.484-1.43,1.673-2.333,2.971-2.333
			c0.198,0,0.352,0.022,0.528,0.044v1.826c-0.198-0.044-0.396-0.044-0.66-0.044c-1.364,0-2.333,1.012-2.597,2.464
			c-0.044,0.264-0.065,0.594-0.065,0.902v5.677h-1.937V104.63z"/>
	</g>
	<g>
		<path d="M58.089,97.127h7.987v1.606h-6.051v4.929h5.589v1.584h-5.589v6.711h-1.936V97.127z"/>
		<path d="M70.343,98.315c0,0.66-0.462,1.188-1.232,1.188c-0.704,0-1.166-0.528-1.166-1.188s0.484-1.21,1.21-1.21
			C69.859,97.105,70.343,97.633,70.343,98.315z M68.187,111.957v-10.649h1.936v10.649H68.187z"/>
		<path d="M73.335,104.19c0-1.122-0.022-2.002-0.088-2.882h1.716l0.11,1.76h0.044c0.528-0.99,1.76-1.98,3.521-1.98
			c1.474,0,3.762,0.88,3.762,4.533v6.337h-1.936v-6.139c0-1.716-0.638-3.146-2.464-3.146c-1.254,0-2.245,0.902-2.597,1.98
			c-0.088,0.242-0.132,0.572-0.132,0.902v6.403h-1.936V104.19z"/>
		<path d="M94.72,96.335v12.872c0,0.946,0.044,2.024,0.088,2.75h-1.716l-0.088-1.848h-0.066c-0.572,1.188-1.849,2.09-3.587,2.09
			c-2.574,0-4.577-2.179-4.577-5.413c-0.022-3.542,2.201-5.699,4.775-5.699c1.65,0,2.729,0.77,3.212,1.606h0.044v-6.359H94.72z
			 M92.806,105.642c0-0.242-0.022-0.572-0.088-0.814c-0.286-1.21-1.342-2.223-2.794-2.223c-2.002,0-3.19,1.76-3.19,4.093
			c0,2.156,1.078,3.938,3.146,3.938c1.298,0,2.486-0.88,2.838-2.31c0.066-0.264,0.088-0.528,0.088-0.836V105.642z"/>
		<path d="M99.031,106.984c0.044,2.618,1.694,3.696,3.652,3.696c1.386,0,2.244-0.242,2.948-0.55l0.352,1.386
			c-0.682,0.308-1.87,0.682-3.564,0.682c-3.278,0-5.237-2.179-5.237-5.391s1.893-5.721,4.995-5.721c3.499,0,4.4,3.037,4.4,4.995
			c0,0.396-0.022,0.682-0.066,0.902H99.031z M104.708,105.598c0.022-1.21-0.506-3.125-2.685-3.125c-1.98,0-2.816,1.782-2.97,3.125
			H104.708z"/>
		<path d="M108.975,104.63c0-1.254-0.022-2.332-0.088-3.322h1.694l0.088,2.112h0.066c0.484-1.43,1.672-2.333,2.97-2.333
			c0.198,0,0.352,0.022,0.528,0.044v1.826c-0.198-0.044-0.396-0.044-0.66-0.044c-1.364,0-2.333,1.012-2.597,2.464
			c-0.044,0.264-0.066,0.594-0.066,0.902v5.677h-1.936V104.63z"/>
	</g>
</g>
<g>
	<rect x="25" y="206" fill="#B5E9B5" stroke="#231F20" stroke-width="2" width="121" height="73"/>
	<rect x="157.5" y="206" fill="#B5E9B5" stroke="#231F20" stroke-width="2" width="121" height="73"/>
	<rect x="290" y="206" fill="#B5E9B5" stroke="#231F20" stroke-width="2" width="121" height="73"/>
	<g>
		<path d="M53.403,235.755h-4.511v-1.628h10.979v1.628h-4.533v13.202h-1.936V235.755z"/>
		<path d="M69.53,243.545c0,3.938-2.75,5.654-5.303,5.654c-2.86,0-5.105-2.112-5.105-5.479c0-3.543,2.354-5.633,5.281-5.633
			C67.461,238.088,69.53,240.31,69.53,243.545z M61.103,243.654c0,2.332,1.32,4.093,3.212,4.093c1.848,0,3.234-1.738,3.234-4.137
			c0-1.804-0.902-4.071-3.19-4.071C62.093,239.539,61.103,241.652,61.103,243.654z"/>
		<path d="M81.607,243.545c0,3.938-2.75,5.654-5.303,5.654c-2.86,0-5.105-2.112-5.105-5.479c0-3.543,2.354-5.633,5.281-5.633
			C79.539,238.088,81.607,240.31,81.607,243.545z M73.18,243.654c0,2.332,1.32,4.093,3.212,4.093c1.848,0,3.234-1.738,3.234-4.137
			c0-1.804-0.902-4.071-3.19-4.071C74.17,239.539,73.18,241.652,73.18,243.654z"/>
		<path d="M84.048,233.335h1.936v15.622h-1.936V233.335z"/>
		<path d="M89.24,233.335h1.914v6.688h0.044c0.682-1.188,1.915-1.936,3.63-1.936c2.663,0,4.511,2.199,4.511,5.412
			c0,3.807-2.42,5.699-4.796,5.699c-1.541,0-2.772-0.594-3.587-1.98h-0.044l-0.11,1.738h-1.65c0.044-0.727,0.088-1.805,0.088-2.75
			V233.335z M91.154,244.688c0,0.242,0.022,0.483,0.088,0.704c0.352,1.342,1.496,2.266,2.904,2.266c2.046,0,3.235-1.649,3.235-4.092
			c0-2.135-1.1-3.961-3.19-3.961c-1.298,0-2.531,0.924-2.927,2.377c-0.066,0.242-0.11,0.506-0.11,0.813V244.688z"/>
		<path d="M111.395,243.545c0,3.938-2.75,5.654-5.303,5.654c-2.86,0-5.105-2.112-5.105-5.479c0-3.543,2.354-5.633,5.281-5.633
			C109.327,238.088,111.395,240.31,111.395,243.545z M102.968,243.654c0,2.332,1.32,4.093,3.212,4.093
			c1.848,0,3.234-1.738,3.234-4.137c0-1.804-0.902-4.071-3.19-4.071C103.958,239.539,102.968,241.652,102.968,243.654z"/>
		<path d="M114.43,238.308l1.518,2.288c0.418,0.594,0.749,1.122,1.101,1.717h0.044c0.352-0.617,0.704-1.166,1.078-1.738l1.474-2.267
			h2.112l-3.63,5.148l3.718,5.501h-2.178l-1.584-2.398c-0.418-0.616-0.77-1.21-1.144-1.848h-0.044
			c-0.352,0.638-0.704,1.209-1.122,1.848l-1.54,2.398h-2.134l3.784-5.435l-3.608-5.215H114.43z"/>
	</g>
	<g>
		<path d="M181.395,251.135c-2.002-0.527-3.961-1.121-5.677-1.716c-0.33-0.11-0.616-0.22-0.902-0.22
			c-3.542-0.133-6.535-2.729-6.535-7.525c0-4.752,2.882-7.811,6.887-7.811c4.048,0,6.667,3.124,6.667,7.502
			c0,3.829-1.76,6.25-4.225,7.13v0.088c1.474,0.374,3.081,0.726,4.334,0.946L181.395,251.135z M179.81,241.477
			c0-2.993-1.54-6.051-4.687-6.051c-3.235,0-4.819,2.992-4.819,6.204c0,3.169,1.716,6.007,4.753,6.007
			C178.094,247.637,179.81,244.842,179.81,241.477z"/>
		<path d="M193.229,246.031c0,1.121,0.022,2.09,0.088,2.926h-1.716l-0.11-1.738h-0.044c-0.484,0.858-1.628,1.98-3.521,1.98
			c-1.672,0-3.675-0.946-3.675-4.665v-6.227h1.937v5.874c0,2.025,0.638,3.411,2.376,3.411c1.298,0,2.2-0.901,2.552-1.782
			c0.11-0.264,0.176-0.616,0.176-0.99v-6.513h1.937V246.031z"/>
		<path d="M198.597,235.314c0,0.66-0.462,1.189-1.232,1.189c-0.704,0-1.166-0.529-1.166-1.189s0.484-1.209,1.21-1.209
			C198.112,234.105,198.597,234.633,198.597,235.314z M196.44,248.957v-10.649h1.936v10.649H196.44z"/>
		<path d="M209.179,248.583c-0.506,0.242-1.628,0.616-3.059,0.616c-3.212,0-5.303-2.179-5.303-5.436
			c0-3.277,2.245-5.676,5.721-5.676c1.144,0,2.156,0.285,2.684,0.572l-0.44,1.474c-0.462-0.242-1.188-0.506-2.244-0.506
			c-2.442,0-3.763,1.826-3.763,4.026c0,2.465,1.584,3.982,3.696,3.982c1.101,0,1.827-0.264,2.376-0.506L209.179,248.583z"/>
		<path d="M213.358,243.192h0.044c0.264-0.374,0.616-0.837,0.924-1.21l3.146-3.675h2.31l-4.092,4.378l4.687,6.271h-2.376
			l-3.652-5.104l-0.99,1.101v4.004h-1.914v-15.622h1.914V243.192z"/>
		<path d="M221.828,234.347c1.166-0.198,2.552-0.329,4.07-0.329c2.75,0,4.709,0.659,6.007,1.848c1.342,1.21,2.112,2.926,2.112,5.324
			c0,2.421-0.77,4.4-2.134,5.766c-1.408,1.386-3.696,2.134-6.579,2.134c-1.386,0-2.509-0.065-3.477-0.176V234.347z M223.742,247.461
			c0.484,0.066,1.188,0.088,1.937,0.088c4.114,0,6.315-2.288,6.315-6.293c0.022-3.498-1.958-5.721-6.007-5.721
			c-0.99,0-1.738,0.088-2.245,0.197V247.461z"/>
		<path d="M236.414,241.63c0-1.254-0.022-2.332-0.088-3.322h1.694l0.088,2.112h0.066c0.484-1.43,1.672-2.332,2.97-2.332
			c0.198,0,0.352,0.021,0.528,0.043v1.826c-0.198-0.043-0.396-0.043-0.66-0.043c-1.364,0-2.333,1.012-2.597,2.464
			c-0.044,0.265-0.066,0.595-0.066,0.902v5.677h-1.936V241.63z"/>
		<path d="M250.979,246.404c0,0.924,0.044,1.826,0.154,2.553h-1.738l-0.154-1.342h-0.066c-0.594,0.836-1.738,1.584-3.257,1.584
			c-2.156,0-3.256-1.519-3.256-3.059c0-2.574,2.289-3.982,6.403-3.961v-0.22c0-0.858-0.242-2.464-2.42-2.442
			c-1.012,0-2.046,0.286-2.794,0.792l-0.44-1.298c0.88-0.551,2.178-0.924,3.521-0.924c3.257,0,4.049,2.222,4.049,4.334V246.404z
			 M249.108,243.522c-2.112-0.044-4.51,0.33-4.51,2.397c0,1.277,0.836,1.85,1.804,1.85c1.408,0,2.31-0.881,2.618-1.783
			c0.066-0.22,0.088-0.439,0.088-0.615V243.522z"/>
		<path d="M254.696,238.308l1.43,5.413c0.286,1.188,0.572,2.288,0.77,3.389h0.066c0.242-1.078,0.594-2.223,0.946-3.367l1.738-5.435
			h1.628l1.65,5.325c0.396,1.275,0.704,2.398,0.946,3.477h0.066c0.176-1.078,0.462-2.201,0.814-3.455l1.519-5.347h1.914
			l-3.433,10.649h-1.76l-1.628-5.082c-0.374-1.189-0.682-2.245-0.946-3.499h-0.044c-0.264,1.276-0.594,2.376-0.968,3.521
			l-1.716,5.061h-1.76l-3.212-10.649H254.696z"/>
	</g>
	<g>
		<path d="M317.028,248.957l-3.763-14.83h2.024l1.76,7.503c0.44,1.849,0.836,3.696,1.1,5.127h0.044
			c0.242-1.474,0.704-3.234,1.21-5.149l1.98-7.48h2.002l1.804,7.525c0.418,1.76,0.814,3.52,1.034,5.082h0.044
			c0.308-1.628,0.726-3.278,1.188-5.127l1.958-7.48h1.958l-4.203,14.83h-2.002l-1.871-7.723c-0.462-1.893-0.77-3.345-0.968-4.842
			h-0.044c-0.242,1.475-0.594,2.928-1.145,4.842l-2.112,7.723H317.028z"/>
		<path d="M334.958,235.314c0,0.66-0.462,1.189-1.232,1.189c-0.704,0-1.166-0.529-1.166-1.189s0.484-1.209,1.21-1.209
			C334.474,234.105,334.958,234.633,334.958,235.314z M332.802,248.957v-10.649h1.936v10.649H332.802z"/>
		<path d="M347.125,233.335v12.872c0,0.945,0.044,2.023,0.088,2.75h-1.716l-0.088-1.848h-0.066c-0.572,1.188-1.849,2.09-3.587,2.09
			c-2.574,0-4.577-2.179-4.577-5.413c-0.022-3.542,2.201-5.698,4.775-5.698c1.65,0,2.729,0.77,3.212,1.605h0.044v-6.358H347.125z
			 M345.21,242.643c0-0.242-0.022-0.572-0.088-0.814c-0.286-1.211-1.342-2.223-2.794-2.223c-2.002,0-3.19,1.76-3.19,4.093
			c0,2.156,1.078,3.938,3.146,3.938c1.298,0,2.486-0.88,2.838-2.311c0.066-0.264,0.088-0.527,0.088-0.836V242.643z"/>
		<path d="M359.467,247.395c0,2.465-0.506,3.939-1.518,4.885c-1.056,0.946-2.552,1.276-3.895,1.276c-1.276,0-2.685-0.308-3.542-0.88
			l0.484-1.496c0.704,0.462,1.804,0.857,3.125,0.857c1.98,0,3.433-1.033,3.433-3.74v-1.166h-0.044
			c-0.572,0.99-1.738,1.782-3.389,1.782c-2.64,0-4.533-2.244-4.533-5.192c0-3.609,2.354-5.633,4.819-5.633
			c1.848,0,2.838,0.945,3.322,1.826h0.044l0.066-1.606h1.716c-0.066,0.748-0.088,1.628-0.088,2.904V247.395z M357.531,242.51
			c0-0.33-0.022-0.615-0.11-0.857c-0.352-1.145-1.276-2.068-2.707-2.068c-1.848,0-3.168,1.563-3.168,4.026
			c0,2.091,1.078,3.829,3.146,3.829c1.21,0,2.288-0.748,2.685-1.98c0.11-0.33,0.154-0.705,0.154-1.035V242.51z"/>
		<path d="M363.734,243.984c0.044,2.618,1.694,3.696,3.652,3.696c1.386,0,2.244-0.241,2.948-0.55l0.352,1.387
			c-0.682,0.308-1.87,0.682-3.564,0.682c-3.278,0-5.237-2.179-5.237-5.391c0-3.213,1.893-5.721,4.995-5.721
			c3.499,0,4.4,3.036,4.4,4.994c0,0.396-0.022,0.682-0.066,0.902H363.734z M369.411,242.598c0.022-1.21-0.506-3.124-2.685-3.124
			c-1.98,0-2.816,1.782-2.97,3.124H369.411z"/>
		<path d="M376.009,235.755v2.553h2.773v1.474h-2.773v5.743c0,1.32,0.374,2.068,1.453,2.068c0.527,0,0.836-0.044,1.122-0.132
			l0.088,1.475c-0.374,0.131-0.969,0.264-1.717,0.264c-0.902,0-1.628-0.309-2.09-0.814c-0.528-0.594-0.748-1.54-0.748-2.795v-5.809
			h-1.65v-1.474h1.65v-1.98L376.009,235.755z"/>
		<path d="M380.694,246.998c0.595,0.353,1.606,0.749,2.575,0.749c1.386,0,2.046-0.683,2.046-1.585c0-0.924-0.55-1.408-1.958-1.936
			c-1.937-0.704-2.839-1.738-2.839-3.015c0-1.716,1.408-3.124,3.675-3.124c1.078,0,2.024,0.285,2.597,0.66l-0.463,1.408
			c-0.418-0.265-1.188-0.639-2.178-0.639c-1.145,0-1.761,0.66-1.761,1.452c0,0.88,0.616,1.276,2.003,1.826
			c1.826,0.683,2.794,1.606,2.794,3.19c0,1.893-1.474,3.213-3.961,3.213c-1.166,0-2.244-0.309-2.992-0.748L380.694,246.998z"/>
	</g>
</g>
<g>
	<rect x="472.295" y="1" fill="#DF9FFF" stroke="#231F20" stroke-width="2" width="143" height="298"/>
	<rect x="657.295" y="1" fill="#DF9FFF" stroke="#231F20" stroke-width="2" width="143" height="298"/>
	<g>
		<path d="M498.201,141.627h7.986v1.606h-6.051v4.929h5.59v1.584h-5.59v6.711h-1.936V141.627z"/>
		<path d="M510.455,142.815c0,0.66-0.462,1.188-1.232,1.188c-0.703,0-1.166-0.528-1.166-1.188s0.484-1.21,1.211-1.21
			C509.971,141.605,510.455,142.133,510.455,142.815z M508.299,156.457v-10.649h1.937v10.649H508.299z"/>
		<path d="M513.447,140.835h1.936v15.622h-1.936V140.835z"/>
		<path d="M519.717,151.484c0.045,2.618,1.694,3.696,3.652,3.696c1.387,0,2.244-0.242,2.949-0.55l0.352,1.386
			c-0.682,0.308-1.87,0.682-3.564,0.682c-3.278,0-5.236-2.179-5.236-5.391s1.893-5.721,4.994-5.721c3.499,0,4.4,3.037,4.4,4.995
			c0,0.396-0.021,0.682-0.065,0.902H519.717z M525.395,150.098c0.021-1.21-0.507-3.125-2.686-3.125c-1.979,0-2.816,1.782-2.97,3.125
			H525.395z"/>
		<path d="M534.148,154.125c0.858,0.55,2.09,0.968,3.41,0.968c1.959,0,3.104-1.034,3.104-2.53c0-1.364-0.793-2.178-2.795-2.926
			c-2.42-0.88-3.917-2.157-3.917-4.225c0-2.311,1.915-4.027,4.797-4.027c1.496,0,2.618,0.352,3.257,0.726l-0.528,1.563
			c-0.462-0.286-1.452-0.704-2.794-0.704c-2.025,0-2.795,1.21-2.795,2.222c0,1.386,0.902,2.068,2.948,2.86
			c2.509,0.968,3.763,2.178,3.763,4.356c0,2.289-1.672,4.291-5.171,4.291c-1.431,0-2.992-0.44-3.784-0.968L534.148,154.125z"/>
		<path d="M546.381,151.484c0.044,2.618,1.693,3.696,3.652,3.696c1.387,0,2.244-0.242,2.948-0.55l0.353,1.386
			c-0.683,0.308-1.871,0.682-3.564,0.682c-3.279,0-5.237-2.179-5.237-5.391s1.893-5.721,4.995-5.721c3.498,0,4.4,3.037,4.4,4.995
			c0,0.396-0.021,0.682-0.066,0.902H546.381z M552.058,150.098c0.022-1.21-0.507-3.125-2.685-3.125c-1.98,0-2.816,1.782-2.971,3.125
			H552.058z"/>
		<path d="M556.324,149.13c0-1.254-0.021-2.332-0.088-3.322h1.694l0.088,2.112h0.066c0.483-1.43,1.672-2.333,2.97-2.333
			c0.199,0,0.353,0.022,0.528,0.044v1.826c-0.198-0.044-0.396-0.044-0.659-0.044c-1.365,0-2.333,1.012-2.598,2.464
			c-0.043,0.264-0.065,0.594-0.065,0.902v5.677h-1.937V149.13z"/>
		<path d="M564.816,145.808l2.09,5.963c0.353,0.99,0.639,1.87,0.858,2.75h0.065c0.242-0.88,0.551-1.76,0.902-2.75l2.068-5.963h2.024
			l-4.181,10.649h-1.848l-4.049-10.649H564.816z"/>
		<path d="M575.508,151.484c0.045,2.618,1.694,3.696,3.652,3.696c1.387,0,2.244-0.242,2.949-0.55l0.352,1.386
			c-0.682,0.308-1.87,0.682-3.564,0.682c-3.278,0-5.236-2.179-5.236-5.391s1.893-5.721,4.994-5.721c3.499,0,4.4,3.037,4.4,4.995
			c0,0.396-0.021,0.682-0.065,0.902H575.508z M581.186,150.098c0.021-1.21-0.507-3.125-2.686-3.125c-1.979,0-2.816,1.782-2.97,3.125
			H581.186z"/>
		<path d="M585.452,149.13c0-1.254-0.022-2.332-0.089-3.322h1.695l0.088,2.112h0.066c0.483-1.43,1.672-2.333,2.97-2.333
			c0.198,0,0.353,0.022,0.528,0.044v1.826c-0.198-0.044-0.396-0.044-0.66-0.044c-1.364,0-2.332,1.012-2.597,2.464
			c-0.044,0.264-0.065,0.594-0.065,0.902v5.677h-1.937V149.13z"/>
	</g>
	<g>
		<path d="M680.683,156.457l-3.763-14.83h2.024l1.76,7.503c0.44,1.848,0.837,3.697,1.101,5.127h0.044
			c0.242-1.474,0.704-3.234,1.21-5.149l1.98-7.481h2.002l1.805,7.525c0.418,1.76,0.814,3.521,1.034,5.083h0.044
			c0.308-1.628,0.726-3.279,1.188-5.127l1.958-7.481h1.958l-4.202,14.83h-2.003l-1.87-7.723c-0.462-1.892-0.77-3.344-0.968-4.841
			h-0.044c-0.242,1.474-0.595,2.927-1.145,4.841l-2.112,7.723H680.683z"/>
		<path d="M697.16,151.484c0.044,2.618,1.694,3.696,3.652,3.696c1.386,0,2.244-0.242,2.948-0.55l0.353,1.386
			c-0.683,0.308-1.87,0.682-3.564,0.682c-3.279,0-5.237-2.179-5.237-5.391s1.893-5.721,4.995-5.721c3.498,0,4.4,3.037,4.4,4.995
			c0,0.396-0.021,0.682-0.066,0.902H697.16z M702.837,150.098c0.021-1.21-0.506-3.125-2.685-3.125c-1.98,0-2.816,1.782-2.971,3.125
			H702.837z"/>
		<path d="M707.104,140.835h1.914v6.689h0.044c0.683-1.188,1.914-1.937,3.631-1.937c2.662,0,4.511,2.2,4.511,5.413
			c0,3.807-2.421,5.699-4.797,5.699c-1.54,0-2.772-0.594-3.587-1.98h-0.044l-0.11,1.738h-1.649c0.044-0.726,0.088-1.804,0.088-2.75
			V140.835z M709.019,152.188c0,0.242,0.022,0.484,0.088,0.704c0.353,1.342,1.496,2.266,2.904,2.266c2.047,0,3.234-1.65,3.234-4.092
			c0-2.134-1.1-3.961-3.19-3.961c-1.298,0-2.53,0.924-2.926,2.376c-0.066,0.242-0.11,0.506-0.11,0.814V152.188z"/>
		<path d="M724.11,154.125c0.857,0.55,2.09,0.968,3.41,0.968c1.958,0,3.103-1.034,3.103-2.53c0-1.364-0.792-2.178-2.795-2.926
			c-2.42-0.88-3.916-2.157-3.916-4.225c0-2.311,1.914-4.027,4.797-4.027c1.496,0,2.618,0.352,3.256,0.726l-0.528,1.563
			c-0.462-0.286-1.452-0.704-2.794-0.704c-2.024,0-2.795,1.21-2.795,2.222c0,1.386,0.902,2.068,2.949,2.86
			c2.508,0.968,3.763,2.178,3.763,4.356c0,2.289-1.673,4.291-5.171,4.291c-1.431,0-2.993-0.44-3.785-0.968L724.11,154.125z"/>
		<path d="M736.342,151.484c0.044,2.618,1.694,3.696,3.652,3.696c1.386,0,2.244-0.242,2.948-0.55l0.353,1.386
			c-0.683,0.308-1.87,0.682-3.564,0.682c-3.279,0-5.237-2.179-5.237-5.391s1.893-5.721,4.995-5.721c3.498,0,4.4,3.037,4.4,4.995
			c0,0.396-0.021,0.682-0.066,0.902H736.342z M742.019,150.098c0.021-1.21-0.506-3.125-2.685-3.125c-1.98,0-2.816,1.782-2.971,3.125
			H742.019z"/>
		<path d="M746.285,149.13c0-1.254-0.022-2.332-0.088-3.322h1.694l0.088,2.112h0.065c0.484-1.43,1.673-2.333,2.971-2.333
			c0.198,0,0.352,0.022,0.528,0.044v1.826c-0.198-0.044-0.396-0.044-0.66-0.044c-1.364,0-2.333,1.012-2.597,2.464
			c-0.044,0.264-0.065,0.594-0.065,0.902v5.677h-1.937V149.13z"/>
		<path d="M754.777,145.808l2.09,5.963c0.353,0.99,0.639,1.87,0.858,2.75h0.066c0.241-0.88,0.55-1.76,0.901-2.75l2.068-5.963h2.024
			l-4.181,10.649h-1.848l-4.049-10.649H754.777z"/>
		<path d="M765.469,151.484c0.044,2.618,1.694,3.696,3.652,3.696c1.386,0,2.244-0.242,2.948-0.55l0.353,1.386
			c-0.683,0.308-1.87,0.682-3.564,0.682c-3.279,0-5.237-2.179-5.237-5.391s1.893-5.721,4.995-5.721c3.498,0,4.4,3.037,4.4,4.995
			c0,0.396-0.021,0.682-0.066,0.902H765.469z M771.146,150.098c0.021-1.21-0.506-3.125-2.685-3.125c-1.98,0-2.816,1.782-2.971,3.125
			H771.146z"/>
		<path d="M775.413,149.13c0-1.254-0.022-2.332-0.088-3.322h1.694l0.088,2.112h0.065c0.484-1.43,1.673-2.333,2.971-2.333
			c0.198,0,0.353,0.022,0.528,0.044v1.826c-0.198-0.044-0.396-0.044-0.66-0.044c-1.364,0-2.332,1.012-2.597,2.464
			c-0.044,0.264-0.065,0.594-0.065,0.902v5.677h-1.937V149.13z"/>
	</g>
</g>
<g>
	<rect x="542.942" y="340" fill="#DF9FFF" stroke="#231F20" stroke-width="2" width="257.705" height="50"/>
	<rect x="272.147" y="340" fill="#DF9FFF" stroke="#231F20" stroke-width="2" width="257.705" height="50"/>
	<rect x="1.353" y="340" fill="#DF9FFF" stroke="#231F20" stroke-width="2" width="257.705" height="50"/>
	<g>
		<path d="M80.706,356.627h7.987v1.605h-6.051v4.93h5.589v1.584h-5.589v6.711h-1.936V356.627z"/>
		<path d="M92.96,357.814c0,0.66-0.462,1.189-1.232,1.189c-0.704,0-1.166-0.529-1.166-1.189s0.484-1.209,1.21-1.209
			C92.476,356.605,92.96,357.133,92.96,357.814z M90.804,371.457v-10.649h1.936v10.649H90.804z"/>
		<path d="M95.952,355.835h1.936v15.622h-1.936V355.835z"/>
		<path d="M102.222,366.484c0.044,2.618,1.694,3.696,3.652,3.696c1.386,0,2.244-0.241,2.948-0.55l0.352,1.387
			c-0.682,0.308-1.87,0.682-3.564,0.682c-3.278,0-5.237-2.179-5.237-5.391c0-3.213,1.893-5.721,4.995-5.721
			c3.499,0,4.4,3.036,4.4,4.994c0,0.396-0.022,0.682-0.066,0.902H102.222z M107.899,365.098c0.022-1.21-0.506-3.124-2.685-3.124
			c-1.98,0-2.816,1.782-2.97,3.124H107.899z"/>
		<path d="M116.653,369.125c0.858,0.55,2.09,0.968,3.411,0.968c1.958,0,3.103-1.034,3.103-2.53c0-1.364-0.792-2.178-2.794-2.926
			c-2.42-0.881-3.917-2.157-3.917-4.225c0-2.311,1.915-4.027,4.797-4.027c1.496,0,2.619,0.352,3.256,0.727l-0.528,1.563
			c-0.462-0.287-1.452-0.705-2.794-0.705c-2.024,0-2.794,1.211-2.794,2.223c0,1.387,0.902,2.068,2.948,2.86
			c2.509,0.968,3.763,2.179,3.763,4.356c0,2.289-1.672,4.291-5.171,4.291c-1.43,0-2.992-0.44-3.784-0.969L116.653,369.125z"/>
		<path d="M128.204,360.808l2.31,6.293c0.264,0.704,0.528,1.54,0.704,2.179h0.044c0.198-0.639,0.418-1.453,0.682-2.223l2.112-6.249
			h2.046l-2.904,7.591c-1.386,3.652-2.333,5.501-3.653,6.667c-0.968,0.814-1.892,1.145-2.376,1.232l-0.484-1.606
			c0.484-0.154,1.122-0.462,1.694-0.946c0.528-0.418,1.166-1.166,1.628-2.156c0.088-0.198,0.154-0.353,0.154-0.462
			s-0.044-0.264-0.154-0.506l-3.917-9.813H128.204z"/>
		<path d="M137.465,369.498c0.594,0.353,1.606,0.749,2.574,0.749c1.386,0,2.046-0.683,2.046-1.585c0-0.924-0.55-1.408-1.958-1.936
			c-1.936-0.704-2.838-1.738-2.838-3.015c0-1.716,1.408-3.124,3.675-3.124c1.078,0,2.024,0.285,2.596,0.66l-0.462,1.408
			c-0.418-0.265-1.188-0.639-2.178-0.639c-1.145,0-1.76,0.66-1.76,1.452c0,0.88,0.616,1.276,2.002,1.826
			c1.827,0.683,2.794,1.606,2.794,3.19c0,1.893-1.474,3.213-3.96,3.213c-1.166,0-2.244-0.309-2.993-0.748L137.465,369.498z"/>
		<path d="M148.773,358.255v2.553h2.772v1.474h-2.772v5.743c0,1.32,0.374,2.068,1.452,2.068c0.528,0,0.836-0.044,1.122-0.132
			l0.088,1.475c-0.374,0.131-0.968,0.264-1.716,0.264c-0.902,0-1.628-0.309-2.09-0.814c-0.528-0.594-0.748-1.54-0.748-2.795v-5.809
			h-1.65v-1.474h1.65v-1.98L148.773,358.255z"/>
		<path d="M154.669,366.484c0.044,2.618,1.694,3.696,3.652,3.696c1.386,0,2.244-0.241,2.948-0.55l0.352,1.387
			c-0.682,0.308-1.87,0.682-3.564,0.682c-3.278,0-5.237-2.179-5.237-5.391c0-3.213,1.893-5.721,4.995-5.721
			c3.499,0,4.4,3.036,4.4,4.994c0,0.396-0.022,0.682-0.066,0.902H154.669z M160.346,365.098c0.022-1.21-0.506-3.124-2.685-3.124
			c-1.98,0-2.816,1.782-2.97,3.124H160.346z"/>
		<path d="M164.613,363.689c0-1.121-0.044-2.002-0.088-2.882h1.694l0.088,1.738h0.066c0.594-1.013,1.584-1.958,3.366-1.958
			c1.43,0,2.53,0.88,2.993,2.134h0.044c0.33-0.616,0.77-1.056,1.21-1.386c0.638-0.484,1.32-0.748,2.333-0.748
			c1.43,0,3.521,0.924,3.521,4.62v6.249h-1.893v-6.007c0-2.068-0.77-3.278-2.31-3.278c-1.122,0-1.958,0.814-2.311,1.738
			c-0.088,0.285-0.154,0.615-0.154,0.968v6.579h-1.892v-6.381c0-1.694-0.749-2.904-2.223-2.904c-1.188,0-2.09,0.968-2.398,1.936
			c-0.11,0.265-0.154,0.617-0.154,0.947v6.402h-1.892V363.689z"/>
	</g>
	<g>
		<path d="M343.935,363.888c0,5.083-3.103,7.812-6.887,7.812c-3.938,0-6.667-3.059-6.667-7.547c0-4.709,2.904-7.789,6.865-7.789
			C341.316,356.363,343.935,359.465,343.935,363.888z M332.405,364.107c0,3.191,1.716,6.029,4.753,6.029
			c3.036,0,4.752-2.795,4.752-6.16c0-2.971-1.54-6.051-4.73-6.051C333.989,357.926,332.405,360.873,332.405,364.107z"/>
		<path d="M346.353,364.284c0-1.364-0.044-2.464-0.088-3.477h1.716l0.11,1.826h0.044c0.77-1.298,2.046-2.046,3.784-2.046
			c2.597,0,4.533,2.178,4.533,5.391c0,3.828-2.354,5.721-4.863,5.721c-1.408,0-2.64-0.616-3.278-1.672h-0.044v5.786h-1.914V364.284z
			 M348.267,367.123c0,0.285,0.022,0.549,0.088,0.791c0.352,1.343,1.519,2.267,2.905,2.267c2.046,0,3.234-1.672,3.234-4.114
			c0-2.112-1.122-3.938-3.168-3.938c-1.32,0-2.575,0.924-2.927,2.376c-0.066,0.242-0.132,0.528-0.132,0.77V367.123z"/>
		<path d="M359.949,366.484c0.044,2.618,1.694,3.696,3.652,3.696c1.386,0,2.244-0.241,2.948-0.55l0.352,1.387
			c-0.682,0.308-1.87,0.682-3.564,0.682c-3.278,0-5.237-2.179-5.237-5.391c0-3.213,1.893-5.721,4.995-5.721
			c3.498,0,4.4,3.036,4.4,4.994c0,0.396-0.022,0.682-0.066,0.902H359.949z M365.626,365.098c0.022-1.21-0.506-3.124-2.685-3.124
			c-1.98,0-2.816,1.782-2.97,3.124H365.626z"/>
		<path d="M369.893,363.689c0-1.121-0.022-2.002-0.088-2.882h1.716l0.11,1.761h0.044c0.528-0.99,1.76-1.98,3.521-1.98
			c1.474,0,3.762,0.88,3.762,4.532v6.337h-1.936v-6.139c0-1.717-0.638-3.146-2.464-3.146c-1.254,0-2.245,0.902-2.597,1.98
			c-0.088,0.242-0.132,0.572-0.132,0.902v6.402h-1.936V363.689z"/>
		<path d="M388.747,358.255h-4.511v-1.628h10.979v1.628h-4.532v13.202h-1.937V358.255z"/>
		<path d="M395.809,364.13c0-1.254-0.022-2.332-0.088-3.322h1.694l0.088,2.112h0.065c0.484-1.43,1.673-2.332,2.971-2.332
			c0.198,0,0.353,0.021,0.528,0.043v1.826c-0.198-0.043-0.396-0.043-0.66-0.043c-1.364,0-2.332,1.012-2.597,2.464
			c-0.044,0.265-0.065,0.595-0.065,0.902v5.677h-1.937V364.13z"/>
		<path d="M410.373,368.904c0,0.924,0.044,1.826,0.154,2.553h-1.738l-0.154-1.342h-0.065c-0.594,0.836-1.738,1.584-3.257,1.584
			c-2.156,0-3.256-1.519-3.256-3.059c0-2.574,2.288-3.982,6.402-3.961v-0.22c0-0.858-0.242-2.464-2.42-2.442
			c-1.013,0-2.047,0.286-2.795,0.792l-0.439-1.298c0.88-0.551,2.178-0.924,3.521-0.924c3.256,0,4.048,2.222,4.048,4.334V368.904z
			 M408.503,366.022c-2.112-0.044-4.511,0.33-4.511,2.397c0,1.277,0.837,1.85,1.805,1.85c1.408,0,2.311-0.881,2.618-1.783
			c0.066-0.22,0.088-0.439,0.088-0.615V366.022z"/>
		<path d="M413.496,363.689c0-1.121-0.022-2.002-0.088-2.882h1.716l0.11,1.761h0.044c0.528-0.99,1.76-1.98,3.521-1.98
			c1.474,0,3.763,0.88,3.763,4.532v6.337h-1.937v-6.139c0-1.717-0.638-3.146-2.465-3.146c-1.254,0-2.244,0.902-2.596,1.98
			c-0.088,0.242-0.132,0.572-0.132,0.902v6.402h-1.937V363.689z"/>
		<path d="M425.441,369.498c0.595,0.353,1.606,0.749,2.575,0.749c1.386,0,2.046-0.683,2.046-1.585c0-0.924-0.55-1.408-1.958-1.936
			c-1.937-0.704-2.839-1.738-2.839-3.015c0-1.716,1.408-3.124,3.675-3.124c1.078,0,2.024,0.285,2.597,0.66l-0.463,1.408
			c-0.418-0.265-1.188-0.639-2.178-0.639c-1.145,0-1.761,0.66-1.761,1.452c0,0.88,0.616,1.276,2.003,1.826
			c1.826,0.683,2.794,1.606,2.794,3.19c0,1.893-1.474,3.213-3.961,3.213c-1.166,0-2.244-0.309-2.992-0.748L425.441,369.498z"/>
		<path d="M434.418,364.284c0-1.364-0.044-2.464-0.088-3.477h1.716l0.11,1.826h0.044c0.77-1.298,2.046-2.046,3.784-2.046
			c2.597,0,4.533,2.178,4.533,5.391c0,3.828-2.354,5.721-4.863,5.721c-1.408,0-2.641-0.616-3.278-1.672h-0.044v5.786h-1.914V364.284
			z M436.332,367.123c0,0.285,0.022,0.549,0.088,0.791c0.353,1.343,1.519,2.267,2.904,2.267c2.047,0,3.234-1.672,3.234-4.114
			c0-2.112-1.122-3.938-3.168-3.938c-1.32,0-2.574,0.924-2.927,2.376c-0.065,0.242-0.132,0.528-0.132,0.77V367.123z"/>
		<path d="M456.572,366.045c0,3.938-2.75,5.654-5.303,5.654c-2.86,0-5.104-2.112-5.104-5.479c0-3.543,2.354-5.633,5.281-5.633
			C454.505,360.588,456.572,362.81,456.572,366.045z M448.146,366.154c0,2.332,1.32,4.093,3.213,4.093
			c1.848,0,3.234-1.738,3.234-4.137c0-1.804-0.902-4.071-3.19-4.071C449.136,362.039,448.146,364.152,448.146,366.154z"/>
		<path d="M459.014,364.13c0-1.254-0.022-2.332-0.088-3.322h1.694l0.088,2.112h0.065c0.484-1.43,1.673-2.332,2.971-2.332
			c0.198,0,0.353,0.021,0.528,0.043v1.826c-0.198-0.043-0.396-0.043-0.66-0.043c-1.364,0-2.332,1.012-2.597,2.464
			c-0.044,0.265-0.065,0.595-0.065,0.902v5.677h-1.937V364.13z"/>
		<path d="M469.067,358.255v2.553h2.772v1.474h-2.772v5.743c0,1.32,0.374,2.068,1.452,2.068c0.528,0,0.836-0.044,1.122-0.132
			l0.088,1.475c-0.374,0.131-0.968,0.264-1.716,0.264c-0.902,0-1.628-0.309-2.091-0.814c-0.527-0.594-0.748-1.54-0.748-2.795v-5.809
			h-1.649v-1.474h1.649v-1.98L469.067,358.255z"/>
	</g>
	<g>
		<path d="M626.004,356.627v14.83h-1.938v-14.83H626.004z"/>
		<path d="M627.652,372.314l6.117-15.951h1.518l-6.16,15.951H627.652z"/>
		<path d="M649.566,363.888c0,5.083-3.104,7.812-6.887,7.812c-3.939,0-6.668-3.059-6.668-7.547c0-4.709,2.904-7.789,6.865-7.789
			C646.947,356.363,649.566,359.465,649.566,363.888z M638.037,364.107c0,3.191,1.715,6.029,4.752,6.029s4.752-2.795,4.752-6.16
			c0-2.971-1.539-6.051-4.73-6.051C639.621,357.926,638.037,360.873,638.037,364.107z"/>
		<path d="M656.473,369.125c0.857,0.55,2.09,0.968,3.41,0.968c1.957,0,3.102-1.034,3.102-2.53c0-1.364-0.791-2.178-2.795-2.926
			c-2.42-0.881-3.916-2.157-3.916-4.225c0-2.311,1.914-4.027,4.797-4.027c1.496,0,2.619,0.352,3.256,0.727l-0.527,1.563
			c-0.463-0.287-1.453-0.705-2.795-0.705c-2.023,0-2.795,1.211-2.795,2.223c0,1.387,0.902,2.068,2.949,2.86
			c2.508,0.968,3.764,2.179,3.764,4.356c0,2.289-1.674,4.291-5.172,4.291c-1.43,0-2.992-0.44-3.785-0.969L656.473,369.125z"/>
		<path d="M668.021,360.808l2.311,6.293c0.264,0.704,0.527,1.54,0.705,2.179h0.043c0.197-0.639,0.418-1.453,0.682-2.223l2.113-6.249
			h2.045l-2.904,7.591c-1.385,3.652-2.332,5.501-3.652,6.667c-0.967,0.814-1.893,1.145-2.375,1.232l-0.484-1.606
			c0.484-0.154,1.121-0.462,1.693-0.946c0.529-0.418,1.166-1.166,1.629-2.156c0.088-0.198,0.154-0.353,0.154-0.462
			s-0.045-0.264-0.154-0.506l-3.916-9.813H668.021z"/>
		<path d="M677.283,369.498c0.596,0.353,1.607,0.749,2.576,0.749c1.385,0,2.045-0.683,2.045-1.585c0-0.924-0.549-1.408-1.957-1.936
			c-1.938-0.704-2.84-1.738-2.84-3.015c0-1.716,1.408-3.124,3.676-3.124c1.078,0,2.023,0.285,2.596,0.66l-0.463,1.408
			c-0.418-0.265-1.188-0.639-2.178-0.639c-1.145,0-1.76,0.66-1.76,1.452c0,0.88,0.615,1.276,2.002,1.826
			c1.826,0.683,2.795,1.606,2.795,3.19c0,1.893-1.475,3.213-3.961,3.213c-1.166,0-2.244-0.309-2.992-0.748L677.283,369.498z"/>
		<path d="M688.592,358.255v2.553h2.773v1.474h-2.773v5.743c0,1.32,0.375,2.068,1.453,2.068c0.527,0,0.836-0.044,1.121-0.132
			l0.088,1.475c-0.373,0.131-0.967,0.264-1.715,0.264c-0.902,0-1.629-0.309-2.092-0.814c-0.527-0.594-0.748-1.54-0.748-2.795v-5.809
			h-1.648v-1.474h1.648v-1.98L688.592,358.255z"/>
		<path d="M694.488,366.484c0.043,2.618,1.693,3.696,3.652,3.696c1.385,0,2.244-0.241,2.947-0.55l0.354,1.387
			c-0.684,0.308-1.871,0.682-3.564,0.682c-3.279,0-5.238-2.179-5.238-5.391c0-3.213,1.893-5.721,4.996-5.721
			c3.498,0,4.4,3.036,4.4,4.994c0,0.396-0.023,0.682-0.066,0.902H694.488z M700.164,365.098c0.021-1.21-0.506-3.124-2.684-3.124
			c-1.98,0-2.816,1.782-2.971,3.124H700.164z"/>
		<path d="M704.432,363.689c0-1.121-0.043-2.002-0.088-2.882h1.695l0.088,1.738h0.064c0.596-1.013,1.586-1.958,3.367-1.958
			c1.43,0,2.531,0.88,2.992,2.134h0.045c0.33-0.616,0.77-1.056,1.209-1.386c0.639-0.484,1.32-0.748,2.332-0.748
			c1.432,0,3.521,0.924,3.521,4.62v6.249h-1.893v-6.007c0-2.068-0.77-3.278-2.311-3.278c-1.121,0-1.957,0.814-2.311,1.738
			c-0.088,0.285-0.154,0.615-0.154,0.968v6.579H711.1v-6.381c0-1.694-0.748-2.904-2.223-2.904c-1.189,0-2.09,0.968-2.398,1.936
			c-0.109,0.265-0.154,0.617-0.154,0.947v6.402h-1.893V363.689z"/>
	</g>
</g>
<rect x="1.353" y="403" fill="#DF9FFF" stroke="#231F20" stroke-width="2" width="799.647" height="50"/>
<g>
	<path d="M360.82,427.944c-0.11-2.068-0.242-4.577-0.242-6.403h-0.044c-0.528,1.717-1.122,3.587-1.87,5.633l-2.618,7.195h-1.452
		l-2.42-7.063c-0.704-2.112-1.276-4.004-1.694-5.765h-0.044c-0.044,1.849-0.154,4.313-0.286,6.557l-0.396,6.359h-1.826l1.034-14.83
		h2.442l2.53,7.173c0.616,1.826,1.1,3.455,1.496,4.995h0.044c0.396-1.496,0.924-3.125,1.584-4.995l2.64-7.173h2.442l0.924,14.83
		h-1.893L360.82,427.944z"/>
	<path d="M368.364,420.815c0,0.66-0.462,1.188-1.232,1.188c-0.704,0-1.166-0.527-1.166-1.188s0.484-1.211,1.21-1.211
		C367.88,419.604,368.364,420.133,368.364,420.815z M366.208,434.457v-10.649h1.936v10.649H366.208z"/>
	<path d="M378.947,434.083c-0.506,0.242-1.628,0.616-3.059,0.616c-3.212,0-5.303-2.179-5.303-5.435c0-3.279,2.245-5.677,5.721-5.677
		c1.144,0,2.156,0.285,2.684,0.571l-0.44,1.475c-0.462-0.242-1.188-0.506-2.244-0.506c-2.442,0-3.763,1.826-3.763,4.026
		c0,2.464,1.584,3.982,3.696,3.982c1.101,0,1.827-0.264,2.376-0.506L378.947,434.083z"/>
	<path d="M381.212,427.13c0-1.254-0.022-2.332-0.088-3.322h1.694l0.088,2.112h0.066c0.484-1.431,1.672-2.332,2.97-2.332
		c0.198,0,0.352,0.021,0.528,0.044v1.826c-0.198-0.044-0.396-0.044-0.66-0.044c-1.364,0-2.333,1.012-2.597,2.464
		c-0.044,0.265-0.066,0.595-0.066,0.902v5.677h-1.936V427.13z"/>
	<path d="M397.823,429.044c0,3.938-2.75,5.655-5.303,5.655c-2.86,0-5.105-2.112-5.105-5.479c0-3.543,2.354-5.633,5.281-5.633
		C395.754,423.588,397.823,425.81,397.823,429.044z M389.396,429.154c0,2.332,1.32,4.093,3.212,4.093
		c1.848,0,3.234-1.738,3.234-4.137c0-1.805-0.902-4.07-3.19-4.07C390.386,425.04,389.396,427.152,389.396,429.154z"/>
	<path d="M402.178,428.692h0.044c0.265-0.374,0.616-0.836,0.925-1.21l3.146-3.675h2.31l-4.093,4.379l4.688,6.271h-2.377
		l-3.652-5.104l-0.99,1.1v4.005h-1.914v-15.622h1.914V428.692z"/>
	<path d="M411.66,429.484c0.043,2.618,1.693,3.696,3.652,3.696c1.385,0,2.244-0.242,2.947-0.55l0.354,1.386
		c-0.684,0.309-1.871,0.683-3.564,0.683c-3.279,0-5.238-2.179-5.238-5.391c0-3.213,1.893-5.721,4.996-5.721
		c3.498,0,4.4,3.036,4.4,4.994c0,0.396-0.021,0.683-0.066,0.902H411.66z M417.336,428.098c0.021-1.21-0.506-3.124-2.684-3.124
		c-1.98,0-2.816,1.782-2.971,3.124H417.336z"/>
	<path d="M421.604,427.13c0-1.254-0.023-2.332-0.088-3.322h1.693l0.088,2.112h0.066c0.484-1.431,1.672-2.332,2.971-2.332
		c0.197,0,0.352,0.021,0.527,0.044v1.826c-0.197-0.044-0.396-0.044-0.66-0.044c-1.363,0-2.332,1.012-2.596,2.464
		c-0.045,0.265-0.066,0.595-0.066,0.902v5.677h-1.936V427.13z"/>
	<path d="M428.885,426.689c0-1.122-0.021-2.002-0.088-2.882h1.717l0.109,1.76h0.045c0.527-0.99,1.76-1.979,3.52-1.979
		c1.475,0,3.764,0.88,3.764,4.532v6.337h-1.938v-6.139c0-1.717-0.637-3.146-2.465-3.146c-1.254,0-2.244,0.902-2.596,1.98
		c-0.088,0.241-0.131,0.571-0.131,0.901v6.403h-1.938V426.689z"/>
	<path d="M442.174,429.484c0.043,2.618,1.693,3.696,3.652,3.696c1.385,0,2.244-0.242,2.947-0.55l0.354,1.386
		c-0.684,0.309-1.871,0.683-3.564,0.683c-3.279,0-5.238-2.179-5.238-5.391c0-3.213,1.893-5.721,4.996-5.721
		c3.498,0,4.4,3.036,4.4,4.994c0,0.396-0.021,0.683-0.066,0.902H442.174z M447.85,428.098c0.021-1.21-0.506-3.124-2.684-3.124
		c-1.98,0-2.816,1.782-2.971,3.124H447.85z"/>
	<path d="M452.117,418.835h1.936v15.622h-1.936V418.835z"/>
</g>
<g>
	<line fill="none" stroke="#666666" stroke-width="5" x1="451" y1="1" x2="451" y2="318"/>
	<line fill="none" stroke="#666666" stroke-width="5" x1="1" y1="318" x2="801" y2="318"/>
	<line fill="none" stroke="#666666" stroke-width="5" x1="636.295" y1="1" x2="636.295" y2="318"/>
</g>
</svg>
