<?xml version="1.0" encoding="UTF-8"?>
<svg width="59.032001mm" height="112.67mm" version="1.1" viewBox="0 0 59.032001 112.67001" xmlns="http://www.w3.org/2000/svg" xmlns:cc="http://creativecommons.org/ns#" xmlns:dc="http://purl.org/dc/elements/1.1/" xmlns:rdf="http://www.w3.org/1999/02/22-rdf-syntax-ns#" xmlns:xlink="http://www.w3.org/1999/xlink">
<metadata>
<rdf:RDF>
<cc:Work rdf:about="">
<dc:format>image/svg+xml</dc:format>
<dc:type rdf:resource="http://purl.org/dc/dcmitype/StillImage"/>
<dc:title/>
</cc:Work>
</rdf:RDF>
</metadata>
<defs>
<linearGradient id="linearGradient2230-8">
<stop stop-color="#afb9bb" offset="0"/>
<stop stop-color="#afb9bb" stop-opacity="0" offset="1"/>
</linearGradient>
<linearGradient id="linearGradient2149">
<stop stop-color="#060e11" offset="0"/>
<stop stop-color="#2e3235" offset=".33000001"/>
<stop stop-color="#060e11" offset="1"/>
</linearGradient>
<linearGradient id="linearGradient1610" x1="54.24403" x2="5.1888747" y1="20.071564" y2="93.607803" gradientTransform="translate(-.20045233)" gradientUnits="userSpaceOnUse">
<stop stop-color="#475156" offset="0"/>
<stop stop-color="#26292c" offset="1"/>
</linearGradient>
<clipPath id="clipPath1775">
<rect x="91.89238" y="39.961075" width="40.848045" height="8.3968935" ry="4.1984468" color="#000000" fill="#1c2024"/>
</clipPath>
<filter id="filter1852" x="-.050132232" y="-.25218547" width="1.1002645" height="1.5043709" color-interpolation-filters="sRGB">
<feGaussianBlur stdDeviation="0.90203742"/>
</filter>
<radialGradient id="radialGradient2006" cx="30.349352" cy="41.904324" r="26.174889" gradientTransform="matrix(-1.478794,0,0,-2.3644179,96.365661,112.24207)" gradientUnits="userSpaceOnUse">
<stop stop-color="#222c32" offset="0"/>
<stop offset="1"/>
</radialGradient>
<linearGradient id="linearGradient2071" x1="146.45949" x2="146.45949" y1="405.19775" y2="391.36792" gradientTransform="matrix(.26458333 0 0 .26458333 -23.417731 6.596933e-5)" gradientUnits="userSpaceOnUse">
<stop stop-color="#818284" offset="0"/>
<stop stop-color="#424446" offset="1"/>
</linearGradient>
<linearGradient id="linearGradient2098" x1="39.604816" x2="49.162887" y1="2.3966235" y2="2.3966235" gradientTransform="translate(0 -.44727673)" gradientUnits="userSpaceOnUse">
<stop stop-color="#060e11" offset="0"/>
<stop stop-color="#4f575b" offset=".33000001"/>
<stop stop-color="#4f575b" offset=".67000002"/>
<stop stop-color="#060e11" offset="1"/>
</linearGradient>
<linearGradient id="linearGradient2098-3" x1="39.604816" x2="40.960804" y1="2.3966236" y2="2.3966236" gradientTransform="translate(-27.501047,-3.6864656)" gradientUnits="userSpaceOnUse" xlink:href="#linearGradient2149"/>
<linearGradient id="linearGradient2098-3-4" x1="39.604816" x2="40.960804" y1="2.3966236" y2="2.3966236" gradientTransform="translate(-18.786334,-3.6864656)" gradientUnits="userSpaceOnUse" xlink:href="#linearGradient2149"/>
<linearGradient id="linearGradient2222" x1="32.607929" x2="32.607929" y1="110.53413" y2="2.7710581" gradientUnits="userSpaceOnUse">
<stop stop-color="#cfdadb" offset="0"/>
<stop stop-color="#dfe7eb" offset="1"/>
</linearGradient>
<linearGradient id="linearGradient2232-4" x1="53.644272" x2="65.947395" y1="70.336662" y2="-6.0617752" gradientTransform="matrix(-1 0 0 1 59.332812 .6501095)" gradientUnits="userSpaceOnUse" xlink:href="#linearGradient2230-8"/>
<linearGradient id="linearGradient2288" x1="53.644272" x2="65.947395" y1="70.336662" y2="-6.0617752" gradientUnits="userSpaceOnUse" xlink:href="#linearGradient2230-8"/>
<linearGradient id="linearGradient2298" x1="7.5537052" x2="7.5537052" y1="111.26684" y2="112.34259" gradientTransform="matrix(1.0089162,0,0,1,35.762364,0)" gradientUnits="userSpaceOnUse">
<stop stop-color="#aab5b7" offset="0"/>
<stop stop-color="#aab5b7" stop-opacity="0" offset="1"/>
</linearGradient>
<radialGradient id="radialGradient2363" cx="29.716454" cy=".64333385" r="25.377003" gradientTransform="matrix(1 0 0 .3427451 0 2.0121058)" gradientUnits="userSpaceOnUse">
<stop stop-color="#ebf2f7" offset="0"/>
<stop stop-color="#ebf2f7" offset=".78910869"/>
<stop stop-color="#ebf2f7" stop-opacity=".42718446" offset="1"/>
</radialGradient>
<linearGradient id="linearGradient7304" x1="64.280914" x2="64.280914" y1="1.6939214" y2="111.79836" gradientUnits="userSpaceOnUse">
<stop stop-color="#cacfd1" offset="0"/>
<stop stop-color="#b7bec0" offset=".80370462"/>
<stop stop-color="#7c8284" offset=".80485159"/>
<stop stop-color="#3d4549" offset="1"/>
</linearGradient>
<clipPath id="clipPath7318">
<path d="m10.541475 1.0464477c-5.5969446 0-10.1027421 4.5057981-10.1027421 10.1027423v91.38098c0 5.59694 4.5057975 10.10275 10.1027421 10.10275h7.921997c0.413126 0 0.781136-0.31316 1.800924-0.31316h18.903756c1.019789 0 1.387798 0.31316 1.800924 0.31316h7.922514c5.596945 0 10.102741-4.50581 10.102741-10.10275v-91.38098c0-5.5969442-4.505796-10.1027423-10.102741-10.1027423h-34.509006c-0.413126 0-0.781135 0.2335775-1.800923 0.2335775s-1.387798-0.2335775-1.800924-0.2335775zm-0.343131 0.4252971h38.634852c5.311913 0 9.588561 4.2766472 9.588561 9.5885612v91.606294c0 5.31191-4.276648 9.58804-9.588561 9.58804h-38.634852c-5.311915 0-9.58804534-4.27613-9.58804534-9.58804v-91.606294c0-5.311914 4.27613034-9.5885612 9.58804534-9.5885612z" color="#000000" fill="#557c87"/>
</clipPath>
<filter id="filter7330" x="-.0174339" y="-.0091485321" width="1.0348678" height="1.0182971" color-interpolation-filters="sRGB">
<feGaussianBlur stdDeviation="0.42535518"/>
</filter>
<linearGradient id="linearGradient7442" x1="52.585938" x2="52.585938" y1="6.4397874" y2="90.378853" gradientTransform="matrix(-1 0 0 1 59.382859 .6501095)" gradientUnits="userSpaceOnUse">
<stop stop-color="#afb9bb" stop-opacity=".71844661" offset="0"/>
<stop stop-color="#afb9bb" stop-opacity="0" offset="1"/>
</linearGradient>
<linearGradient id="linearGradient7442-9" x1="52.585938" x2="52.585938" y1="6.4397874" y2="90.378853" gradientTransform="translate(.0500491)" gradientUnits="userSpaceOnUse" xlink:href="#linearGradient2230-8"/>
<clipPath id="clipPath7524">
<path d="m10.541476 1.0464464c-5.596945 0-10.1027431 4.5057981-10.1027431 10.1027426v91.380991c0 5.59694 4.5057981 10.10274 10.1027431 10.10274h7.921997c0.413126 0 0.781135-0.31307 1.800923-0.31307h18.903756c1.019789 0 1.387798 0.31307 1.800924 0.31307h7.922514c5.596945 0 10.102741-4.5058 10.102741-10.10274v-91.380991c0-5.5969445-4.505796-10.1027426-10.102741-10.1027426h-34.509005c-0.413126 0-0.781136 0.2335775-1.800924 0.2335775s-1.387798-0.2335775-1.800924-0.2335775z" color="#000000" fill="none"/>
</clipPath>
<filter id="filter7552" x="-.032761349" y="-.018935966" width="1.0655227" height="1.0378719" color-interpolation-filters="sRGB">
<feGaussianBlur stdDeviation="0.76658571"/>
</filter>
</defs>
<rect x="39.604816" y=".70084447" width="9.5580702" height="2.4970052" ry=".18190104" color="#000000" fill="url(#linearGradient2098)"/>
<rect transform="rotate(90)" x="12.103769" y="-2.5383446" width="4.9113312" height="2.4970052" ry=".18190104" color="#000000" fill="url(#linearGradient2098-3)"/>
<path transform="rotate(90)" d="m21.000386-2.5383446h5.564824c0.100774 0 1.599252 0.081128 1.599252 0.181901v1.71225365c0 0.48730245-0.943062 0.60285055-1.599252 0.60285055h-5.564824c-0.100773 0-0.181901-0.08112786-0.181901-0.18190104v-2.13320316c0-0.1007732 0.08113-0.181901 0.181901-0.181901z" color="#000000" fill="url(#linearGradient2098-3-4)"/>
<path d="m2.5383446 40.049775v-5.564824c0-0.100774-0.081128-1.599252-0.181901-1.599252h-1.71225364c-0.48730246 0-0.60285056 0.943062-0.60285056 1.599252v5.564824c0 0.100773 0.08112786 0.181901 0.18190104 0.181901h2.13320316c0.1007732 0 0.181901-0.08113 0.181901-0.181901z" color="#000000" fill="#060e11"/>
<path transform="scale(.26458333)" d="m39.841797 3.9550781c-21.153806 0-38.1835939 17.0297879-38.1835939 38.1835939v345.376948c0 21.15381 17.0297879 38.1836 38.1835939 38.1836h29.941406c1.561421 0 2.952324-1.18327 6.806641-1.18327h71.447266c3.85432 0 5.24522 1.18327 6.80664 1.18327h29.94336c21.15381 0 38.18359-17.02979 38.18359-38.1836v-345.376948c0-21.153806-17.02978-38.1835939-38.18359-38.1835939h-130.427735c-1.561421 0-2.952324 0.8828125-6.806641 0.8828125-3.854316 0-5.245219-0.8828125-6.80664-0.8828125z" color="#000000" fill="#182326"/>
<path d="m10.541476 1.0464464c-5.596945 0-10.1027431 4.5057981-10.1027431 10.1027426v91.380991c0 5.59694 4.5057981 10.10274 10.1027431 10.10274h7.921997c0.413126 0 0.781135-0.31307 1.800923-0.31307h18.903757c1.019789 0 1.387798 0.31307 1.800923 0.31307h7.922514c5.596946 0 10.102742-4.5058 10.102742-10.10274v-91.380991c0-5.5969445-4.505796-10.1027426-10.102742-10.1027426h-34.509005c-0.413126 0-0.781136 0.2335775-1.800924 0.2335775s-1.387798-0.2335775-1.800924-0.2335775z" clip-path="url(#clipPath7318)" color="#000000" fill="none" filter="url(#filter7330)" stroke="url(#linearGradient7304)" stroke-linejoin="round" stroke-width=".40000001"/>
<g clip-path="url(#clipPath7524)" fill-rule="evenodd" filter="url(#filter7552)" opacity=".98999999">
<path d="m4.680256 6.7591675s-3.042709 0.79375-3.042709 5.8208345v61.965974c0 10.243109 0.215546 16.837986 0.355862 21.655514 0.140317 4.81753 0.140317 6.31424 0.982218 7.0626 0.841899 0.74835 1.704629-96.5049225 1.704629-96.5049225z" fill="url(#linearGradient7442)"/>
<path d="m54.75265 6.109058s3.04271 0.79375 3.04271 5.820835v61.965973c0 10.243114-0.215546 16.837994-0.355863 21.655514-0.140316 4.81753-0.140316 6.31424-0.982217 7.0626-0.841899 0.74835-1.70463-96.504922-1.70463-96.504922z" fill="url(#linearGradient7442-9)"/>
</g>
<g transform="translate(.05004718)" fill-rule="evenodd">
<path d="m54.702603 6.1090584s3.042709 0.79375 3.042709 5.8208336v61.965975c0 10.243106-0.215546 16.837983-0.355862 21.655513-0.140317 4.81753-0.140317 6.31424-0.982218 7.0626-0.841899 0.74835-1.704629-96.5049216-1.704629-96.5049216z" fill="url(#linearGradient2288)"/>
<path d="m4.6302088 6.7591675s-3.042709 0.79375-3.042709 5.8208345v61.965974c0 10.243109 0.215546 16.837986 0.355862 21.655514 0.140317 4.81753 0.140317 6.31424 0.982218 7.0626 0.841899 0.74835 1.704629-96.5049225 1.704629-96.5049225z" fill="url(#linearGradient2232-4)"/>
</g>
<rect x="2.6737437" y="3.0769272" width="54.085419" height="107.52551" ry="7.7721353" color="#000000" fill="url(#linearGradient2222)"/>
<rect x="66.416473" y="61.220612" width=".65481037" height=".28063297" color="#000000" fill="#35c849" fill-opacity=".50970878"/>
<path d="m4.5039522 108.25024s1.5336974 2.39663 5.6391578 2.82928c-4.41219 0-6.8894076-2.10478-6.8894076-2.10478 0.9437846 0.88867 2.9071687 3.067 8.3794886 3.067h36.166523c5.472321 0 7.435704-2.17833 8.37949-3.067 0 0-2.477741 2.10478-6.88993 2.10478 4.105461-0.43265 5.639158-2.82928 5.639158-2.82928s-2.123462 2.71249-6.582843 2.71249h-37.258796c-4.4593789 0-6.5828408-2.71249-6.5828408-2.71249z" fill="url(#linearGradient2298)" fill-rule="evenodd"/>
<path d="m11.913147 1.7104899c-5.3908847 0-7.5736971 2.4473959-7.5736971 2.4473959s2.6954426-1.2903605 5.9531251-1.2903605h38.847757c3.257682 0 5.953124 1.2903605 5.953124 1.2903605s-2.182812-2.4473959-7.573697-2.4473959h-27.152864z" fill="url(#radialGradient2363)" fill-rule="evenodd"/>
<path d="m11.884209 3.9072537c-2.9170599 0-4.8785489 0.5976739-6.3117589 2.0308837-1.43321 1.4332112-2.030884 3.3946986-2.030884 6.3117596v89.179573c0 2.91705 0.597674 4.87853 2.030884 6.31175 1.43321 1.43321 3.394699 2.03089 6.3117589 2.03089h35.664491c2.91706 0 4.87855-0.59769 6.31176-2.03089 1.43321-1.43322 2.03088-3.3947 2.03088-6.31175v-89.179573c0-2.9170615-0.59767-4.8785484-2.03088-6.3117596-1.43321-1.4332092-3.3947-2.0308837-6.31176-2.0308837h-32.314308z" color="#000000" fill="url(#radialGradient2006)"/>
<g transform="translate(13.159105)">
<circle cx="16.557348" cy="101.93579" r="5.261869" color="#000000" fill="#141315"/>
<circle cx="16.557348" cy="101.93579" r="5.1626501" color="#000000"/>
<path d="m21.566602 103.53277a15.151656 15.151656 0 0 1-5.011581 0.87074 15.151656 15.151656 0 0 1-5.006927-0.87023 5.261869 5.261869 0 0 0 5.006927 3.66438 5.261869 5.261869 0 0 0 5.011581-3.66489z" color="#000000" fill="url(#linearGradient2071)"/>
<rect x="14.881866" y="100.21724" width="3.3509641" height="3.3084321" ry=".76236516" color="#000000" fill="none" stroke="#a8acad" stroke-linejoin="round" stroke-width=".30000001"/>
</g>
<rect x="24.312597" y="10.573035" width="10.807712" height="2.221678" ry="1.110839" color="#000000" fill="#1c2024"/>
<path transform="matrix(.26458333 0 0 .26458333 -.00059469454 0)" d="m97.984375 44.570312c-3.788073 0-7.259766 4.355469-7.259766 4.355469 0.745833 2.783487 8.142609 3.783262 15.152341 4.103516 0.10937 5e-3 0.21702 9e-3 0.32617 0.01367 0.1671 0.0076 0.32631 0.01668 0.86719 0.03516 1.89349 0.06699 3.61383 0.07968 5.2461 0.07617 1.63226 0.0035 3.3526-0.0092 5.24609-0.07617 0.28796-0.01019 0.577-0.02275 0.86719-0.03516 0.0651-0.0029 0.32617-0.01367 0.32617-0.01367 7.00973-0.320254 14.40651-1.320029 15.15234-4.103516 0 0-3.47169-4.355469-7.25976-4.355469h-20.77149z" clip-path="url(#clipPath1775)" fill="#8d8f90" fill-rule="evenodd" filter="url(#filter1852)"/>
<g transform="translate(14.233291 -.57734345)">
<rect x="10.60634" y="11.657396" width="9.753644" height="1.2076651" ry=".60383254" color="#000000" fill="#26292d"/>
<path d="m11.210039 11.657374c-0.334524 0-0.603581 0.269574-0.603581 0.604098 0 0.0358 0.0049 0.07033 0.01085 0.104386 0.04938-0.284172 0.294005-0.499711 0.592728-0.499711h8.546248c0.298727 0 0.543864 0.215535 0.593246 0.499711 0.0059-0.03405 0.01033-0.06859 0.01033-0.104386 0-0.334524-0.269057-0.604098-0.60358-0.604098z" color="#000000" fill="#0a0e12"/>
</g>
<rect x="4.9884224" y="20.071566" width="49.055157" height="73.53624" color="#000000" stroke="url(#linearGradient1610)" stroke-linejoin="round" stroke-width="1.42400002"/>
<rect x="4.9884224" y="20.071564" width="49.055157" height="73.53624" color="#000000"/>
</svg>
