<svg xmlns="http://www.w3.org/2000/svg" width="493" height="69.9"><path d="M0 15.3h9v6.9h.2c1.7-4.6 5.9-7.7 11.4-7.7 5.6 0 9.7 2.9 11.1 8h.2c1.9-4.9 6.7-8 12.4-8 7.9 0 13 5.3 13 13.3v27.3h-9.4v-25c0-4.9-2.6-7.7-7.1-7.7s-7.6 3.3-7.6 8.1v24.6h-9.1V29.6c0-4.4-2.7-7.2-7.1-7.2-4.5 0-7.7 3.5-7.7 8.3v24.4H0V15.3zM63.2 43.8c0-7.1 5.5-11.3 15.2-11.9l10.5-.6v-2.9c0-4.2-2.8-6.6-7.4-6.6-4.4 0-7.3 2.1-7.9 5.5h-8.7c.4-7.4 6.8-12.8 16.9-12.8 9.9 0 16.3 5.2 16.3 13.2v27.4h-9v-6.4h-.2c-2.3 4.3-7.3 7-12.4 7-7.7.1-13.3-4.8-13.3-11.9zm25.7-3.4v-3l-9.2.6c-4.5.3-7.1 2.3-7.1 5.5 0 3.3 2.7 5.3 6.8 5.3 5.2-.1 9.5-3.6 9.5-8.4zM131.9 29.5c-.8-4.2-3.7-7.4-8.7-7.4-5.9 0-9.7 5-9.7 13.2 0 8.3 3.8 13.2 9.8 13.2 4.7 0 7.8-2.7 8.7-7.2h8.8c-.8 8.9-7.6 14.8-17.6 14.8-11.7 0-19.2-7.8-19.2-20.7 0-12.7 7.5-20.8 19.1-20.8 10.5 0 17 6.7 17.7 15h-8.9zM196.9 28c0 17.3-9.9 28-25.7 28-15.8 0-25.8-10.8-25.8-28 0-17.3 9.9-28 25.8-28 15.8 0 25.7 10.8 25.7 28zm-41.5 0c0 12.1 6.1 19.7 15.8 19.7 9.7 0 15.8-7.7 15.8-19.7 0-12.1-6.2-19.8-15.8-19.8-9.7.1-15.8 7.7-15.8 19.8zM211.7 40c.7 5 5.6 8 12.4 8 6.5 0 11.1-3.2 11.1-7.7 0-3.9-2.7-6.3-9.8-7.8l-5.8-1.2c-10.9-2.2-15.9-7.3-15.9-15.3 0-9.6 8.4-16 20.2-16 12 0 19.9 6.5 20.2 16.2h-9.3c-.5-5.1-4.7-8.2-10.9-8.2-6 0-10.3 2.9-10.3 7.4 0 3.7 2.7 6.1 9.5 7.5l5.9 1.2c11.4 2.4 16.2 7 16.2 15C245.2 49.5 237 56 224 56c-12.6 0-20.9-6.1-21.3-16.1h9zM269 55.2V.9h20.6c9.3 0 15.6 5.4 15.6 13.5 0 5.6-4.1 10.9-9.4 11.8v.3c7.4.9 12.1 6.1 12.1 13.3 0 9.5-6.8 15.2-18.4 15.2H269zm6.7-30.9h10.2c8 0 12.4-3.2 12.4-9.1 0-5.4-3.7-8.3-10.3-8.3h-12.3v17.4zm12.8 24.9c8.2 0 12.4-3.3 12.4-9.6s-4.4-9.5-13.1-9.5h-12.1v19.1h12.8zM314 5c0-2.3 1.8-4.1 4.1-4.1s4.1 1.8 4.1 4.1-1.8 4.1-4.1 4.1c-2.2 0-4.1-1.8-4.1-4.1zm.8 11.1h6.5v39.1h-6.5V16.1zM329.9 58.4h6.7c1.3 3.6 5.2 5.9 10 5.9 6.8 0 10.9-3.9 10.9-9.7v-6.2h-.2c-2.4 4.2-7 7-12.5 7-10 0-16.5-7.9-16.5-20 0-12.3 6.5-20.1 16.7-20.1 5.5 0 10.1 2.7 12.7 7.3h.1V16h6.2v38.3c0 9.3-6.9 15.5-17.7 15.5-8.6.1-15.4-4.8-16.4-11.4zm27.6-22.9c0-8.6-4.5-14.3-11.4-14.3-6.7 0-11.1 5.6-11.1 14.3s4.4 14.2 11.1 14.2c6.8 0 11.4-5.6 11.4-14.2zM393.5 40.6c.8 5.8 6.2 9.4 14 9.4 7.4 0 12.7-3.9 12.7-9.2 0-4.5-3-7.6-10.5-9.2l-6-1.3c-10.9-2.4-15.6-7.3-15.6-15 0-8.9 7.9-15.2 19.1-15.2 10.8 0 18.6 6.5 18.9 15.7h-6.8c-.6-5.9-5.3-9.6-12.4-9.6-6.8 0-12 3.3-12 8.8 0 4.3 2.9 7.2 10.3 8.8l6 1.3c11.3 2.5 15.8 7 15.8 14.7 0 10-7.9 16.3-20 16.3-11.8 0-19.7-6.1-20.4-15.5h6.9zM466.1 55.2h-6.2v-6.4h-.2c-2.3 4.5-6.4 7-12.4 7-8.5 0-13.5-5.5-13.5-14.4V16.1h6.5v24.2c0 6.4 3 9.8 9 9.8 6.4 0 10.2-4.4 10.2-11v-23h6.5v39.1zM474.6 16.1h6.2v6.4h.2c1.3-4.3 4.9-7.1 9.5-7.1 1.1 0 2.1.2 2.6.3V22c-.5-.2-1.9-.4-3.5-.4-5.1 0-8.4 3.6-8.4 9.2v24.4h-6.5V16.1z"/></svg>