<?xml version="1.0" encoding="UTF-8" standalone="no"?>
<!-- Created with Inkscape (http://www.inkscape.org/) -->

<svg
   xmlns:dc="http://purl.org/dc/elements/1.1/"
   xmlns:cc="http://creativecommons.org/ns#"
   xmlns:rdf="http://www.w3.org/1999/02/22-rdf-syntax-ns#"
   xmlns:svg="http://www.w3.org/2000/svg"
   xmlns="http://www.w3.org/2000/svg"
   xmlns:xlink="http://www.w3.org/1999/xlink"
   xmlns:sodipodi="http://sodipodi.sourceforge.net/DTD/sodipodi-0.dtd"
   xmlns:inkscape="http://www.inkscape.org/namespaces/inkscape"
   width="443.19766"
   height="728.93097"
   id="svg2"
   version="1.1"
   inkscape:version="0.48.2 r9819"
   sodipodi:docname="IPods_2010.svg">
  <sodipodi:namedview
     id="base"
     pagecolor="#ffffff"
     bordercolor="#666666"
     borderopacity="1.0"
     inkscape:pageopacity="0.0"
     inkscape:pageshadow="2"
     inkscape:zoom="4.8670633"
     inkscape:cx="400.82406"
     inkscape:cy="46.233368"
     inkscape:document-units="px"
     inkscape:current-layer="g5514"
     showgrid="false"
     showguides="true"
     inkscape:guide-bbox="true"
     inkscape:window-width="1280"
     inkscape:window-height="1002"
     inkscape:window-x="-8"
     inkscape:window-y="-8"
     inkscape:window-maximized="1"
     height="500px"
     fit-margin-top="0"
     fit-margin-left="0"
     fit-margin-right="0"
     fit-margin-bottom="0" />
  <defs
     id="defs4">
    <linearGradient
       id="linearGradient5289">
      <stop
         style="stop-color:#000000;stop-opacity:1;"
         offset="0"
         id="stop5291" />
      <stop
         id="stop5293"
         offset="0.5"
         style="stop-color:#000000;stop-opacity:0.32374102;" />
      <stop
         style="stop-color:#000000;stop-opacity:0;"
         offset="1"
         id="stop5295" />
    </linearGradient>
    <linearGradient
       id="linearGradient5035">
      <stop
         id="stop5037"
         offset="0"
         style="stop-color:#000000;stop-opacity:1;" />
      <stop
         style="stop-color:#000000;stop-opacity:0.32374102;"
         offset="0.5"
         id="stop5053" />
      <stop
         id="stop5039"
         offset="1"
         style="stop-color:#000000;stop-opacity:0;" />
    </linearGradient>
    <linearGradient
       id="linearGradient4945">
      <stop
         id="stop4947"
         offset="0"
         style="stop-color:#989898;stop-opacity:1;" />
      <stop
         style="stop-color:#5c5c5c;stop-opacity:1;"
         offset="0.07637901"
         id="stop4959" />
      <stop
         style="stop-color:#c2c2c2;stop-opacity:1;"
         offset="0.10649466"
         id="stop4957" />
      <stop
         style="stop-color:#b9b9b9;stop-opacity:1;"
         offset="0.89768708"
         id="stop4955" />
      <stop
         style="stop-color:#535353;stop-opacity:1;"
         offset="0.92793614"
         id="stop4953" />
      <stop
         id="stop4949"
         offset="1"
         style="stop-color:#9a9a9a;stop-opacity:1;" />
    </linearGradient>
    <linearGradient
       id="linearGradient4825">
      <stop
         id="stop4827"
         offset="0"
         style="stop-color:#757575;stop-opacity:1;" />
      <stop
         id="stop4829"
         offset="0.03271351"
         style="stop-color:#ffffff;stop-opacity:1;" />
      <stop
         id="stop4831"
         offset="0.09156373"
         style="stop-color:#d8d8d8;stop-opacity:1;" />
      <stop
         id="stop4833"
         offset="0.50699145"
         style="stop-color:#b0b0b0;stop-opacity:1;" />
      <stop
         id="stop4835"
         offset="0.94119722"
         style="stop-color:#cdcdcd;stop-opacity:1;" />
      <stop
         id="stop4837"
         offset="0.97967505"
         style="stop-color:#ffffff;stop-opacity:1;" />
      <stop
         style="stop-color:#757575;stop-opacity:1;"
         offset="1"
         id="stop4839" />
    </linearGradient>
    <linearGradient
       id="linearGradient4240">
      <stop
         id="stop4242"
         offset="0"
         style="stop-color:#4b4b4b;stop-opacity:1;" />
      <stop
         id="stop4244"
         offset="0.03312566"
         style="stop-color:#ededed;stop-opacity:1;" />
      <stop
         id="stop4246"
         offset="0.07953414"
         style="stop-color:#d1d1d1;stop-opacity:1;" />
      <stop
         id="stop4248"
         offset="0.50699145"
         style="stop-color:#c8c8c8;stop-opacity:1;" />
      <stop
         id="stop4250"
         offset="0.91725671"
         style="stop-color:#cdcdcd;stop-opacity:1;" />
      <stop
         id="stop4252"
         offset="0.9616344"
         style="stop-color:#ededed;stop-opacity:1;" />
      <stop
         style="stop-color:#4b4b4b;stop-opacity:1;"
         offset="1"
         id="stop4254" />
    </linearGradient>
    <linearGradient
       id="linearGradient4266">
      <stop
         id="stop4269"
         offset="0"
         style="stop-color:#ffffff;stop-opacity:1;" />
      <stop
         style="stop-color:#ffffff;stop-opacity:1;"
         offset="0.82569402"
         id="stop4275" />
      <stop
         id="stop4271"
         offset="1"
         style="stop-color:#ebebeb;stop-opacity:1;" />
    </linearGradient>
    <linearGradient
       id="linearGradient4662">
      <stop
         id="stop4664"
         offset="0"
         style="stop-color:#333333;stop-opacity:1;" />
      <stop
         id="stop4666"
         offset="1"
         style="stop-color:#000000;stop-opacity:1;" />
    </linearGradient>
    <linearGradient
       id="linearGradient4559">
      <stop
         id="stop4561"
         offset="0"
         style="stop-color:#ffffff;stop-opacity:1;" />
      <stop
         id="stop4563"
         offset="1"
         style="stop-color:#f6f6f6;stop-opacity:0;" />
    </linearGradient>
    <linearGradient
       id="linearGradient4083">
      <stop
         id="stop4087"
         offset="0"
         style="stop-color:#797979;stop-opacity:1;" />
      <stop
         id="stop4089"
         offset="0.24047728"
         style="stop-color:#e2e2e2;stop-opacity:1;" />
      <stop
         style="stop-color:#7f7f7f;stop-opacity:1;"
         offset="0.79566354"
         id="stop4119" />
      <stop
         id="stop4095"
         offset="0.96881658"
         style="stop-color:#ffffff;stop-opacity:1;" />
      <stop
         style="stop-color:#757575;stop-opacity:1;"
         offset="1"
         id="stop4097" />
    </linearGradient>
    <linearGradient
       id="linearGradient4103-0">
      <stop
         style="stop-color:#757575;stop-opacity:1;"
         offset="0"
         id="stop4105-4" />
      <stop
         style="stop-color:#ffffff;stop-opacity:1;"
         offset="0.20029187"
         id="stop4107-9" />
      <stop
         style="stop-color:#8a8a8a;stop-opacity:1;"
         offset="0.4836688"
         id="stop4109-4" />
      <stop
         style="stop-color:#ababab;stop-opacity:1;"
         offset="0.78334546"
         id="stop4111-6" />
      <stop
         style="stop-color:#8a8a8a;stop-opacity:1;"
         offset="0.89698058"
         id="stop4113-0" />
      <stop
         style="stop-color:#ffffff;stop-opacity:1;"
         offset="0.97544008"
         id="stop4115-3" />
      <stop
         id="stop4117-6"
         offset="1"
         style="stop-color:#757575;stop-opacity:1;" />
    </linearGradient>
    <linearGradient
       id="linearGradient3785">
      <stop
         style="stop-color:#090909;stop-opacity:1;"
         offset="0"
         id="stop3787" />
      <stop
         id="stop3789"
         offset="1"
         style="stop-color:#737373;stop-opacity:1;" />
    </linearGradient>
    <linearGradient
       id="linearGradient3589-1">
      <stop
         style="stop-color:#b6b6b6;stop-opacity:1;"
         offset="0"
         id="stop3591-5" />
      <stop
         style="stop-color:#ababab;stop-opacity:0;"
         offset="1"
         id="stop3593-2" />
    </linearGradient>
    <linearGradient
       id="linearGradient3355-4">
      <stop
         style="stop-color:#e3e3e3;stop-opacity:1;"
         offset="0"
         id="stop3357-1" />
      <stop
         style="stop-color:#bdbdbd;stop-opacity:1;"
         offset="1"
         id="stop3359-9" />
    </linearGradient>
    <filter
       color-interpolation-filters="sRGB"
       id="filter4352"
       inkscape:collect="always">
      <feGaussianBlur
         id="feGaussianBlur4354"
         stdDeviation="0.57014404"
         inkscape:collect="always" />
    </filter>
    <linearGradient
       inkscape:collect="always"
       xlink:href="#linearGradient4559"
       id="linearGradient4201"
       x1="306.64474"
       y1="422.37881"
       x2="306.64474"
       y2="740.86096"
       gradientUnits="userSpaceOnUse" />
    <linearGradient
       inkscape:collect="always"
       xlink:href="#linearGradient3355-4"
       id="linearGradient3519"
       gradientUnits="userSpaceOnUse"
       gradientTransform="matrix(1.706718,0,0,1.706718,-435.51412,250.29413)"
       x1="458.77124"
       y1="268.43207"
       x2="458.77124"
       y2="492.07092" />
    <linearGradient
       inkscape:collect="always"
       xlink:href="#linearGradient5035"
       id="linearGradient3521"
       gradientUnits="userSpaceOnUse"
       x1="744.12756"
       y1="664.62994"
       x2="744.12756"
       y2="624.70013" />
    <linearGradient
       inkscape:collect="always"
       xlink:href="#linearGradient5289"
       id="linearGradient3523"
       gradientUnits="userSpaceOnUse"
       x1="550.16827"
       y1="647.78998"
       x2="590.2392"
       y2="617.32727" />
    <linearGradient
       inkscape:collect="always"
       xlink:href="#linearGradient5289"
       id="linearGradient3525"
       gradientUnits="userSpaceOnUse"
       x1="562.32361"
       y1="660.61566"
       x2="593.85876"
       y2="621.30231" />
    <linearGradient
       inkscape:collect="always"
       xlink:href="#linearGradient5289"
       id="linearGradient3527"
       gradientUnits="userSpaceOnUse"
       x1="580.91107"
       y1="665.6875"
       x2="597.05591"
       y2="622.875" />
    <linearGradient
       inkscape:collect="always"
       xlink:href="#linearGradient5289"
       id="linearGradient3529"
       gradientUnits="userSpaceOnUse"
       x1="597.93146"
       y1="664.75958"
       x2="602.6734"
       y2="624.62292" />
    <linearGradient
       inkscape:collect="always"
       xlink:href="#linearGradient5289"
       id="linearGradient3531"
       gradientUnits="userSpaceOnUse"
       x1="546.54956"
       y1="629.55737"
       x2="587.05707"
       y2="613.09106" />
    <linearGradient
       inkscape:collect="always"
       xlink:href="#linearGradient5289"
       id="linearGradient3533"
       gradientUnits="userSpaceOnUse"
       x1="546.34375"
       y1="613.23438"
       x2="585.90082"
       y2="607.88281" />
    <linearGradient
       inkscape:collect="always"
       xlink:href="#linearGradient5289"
       id="linearGradient3535"
       gradientUnits="userSpaceOnUse"
       x1="550.16827"
       y1="647.78998"
       x2="590.2392"
       y2="617.32727" />
    <linearGradient
       inkscape:collect="always"
       xlink:href="#linearGradient5289"
       id="linearGradient3537"
       gradientUnits="userSpaceOnUse"
       x1="562.32361"
       y1="660.61566"
       x2="593.85876"
       y2="621.30231" />
    <linearGradient
       inkscape:collect="always"
       xlink:href="#linearGradient5289"
       id="linearGradient3539"
       gradientUnits="userSpaceOnUse"
       x1="580.91107"
       y1="665.6875"
       x2="597.05591"
       y2="622.875" />
    <linearGradient
       inkscape:collect="always"
       xlink:href="#linearGradient5289"
       id="linearGradient3541"
       gradientUnits="userSpaceOnUse"
       x1="597.93146"
       y1="664.75958"
       x2="602.6734"
       y2="624.62292" />
    <linearGradient
       inkscape:collect="always"
       xlink:href="#linearGradient5289"
       id="linearGradient3543"
       gradientUnits="userSpaceOnUse"
       x1="546.54956"
       y1="629.55737"
       x2="587.05707"
       y2="613.09106" />
    <linearGradient
       inkscape:collect="always"
       xlink:href="#linearGradient5289"
       id="linearGradient3545"
       gradientUnits="userSpaceOnUse"
       x1="546.34375"
       y1="613.23438"
       x2="585.90082"
       y2="607.88281" />
    <linearGradient
       inkscape:collect="always"
       xlink:href="#linearGradient5035"
       id="linearGradient3547"
       gradientUnits="userSpaceOnUse"
       gradientTransform="translate(-420.45284,417.30818)"
       x1="744.12756"
       y1="664.62994"
       x2="744.12756"
       y2="624.70013" />
    <linearGradient
       inkscape:collect="always"
       xlink:href="#linearGradient5289"
       id="linearGradient3549"
       gradientUnits="userSpaceOnUse"
       x1="550.16827"
       y1="647.78998"
       x2="590.2392"
       y2="617.32727" />
    <linearGradient
       inkscape:collect="always"
       xlink:href="#linearGradient5289"
       id="linearGradient3551"
       gradientUnits="userSpaceOnUse"
       x1="562.32361"
       y1="660.61566"
       x2="593.85876"
       y2="621.30231" />
    <linearGradient
       inkscape:collect="always"
       xlink:href="#linearGradient5289"
       id="linearGradient3553"
       gradientUnits="userSpaceOnUse"
       x1="580.91107"
       y1="665.6875"
       x2="597.05591"
       y2="622.875" />
    <linearGradient
       inkscape:collect="always"
       xlink:href="#linearGradient5289"
       id="linearGradient3555"
       gradientUnits="userSpaceOnUse"
       x1="597.93146"
       y1="664.75958"
       x2="602.6734"
       y2="624.62292" />
    <linearGradient
       inkscape:collect="always"
       xlink:href="#linearGradient5289"
       id="linearGradient3557"
       gradientUnits="userSpaceOnUse"
       x1="546.54956"
       y1="629.55737"
       x2="587.05707"
       y2="613.09106" />
    <linearGradient
       inkscape:collect="always"
       xlink:href="#linearGradient5289"
       id="linearGradient3559"
       gradientUnits="userSpaceOnUse"
       x1="546.34375"
       y1="613.23438"
       x2="585.90082"
       y2="607.88281" />
    <linearGradient
       inkscape:collect="always"
       xlink:href="#linearGradient5289"
       id="linearGradient3561"
       gradientUnits="userSpaceOnUse"
       x1="550.16827"
       y1="647.78998"
       x2="590.2392"
       y2="617.32727" />
    <linearGradient
       inkscape:collect="always"
       xlink:href="#linearGradient5289"
       id="linearGradient3563"
       gradientUnits="userSpaceOnUse"
       x1="562.32361"
       y1="660.61566"
       x2="593.85876"
       y2="621.30231" />
    <linearGradient
       inkscape:collect="always"
       xlink:href="#linearGradient5289"
       id="linearGradient3565"
       gradientUnits="userSpaceOnUse"
       x1="580.91107"
       y1="665.6875"
       x2="597.05591"
       y2="622.875" />
    <linearGradient
       inkscape:collect="always"
       xlink:href="#linearGradient5289"
       id="linearGradient3567"
       gradientUnits="userSpaceOnUse"
       x1="597.93146"
       y1="664.75958"
       x2="602.6734"
       y2="624.62292" />
    <linearGradient
       inkscape:collect="always"
       xlink:href="#linearGradient5289"
       id="linearGradient3569"
       gradientUnits="userSpaceOnUse"
       x1="546.54956"
       y1="629.55737"
       x2="587.05707"
       y2="613.09106" />
    <linearGradient
       inkscape:collect="always"
       xlink:href="#linearGradient5289"
       id="linearGradient3571"
       gradientUnits="userSpaceOnUse"
       x1="546.34375"
       y1="613.23438"
       x2="585.90082"
       y2="607.88281" />
    <linearGradient
       inkscape:collect="always"
       xlink:href="#linearGradient5035"
       id="linearGradient3573"
       gradientUnits="userSpaceOnUse"
       gradientTransform="matrix(-1,0,0,1,1388.7034,420.87925)"
       x1="884.625"
       y1="356.5"
       x2="924.53125"
       y2="356.5" />
    <linearGradient
       inkscape:collect="always"
       xlink:href="#linearGradient5035"
       id="linearGradient3575"
       gradientUnits="userSpaceOnUse"
       x1="546.34375"
       y1="356.5"
       x2="586.25"
       y2="356.5" />
    <linearGradient
       inkscape:collect="always"
       xlink:href="#linearGradient3589-1"
       id="linearGradient3577"
       gradientUnits="userSpaceOnUse"
       gradientTransform="matrix(1.5943635,0,0,1.5943635,-415.62042,322.7615)"
       x1="474.36896"
       y1="326.44595"
       x2="474.36896"
       y2="379.66144" />
    <linearGradient
       inkscape:collect="always"
       xlink:href="#linearGradient4559"
       id="linearGradient3579"
       gradientUnits="userSpaceOnUse"
       gradientTransform="matrix(1.1718365,0,0,1.1718365,-21.630802,-187.32257)"
       x1="306.64474"
       y1="422.37881"
       x2="306.64474"
       y2="740.86096" />
  </defs>
  <metadata
     id="metadata7">
    <rdf:RDF>
      <cc:Work
         rdf:about="">
        <dc:format>image/svg+xml</dc:format>
        <dc:type
           rdf:resource="http://purl.org/dc/dcmitype/StillImage" />
        <dc:title />
      </cc:Work>
    </rdf:RDF>
  </metadata>
  <g
     transform="translate(-125.88004,-361.18932)"
     id="layer1"
     inkscape:groupmode="layer"
     inkscape:label="Capa 1">
    <rect
       ry="38.206436"
       y="361.35684"
       x="125.88004"
       height="728.76343"
       width="443.19754"
       id="rect4395"
       style="fill:url(#linearGradient3519);fill-opacity:1;stroke:none" />
    <g
       id="g5514"
       transform="matrix(1.1718365,0,0,1.1718365,-21.630802,-187.32257)">
      <g
         transform="matrix(1.001324,0,0,1,-0.16667345,3.5710678)"
         id="g5427"
         style="opacity:0.40816327">
        <path
           inkscape:connector-curvature="0"
           transform="translate(-420.45284,420.87925)"
           id="path5001"
           d="m 865.40625,624.5625 -260.46875,0 0,41.09375 260.46875,0 0,-41.09375 z"
           style="opacity:0.5;fill:url(#linearGradient3521);fill-opacity:1;stroke:none" />
        <g
           id="g5393">
          <path
             inkscape:connector-curvature="0"
             style="opacity:0.72653061;fill:url(#linearGradient3523);fill-opacity:1;stroke:none"
             d="m 591.0625,620.03125 c -1.4914,-1.47523 -2.79338,-3.13956 -3.59375,-5.125 L 546.875,638.375 c 1.08653,6.65304 4.22473,12.54297 8.65625,17.1875 l 35.53125,-35.53125 z"
             id="path5263"
             transform="translate(-420.45284,420.87925)" />
          <path
             inkscape:connector-curvature="0"
             style="opacity:0.72244903;fill:url(#linearGradient3525);fill-opacity:1;stroke:none"
             d="m 595.09375,622.90625 c -1.48096,-0.75864 -2.85424,-1.71075 -4.03125,-2.875 l -35.53125,35.53125 c 4.14708,4.34642 9.48928,7.46876 15.5,9 l 24.0625,-41.65625 z"
             id="path5266"
             transform="translate(-420.45284,420.87925)" />
          <path
             inkscape:connector-curvature="0"
             style="opacity:0.60816327;fill:url(#linearGradient3527);fill-opacity:1;stroke:none"
             d="m 599.9375,624.34375 c -1.71922,-0.23025 -3.36262,-0.67878 -4.84375,-1.4375 l -24.0625,41.65625 c 2.53354,0.64542 5.1567,1.09375 7.90625,1.09375 l 9.9375,0 11.0625,-41.3125 z"
             id="path5269"
             transform="translate(-420.45284,420.87925)" />
          <path
             inkscape:connector-curvature="0"
             style="opacity:0.5;fill:url(#linearGradient3529);fill-opacity:1;stroke:none"
             d="m 599.9375,624.34375 -11.0625,41.3125 16.0625,0 0,-41.09375 -3.21875,0 c -0.62131,0 -1.18767,-0.13925 -1.78125,-0.21875 z"
             id="path5260"
             transform="translate(-420.45284,420.87925)" />
          <path
             inkscape:connector-curvature="0"
             style="opacity:0.60816327;fill:url(#linearGradient3531);fill-opacity:1;stroke:none"
             d="m 546.875,638.375 40.59375,-23.46875 c -0.66248,-1.64337 -1.09209,-3.41032 -1.15625,-5.28125 l -39.96875,10.6875 0,12.75 c 0,1.81918 0.24769,3.5762 0.53125,5.3125 z"
             id="path5257"
             transform="translate(-420.45284,420.87925)" />
          <path
             inkscape:connector-curvature="0"
             style="opacity:0.52653061;fill:url(#linearGradient3533);fill-opacity:1;stroke:none"
             d="M 546.34375,620.3125 586.3125,609.625 c -0.006,-0.18086 -0.0625,-0.34883 -0.0625,-0.53125 l 0,-2.9375 -39.90625,0 0,14.15625 z"
             id="path5017"
             transform="translate(-420.45284,420.87925)" />
        </g>
        <g
           transform="matrix(-1,0,0,1,629.43919,0)"
           id="g5401">
          <path
             inkscape:connector-curvature="0"
             transform="translate(-420.45284,420.87925)"
             id="path5403"
             d="m 591.0625,620.03125 c -1.4914,-1.47523 -2.79338,-3.13956 -3.59375,-5.125 L 546.875,638.375 c 1.08653,6.65304 4.22473,12.54297 8.65625,17.1875 l 35.53125,-35.53125 z"
             style="opacity:0.72653061;fill:url(#linearGradient3535);fill-opacity:1;stroke:none" />
          <path
             inkscape:connector-curvature="0"
             transform="translate(-420.45284,420.87925)"
             id="path5405"
             d="m 595.09375,622.90625 c -1.48096,-0.75864 -2.85424,-1.71075 -4.03125,-2.875 l -35.53125,35.53125 c 4.14708,4.34642 9.48928,7.46876 15.5,9 l 24.0625,-41.65625 z"
             style="opacity:0.72244903;fill:url(#linearGradient3537);fill-opacity:1;stroke:none" />
          <path
             inkscape:connector-curvature="0"
             transform="translate(-420.45284,420.87925)"
             id="path5407"
             d="m 599.9375,624.34375 c -1.71922,-0.23025 -3.36262,-0.67878 -4.84375,-1.4375 l -24.0625,41.65625 c 2.53354,0.64542 5.1567,1.09375 7.90625,1.09375 l 9.9375,0 11.0625,-41.3125 z"
             style="opacity:0.60816327;fill:url(#linearGradient3539);fill-opacity:1;stroke:none" />
          <path
             inkscape:connector-curvature="0"
             transform="translate(-420.45284,420.87925)"
             id="path5409"
             d="m 599.9375,624.34375 -11.0625,41.3125 16.0625,0 0,-41.09375 -3.21875,0 c -0.62131,0 -1.18767,-0.13925 -1.78125,-0.21875 z"
             style="opacity:0.5;fill:url(#linearGradient3541);fill-opacity:1;stroke:none" />
          <path
             inkscape:connector-curvature="0"
             transform="translate(-420.45284,420.87925)"
             id="path5411"
             d="m 546.875,638.375 40.59375,-23.46875 c -0.66248,-1.64337 -1.09209,-3.41032 -1.15625,-5.28125 l -39.96875,10.6875 0,12.75 c 0,1.81918 0.24769,3.5762 0.53125,5.3125 z"
             style="opacity:0.60816327;fill:url(#linearGradient3543);fill-opacity:1;stroke:none" />
          <path
             inkscape:connector-curvature="0"
             transform="translate(-420.45284,420.87925)"
             id="path5413"
             d="M 546.34375,620.3125 586.3125,609.625 c -0.006,-0.18086 -0.0625,-0.34883 -0.0625,-0.53125 l 0,-2.9375 -39.90625,0 0,14.15625 z"
             style="opacity:0.52653061;fill:url(#linearGradient3545);fill-opacity:1;stroke:none" />
        </g>
      </g>
      <g
         id="g5444"
         transform="matrix(1.000492,0,0,-0.99895815,-0.06193445,1549.915)"
         style="opacity:0.40799997">
        <path
           style="opacity:0.5;fill:url(#linearGradient3547);fill-opacity:1;stroke:none"
           d="m 444.95341,1041.8707 -260.46875,0 0,41.0937 260.46875,0 0,-41.0937 z"
           id="path5446"
           inkscape:connector-curvature="0" />
        <g
           transform="translate(0,-3.5710678)"
           id="g5448">
          <path
             transform="translate(-420.45284,420.87925)"
             id="path5450"
             d="m 591.0625,620.03125 c -1.4914,-1.47523 -2.79338,-3.13956 -3.59375,-5.125 L 546.875,638.375 c 1.08653,6.65304 4.22473,12.54297 8.65625,17.1875 l 35.53125,-35.53125 z"
             style="opacity:0.72653061;fill:url(#linearGradient3549);fill-opacity:1;stroke:none"
             inkscape:connector-curvature="0" />
          <path
             transform="translate(-420.45284,420.87925)"
             id="path5452"
             d="m 595.09375,622.90625 c -1.48096,-0.75864 -2.85424,-1.71075 -4.03125,-2.875 l -35.53125,35.53125 c 4.14708,4.34642 9.48928,7.46876 15.5,9 l 24.0625,-41.65625 z"
             style="opacity:0.72244903;fill:url(#linearGradient3551);fill-opacity:1;stroke:none"
             inkscape:connector-curvature="0" />
          <path
             transform="translate(-420.45284,420.87925)"
             id="path5454"
             d="m 599.9375,624.34375 c -1.71922,-0.23025 -3.36262,-0.67878 -4.84375,-1.4375 l -24.0625,41.65625 c 2.53354,0.64542 5.1567,1.09375 7.90625,1.09375 l 9.9375,0 11.0625,-41.3125 z"
             style="opacity:0.60816327;fill:url(#linearGradient3553);fill-opacity:1;stroke:none"
             inkscape:connector-curvature="0" />
          <path
             transform="translate(-420.45284,420.87925)"
             id="path5456"
             d="m 599.9375,624.34375 -11.0625,41.3125 16.0625,0 0,-41.09375 -3.21875,0 c -0.62131,0 -1.18767,-0.13925 -1.78125,-0.21875 z"
             style="opacity:0.5;fill:url(#linearGradient3555);fill-opacity:1;stroke:none"
             inkscape:connector-curvature="0" />
          <path
             transform="translate(-420.45284,420.87925)"
             id="path5458"
             d="m 546.875,638.375 40.59375,-23.46875 c -0.66248,-1.64337 -1.09209,-3.41032 -1.15625,-5.28125 l -39.96875,10.6875 0,12.75 c 0,1.81918 0.24769,3.5762 0.53125,5.3125 z"
             style="opacity:0.60816327;fill:url(#linearGradient3557);fill-opacity:1;stroke:none"
             inkscape:connector-curvature="0" />
          <path
             transform="translate(-420.45284,420.87925)"
             id="path5460"
             d="M 546.34375,620.3125 586.3125,609.625 c -0.006,-0.18086 -0.0625,-0.34883 -0.0625,-0.53125 l 0,-2.9375 -39.90625,0 0,14.15625 z"
             style="opacity:0.52653061;fill:url(#linearGradient3559);fill-opacity:1;stroke:none"
             inkscape:connector-curvature="0" />
        </g>
        <g
           id="g5462"
           transform="matrix(-1.006034,0,0,1,630.55237,-3.5710678)">
          <path
             style="opacity:0.72653061;fill:url(#linearGradient3561);fill-opacity:1;stroke:none"
             d="m 591.0625,620.03125 c -1.4914,-1.47523 -2.79338,-3.13956 -3.59375,-5.125 L 546.875,638.375 c 1.08653,6.65304 4.22473,12.54297 8.65625,17.1875 l 35.53125,-35.53125 z"
             id="path5464"
             transform="translate(-420.45284,420.87925)"
             inkscape:connector-curvature="0" />
          <path
             style="opacity:0.72244903;fill:url(#linearGradient3563);fill-opacity:1;stroke:none"
             d="m 595.09375,622.90625 c -1.48096,-0.75864 -2.85424,-1.71075 -4.03125,-2.875 l -35.53125,35.53125 c 4.14708,4.34642 9.48928,7.46876 15.5,9 l 24.0625,-41.65625 z"
             id="path5466"
             transform="translate(-420.45284,420.87925)"
             inkscape:connector-curvature="0" />
          <path
             style="opacity:0.60816327;fill:url(#linearGradient3565);fill-opacity:1;stroke:none"
             d="m 599.9375,624.34375 c -1.71922,-0.23025 -3.36262,-0.67878 -4.84375,-1.4375 l -24.0625,41.65625 c 2.53354,0.64542 5.1567,1.09375 7.90625,1.09375 l 9.9375,0 11.0625,-41.3125 z"
             id="path5468"
             transform="translate(-420.45284,420.87925)"
             inkscape:connector-curvature="0" />
          <path
             style="opacity:0.5;fill:url(#linearGradient3567);fill-opacity:1;stroke:none"
             d="m 599.9375,624.34375 -11.0625,41.3125 16.0625,0 0,-41.09375 -3.21875,0 c -0.62131,0 -1.18767,-0.13925 -1.78125,-0.21875 z"
             id="path5470"
             transform="translate(-420.45284,420.87925)"
             inkscape:connector-curvature="0" />
          <path
             style="opacity:0.60816327;fill:url(#linearGradient3569);fill-opacity:1;stroke:none"
             d="m 546.875,638.375 40.59375,-23.46875 c -0.66248,-1.64337 -1.09209,-3.41032 -1.15625,-5.28125 l -39.96875,10.6875 0,12.75 c 0,1.81918 0.24769,3.5762 0.53125,5.3125 z"
             id="path5472"
             transform="translate(-420.45284,420.87925)"
             inkscape:connector-curvature="0" />
          <path
             style="opacity:0.52653061;fill:url(#linearGradient3571);fill-opacity:1;stroke:none"
             d="M 546.34375,620.3125 586.3125,609.625 c -0.006,-0.18086 -0.0625,-0.34883 -0.0625,-0.53125 l 0,-2.9375 -39.90625,0 0,14.15625 z"
             id="path5474"
             transform="translate(-420.45284,420.87925)"
             inkscape:connector-curvature="0" />
        </g>
      </g>
      <g
         id="g5505"
         transform="matrix(0.99999572,0,0,1.0075676,0.00215663,-4.2011355)"
         style="opacity:0.89795915">
        <g
           id="g5502">
          <path
             style="opacity:0.23265309;fill:url(#linearGradient3573);fill-opacity:1;stroke:none"
             d="m 504.07841,527.723 0,499.3125 -39.90625,0 0,-499.3125 39.90625,0 z"
             id="path5006"
             inkscape:connector-curvature="0" />
        </g>
        <path
           transform="translate(-420.45284,420.87925)"
           id="path5009"
           d="m 546.34375,106.84375 0,499.3125 39.90625,0 0,-499.3125 -39.90625,0 z"
           style="opacity:0.23265309;fill:url(#linearGradient3575);fill-opacity:1;stroke:none"
           inkscape:connector-curvature="0" />
      </g>
    </g>
    <text
       id="text3433"
       y="837.07495"
       x="-766.49536"
       style="font-size:40px;font-style:normal;font-weight:normal;fill:#000000;fill-opacity:1;stroke:none;font-family:Bitstream Vera Sans"
       xml:space="preserve"><tspan
         y="837.07495"
         x="-766.49536"
         id="tspan3435"
         sodipodi:role="line" /></text>
    <text
       id="text3433-4"
       y="8.1567411"
       x="594.75751"
       style="font-size:17.20249176px;font-style:normal;font-weight:normal;fill:#000000;fill-opacity:1;stroke:none;font-family:Bitstream Vera Sans"
       xml:space="preserve"><tspan
         y="8.1567411"
         x="594.75751"
         id="tspan3435-8"
         sodipodi:role="line" /></text>
    <text
       id="text3433-47"
       y="393.37509"
       x="-800.09094"
       style="font-size:40px;font-style:normal;font-weight:normal;fill:#000000;fill-opacity:1;stroke:none;font-family:Bitstream Vera Sans"
       xml:space="preserve"><tspan
         y="393.37509"
         x="-800.09094"
         id="tspan3435-1"
         sodipodi:role="line" /></text>
    <path
       inkscape:connector-curvature="0"
       d="m 474.3194,892.32126 c 0,73.79796 -59.82534,133.62294 -133.6232,133.62294 -73.79805,0 -133.62321,-59.82498 -133.62321,-133.62294 0,-73.79799 59.82516,-133.62323 133.62321,-133.62323 73.79786,0 133.6232,59.82524 133.6232,133.62323 z"
       style="fill:#f3f3f3;fill-opacity:1"
       id="path4397" />
    <path
       inkscape:connector-curvature="0"
       d="m 389.78219,892.32126 c 0,27.10946 -21.97672,49.08609 -49.08599,49.08609 -27.10948,0 -49.08599,-21.97663 -49.08599,-49.08609 0,-27.1095 21.97651,-49.08607 49.08599,-49.08607 27.10927,0 49.08599,21.97657 49.08599,49.08607 z"
       style="fill:url(#linearGradient3577);fill-opacity:1"
       id="path4399" />
    <g
       style="opacity:0.63453818;fill:#000000;fill-opacity:0.43396223"
       transform="matrix(0.54540045,0,0,0.54540045,201.0736,752.69877)"
       id="g4401">
      <path
         inkscape:connector-curvature="0"
         id="path4403"
         style="fill:#000000;fill-opacity:0.43396223"
         d="m 210.03808,60.443822 1.01015,-23.583791 5.80838,0 5.3033,14.647213 5.3033,-14.647213 5.55584,0 1.51523,23.583791 -4.29315,0 -1.26269,-13.987341 -4.29315,13.987341 -4.54568,0 -4.54569,-14.492417 -0.75761,14.492417 -4.79823,0 z m 30.30458,0 0,-23.583791 13.63706,0 0,3.535535 -8.96511,0 0,5.808377 8.46003,0 0,3.535534 -8.46003,0 0,6.313453 9.21764,0 0,4.390892 -13.88959,0 z m 19.30314,0 0,-23.583791 4.54722,0 9.23672,15.358736 0,-15.358736 4.35004,0 0,23.583791 -4.35004,0 -9.23672,-16.098719 0,16.098719 -4.54722,0 z m 24.00715,-23.583791 4.92449,0 0,17.046325 c 0,4.042583 8.20749,3.166812 8.20749,0 l 0,-17.046325 5.17703,0 0,17.551401 c 0,4.103744 -4.60882,6.031376 -9.21764,6.03239 -4.60882,0.001 -9.21764,-1.924589 -9.21764,-6.03239 l 0.12627,-17.551401 z" />
      <path
         inkscape:connector-curvature="0"
         id="path4405"
         style="fill:#000000;fill-opacity:0.43396223"
         d="m 227.84202,451.28938 22.96208,11.7842 -22.85593,12.33319 -0.10615,-24.11739 z m 36.36549,24.11739 0,-24.11739 6.77646,0 0,24.11739 -6.77646,0 z m 13.17408,0 0,-24.11739 6.77643,0 0,24.11739 -6.77643,0 z" />
      <path
         inkscape:connector-curvature="0"
         id="path4407"
         style="fill:#000000;fill-opacity:0.43396223"
         d="m 65.442624,256.04517 18.409118,11.25 -0.0868,-22.5 -18.322319,11.25 z m -19.715884,11.33929 0,-23.125 -5.98214,0 0,23.21428 5.98214,-0.0893 z m 0.70662,-11.33929 18.409118,11.25 -0.0868,-22.5 -18.322319,11.25 z" />
      <path
         inkscape:connector-curvature="0"
         d="m 446.55738,256.04517 -18.40912,11.25 0.0868,-22.5 18.32232,11.25 z m 19.71588,11.33929 0,-23.125 5.98214,0 0,23.21428 -5.98214,-0.0893 z m -0.70662,-11.33929 -18.40912,11.25 0.0868,-22.5 18.32232,11.25 z"
         style="fill:#000000;fill-opacity:0.43396223"
         id="path4409" />
    </g>
    <rect
       style="fill:#313131;fill-opacity:1;fill-rule:nonzero;stroke:none"
       id="rect3617"
       width="375.57635"
       height="285.69968"
       x="159.47316"
       y="393.60446"
       ry="5.5860677" />
    <rect
       ry="5.5860677"
       y="393.60446"
       x="159.47316"
       height="285.69968"
       width="375.57635"
       id="rect3615"
       style="fill:none;stroke:#434343;stroke-width:5.84632444;stroke-linecap:round;stroke-linejoin:miter;stroke-miterlimit:4;stroke-opacity:1;stroke-dasharray:none" />
    <path
       id="path4346"
       style="opacity:0.11020406;fill:none;stroke:#000000;stroke-opacity:1;filter:url(#filter4352)"
       d="m 423.22469,921.32625 c 0,62.97632 -51.05262,114.02865 -114.02886,114.02865 -62.9764,0 -114.02886,-51.05233 -114.02886,-114.02865 0,-62.97635 51.05246,-114.02889 114.02886,-114.02889 62.97624,0 114.02886,51.05254 114.02886,114.02889 z"
       inkscape:connector-curvature="0"
       transform="matrix(1.1718365,0,0,1.1718365,-21.630802,-187.32257)" />
    <path
       transform="matrix(0.42559108,0,0,0.42559108,209.1052,501.73277)"
       inkscape:connector-curvature="0"
       d="m 423.22469,917.75518 c 0,62.97632 -51.05262,114.02862 -114.02886,114.02862 -62.9764,0 -114.02886,-51.0523 -114.02886,-114.02862 0,-62.97635 51.05246,-114.02889 114.02886,-114.02889 62.97624,0 114.02886,51.05254 114.02886,114.02889 z"
       style="opacity:0.09795921;fill:none;stroke:#000000;stroke-width:2.75343323;stroke-miterlimit:4;stroke-opacity:1;stroke-dasharray:none;filter:url(#filter4352)"
       id="path4356" />
    <path
       style="font-size:medium;font-style:normal;font-variant:normal;font-weight:normal;font-stretch:normal;text-indent:0;text-align:start;text-decoration:none;line-height:normal;letter-spacing:normal;word-spacing:normal;text-transform:none;direction:ltr;block-progression:tb;writing-mode:lr-tb;text-anchor:start;baseline-shift:baseline;opacity:0.46122448;color:#000000;fill:url(#linearGradient3579);fill-opacity:1;stroke:none;stroke-width:4.98902702;marker:none;visibility:visible;display:inline;overflow:visible;enable-background:accumulate;font-family:Sans;-inkscape-font-specification:Sans"
       d="m 165.06937,390.69082 c -4.66354,0 -8.49581,3.83226 -8.49581,8.49582 l 0,274.53934 c 0,4.66355 3.83227,8.49582 8.49581,8.49582 l 77.34122,0 143.44013,-291.53098 -220.78135,0 z"
       id="rect3421"
       inkscape:connector-curvature="0" />
  </g>
</svg>
