<?xml version="1.0" encoding="UTF-8" standalone="no"?>
<!-- Created with Inkscape (http://www.inkscape.org/) -->
<svg
   xmlns:svg="http://www.w3.org/2000/svg"
   xmlns="http://www.w3.org/2000/svg"
   xmlns:xlink="http://www.w3.org/1999/xlink"
   version="1.0"
   width="512"
   height="512"
   id="svg2">
  <defs
     id="defs4" />
  <g
     id="g3383">
    <path
       d="M 501 256 A 245 245 0 1 1  11,256 A 245 245 0 1 1  501 256 z"
       style="fill:#d7d4ce"
       id="path2240" />
    <path
       d="M 346 256 A 90 90 0 1 1  166,256 A 90 90 0 1 1  346 256 z"
       style="fill:#9e968d"
       id="path2238" />
  </g>
  <g
     id="g3377">
    <path
       d="M 210.03808,60.443822 L 211.04823,36.860031 L 216.85661,36.860031 L 222.15991,51.507244 L 227.46321,36.860031 L 233.01905,36.860031 L 234.53428,60.443822 L 230.24113,60.443822 L 228.97844,46.456481 L 224.68529,60.443822 L 220.13961,60.443822 L 215.59392,45.951405 L 214.83631,60.443822 L 210.03808,60.443822 z M 240.34266,60.443822 L 240.34266,36.860031 L 253.97972,36.860031 L 253.97972,40.395566 L 245.01461,40.395566 L 245.01461,46.203943 L 253.47464,46.203943 L 253.47464,49.739477 L 245.01461,49.739477 L 245.01461,56.05293 L 254.23225,56.05293 L 254.23225,60.443822 L 240.34266,60.443822 z M 259.6458,60.443822 L 259.6458,36.860031 L 264.19302,36.860031 L 273.42974,52.218767 L 273.42974,36.860031 L 277.77978,36.860031 L 277.77978,60.443822 L 273.42974,60.443822 L 264.19302,44.345103 L 264.19302,60.443822 L 259.6458,60.443822 z M 283.65295,36.860031 L 288.57744,36.860031 L 288.57744,53.906356 C 288.57744,57.948939 296.78493,57.073168 296.78493,53.906356 L 296.78493,36.860031 L 301.96196,36.860031 L 301.96196,54.411432 C 301.96196,58.515176 297.35314,60.442808 292.74432,60.443822 C 288.1355,60.444837 283.52668,58.519233 283.52668,54.411432 L 283.65295,36.860031 z "
       style="fill:#a9a9a8"
       id="path6054" />
    <path
       d="M 227.84202,451.28938 L 250.8041,463.07358 L 227.94817,475.40677 L 227.84202,451.28938 z M 264.20751,475.40677 L 264.20751,451.28938 L 270.98397,451.28938 L 270.98397,475.40677 L 264.20751,475.40677 z M 277.38159,475.40677 L 277.38159,451.28938 L 284.15802,451.28938 L 284.15802,475.40677 L 277.38159,475.40677 z "
       style="fill:#a9a9a8"
       id="path13828" />
    <path
       d="M 65.442624,256.04517 L 83.851742,267.29517 L 83.764943,244.79517 L 65.442624,256.04517 z M 45.72674,267.38446 L 45.72674,244.25946 L 39.7446,244.25946 L 39.7446,267.47374 L 45.72674,267.38446 z M 46.43336,256.04517 L 64.842478,267.29517 L 64.755679,244.79517 L 46.43336,256.04517 z "
       style="fill:#a9a9a8"
       id="path3222" />
    <use
       transform="matrix(-1,0,0,1,512,0)"
       id="use3237"
       x="0"
       y="0"
       width="512"
       height="520"
       xlink:href="#path3222" />
  </g>
</svg>
