<svg clip-rule="evenodd" fill-rule="evenodd" height="269.548233" stroke-linejoin="round" stroke-miterlimit="1.41421" viewBox="0 0 2048 1488" width="370.991117" xmlns="http://www.w3.org/2000/svg"><g fill-rule="nonzero"><path d="m818.897 1294.25c0 1.03-.451 1.55-1.353 1.55-1.416 0-2.704-2.52-3.863-7.54-2.319-9.91-5.538-16.68-9.659-20.28-4.122-3.61-10.69-5.41-19.705-5.41-3.477 0-6.504.13-9.08.38l.194 117.46c.128 3.22 1.03 5.28 2.704 6.18s6.182 1.68 13.523 2.32c1.417.13 2.125.71 2.125 1.74 0 1.29-1.03 1.93-3.091 1.93-.386 0-1.352-.06-2.898-.19-1.932-.13-3.541-.2-4.829-.2l-19.898-.58-32.841.58c-1.803 0-2.704-.51-2.704-1.54 0-.77.257-1.23.772-1.35.515-.13 2.64-.26 6.375-.39 7.084-.26 10.883-1.93 11.398-5.02.258-1.68.386-14.75.386-39.22v-81.72c-1.416-.12-3.091-.19-5.022-.19-10.303 0-17.805 1.9-22.506 5.7s-7.759 10.53-9.176 20.19c-.902 5.66-2.061 8.5-3.477 8.5-1.16 0-1.739-.77-1.739-2.32 0-1.03.258-4.57.773-10.63 1.03-12.62 1.674-21.25 1.931-25.88h2.898l14.102-.2c.387 0 4.862.13 13.427.39 8.564.26 19.479.39 32.744.39 7.341 0 13.909-.07 19.704-.2 5.796-.12 11.076-.19 15.841-.19 4.25 0 7.47-.13 9.659-.39.387 8.38 1.353 19.07 2.898 32.07.258 2.19.387 3.55.387 4.06z" transform="matrix(.8904 0 0 .884283585 60.9046 146.04015368)"/><path d="m889.396 1381.76c0 1.03-1.03 2.45-3.091 4.25-5.538 5.02-12.364 7.54-20.477 7.54-5.281 0-9.112-1.1-11.495-3.29-2.382-2.19-3.96-6.12-4.733-11.78-5.795 10.56-13.716 15.84-23.761 15.84-5.538 0-10.013-1.74-13.426-5.22s-5.119-7.98-5.119-13.52c0-16.23 13.909-25.82 41.727-28.78v-4.06c0-12.88-.451-20.8-1.352-23.76l-.194-.97c-1.803-6.44-6.375-9.66-13.716-9.66-4.25 0-7.662 1.23-10.238 3.67-2.576 2.45-3.864 4.83-3.864 7.15 0 1.29 1.546 2.06 4.637 2.32 4.636.39 6.954 3.22 6.954 8.5 0 2.83-.934 5.18-2.801 7.05s-4.282 2.8-7.244 2.8c-3.735 0-6.794-1.13-9.176-3.38-2.383-2.25-3.574-5.12-3.574-8.6 0-5.53 2.769-10.56 8.306-15.06 5.538-4.51 12.815-6.77 21.83-6.77 13.394 0 22.731 2.39 28.011 7.15 4.25 3.99 6.375 10.95 6.375 20.87v33.03c0 6.44.065 10.17.194 11.2.644 5.41 2.511 8.12 5.602 8.12 2.189 0 4.894-1.55 8.113-4.64.644-.64 1.16-.96 1.546-.96.644 0 .966.32.966.96zm-40.375-22.99v-9.46c-12.493 2.44-18.739 9.53-18.739 21.25 0 9.01 3.091 13.52 9.273 13.52 3.477 0 5.924-1.93 7.341-5.8 1.417-3.86 2.125-10.36 2.125-19.51z" transform="matrix(.8904 0 0 .92351036 60.9046 91.43648288)"/><path d="m933.447 1390.65c0 1.03-2.448 1.63-7.341 1.54-2.607-.04-3.092-.13-9.146-.38-3.09-.13-6.117-.2-9.079-.2-2.833 0-8.114.13-15.841.39l-5.795.19c-2.834.13-4.25-.32-4.25-1.35s1.481-1.48 4.443-1.35c4.507.13 7.115-.32 7.824-1.35.708-1.03 1.062-4.9 1.062-11.59v-101.81c0-4.38-.451-6.99-1.352-7.83-.902-.83-3.542-1.25-7.921-1.25-3.219 0-4.829-.45-4.829-1.35 0-1.03 1.674-1.61 5.023-1.74 14.424-.52 26.208-2.71 35.352-6.57-.129 3.86-.193 26.47-.193 67.81v48.1c0 8.76.225 13.88.676 15.36s.719 2.01 3.06 2.03l5.795-.2c1.674 0 2.512.52 2.512 1.55z" transform="matrix(.896614992 0 0 .8590663725 55.436146072 181.14251348)"/><path d="m971.298 1275.97c0 3.6-1.223 6.69-3.67 9.27s-5.409 3.86-8.887 3.86c-3.606 0-6.632-1.22-9.079-3.67-2.447-2.44-3.671-5.54-3.671-9.27 0-3.61 1.224-6.57 3.671-8.89s5.602-3.47 9.466-3.47c3.477 0 6.375 1.15 8.693 3.47s3.477 5.22 3.477 8.7zm14.33 114.87c0 .9-.579 1.35-1.738 1.35l-25.693-.38-17.282.38c-.773 0-1.739.07-2.898.2-1.03 0-1.61 0-1.739 0-1.545 0-2.318-.52-2.318-1.55 0-.77 1.481-1.22 4.443-1.35 4.379-.13 5.691-.61 6.464-1.45s1.159-3.38 1.159-7.63v-55.44c0-4.9-.418-7.83-1.256-8.79-.837-.97-3.38-1.45-7.63-1.45-2.705 0-4.282-.07-4.733-.2s-.676-.58-.676-1.35c0-.9.966-1.35 2.897-1.35 14.167-.13 26.273-2.32 36.319-6.57.257 1.55.579 5.8.965 12.75l.194 24.54v36.31c0 5.28.483 8.38 1.449 9.28.965.9 4.282 1.35 9.948 1.35 1.417 0 2.125.45 2.125 1.35z" transform="matrix(.8904 0 0 .8960516175 60.9046 129.65905244)"/><path d="m1085.83 1318.59c0 6.83-3.28 10.24-9.85 10.24-6.06 0-9.08-2.77-9.08-8.31 0-.9.22-1.93.67-3.09s.68-1.99.68-2.51c0-2.19-1.16-3.28-3.48-3.28-1.54 0-2.99.67-4.34 2.02-1.36 1.36-2.03 2.87-2.03 4.54 0 .78.51 2.19 1.54 4.25 2.45 4.77 3.67 9.21 3.67 13.33 0 9.66-4.44 17.71-13.33 24.15-6.82 4.9-15.19 7.34-25.11 7.34-4.12 0-8.89-.77-14.29-2.32-1.42-.38-2.64-.57-3.68-.57-2.44 0-4.53.74-6.27 2.22-1.743 1.48-2.612 3.31-2.612 5.5 0 4.64 3.672 6.96 11.012 6.96 5.54 0 13.78-.78 24.73-2.32 2.7-.39 5.28-.58 7.72-.58 8.63 0 15.33 2.16 20.1 6.47 4.76 4.31 7.14 10.4 7.14 18.26 0 12.62-4.86 22.66-14.58 30.13-9.73 7.47-22.83 11.21-39.32 11.21-11.59 0-20.762-2.03-27.524-6.09-6.761-4.05-10.142-9.62-10.142-16.71 0-10.69 7.856-17.13 23.566-19.32-9.528-3.73-14.293-9.4-14.293-17 0-10.3 6.118-17.32 18.353-21.05-11.849-6.06-17.773-14.56-17.773-25.5 0-8.63 3.767-15.91 11.301-21.83 7.532-5.93 16.712-8.89 27.532-8.89 12.49 0 22.21 3.41 29.17 10.24 4.89-6.31 10.69-9.47 17.38-9.47 8.76 0 13.14 4 13.14 11.98zm-45.59 19.13c0-19.58-4.7-29.37-14.1-29.37s-14.11 8.89-14.11 26.66c0 10.69 1.16 18.35 3.48 22.99s6.18 6.95 11.59 6.95c5.02 0 8.47-1.96 10.34-5.89s2.8-11.04 2.8-21.34zm18.74 74.37c0-9.53-5.6-14.29-16.81-14.29-5.41 0-12.49.7-21.25 2.12-6.31 1.03-11.01 1.55-14.1 1.55h-2.9c-3.61 4.38-5.409 9.78-5.409 16.22 0 13.66 8.889 20.48 26.659 20.48 9.53 0 17.55-2.51 24.05-7.53 6.5-5.03 9.76-11.21 9.76-18.55z" transform="matrix(.8904 0 0 .92351036 60.9046 91.43648288)"/><path d="m1157.09 1368.43c0 2.84-1.68 6.57-5.02 11.21-7.22 9.91-16.62 14.87-28.21 14.87-13.01 0-23.7-4.12-32.07-12.36-8.37-8.25-12.55-18.8-12.55-31.68 0-12.62 4.05-23.15 12.17-31.59 8.11-8.44 18.22-12.65 30.33-12.65 8.24 0 15.26 1.8 21.05 5.41 6.44 3.99 10.63 9.72 12.56 17.19.52 2.32.9 5.09 1.16 8.31-2.96.25-14.88.45-35.74.58-3.22 0-7.27.13-12.17.38-.39 4.64-.58 8.57-.58 11.79 0 15.06 3.16 25.75 9.47 32.06 3.73 3.74 8.3 5.61 13.71 5.61 4.51 0 8.86-1.55 13.04-4.64 4.19-3.09 7.38-7.08 9.57-11.98 1.03-2.44 1.86-3.67 2.51-3.67.51 0 .77.39.77 1.16zm-24.34-33.61c.13-9.92-.58-16.81-2.13-20.67-1.54-3.87-4.25-5.8-8.11-5.8-7.86 0-12.36 8.82-13.52 26.47 2.7-.13 8.37-.2 17-.2 2.57 0 4.83.07 6.76.2z" transform="matrix(.8904 0 0 .92351036 60.9046 91.43648288)"/><path d="m1259.22 1390.84c0 1.03-1.61 1.55-4.83 1.55-.26 0-1.93-.07-5.02-.2s-7.6-.19-13.52-.19h-6.19l-16.61.19c-1.8 0-2.7-.51-2.7-1.54 0-.9.77-1.35 2.31-1.35h1.55c3.35 0 5.31-.42 5.89-1.26s.87-3.7.87-8.6v-37.28c0-13.78-.9-22.02-2.7-24.73-1.55-2.32-4.32-3.48-8.31-3.48s-7.28 1.23-9.85 3.67c-2.58 2.45-3.86 5.54-3.86 9.28l.19 58.53c.26 1.55.8 2.55 1.64 3s2.93.74 6.28.87c1.03 0 1.54.38 1.54 1.15 0 .78-.45 1.23-1.35 1.36s-4.12.19-9.66.19c-5.53 0-10.11.06-13.71.19-7.09.26-14.3.39-21.64.39-1.54 0-2.32-.45-2.32-1.35 0-1.03 1.97-1.55 5.89-1.55 3.93 0 6.22-.77 6.86-2.32l.58-2.7v-44.43c0-12.49-.13-19-.39-19.51-.38-1.94-2.12-2.9-5.21-2.9-1.67 0-3.16.06-4.44.19h-2.13c-2.06 0-3.09-.45-3.09-1.35s.77-1.42 2.32-1.55c14.42-.64 25.95-3.67 34.58-9.08 1.03-.51 1.74-.77 2.12-.77 1.03 0 1.55 1.03 1.55 3.09 0 5.67-.07 9.34-.2 11.01 6.83-8.88 15.59-13.33 26.28-13.33 11.07 0 18.29 3.87 21.63 11.59 1.42 3.23 2.29 6.83 2.61 10.82.32 4 .48 12.24.48 24.73v28.01c0 3.99.33 6.35.97 7.05.65.71 2.74 1.07 6.28 1.07s5.31.51 5.31 1.54z" transform="matrix(.8904 0 0 .92351036 60.9046 91.43648288)"/><path d="m1320.4 1379.64c0 1.41-1.22 3.28-3.67 5.6-6.31 6.05-15 9.08-26.08 9.08-10.17 0-16.87-2.51-20.09-7.54-1.29-1.93-2.03-3.73-2.22-5.4-.2-1.68-.29-5.99-.29-12.95v-9.27c0-2.45 0-5.02 0-7.73-.13-2.7-.19-4.05-.19-4.05v-17.39l-.2-13.91c0-2.32-.32-3.67-.96-4.06-.65-.38-2.58-.58-5.8-.58-3.86 0-5.79-.51-5.79-1.54 0-.78.7-1.29 2.12-1.55 12.11-.38 22.54-6.95 31.3-19.7 1.15-1.8 2.06-2.71 2.7-2.71.77 0 1.16.91 1.16 2.71-.13 11.07.32 17.13 1.35 18.16s4.19 1.54 9.47 1.54c5.41 0 9.21-.25 11.4-.77.25-.13.51-.19.77-.19.51 0 .77.38.77 1.16 0 1.8-.84 2.7-2.51 2.7-5.28.13-11.14.19-17.58.19-.52 0-1.42-.06-2.7-.19v4.06c0 34.51.45 54.73 1.35 60.66 1.16 7.47 4.76 11.2 10.82 11.2 2.7 0 6.18-1.93 10.43-5.79 2.06-1.81 3.35-2.71 3.86-2.71.39 0 .58.32.58.97z" transform="matrix(.8904 0 0 .92351036 60.9046 91.43648288)"/><g transform="matrix(.969186 0 0 1 -41.3007 -11.0586)"><path d="m221.346 715.579-.248 4.225c0 .828-.414 6.046-1.243 15.655-.662 7.289-.994 12.922-.994 16.898 0 4.97.083 9.111.249 12.425.165 1.159.248 2.567.248 4.224 0 1.822-.414 2.733-1.242 2.733-.829 0-1.74-.828-2.734-2.484-3.644-5.964-7.537-9.858-11.679-11.68-12.425 10.603-25.761 15.904-40.008 15.904-21.702 0-40.836-8.118-57.403-24.353-17.56-17.229-26.34-38.931-26.34-65.106 0-25.346 7.91-46.51 23.731-63.49 15.821-16.981 35.577-25.471 59.267-25.471 10.933 0 20.708 2.485 29.322 7.455 4.97 2.816 8.615 4.224 10.934 4.224 3.479 0 6.709-1.574 9.691-4.721 2.154-2.32 3.479-3.479 3.976-3.479.663 0 .994.579.994 1.739 0 .497-.083 1.243-.248 2.237-.994 5.632-1.491 12.59-1.491 20.873 0 .829.083 4.225.248 10.189v17.146c0 2.982-.828 4.473-2.485 4.473-1.325 0-2.65-3.231-3.976-9.692-5.963-29.819-19.631-44.729-41.001-44.729-16.898 0-29.157 10.934-36.778 32.802-5.301 14.909-7.952 32.801-7.952 53.675 0 30.979 6.295 53.675 18.886 68.088 6.626 7.62 15.324 11.431 26.092 11.431 23.359 0 38.683-15.573 45.972-46.718 1.159-5.135 2.485-7.703 3.976-7.703 1.656 0 2.402 1.077 2.236 3.23z"/><path d="m350.316 717.319c0 17.726-6.958 32.056-20.874 42.99-10.934 8.614-22.944 12.921-36.032 12.921-15.572 0-29.032-5.591-40.38-16.773s-17.022-24.394-17.022-39.635c0-15.904 5.674-29.447 17.022-40.629 11.348-11.183 25.056-16.774 41.126-16.774 15.406 0 28.618 5.674 39.635 17.022 11.016 11.348 16.525 24.974 16.525 40.878zm-37.523.248c0-20.542-1.408-34.624-4.225-42.244-3.147-8.449-8.2-12.673-15.158-12.673-6.461 0-11.514 4.431-15.158 13.294-3.645 8.863-5.467 21.081-5.467 36.653 0 21.702 2.154 37.109 6.461 46.221 3.479 7.289 8.366 10.934 14.661 10.934 7.786 0 12.922-4.639 15.407-13.916 2.319-8.78 3.479-21.537 3.479-38.269z"/><path d="m555.574 769.006c0 1.491-1.243 2.071-3.728 1.739h-4.473l-7.206-.248c-4.804-.166-10.603-.249-17.395-.249h-13.916c-.497 0-1.739.083-3.727.249-1.988 0-3.81 0-5.467 0h-3.23c-2.32 0-3.479-.497-3.479-1.491 0-.828 1.905-1.325 5.715-1.491 4.804-.166 7.206-1.657 7.206-4.473v-55.415c0-17.063-.579-27.334-1.739-30.813-1.657-4.804-5.798-7.206-12.425-7.206-6.129 0-10.934 2.65-14.413 7.951-1.491 2.154-2.319 4.556-2.485 7.207-.331 3.147-.497 11.679-.497 25.595v47.214c0 4.97.456 7.869 1.367 8.698.911.828 4.018 1.242 9.319 1.242 1.491 0 2.236.414 2.236 1.243 0 1.325-.911 1.987-2.733 1.987-1.657 0-2.982-.082-3.976-.248l-48.208-.497c-1.491 0-2.237-.497-2.237-1.491s1.988-1.491 5.964-1.491c2.982 0 4.721-.414 5.218-1.242l.497-2.485v-60.882c0-15.572-.911-24.974-2.733-28.204-1.822-3.231-5.55-4.846-11.182-4.846-6.793 0-11.845 2.816-15.159 8.449-1.159 2.154-1.863 4.349-2.112 6.585-.248 2.237-.373 8.739-.373 19.507v49.202c0 7.621.456 11.804 1.367 12.549.911.746 3.189 1.119 6.834 1.119h3.727c1.657 0 2.485.497 2.485 1.491 0 1.159-.745 1.739-2.236 1.739-2.154 0-4.142-.083-5.964-.248h-10.437c-13.253.331-20.294.579-21.122.745-7.952.331-13.833.497-17.643.497h-3.479c-2.154 0-3.231-.663-3.231-1.988 0-1.16.746-1.739 2.237-1.739l5.715.248c2.816.166 5.136-.497 6.958-1.988 1.325-1.16 1.988-4.639 1.988-10.437v-41.002c0-23.027-.331-35.369-.994-37.026-1.325-1.491-6.461-2.236-15.407-2.236-2.319 0-3.479-.58-3.479-1.74 0-1.325 1.077-1.988 3.231-1.988 16.566-.331 31.31-3.975 44.232-10.933 1.491-.829 2.568-1.243 3.23-1.243.829 0 1.243.663 1.243 1.988 0 2.485-.083 4.556-.249 6.213v10.436c7.621-12.259 18.886-18.388 33.796-18.388 16.732 0 26.589 6.709 29.571 20.128 3.81-7.124 8.449-12.218 13.916-15.283 5.467-3.064 12.673-4.597 21.619-4.597 21.039 0 31.559 11.597 31.559 34.79v3.727c-.166 1.988-.249 3.645-.249 4.97v52.433c0 5.301.208 8.531.622 9.691s1.781 1.822 4.1 1.988c3.313.331 6.295.497 8.946.497 1.656 0 2.485.497 2.485 1.491z"/><path d="m754.619 769.006c0 1.491-1.242 2.071-3.727 1.739h-4.473l-7.207-.248c-4.804-.166-10.602-.249-17.394-.249h-13.916c-.497 0-1.74.083-3.728.249-1.988 0-3.81 0-5.466 0h-3.231c-2.319 0-3.479-.497-3.479-1.491 0-.828 1.905-1.325 5.716-1.491 4.804-.166 7.206-1.657 7.206-4.473v-55.415c0-17.063-.58-27.334-1.74-30.813-1.656-4.804-5.798-7.206-12.424-7.206-6.13 0-10.934 2.65-14.413 7.951-1.491 2.154-2.319 4.556-2.485 7.207-.331 3.147-.497 11.679-.497 25.595v47.214c0 4.97.456 7.869 1.367 8.698.911.828 4.017 1.242 9.318 1.242 1.491 0 2.237.414 2.237 1.243 0 1.325-.911 1.987-2.734 1.987-1.656 0-2.982-.082-3.976-.248l-48.208-.497c-1.491 0-2.236-.497-2.236-1.491s1.988-1.491 5.964-1.491c2.981 0 4.721-.414 5.218-1.242l.497-2.485v-60.882c0-15.572-.911-24.974-2.734-28.204-1.822-3.231-5.549-4.846-11.182-4.846-6.792 0-11.845 2.816-15.158 8.449-1.16 2.154-1.864 4.349-2.112 6.585-.249 2.237-.373 8.739-.373 19.507v49.202c0 7.621.455 11.804 1.367 12.549.911.746 3.189 1.119 6.833 1.119h3.728c1.656 0 2.485.497 2.485 1.491 0 1.159-.746 1.739-2.237 1.739-2.153 0-4.141-.083-5.964-.248h-10.437c-13.253.331-20.293.579-21.122.745-7.952.331-13.833.497-17.643.497h-3.479c-2.154 0-3.23-.663-3.23-1.988 0-1.16.745-1.739 2.236-1.739l5.716.248c2.816.166 5.135-.497 6.957-1.988 1.326-1.16 1.988-4.639 1.988-10.437v-41.002c0-23.027-.331-35.369-.994-37.026-1.325-1.491-6.46-2.236-15.406-2.236-2.32 0-3.479-.58-3.479-1.74 0-1.325 1.077-1.988 3.23-1.988 16.567-.331 31.311-3.975 44.232-10.933 1.491-.829 2.568-1.243 3.231-1.243.828 0 1.242.663 1.242 1.988 0 2.485-.082 4.556-.248 6.213v10.436c7.62-12.259 18.886-18.388 33.795-18.388 16.732 0 26.589 6.709 29.571 20.128 3.811-7.124 8.449-12.218 13.916-15.283 5.467-3.064 12.674-4.597 21.619-4.597 21.04 0 31.559 11.597 31.559 34.79v3.727c-.165 1.988-.248 3.645-.248 4.97v52.433c0 5.301.207 8.531.621 9.691s1.781 1.822 4.1 1.988c3.314.331 6.296.497 8.946.497 1.657 0 2.485.497 2.485 1.491z"/><path d="m874.643 717.319c0 17.726-6.958 32.056-20.874 42.99-10.934 8.614-22.944 12.921-36.032 12.921-15.572 0-29.032-5.591-40.38-16.773s-17.022-24.394-17.022-39.635c0-15.904 5.674-29.447 17.022-40.629 11.348-11.183 25.056-16.774 41.126-16.774 15.407 0 28.618 5.674 39.635 17.022s16.525 24.974 16.525 40.878z" fill="#2c768a" transform="matrix(.902641 0 0 .878648 79.5896 86.9278)"/><path d="m1015.79 768.509c0 1.325-2.07 1.988-6.21 1.988-.33 0-2.49-.083-6.46-.249-3.98-.165-9.779-.248-17.399-.248h-7.952l-21.371.248c-2.319 0-3.479-.662-3.479-1.987 0-1.16.994-1.74 2.982-1.74h1.988c4.307 0 6.834-.538 7.579-1.615.746-1.077 1.119-4.763 1.119-11.058v-47.96c0-17.726-1.16-28.329-3.479-31.808-1.988-2.982-5.55-4.472-10.686-4.472-5.135 0-9.36 1.573-12.673 4.721s-4.97 7.124-4.97 11.928l.248 75.294c.332 1.988 1.036 3.272 2.113 3.852s3.769.952 8.076 1.118c1.325 0 1.988.497 1.988 1.491s-.58 1.574-1.74 1.74c-1.159.165-5.301.248-12.424.248-7.124 0-13.005.083-17.644.248-9.111.332-18.388.497-27.831.497-1.988 0-2.982-.579-2.982-1.739 0-1.325 2.526-1.988 7.579-1.988s7.993-.994 8.821-2.982l.746-3.479v-57.154c0-16.069-.166-24.435-.497-25.098-.497-2.485-2.733-3.728-6.709-3.728-2.154 0-4.059.083-5.716.249h-2.733c-2.651 0-3.976-.58-3.976-1.74 0-1.159.994-1.822 2.982-1.988 18.554-.828 33.381-4.721 44.481-11.679 1.325-.662 2.236-.994 2.733-.994 1.325 0 1.988 1.325 1.988 3.976 0 7.289-.083 12.011-.249 14.164 8.781-11.43 20.046-17.146 33.796-17.146 14.247 0 23.524 4.97 27.832 14.91 1.822 4.142 2.94 8.78 3.354 13.916.414 5.135.622 15.738.622 31.807v36.032c0 5.136.413 8.159 1.243 9.07s3.52 1.367 8.08 1.367c4.55 0 6.83.663 6.83 1.988z"/></g><g transform="matrix(.553423 0 0 .592486 153.506 288.803)"><path d="m641.717 979.389c0 47.031-13.371 86.221-40.113 117.571-26.742 31.36-60.169 47.03-100.282 47.03-30.431 0-54.867-11.99-73.31-35.96v155.61c0 12.91.692 21.09 2.075 24.55s4.495 5.65 9.336 6.57c4.842.92 17.175 1.61 37.001 2.08 5.072 0 7.608 2.07 7.608 6.22 0 3.23-2.997 4.84-8.991 4.84-.461 0-2.766 0-6.916 0-4.15-.46-8.069-.69-11.757-.69h-69.852c-5.072 0-11.988.23-20.748.69-8.76 0-18.904 0-30.431 0h-34.58c-10.143 0-15.215-1.84-15.215-5.53 0-3.23 8.299-4.84 24.898-4.84 13.832 0 21.555-1.39 23.168-4.15 1.614-2.77 2.421-11.53 2.421-26.28v-348.571c0-3.228-.231-6.455-.692-9.683 0-2.766 0-4.611 0-5.533l.692-19.365c.461-9.682-3.228-15.676-11.066-17.981-3.688-1.383-11.526-2.075-23.514-2.075h-13.141c-3.688 0-5.532-1.383-5.532-4.15 0-3.688 2.766-5.071 8.299-4.149 48.873-1.384 91.752-10.605 128.638-27.664 1.844 2.766 2.997 6.455 3.458 11.065l1.383 17.29.692 11.758c12.448-15.677 24.667-26.397 36.655-32.16 11.987-5.763 27.433-8.645 46.337-8.645 38.269 0 70.082 14.408 95.441 43.225s38.038 65.126 38.038 108.927zm-101.665-2.766c0-88.064-19.826-132.096-59.478-132.096-17.521 0-32.275 8.299-44.263 24.898-5.533 7.838-8.299 20.978-8.299 39.421v136.244c0 29.51 3.689 49.57 11.066 60.17 10.604 15.68 24.897 23.52 42.879 23.52 38.73 0 58.095-50.72 58.095-152.157z"/><path d="m983.714 988.38c0 49.33-19.364 89.22-58.094 119.65-30.431 23.97-63.858 35.96-100.282 35.96-43.341 0-80.803-15.56-112.386-46.68s-47.375-67.9-47.375-110.313c0-44.262 15.792-81.955 47.375-113.077s69.737-46.683 114.46-46.683c42.88 0 79.65 15.792 110.311 47.375s45.991 69.506 45.991 113.768zm-104.431.692c0-57.173-3.92-96.363-11.758-117.572-8.76-23.515-22.823-35.272-42.187-35.272-17.982 0-32.045 12.333-42.188 37.001-10.144 24.667-15.215 58.67-15.215 102.011 0 60.4 5.993 103.28 17.981 128.64 9.683 20.28 23.284 30.43 40.805 30.43 21.67 0 35.963-12.91 42.879-38.73 6.455-24.44 9.683-59.94 9.683-106.508z"/><path d="m1181.3 1130.85c0 3.23-2.08 4.84-6.23 4.84l-91.98-1.38-66.39 1.38c-2.77 0-6.23.23-10.38.69-3.69 0-5.76 0-6.22 0-5.536 0-8.302-1.84-8.302-5.53 0-2.77 5.302-4.38 15.902-4.84 15.68-.46 24.9-2.19 27.67-5.19 2.76-2.99 4.15-12.1 4.15-27.32v-198.486c0-17.521-1.5-28.01-4.5-31.468-2.99-3.458-12.1-5.187-27.32-5.187-9.678 0-15.326-.23-16.94-.691-1.614-.462-2.42-2.075-2.42-4.842 0-3.227 3.458-4.841 10.374-4.841 50.716-.461 94.056-8.299 130.026-23.514.92 5.532 2.07 20.748 3.45 45.645l.69 87.834v130.02c0 18.91 1.73 29.97 5.19 33.2 3.46 3.22 15.33 4.84 35.62 4.84 5.07 0 7.61 1.61 7.61 4.84z"/><path d="m1565.96 1130.85c0 3.69-5.77 5.53-17.29 5.53-.92 0-6.92-.23-17.99-.69-11.06-.46-27.2-.69-48.41-.69h-22.13l-59.48.69c-6.45 0-9.68-1.84-9.68-5.53 0-3.23 2.77-4.84 8.3-4.84h5.53c11.99 0 19.02-1.5 21.1-4.5 2.07-2.99 3.11-13.25 3.11-30.77v-133.483c0-49.335-3.23-78.843-9.68-88.525-5.53-8.3-15.45-12.449-29.74-12.449s-26.05 4.38-35.27 13.14-13.83 19.826-13.83 33.197l.69 209.56c.92 5.53 2.88 9.1 5.88 10.71 2.99 1.62 10.48 2.66 22.47 3.12 3.69 0 5.54 1.38 5.54 4.15 0 2.76-1.62 4.38-4.85 4.84-3.22.46-14.75.69-34.58.69-19.82 0-36.19.23-49.1.69-25.36.92-51.18 1.39-77.46 1.39-5.53 0-8.3-1.62-8.3-4.85 0-3.68 7.03-5.53 21.09-5.53 14.07 0 22.25-2.77 24.56-8.3l2.07-9.68v-159.069c0-44.724-.46-68.008-1.38-69.852-1.38-6.916-7.61-10.374-18.68-10.374-5.99 0-11.29.23-15.9.691h-7.61c-7.38 0-11.06-1.613-11.06-4.841 0-3.227 2.76-5.072 8.29-5.533 51.64-2.305 92.91-13.14 123.8-32.505 3.69-1.844 6.23-2.766 7.61-2.766 3.69 0 5.53 3.688 5.53 11.065 0 20.287-.23 33.428-.69 39.422 24.44-31.814 55.79-47.721 94.06-47.721 39.65 0 65.47 13.832 77.46 41.496 5.07 11.527 8.18 24.437 9.33 38.73 1.16 14.293 1.73 43.801 1.73 88.525v100.282c0 14.29 1.16 22.71 3.46 25.24 2.31 2.54 9.8 3.81 22.48 3.81s19.02 1.84 19.02 5.53z"/><path d="m1799.16 1090.74c0 5.07-4.38 11.76-13.14 20.05-22.6 21.67-53.72 32.51-93.37 32.51-36.42 0-60.4-8.99-71.93-26.97-4.61-6.92-7.26-13.37-7.95-19.37-.69-5.99-1.04-21.44-1.04-46.34v-33.19c0-8.76 0-17.984 0-27.666-.46-9.683-.69-14.524-.69-14.524v-62.244l-.69-49.796c0-8.299-1.15-13.14-3.46-14.523-2.3-1.384-9.22-2.075-20.75-2.075-13.83 0-20.75-1.844-20.75-5.533 0-2.766 2.54-4.611 7.61-5.533 65.56-3.359 76.99-63.802 108.34-109.448 4.15-6.455 7.38-9.682 9.69-9.682 2.76 0 3.98 3.229 4.15 9.682 1.58 62.686-9.17 106.363 83.23 106.682.92-.461 1.84-.692 2.76-.692 1.85 0 2.77 1.383 2.77 4.15 0 6.455-3 9.682-8.99 9.682-18.9.461-39.88.692-62.93.692-1.85 0-5.08-.231-9.69-.692v14.524c0 123.566 1.62 195.956 4.84 217.166 4.15 26.74 17.06 40.11 38.73 40.11 9.69 0 22.14-6.92 37.35-20.75 7.38-6.45 11.99-9.68 13.83-9.68 1.39 0 2.08 1.15 2.08 3.46z"/></g></g><path d="m813.616 606c-18.681-5.503 112.677-233.47 93.384-384-9.839-76.769 25.493-57.228 40-42 101.66 106.711-105.055 434.344-133.384 426z" fill="#ef9e00"/><path d="m836.884 593.907c-22.56 34.002-26.268 24.586-12.717-2.851 49.636-100.505 102.944-285.047 102.197-383.632-.586-77.444 13.022-23.797 16.795-2.731 26.612 148.573-70.994 336.037-106.275 389.214z" fill="#2c768a" transform="matrix(-1.05313 -1.23648 1.18978 -1.01335 1903.73 1917.63)"/><path d="m908.61 611.801c66.993 45.974 166.37-327.155 50.087-386.608-55.664-28.459-27.537-43.128-7.697-44.607 23.692-1.766 46.766 7.797 60.64 34.905 90.36 176.569-32.894 564.599-139.178 415.968-24.361-34.067 2.296-68.424 18.423-37.707 3.228 6.148 10.286 12.944 17.725 18.049z" fill="#ef9e00" transform="matrix(.419166 .907909 -.907909 .419166 1395.6 -49.8033)"/><path d="m908.61 611.801c66.993 45.974 166.37-327.155 50.087-386.608-55.664-28.459-27.537-43.128-7.697-44.607 23.692-1.766 46.766 7.797 60.64 34.905 90.36 176.569-32.894 564.599-139.178 415.968-24.361-34.067 2.296-68.424 18.423-37.707 3.228 6.148 10.286 12.944 17.725 18.049z" fill="#2c768a" transform="matrix(.333715 .722823 -.73634 .339956 1423.36 288.711)"/><path d="m855.664 551.051c-14.493 9.049-21.532-4.57-13.888-13.21 69.654-78.735 91.024-243.738 38.81-300.463-15.409-16.741 2.602-26.204 11.616-17.075 90.648 91.808 134.648 223.863-36.538 330.748z" fill="#8a3c64" transform="matrix(-.938403 .345543 -.345543 -.938403 1559.37 1259.44)"/><path d="m850.736 559.756c-14.879 8.399-27.616-1.484-8.96-21.915 115.029-125.973 118.553-366.695-1.243-375.801-63.381-4.818-69.18-25.215-14.534-32.354 180.421-23.569 228.781 314.885 24.737 430.07z" fill="#8a3c64" transform="matrix(.960115 -.279605 .279605 .960115 152.685 205.441)"/><path d="m1238.75 852c19.51-40.888-40.98-17.084-51.75 20.162-59.61 206.228 419.1 3.906 485-118.162 32.69-60.562-37.28-93.471-132-69-79.03 20.419-52.89-27.947 42-57 181.23-55.486 438.05-213.821 400-301-27.33-62.623-84.87-76.713-62-27.387 12.85 27.702 18.09 53.873-7 74.387-135.74 110.962-309.08 130.254-464.36 217-181.38 101.319-210.92 208.165-22.11 144.241 188.9-63.953 249.65-38.273 139.47 69.759-92.34 90.532-202.99 109.401-281 112-48.1 1.602-69.84-15.566-46.25-65z" fill="#380072"/></svg>