<?xml version="1.0" encoding="UTF-8" standalone="no"?>
<svg
   xmlns:dc="http://purl.org/dc/elements/1.1/"
   xmlns:cc="http://creativecommons.org/ns#"
   xmlns:rdf="http://www.w3.org/1999/02/22-rdf-syntax-ns#"
   xmlns:svg="http://www.w3.org/2000/svg"
   xmlns="http://www.w3.org/2000/svg"
   height="158.99998"
   width="621.97571"
   xml:space="preserve"
   viewBox="0 0 621.9757 158.99998"
   y="0px"
   x="0px"
   id="Layer_1"
   version="1.1"><metadata
   id="metadata4636"><rdf:RDF><cc:Work
       rdf:about=""><dc:format>image/svg+xml</dc:format><dc:type
         rdf:resource="http://purl.org/dc/dcmitype/StillImage" /><dc:title></dc:title></cc:Work></rdf:RDF></metadata><defs
   id="defs4634" />
<style
   id="style4597"
   type="text/css">
	.st0{fill:#232B5F;}
	.st1{fill:#0F85A6;}
	.st2{fill:#FFFFFF;}
</style>
<g
   transform="translate(-43.7,-219.00002)"
   id="XMLID_2_">
	<g
   id="XMLID_50_">
		<g
   transform="matrix(0.87651596,0,0,0.87651596,5.3962525,46.676967)"
   id="XMLID_27_">
			<path
   style="fill:#232b5f"
   d="m 283.8,237.8 v 83.1 c 0,10.8 0.7,12.1 13.5,12.1 v 5.8 H 252.6 V 333 c 12.7,0 13.4,-1.3 13.4,-12.1 v -83.1 h -14 c -8.7,0 -10,0.7 -13.1,18.6 h -7.3 l 3.5,-26.2 h 79.7 l 3.5,26.2 h -7.1 c -3.2,-18 -4.7,-18.6 -13.2,-18.6 z"
   class="st0"
   id="XMLID_28_" />
			<path
   style="fill:#232b5f"
   d="m 350.9,284.9 c 0,-11.2 -4.4,-15.7 -12.7,-15.7 -7.6,0 -11.9,4.5 -14.6,11.5 -1.2,3.1 -3.1,4.9 -7.6,4.9 -4.5,0 -6.3,-2.8 -6.3,-6 0,-7.3 9.2,-16.3 29.5,-16.3 15,0 28.2,3.9 28.2,24.6 V 323 c 0,7.6 1.6,10.6 4.7,10.6 1.6,0 3.1,-0.4 4.2,-1.2 l 1.2,4.9 c -3.3,1.3 -7,2.2 -12.8,2.2 -7.4,0 -11.1,-2.6 -13,-8.1 h -0.6 c -5.1,5.1 -11.5,9.2 -23,9.2 -10.6,0 -22,-6.1 -22,-19.4 0,-7.6 3.1,-13.5 10.5,-18.2 5.7,-3.6 13.7,-6.7 24.2,-9 l 9.9,-2.5 v -6.6 z m 0,12.4 c -13.1,3.9 -27.1,9.3 -27.1,21.5 0,11.5 7.4,13.5 12.4,13.5 6.7,0 11.3,-3.8 14.7,-7.3 z"
   class="st0"
   id="XMLID_30_" />
			<path
   style="fill:#232b5f"
   d="m 374.9,333.6 c 9.3,0 10,-1.6 10,-11.5 v -74.5 c 0,-9.2 -0.7,-10.5 -10,-10.5 v -4.7 c 8.3,-1 16.3,-3.1 24.6,-7 l 2,1.2 v 95.6 c 0,9.7 0.6,11.3 9.3,11.3 v 5.1 h -35.9 z"
   class="st0"
   id="XMLID_33_" />
			<path
   style="fill:#232b5f"
   d="m 442.2,264.4 v 57.9 c 0,10 0.7,11.3 9.3,11.3 v 5.1 h -35.9 v -5.1 c 9.3,0 9.9,-1.3 9.9,-11.5 v -36.4 c 0,-10.2 -0.4,-10.8 -9.9,-10.8 v -4.7 c 8.6,-0.9 16.2,-3.1 24.7,-7 z m 0.8,-20.2 c 0,6.8 -4.4,11.1 -9.9,11.1 -5.5,0 -9.7,-4.2 -9.7,-11.1 0,-6.5 4.2,-10.9 9.7,-10.9 5.9,-0.1 9.9,4.6 9.9,10.9 z"
   class="st0"
   id="XMLID_35_" />
			<path
   style="fill:#232b5f"
   d="m 513.8,272.5 c 4.9,4.7 7.6,10.6 7.6,17.9 0,18.5 -14.4,27.4 -31.7,27.4 -5.4,0 -10.5,-0.9 -15.1,-2.8 -3.9,2.6 -6.3,5.1 -6.3,8.1 0,4.2 4.2,6.4 12.8,6.4 h 16.6 c 23.4,0 31.1,10.3 31.1,21.4 0,15.7 -16.4,27.1 -41.2,27.1 -21.7,0 -35.9,-6.1 -35.9,-18.8 0,-9.5 8.7,-16 17.5,-19.4 -6.3,-1.5 -12.2,-5.4 -12.2,-12.2 0,-7 6,-11.3 12.4,-15 -7.4,-4.5 -12.4,-12.4 -12.4,-22.1 0,-17.3 13.7,-27.2 32,-27.2 8.3,0 14.8,2 19.4,4.7 l 20.7,-2.8 v 8.4 z m -37.6,69.6 c -6.8,4.4 -10.9,9.5 -10.9,15.4 0,8.9 8.9,14.7 23,14.7 16.9,0 26.8,-8 26.8,-17.3 0,-6.1 -3.9,-12.8 -20.1,-12.8 z m 28.1,-51.7 c 0,-10.9 -4.7,-21.2 -15.3,-21.2 -10.2,0 -15.3,10.3 -15.3,21.2 0,12.9 5.8,21.4 15.6,21.4 10.5,0 15,-9.3 15,-21.4 z"
   class="st0"
   id="XMLID_38_" />
			<path
   style="fill:#232b5f"
   d="m 591.6,322.7 c -6.5,12.1 -16.7,17.9 -29.7,17.9 -17.9,0 -35.5,-8.9 -35.5,-40.3 0,-18.8 10.3,-37 33.8,-37 26.8,0 31.6,24.3 31.6,37.8 H 544 c 0,9.6 1.3,17.6 5.2,23.9 3.6,5.7 9.3,8.9 15.6,8.9 10.2,0 17.6,-6.1 21.4,-13.8 z m -16.9,-27.5 c 0,-8.3 -1.3,-26 -14.7,-26 -6.8,0 -15.4,5.5 -16,26 z"
   class="st0"
   id="XMLID_42_" />
			<path
   style="fill:#232b5f"
   d="m 619.7,276.3 c 6.5,-8 14.7,-12.9 24.3,-12.9 16.1,0 22.7,8.7 22.7,24 v 35.2 c 0,9.3 0.7,11.1 7.7,11.1 v 5.1 h -31.9 v -5.1 c 7,0 7.6,-1 7.6,-11.5 v -34.3 c 0,-11.8 -3.5,-16.9 -11.9,-16.9 -5.8,0 -12.5,5.4 -18.5,13.7 v 37.7 c 0,10.3 0.3,11.3 7.3,11.3 v 5.1 h -33.2 v -5.1 c 8.4,0 9.3,-1.2 9.3,-11.5 v -36.1 c 0,-9.9 -1,-11.2 -9.3,-11.1 v -4.7 c 7.7,-1 15.7,-3.2 22.7,-7 l 2.3,1.2 0.6,11.8 z"
   class="st0"
   id="XMLID_45_" />
			<path
   style="fill:#232b5f"
   d="m 676.4,271.4 v -4.8 c 11.5,-1 17,-7.7 21.1,-23.4 h 5.1 v 22.1 h 18.5 v 6.1 h -18.5 v 49.5 c 0,8.9 2.8,12.5 8.4,12.5 3.9,0 7.1,-1.3 10.6,-3.9 l 3.1,4.8 c -4.8,4.1 -10.6,6.4 -18.9,6.4 -10.2,0 -19.8,-4.1 -19.8,-19.8 v -49.5 z"
   class="st0"
   id="XMLID_47_" />
		</g>
		<g
   id="XMLID_49_">
			<rect
   style="fill:#0f85a6;stroke-width:0.87651598"
   height="137.61301"
   width="137.61301"
   class="st1"
   y="219.00002"
   x="45.102425"
   id="XMLID_1_" />
			<g
   transform="matrix(0.87651596,0,0,0.87651596,5.3962525,46.676967)"
   id="XMLID_52_">
				<path
   style="fill:#ffffff"
   d="m 64.4,233.4 c -6.6,0 -12.9,0.2 -19.1,0.7 v 47.6 c 6.1,0.4 12.5,0.7 19.1,0.7 45.1,0 81.7,-11 81.7,-24.5 0,-13.5 -36.6,-24.5 -81.7,-24.5 z"
   class="st2"
   id="XMLID_74_" />
				<path
   style="fill:#0f85a6"
   d="m 59.7,236.1 c -4.9,0 -9.7,0.1 -14.4,0.4 v 41.8 c 4.6,0.3 9.4,0.4 14.4,0.4 40.4,0 73.2,-9.5 73.2,-21.3 0,-11.8 -32.8,-21.3 -73.2,-21.3 z"
   class="st1"
   id="XMLID_71_" />
				<path
   style="fill:#ffffff"
   d="m 53.9,242 c -2.9,0 -5.8,0.1 -8.6,0.2 v 28.7 c 2.8,0.1 5.7,0.2 8.6,0.2 31.3,0 56.7,-6.5 56.7,-14.5 0,-8.1 -25.4,-14.6 -56.7,-14.6 z"
   class="st2"
   id="XMLID_68_" />
				<path
   style="fill:#0f85a6"
   d="m 54.2,244.5 c -3,0 -6,0.1 -8.9,0.2 v 23.6 c 2.9,0.2 5.8,0.2 8.9,0.2 24.7,0 44.7,-5.4 44.7,-12 -0.1,-6.6 -20,-12 -44.7,-12 z"
   class="st1"
   id="XMLID_69_" />
				<path
   style="fill:#ffffff"
   d="m 47.8,249.3 c -0.8,0 -1.6,0 -2.4,0 v 14 c 0.8,0 1.6,0 2.4,0 14.8,0 26.9,-3.1 26.9,-7 -0.1,-3.9 -12.1,-7 -26.9,-7 z"
   class="st2"
   id="XMLID_70_" />
				<path
   style="fill:#0f85a6"
   d="m 47.8,252.2 c -0.9,0 -1.7,0 -2.5,0 v 8.5 c 0.8,0 1.7,0 2.5,0 9.9,0 17.9,-1.9 17.9,-4.3 0,-2.3 -8,-4.2 -17.9,-4.2 z"
   class="st1"
   id="XMLID_67_" />
			</g>
			<g
   id="XMLID_57_">
				<path
   style="fill:#ffffff;stroke-width:0.87651598"
   d="m 182.71543,278.07718 c -7.09978,-0.43826 -14.46251,-0.61356 -21.9129,-0.61356 -64.686876,0 -117.10253,15.68963 -117.10253,35.14829 0,19.371 52.415654,35.14829 117.10253,35.14829 7.53804,0 14.81312,-0.26296 21.9129,-0.61356 z"
   class="st2"
   id="XMLID_72_" />
				<path
   style="fill:#0f85a6;stroke-width:0.87651598"
   d="m 182.71543,281.23264 c -5.17144,-0.17531 -10.51819,-0.35061 -15.95259,-0.35061 -60.39195,0 -109.389191,13.84895 -109.389191,30.94101 0,17.09207 48.997241,30.94102 109.389191,30.94102 5.4344,0 10.6935,-0.0876 15.95259,-0.35061 z"
   class="st1"
   id="XMLID_75_" />
				<path
   style="fill:#ffffff;stroke-width:0.87651598"
   d="m 182.71543,283.33628 c -2.7172,-0.0877 -5.4344,-0.0877 -8.23925,-0.0877 -51.88974,0 -93.96251,11.39471 -93.96251,25.50662 0,14.11191 42.07277,25.50661 93.96251,25.50661 2.80485,0 5.52205,0 8.23925,-0.0876 z"
   class="st2"
   id="XMLID_73_" />
				<path
   style="fill:#0f85a6;stroke-width:0.87651598"
   d="m 182.71543,286.14113 c -3.15546,-0.0876 -6.31091,-0.17531 -9.55402,-0.17531 -44.61466,0 -80.727123,9.99229 -80.727123,22.35116 0,12.35888 36.112463,22.35116 80.727123,22.35116 3.24311,0 6.39856,-0.0876 9.55402,-0.17531 z"
   class="st1"
   id="XMLID_76_" />
				<path
   style="fill:#ffffff;stroke-width:0.87651598"
   d="m 182.71543,289.73484 c -37.95314,0.43826 -68.19294,7.88865 -68.19294,17.00441 0,9.11577 30.2398,16.56615 68.19294,17.00441 z"
   class="st2"
   id="XMLID_66_" />
				<path
   style="fill:#0f85a6;stroke-width:0.87651598"
   d="m 182.71543,292.80265 c -29.53859,0.3506 -52.94156,6.22326 -52.94156,13.32304 0,7.18743 23.49063,12.97244 52.94156,13.32304 z"
   class="st1"
   id="XMLID_65_" />
				<path
   style="fill:#ffffff;stroke-width:0.87651598"
   d="m 182.71543,298.06174 c -18.05623,0.17531 -32.43109,3.41842 -32.43109,7.36274 0,3.94432 14.37486,7.18743 32.43109,7.36273 z"
   class="st2"
   id="XMLID_64_" />
				<path
   style="fill:#0f85a6;stroke-width:0.87651598"
   d="m 182.71543,300.25303 c -12.35887,0.17531 -22.0882,2.27895 -22.0882,4.90849 0,2.62955 9.72933,4.73319 22.0882,4.90849 z"
   class="st1"
   id="XMLID_63_" />
			</g>
		</g>
	</g>
	<g
   transform="matrix(0.87651596,0,0,0.87651596,5.3962525,46.676967)"
   id="XMLID_51_">
		<path
   style="fill:#232b5f"
   d="m 733,336 c 0,-5.6 4.6,-10.2 10.2,-10.1 5.6,0 10.1,4.6 10.1,10.2 0,5.6 -4.6,10.1 -10.2,10.1 C 737.5,346.1 733,341.6 733,336 Z m 10.1,8 c 4.5,0 8.1,-3.6 8.1,-8.1 0,-4.5 -3.6,-8.1 -8.1,-8.1 -4.5,0 -8.1,3.6 -8.1,8.1 0,4.5 3.6,8.1 8.1,8.1 z"
   class="st0"
   id="XMLID_113_" />
		<path
   style="fill:#232b5f"
   d="m 738.7,341 c 0,-3.5 0,-7.1 0,-10.6 0,0 0,0 0.1,0 1.5,0 2.9,0 4.4,0 0.6,0 1.2,0.1 1.8,0.2 0.4,0.1 0.8,0.3 1.2,0.6 0.4,0.3 0.6,0.7 0.7,1.2 0.1,0.4 0.1,0.8 0.1,1.2 0,0.4 -0.1,0.7 -0.2,1 -0.2,0.4 -0.5,0.7 -0.8,1 -0.3,0.2 -0.6,0.3 -0.9,0.4 0,0 0,0 -0.1,0 0,0 0.1,0 0.1,0 0.4,0.1 0.7,0.3 1,0.6 0.3,0.3 0.5,0.7 0.8,1.1 0.4,0.8 0.8,1.7 1.2,2.5 0.1,0.2 0.2,0.4 0.3,0.6 0,0 0,0 0,0.1 0,0 0,0 0,0 -0.9,0 -1.9,0 -2.8,0 0,0 -0.1,0 -0.1,0 -0.4,-0.9 -0.9,-1.8 -1.3,-2.7 -0.1,-0.3 -0.3,-0.5 -0.5,-0.8 -0.3,-0.3 -0.6,-0.5 -1,-0.5 -0.4,-0.1 -0.8,0 -1.1,0 0,0 0,0 0,0 0,1.3 0,2.7 0,4 -1.1,0.1 -2,0.1 -2.9,0.1 z m 2.7,-5.9 c 0,0 0,0 0,0 0.4,0 0.8,0 1.2,0 0.2,0 0.5,0 0.7,-0.1 0.4,-0.1 0.6,-0.3 0.7,-0.7 0.1,-0.4 0.1,-0.7 0,-1.1 -0.1,-0.4 -0.3,-0.6 -0.7,-0.7 -0.3,-0.1 -0.5,-0.1 -0.8,-0.1 -0.4,0 -0.8,0 -1.2,0 0,0 0,0 -0.1,0 0.2,0.9 0.2,1.8 0.2,2.7 z"
   class="st0"
   id="XMLID_107_" />
	</g>
</g>
</svg>