<?xml version="1.0" encoding="utf-8"?>
<!-- Generator: Adobe Illustrator 24.1.0, SVG Export Plug-In . SVG Version: 6.00 Build 0)  -->
<svg version="1.1" id="Layer_1" xmlns="http://www.w3.org/2000/svg" xmlns:xlink="http://www.w3.org/1999/xlink" x="0px" y="0px"
	 viewBox="0 0 317.7470703 69.0379715" style="enable-background:new 0 0 317.7470703 69.0379715;" xml:space="preserve">
<g>
	<path d="M0.3102317,6.5274425c0-3.4999998,2.809082-6.2626953,6.3554688-6.2626953
		c3.5917964,0,6.4008784,2.7626953,6.4008784,6.2626953c0,3.454102-2.809082,6.2167974-6.4008784,6.2167974
		C3.1193137,12.7442398,0.3102317,9.9815445,0.3102317,6.5274425z M0.9552512,19.145607h11.4667969v48.8139648H0.9552512V19.145607z
		"/>
	<path d="M47.3336678,1.5079114c13.2167969,0,22.3808632,8.9799805,22.3808632,22.2426758
		s-9.4404335,22.2426758-22.8872108,22.2426758H33.3800545v21.9663086H21.499197V1.5079114H47.3336678z M33.3800545,36.41465
		h10.7758789c8.5195313,0,13.4931641-4.6049805,13.4931641-12.6640625c0-7.9667969-4.9272461-12.5258789-13.4467773-12.5258789
		H33.3800545V36.41465z"/>
	<path d="M69.6246872,54.0059586c0-8.6572266,6.6772461-13.8613281,18.5585938-14.5981445l12.894043-0.7368164v-3.4995117
		c0-5.1118164-3.4536133-8.059082-9.1181641-8.059082c-5.434082,0-8.8876953,2.625-9.6245117,6.6772461H71.6969528
		c0.5063477-9.1181641,8.2890625-15.6572266,20.7226563-15.6572266c12.1118164,0,19.9863281,6.4008789,19.9863281,16.2099609
		v33.6171875h-11.0522461V60.176857h-0.2299805c-2.8095703,5.2958984-8.934082,8.5654297-15.1972656,8.5654297
		C76.4860153,68.7422867,69.6246872,62.801857,69.6246872,54.0059586z M101.0773239,49.8614273v-3.7299805l-11.2822266,0.690918
		c-5.5263672,0.3681641-8.7036133,2.8549805-8.7036133,6.7231445c0,4.0063477,3.3154297,6.5395508,8.2890625,6.5395508
		C95.8737106,60.0850601,101.0773239,55.7559586,101.0773239,49.8614273z"/>
	<path d="M116.9459763,43.5064468c0-15.4272461,7.9667969-25.1899414,20.2626877-25.1899414
		c7.0004883,0,12.5258789,3.6381836,15.1049805,9.0258789h0.2763672V1.5079114h11.4667969v66.4516602h-11.2363281v-8.3354492
		H152.63591c-2.6708984,5.4804688-8.2890625,9.1181641-15.4272461,9.1181641
		C124.9127731,68.7422867,116.9459763,59.0254898,116.9459763,43.5064468z M128.6891327,43.5523453
		c0,9.7167969,4.559082,15.7958984,11.9741211,15.7958984c7.2294922,0,11.9726563-6.125,11.9726563-15.7958984
		c0-9.5786133-4.7431641-15.7954102-11.9726563-15.7954102C133.2941132,27.7569351,128.6891327,33.8819351,128.6891327,43.5523453z"
		/>
	<path d="M215.9601288,1.5079114c13.2167969,0,22.3808594,8.9799805,22.3808594,22.2426758
		s-9.4404297,22.2426758-22.8867188,22.2426758h-13.4472656v21.9663086h-11.8808594V1.5079114H215.9601288z M202.0070038,36.41465
		h10.7763672c8.5195313,0,13.4931641-4.6049805,13.4931641-12.6640625c0-7.9667969-4.9277344-12.5258789-13.4472656-12.5258789
		h-10.8222656V36.41465z"/>
	<path d="M243.6368866,19.145607h11.0058594v8.5195313h0.2304688c1.6582184-5.940918,5.9404449-9.3486328,11.6972809-9.3486328
		c1.4736328,0,2.7626953,0.2763672,3.5917969,0.4604492v10.3618164c-0.9667969-0.3686523-2.7167969-0.6450195-4.6513672-0.6450195
		c-6.4931641,0-10.4072418,4.190918-10.4072418,11.0522461v28.4135742h-11.4667969V19.145607z"/>
	<path d="M270.2560425,43.5523453c0-15.7490234,9.3945313-25.4199219,23.6240234-25.4199219
		c14.2304688,0,23.6240234,9.6245117,23.6240234,25.4199219c0,15.8417969-9.3017578,25.3745117-23.6240234,25.3745117
		C279.5587769,68.926857,270.2560425,59.3941422,270.2560425,43.5523453z M305.8536987,43.5523453
		c0-10.3613281-4.6972656-16.3017578-11.9736328-16.3017578c-7.2294922,0-11.9726563,5.9404297-11.9726563,16.3017578
		c0,10.4077148,4.6972656,16.3022461,11.9726563,16.3022461C301.1564331,59.8545914,305.8536987,53.9600601,305.8536987,43.5523453z
		"/>
</g>
<g>
</g>
<g>
</g>
<g>
</g>
<g>
</g>
<g>
</g>
<g>
</g>
</svg>
