<?xml version="1.0" encoding="UTF-8" standalone="no"?>
<!DOCTYPE svg PUBLIC "-//W3C//DTD SVG 1.1//EN" "http://www.w3.org/Graphics/SVG/1.1/DTD/svg11.dtd">
<svg width="100%" height="100%" viewBox="0 0 105 11" version="1.1" xmlns="http://www.w3.org/2000/svg" xmlns:xlink="http://www.w3.org/1999/xlink" xml:space="preserve" xmlns:serif="http://www.serif.com/" style="fill-rule:evenodd;clip-rule:evenodd;stroke-linejoin:round;stroke-miterlimit:2;">
    <g id="surface50183" transform="matrix(1,0,0,1,-248.921,-458.687)">
        <g transform="matrix(1,0,0,1,248.187,469.234)">
            <g id="g691">
                <g id="use689">
                    <path id="path117" d="M0.734,0L0.734,-7.609L2.516,-7.609L2.516,-6.391L2.563,-6.391C2.719,-6.805 2.977,-7.141 3.344,-7.391C3.719,-7.641 4.16,-7.766 4.672,-7.766C5.203,-7.766 5.648,-7.629 6.016,-7.359C6.379,-7.098 6.633,-6.723 6.781,-6.234L6.813,-6.234C7,-6.703 7.301,-7.07 7.719,-7.344C8.145,-7.625 8.633,-7.766 9.188,-7.766C9.938,-7.766 10.535,-7.531 10.984,-7.063C11.441,-6.602 11.672,-5.988 11.672,-5.219L11.672,0L9.891,0L9.891,-4.781C9.891,-5.25 9.77,-5.613 9.531,-5.875C9.301,-6.133 8.961,-6.266 8.516,-6.266C8.086,-6.266 7.738,-6.117 7.469,-5.828C7.207,-5.535 7.078,-5.16 7.078,-4.703L7.078,0L5.328,0L5.328,-4.875C5.328,-5.301 5.207,-5.641 4.969,-5.891C4.727,-6.141 4.398,-6.266 3.984,-6.266C3.555,-6.266 3.203,-6.113 2.922,-5.813C2.648,-5.508 2.516,-5.125 2.516,-4.656L2.516,0L0.734,0Z" style="fill:rgb(28,28,30);fill-rule:nonzero;"/>
                </g>
            </g>
        </g>
        <g transform="matrix(1,0,0,1,260.667,469.234)">
            <g id="g695">
                <g id="use693">
                    <path id="path120" d="M2.984,0.125C2.223,0.125 1.609,-0.086 1.141,-0.516C0.672,-0.941 0.438,-1.492 0.438,-2.172L0.438,-2.188C0.438,-2.852 0.688,-3.383 1.188,-3.781C1.688,-4.176 2.398,-4.398 3.328,-4.453L5.313,-4.578L5.313,-5.109C5.313,-5.484 5.191,-5.781 4.953,-6C4.711,-6.227 4.363,-6.344 3.906,-6.344C3.488,-6.344 3.148,-6.254 2.891,-6.078C2.641,-5.898 2.484,-5.672 2.422,-5.391L2.406,-5.313L0.75,-5.313L0.766,-5.406C0.816,-6.082 1.117,-6.645 1.672,-7.094C2.234,-7.539 3,-7.766 3.969,-7.766C4.926,-7.766 5.688,-7.531 6.25,-7.063C6.813,-6.602 7.094,-5.992 7.094,-5.234L7.094,0L5.313,0L5.313,-1.172L5.266,-1.172C5.047,-0.773 4.734,-0.457 4.328,-0.219C3.93,0.008 3.484,0.125 2.984,0.125ZM2.219,-2.234C2.219,-1.922 2.332,-1.676 2.563,-1.5C2.801,-1.32 3.117,-1.234 3.516,-1.234C4.023,-1.234 4.453,-1.383 4.797,-1.688C5.141,-1.988 5.313,-2.367 5.313,-2.828L5.313,-3.391L3.578,-3.281C3.141,-3.258 2.801,-3.156 2.563,-2.969C2.332,-2.789 2.219,-2.551 2.219,-2.25L2.219,-2.234Z" style="fill:rgb(28,28,30);fill-rule:nonzero;"/>
                </g>
            </g>
        </g>
        <g transform="matrix(1,0,0,1,268.577,469.234)">
            <g id="g699">
                <g id="use697">
                    <path id="path123" d="M4.094,0.156C3.332,0.156 2.676,-0.004 2.125,-0.328C1.582,-0.648 1.16,-1.109 0.859,-1.703C0.566,-2.297 0.422,-3 0.422,-3.813C0.422,-4.625 0.57,-5.328 0.875,-5.922C1.176,-6.516 1.598,-6.969 2.141,-7.281C2.691,-7.602 3.336,-7.766 4.078,-7.766C4.742,-7.766 5.32,-7.633 5.813,-7.375C6.301,-7.125 6.68,-6.785 6.953,-6.359C7.234,-5.941 7.395,-5.477 7.438,-4.969L7.438,-4.922L5.75,-4.922L5.734,-4.984C5.66,-5.348 5.484,-5.66 5.203,-5.922C4.93,-6.18 4.563,-6.313 4.094,-6.313C3.531,-6.313 3.078,-6.086 2.734,-5.641C2.398,-5.191 2.234,-4.582 2.234,-3.813L2.234,-3.797C2.234,-3.004 2.398,-2.391 2.734,-1.953C3.078,-1.516 3.531,-1.297 4.094,-1.297C4.551,-1.297 4.922,-1.414 5.203,-1.656C5.484,-1.906 5.664,-2.227 5.75,-2.625L5.75,-2.688L7.438,-2.688L7.438,-2.641C7.395,-2.117 7.227,-1.645 6.938,-1.219C6.656,-0.789 6.27,-0.453 5.781,-0.203C5.289,0.035 4.727,0.156 4.094,0.156Z" style="fill:rgb(28,28,30);fill-rule:nonzero;"/>
                </g>
            </g>
        </g>
        <g transform="matrix(1,0,0,1,276.46,469.234)">
            <g id="g703">
                <g id="use701">
                    <path id="path126" d="M5.484,0.172C4.473,0.172 3.598,-0.039 2.859,-0.469C2.129,-0.906 1.563,-1.523 1.156,-2.328C0.758,-3.129 0.563,-4.078 0.563,-5.172L0.563,-5.188C0.563,-6.281 0.758,-7.227 1.156,-8.031C1.563,-8.832 2.129,-9.453 2.859,-9.891C3.598,-10.328 4.473,-10.547 5.484,-10.547C6.484,-10.547 7.352,-10.328 8.094,-9.891C8.832,-9.453 9.398,-8.832 9.797,-8.031C10.191,-7.227 10.391,-6.281 10.391,-5.188L10.391,-5.172C10.391,-4.078 10.191,-3.129 9.797,-2.328C9.398,-1.523 8.832,-0.906 8.094,-0.469C7.363,-0.039 6.492,0.172 5.484,0.172ZM5.484,-1.422C6.422,-1.422 7.156,-1.758 7.688,-2.438C8.227,-3.113 8.5,-4.023 8.5,-5.172L8.5,-5.188C8.5,-6.332 8.223,-7.242 7.672,-7.922C7.129,-8.598 6.398,-8.938 5.484,-8.938C4.555,-8.938 3.816,-8.598 3.266,-7.922C2.723,-7.254 2.453,-6.344 2.453,-5.188L2.453,-5.172C2.453,-4.023 2.723,-3.113 3.266,-2.438C3.805,-1.758 4.547,-1.422 5.484,-1.422Z" style="fill:rgb(28,28,30);fill-rule:nonzero;"/>
                </g>
            </g>
        </g>
        <g transform="matrix(1,0,0,1,287.517,469.234)">
            <g id="g707">
                <g id="use705">
                    <path id="path129" d="M4.547,0.172C3.359,0.172 2.398,-0.086 1.672,-0.609C0.941,-1.141 0.547,-1.867 0.484,-2.797L0.484,-2.906L2.25,-2.906L2.266,-2.828C2.336,-2.379 2.582,-2.023 3,-1.766C3.426,-1.504 3.961,-1.375 4.609,-1.375C5.266,-1.375 5.781,-1.508 6.156,-1.781C6.539,-2.051 6.734,-2.406 6.734,-2.844L6.734,-2.859C6.734,-3.242 6.586,-3.547 6.297,-3.766C6.016,-3.992 5.539,-4.18 4.875,-4.328L3.75,-4.563C1.719,-4.977 0.703,-5.945 0.703,-7.469L0.703,-7.484C0.711,-8.086 0.879,-8.617 1.203,-9.078C1.535,-9.535 1.988,-9.895 2.563,-10.156C3.145,-10.414 3.805,-10.547 4.547,-10.547C5.305,-10.547 5.969,-10.422 6.531,-10.172C7.094,-9.922 7.535,-9.57 7.859,-9.125C8.18,-8.676 8.363,-8.16 8.406,-7.578L8.406,-7.453L6.641,-7.453L6.625,-7.531C6.563,-7.988 6.344,-8.344 5.969,-8.594C5.594,-8.852 5.113,-8.984 4.531,-8.984C3.926,-8.984 3.445,-8.852 3.094,-8.594C2.738,-8.332 2.563,-7.992 2.563,-7.578C2.563,-7.211 2.707,-6.914 3,-6.688C3.301,-6.457 3.766,-6.281 4.391,-6.156L5.5,-5.922C6.582,-5.691 7.367,-5.348 7.859,-4.891C8.348,-4.43 8.594,-3.797 8.594,-2.984C8.594,-2.016 8.234,-1.242 7.516,-0.672C6.805,-0.109 5.816,0.172 4.547,0.172Z" style="fill:rgb(28,28,30);fill-rule:nonzero;"/>
                </g>
            </g>
        </g>
        <g id="g711">
        </g>
        <g transform="matrix(1,0,0,1,299.747,469.234)">
            <g id="g715">
                <g id="use713">
                    <path id="path1291" serif:id="path129" d="M4.547,0.172C3.359,0.172 2.398,-0.086 1.672,-0.609C0.941,-1.141 0.547,-1.867 0.484,-2.797L0.484,-2.906L2.25,-2.906L2.266,-2.828C2.336,-2.379 2.582,-2.023 3,-1.766C3.426,-1.504 3.961,-1.375 4.609,-1.375C5.266,-1.375 5.781,-1.508 6.156,-1.781C6.539,-2.051 6.734,-2.406 6.734,-2.844L6.734,-2.859C6.734,-3.242 6.586,-3.547 6.297,-3.766C6.016,-3.992 5.539,-4.18 4.875,-4.328L3.75,-4.563C1.719,-4.977 0.703,-5.945 0.703,-7.469L0.703,-7.484C0.711,-8.086 0.879,-8.617 1.203,-9.078C1.535,-9.535 1.988,-9.895 2.563,-10.156C3.145,-10.414 3.805,-10.547 4.547,-10.547C5.305,-10.547 5.969,-10.422 6.531,-10.172C7.094,-9.922 7.535,-9.57 7.859,-9.125C8.18,-8.676 8.363,-8.16 8.406,-7.578L8.406,-7.453L6.641,-7.453L6.625,-7.531C6.563,-7.988 6.344,-8.344 5.969,-8.594C5.594,-8.852 5.113,-8.984 4.531,-8.984C3.926,-8.984 3.445,-8.852 3.094,-8.594C2.738,-8.332 2.563,-7.992 2.563,-7.578C2.563,-7.211 2.707,-6.914 3,-6.688C3.301,-6.457 3.766,-6.281 4.391,-6.156L5.5,-5.922C6.582,-5.691 7.367,-5.348 7.859,-4.891C8.348,-4.43 8.594,-3.797 8.594,-2.984C8.594,-2.016 8.234,-1.242 7.516,-0.672C6.805,-0.109 5.816,0.172 4.547,0.172Z" style="fill:rgb(28,28,30);fill-rule:nonzero;"/>
                </g>
            </g>
        </g>
        <g transform="matrix(1,0,0,1,308.93,469.234)">
            <g id="g719">
                <g id="use717">
                    <path id="path135" d="M4.094,0.156C3.352,0.156 2.707,0 2.156,-0.313C1.602,-0.633 1.176,-1.094 0.875,-1.688C0.57,-2.281 0.422,-2.988 0.422,-3.813C0.422,-4.633 0.57,-5.336 0.875,-5.922C1.176,-6.516 1.602,-6.969 2.156,-7.281C2.707,-7.602 3.352,-7.766 4.094,-7.766C4.832,-7.766 5.477,-7.602 6.031,-7.281C6.582,-6.969 7.008,-6.516 7.313,-5.922C7.625,-5.336 7.781,-4.633 7.781,-3.813C7.781,-2.977 7.629,-2.266 7.328,-1.672C7.023,-1.086 6.598,-0.633 6.047,-0.313C5.492,0 4.844,0.156 4.094,0.156ZM4.109,-1.297C4.672,-1.297 5.117,-1.516 5.453,-1.953C5.785,-2.391 5.953,-3.008 5.953,-3.813C5.953,-4.602 5.781,-5.219 5.438,-5.656C5.102,-6.094 4.656,-6.313 4.094,-6.313C3.539,-6.313 3.094,-6.094 2.75,-5.656C2.406,-5.219 2.234,-4.602 2.234,-3.813C2.234,-3.008 2.398,-2.391 2.734,-1.953C3.078,-1.516 3.535,-1.297 4.109,-1.297Z" style="fill:rgb(28,28,30);fill-rule:nonzero;"/>
                </g>
            </g>
        </g>
        <g transform="matrix(1,0,0,1,317.236,469.234)">
            <g id="g723">
                <g id="use721">
                    <path id="path138" d="M0.734,0L0.734,-7.609L2.516,-7.609L2.516,-6.422L2.563,-6.422C2.75,-6.828 3.035,-7.148 3.422,-7.391C3.816,-7.641 4.301,-7.766 4.875,-7.766C5.719,-7.766 6.367,-7.508 6.828,-7C7.285,-6.5 7.516,-5.805 7.516,-4.922L7.516,0L5.719,0L5.719,-4.563C5.719,-5.102 5.586,-5.52 5.328,-5.813C5.078,-6.113 4.703,-6.266 4.203,-6.266C3.691,-6.266 3.281,-6.094 2.969,-5.75C2.664,-5.406 2.516,-4.961 2.516,-4.422L2.516,0L0.734,0Z" style="fill:rgb(28,28,30);fill-rule:nonzero;"/>
                </g>
            </g>
        </g>
        <g transform="matrix(1,0,0,1,325.549,469.234)">
            <g id="g727">
                <g id="use725">
                    <path id="path1351" serif:id="path135" d="M4.094,0.156C3.352,0.156 2.707,0 2.156,-0.313C1.602,-0.633 1.176,-1.094 0.875,-1.688C0.57,-2.281 0.422,-2.988 0.422,-3.813C0.422,-4.633 0.57,-5.336 0.875,-5.922C1.176,-6.516 1.602,-6.969 2.156,-7.281C2.707,-7.602 3.352,-7.766 4.094,-7.766C4.832,-7.766 5.477,-7.602 6.031,-7.281C6.582,-6.969 7.008,-6.516 7.313,-5.922C7.625,-5.336 7.781,-4.633 7.781,-3.813C7.781,-2.977 7.629,-2.266 7.328,-1.672C7.023,-1.086 6.598,-0.633 6.047,-0.313C5.492,0 4.844,0.156 4.094,0.156ZM4.109,-1.297C4.672,-1.297 5.117,-1.516 5.453,-1.953C5.785,-2.391 5.953,-3.008 5.953,-3.813C5.953,-4.602 5.781,-5.219 5.438,-5.656C5.102,-6.094 4.656,-6.313 4.094,-6.313C3.539,-6.313 3.094,-6.094 2.75,-5.656C2.406,-5.219 2.234,-4.602 2.234,-3.813C2.234,-3.008 2.398,-2.391 2.734,-1.953C3.078,-1.516 3.535,-1.297 4.109,-1.297Z" style="fill:rgb(28,28,30);fill-rule:nonzero;"/>
                </g>
            </g>
        </g>
        <g transform="matrix(1,0,0,1,333.855,469.234)">
            <g id="g731">
                <g id="use729">
                    <path id="path1171" serif:id="path117" d="M0.734,0L0.734,-7.609L2.516,-7.609L2.516,-6.391L2.563,-6.391C2.719,-6.805 2.977,-7.141 3.344,-7.391C3.719,-7.641 4.16,-7.766 4.672,-7.766C5.203,-7.766 5.648,-7.629 6.016,-7.359C6.379,-7.098 6.633,-6.723 6.781,-6.234L6.813,-6.234C7,-6.703 7.301,-7.07 7.719,-7.344C8.145,-7.625 8.633,-7.766 9.188,-7.766C9.938,-7.766 10.535,-7.531 10.984,-7.063C11.441,-6.602 11.672,-5.988 11.672,-5.219L11.672,0L9.891,0L9.891,-4.781C9.891,-5.25 9.77,-5.613 9.531,-5.875C9.301,-6.133 8.961,-6.266 8.516,-6.266C8.086,-6.266 7.738,-6.117 7.469,-5.828C7.207,-5.535 7.078,-5.16 7.078,-4.703L7.078,0L5.328,0L5.328,-4.875C5.328,-5.301 5.207,-5.641 4.969,-5.891C4.727,-6.141 4.398,-6.266 3.984,-6.266C3.555,-6.266 3.203,-6.113 2.922,-5.813C2.648,-5.508 2.516,-5.125 2.516,-4.656L2.516,0L0.734,0Z" style="fill:rgb(28,28,30);fill-rule:nonzero;"/>
                </g>
            </g>
        </g>
        <g transform="matrix(1,0,0,1,346.334,469.234)">
            <g id="g735">
                <g id="use733">
                    <path id="path1201" serif:id="path120" d="M2.984,0.125C2.223,0.125 1.609,-0.086 1.141,-0.516C0.672,-0.941 0.438,-1.492 0.438,-2.172L0.438,-2.188C0.438,-2.852 0.688,-3.383 1.188,-3.781C1.688,-4.176 2.398,-4.398 3.328,-4.453L5.313,-4.578L5.313,-5.109C5.313,-5.484 5.191,-5.781 4.953,-6C4.711,-6.227 4.363,-6.344 3.906,-6.344C3.488,-6.344 3.148,-6.254 2.891,-6.078C2.641,-5.898 2.484,-5.672 2.422,-5.391L2.406,-5.313L0.75,-5.313L0.766,-5.406C0.816,-6.082 1.117,-6.645 1.672,-7.094C2.234,-7.539 3,-7.766 3.969,-7.766C4.926,-7.766 5.688,-7.531 6.25,-7.063C6.813,-6.602 7.094,-5.992 7.094,-5.234L7.094,0L5.313,0L5.313,-1.172L5.266,-1.172C5.047,-0.773 4.734,-0.457 4.328,-0.219C3.93,0.008 3.484,0.125 2.984,0.125ZM2.219,-2.234C2.219,-1.922 2.332,-1.676 2.563,-1.5C2.801,-1.32 3.117,-1.234 3.516,-1.234C4.023,-1.234 4.453,-1.383 4.797,-1.688C5.141,-1.988 5.313,-2.367 5.313,-2.828L5.313,-3.391L3.578,-3.281C3.141,-3.258 2.801,-3.156 2.563,-2.969C2.332,-2.789 2.219,-2.551 2.219,-2.25L2.219,-2.234Z" style="fill:rgb(28,28,30);fill-rule:nonzero;"/>
                </g>
            </g>
        </g>
        <g id="g739">
        </g>
        <g id="g787">
        </g>
        <g id="g803">
        </g>
        <g id="g819">
        </g>
        <g id="g863">
        </g>
        <g id="g879">
        </g>
        <g id="g895">
        </g>
        <g id="g931">
        </g>
        <g id="g955">
        </g>
        <g id="g987">
        </g>
        <g id="g1007">
        </g>
        <g id="g1023">
        </g>
        <g id="g1043">
        </g>
        <g id="g1055">
        </g>
        <g id="g1075">
        </g>
        <g id="g1091">
        </g>
        <g id="g1107">
        </g>
        <g id="g1127">
        </g>
        <g id="g1183">
        </g>
        <g id="g1215">
        </g>
        <g id="g1235">
        </g>
        <g id="g1271">
        </g>
        <g id="g1283">
        </g>
        <g id="g1307">
        </g>
        <g id="g1335">
        </g>
        <g id="g1363">
        </g>
        <g id="g1411">
        </g>
        <g id="g1451">
        </g>
        <g id="g1475">
        </g>
        <g id="g1499">
        </g>
        <g id="g1527">
        </g>
        <g id="g1579">
        </g>
        <g id="g1595">
        </g>
        <g id="g1631">
        </g>
        <g id="g1651">
        </g>
        <g id="g1687">
        </g>
        <g id="g1699">
        </g>
        <g id="g1747">
        </g>
        <g id="g1767">
        </g>
        <g id="g1811">
        </g>
        <g id="g1831">
        </g>
        <g id="g1871">
        </g>
        <g id="g1887">
        </g>
    </g>
</svg>
