<?xml version="1.0" encoding="utf-8"?>
<!-- Generator: Adobe Illustrator 23.0.3, SVG Export Plug-In . SVG Version: 6.00 Build 0)  -->
<svg version="1.1" id="Layer_1" xmlns="http://www.w3.org/2000/svg" xmlns:xlink="http://www.w3.org/1999/xlink" x="0px" y="0px"
	 viewBox="0 0 502.5 165.2" style="enable-background:new 0 0 502.5 165.2;" xml:space="preserve">
<g>
	<path d="M23.5,18.2c-1.7-1-3.5-1.5-5.6-1.5c-2.1,0-4,0.5-5.6,1.5c-1.7,1-3,2.3-4,4c-1,1.7-1.5,3.5-1.5,5.5c0,2,0.5,3.8,1.5,5.5
		c1,1.7,2.3,3,4,4c1.7,1,3.5,1.5,5.6,1.5c2.1,0,4-0.5,5.6-1.5c1.7-1,3-2.3,4-4c1-1.7,1.5-3.5,1.5-5.5c0-2-0.5-3.8-1.5-5.5
		C26.5,20.5,25.2,19.2,23.5,18.2z"/>
	<rect x="7.3" y="49.3" width="21.4" height="78.5"/>
	<path d="M114.1,32.1c-3.3-3.2-7.1-5.7-11.6-7.4c-4.5-1.7-9.4-2.6-14.8-2.6h-43v105.7h22.1V94.5h19.8c5.6,0,10.7-0.9,15.3-2.6
		c4.6-1.7,8.6-4.2,11.9-7.4c3.3-3.2,5.9-7,7.8-11.4c1.8-4.4,2.7-9.4,2.7-14.8s-0.9-10.4-2.6-14.8C119.9,39.1,117.4,35.3,114.1,32.1z
		 M96.5,72.4c-3.5,3.2-8.4,4.9-14.8,4.9H66.8V39.7h15c6.3,0,11.3,1.6,14.8,4.9c3.5,3.2,5.2,7.9,5.2,13.9
		C101.8,64.5,100,69.1,96.5,72.4z"/>
	<path d="M183,50.9c-5-2.2-10.8-3.3-17.6-3.3c-6.9,0-12.9,1.1-18,3.3c-5.1,2.2-9,5.2-11.9,9c-2.8,3.9-4.4,8.3-4.7,13.4h19.6
		c0.5-2.9,2-5.2,4.4-7c2.4-1.8,5.6-2.7,9.6-2.7c4.1,0,7.3,1,9.6,3c2.4,2,3.6,4.9,3.6,8.5v5.2l-19.8,1.2c-9.8,0.6-17.3,2.9-22.6,7
		c-5.3,4.1-7.9,9.6-7.9,16.8c0,4.7,1.1,8.8,3.4,12.4c2.3,3.6,5.4,6.4,9.4,8.4c4,2,8.5,3,13.4,3c3.3,0,6.5-0.5,9.6-1.6
		c3.1-1,5.9-2.6,8.4-4.5c2.5-2,4.5-4.4,6-7.1h0.4v12h20.7v-54c0-5.3-1.4-9.9-4.1-13.8C191.9,56.1,188,53.1,183,50.9z M177.7,99.1
		c0,2.8-0.8,5.3-2.3,7.5c-1.5,2.2-3.6,3.9-6.2,5.2c-2.6,1.2-5.4,1.9-8.5,1.9c-3.6,0-6.5-0.9-8.8-2.6c-2.2-1.7-3.3-4-3.3-7
		c0-2.8,1.1-5,3.3-6.7c2.2-1.7,5.3-2.7,9.3-3l16.6-1V99.1z"/>
	<path d="M266.2,62.8h-0.4c-1.3-2.9-3.1-5.5-5.4-7.7s-5.1-3.9-8.2-5.2c-3.1-1.2-6.6-1.9-10.4-1.9c-6.6,0-12.3,1.6-17.1,4.9
		c-4.8,3.3-8.5,7.9-11.1,14c-2.6,6-3.9,13.2-3.9,21.5c0,8.4,1.3,15.6,3.9,21.7c2.6,6.1,6.3,10.7,11.1,14c4.8,3.3,10.4,4.9,17,4.9
		c3.9,0,7.4-0.6,10.6-1.9c3.2-1.2,6-3,8.4-5.2s4.2-4.8,5.5-7.7h0.4v13.5h21.1V22.2h-21.4V62.8z M264.1,101c-1.4,3.5-3.5,6.2-6.1,8.1
		c-2.6,1.9-5.7,2.8-9.2,2.8c-3.6,0-6.7-0.9-9.3-2.8c-2.6-1.9-4.6-4.6-6-8.1c-1.4-3.5-2.1-7.6-2.1-12.4c0-4.8,0.7-8.9,2.1-12.4
		c1.4-3.5,3.4-6.2,6-8.1c2.6-1.9,5.7-2.9,9.3-2.9c3.5,0,6.6,1,9.2,2.9c2.6,1.9,4.6,4.6,6.1,8.1c1.4,3.5,2.2,7.6,2.2,12.4
		C266.3,93.4,265.6,97.5,264.1,101z"/>
	<path d="M388.5,35c-4.4-4.8-9.8-8.4-16.1-10.9c-6.3-2.5-13.3-3.8-21.1-3.8c-7.9,0-14.9,1.3-21.2,3.8c-6.3,2.5-11.6,6.2-16,10.9
		c-4.4,4.8-7.8,10.5-10.2,17.2c-2.4,6.7-3.6,14.3-3.6,22.7c0,8.4,1.2,16,3.6,22.7c2.4,6.7,5.8,12.5,10.2,17.2
		c4.4,4.8,9.8,8.4,16,10.9c6.3,2.5,13.3,3.8,21.2,3.8c7.8,0,14.9-1.3,21.1-3.8c6.3-2.5,11.6-6.2,16.1-10.9
		c4.4-4.8,7.8-10.5,10.2-17.2s3.6-14.3,3.6-22.7c0-8.4-1.2-16-3.6-22.7C396.4,45.6,393,39.8,388.5,35z M376.2,94.2
		c-2.3,5.4-5.6,9.6-9.9,12.5c-4.2,3-9.3,4.4-15,4.4c-5.8,0-10.8-1.5-15.1-4.4c-4.2-3-7.5-7.1-9.9-12.5c-2.3-5.4-3.5-11.8-3.5-19.2
		c0-7.4,1.2-13.8,3.5-19.2c2.3-5.4,5.6-9.6,9.9-12.6c4.2-3,9.3-4.4,15-4.4c5.8,0,10.8,1.5,15,4.4c4.2,3,7.5,7.2,9.9,12.6
		c2.3,5.4,3.5,11.9,3.5,19.2C379.7,82.4,378.5,88.8,376.2,94.2z"/>
	<path d="M490.1,76.8c-5.1-4.7-13.2-8.2-24.4-10.4l-11.2-2.3c-6.3-1.3-10.7-2.9-13.5-5c-2.7-2.1-4.1-4.7-4.1-8
		c0-2.6,0.8-4.8,2.3-6.8c1.5-1.9,3.6-3.4,6.4-4.5c2.7-1.1,5.9-1.6,9.6-1.6c3.7,0,7,0.6,9.9,1.7c2.9,1.1,5.2,2.8,6.9,5
		c1.7,2.2,2.7,4.7,2.9,7.7h20.9c-0.1-6.5-1.9-12.2-5.2-17c-3.3-4.8-8-8.6-14-11.3c-6-2.7-13.1-4-21.4-4c-5.9,0-11.3,0.8-16.2,2.3
		c-4.9,1.5-9.2,3.7-12.8,6.6c-3.6,2.9-6.4,6.3-8.4,10.2c-2,3.9-3,8.3-3,13.1c0,7.9,2.6,14.3,7.8,19.3c5.2,5,13.1,8.6,23.6,10.7
		l11.1,2.2c6.6,1.4,11.3,3.1,14.1,5.2c2.8,2.1,4.1,4.9,4.1,8.4c0,2.6-0.8,4.9-2.5,6.9c-1.7,2-4,3.6-7,4.8c-3,1.2-6.4,1.8-10.4,1.8
		c-4,0-7.6-0.6-10.8-1.7c-3.2-1.1-5.8-2.7-7.8-4.9c-2-2.1-3.2-4.7-3.7-7.6h-20.9c0.2,6.6,2.1,12.4,5.7,17.1c3.6,4.8,8.5,8.5,14.8,11
		c6.3,2.6,13.7,3.8,22.1,3.8c8.8,0,16.4-1.4,22.8-4.1c6.3-2.8,11.2-6.7,14.7-11.7c3.4-5.1,5.2-11,5.2-17.9
		C497.8,87.9,495.2,81.5,490.1,76.8z"/>
</g>
</svg>
