<?xml version="1.0" encoding="UTF-8" standalone="no"?>
<!-- Generator: Adobe Illustrator 16.0.0, SVG Export Plug-In . SVG Version: 6.00 Build 0)  -->

<svg
   xmlns:dc="http://purl.org/dc/elements/1.1/"
   xmlns:cc="http://creativecommons.org/ns#"
   xmlns:rdf="http://www.w3.org/1999/02/22-rdf-syntax-ns#"
   xmlns:svg="http://www.w3.org/2000/svg"
   xmlns="http://www.w3.org/2000/svg"
   xmlns:xlink="http://www.w3.org/1999/xlink"
   xmlns:sodipodi="http://sodipodi.sourceforge.net/DTD/sodipodi-0.dtd"
   xmlns:inkscape="http://www.inkscape.org/namespaces/inkscape"
   version="1.1"
   x="0px"
   y="0px"
   width="127.7495"
   height="19.663"
   viewBox="0 0 127.7495 19.663"
   enable-background="new 0 0 612 792"
   xml:space="preserve"
   id="svg2"
   inkscape:version="0.48.2 r9819"
   sodipodi:docname="iPhone_3G_S.svg"><metadata
   id="metadata223"><rdf:RDF><cc:Work
       rdf:about=""><dc:format>image/svg+xml</dc:format><dc:type
         rdf:resource="http://purl.org/dc/dcmitype/StillImage" /><dc:title></dc:title></cc:Work></rdf:RDF></metadata><defs
   id="defs221">
	
<linearGradient
   inkscape:collect="always"
   xlink:href="#SVGID_1_"
   id="linearGradient3306"
   gradientUnits="userSpaceOnUse"
   gradientTransform="matrix(0.4509,0,0,0.4509,308.7123,-43.0515)"
   x1="-6.0145998"
   y1="774.13092"
   x2="-6.0145998"
   y2="817.81641" />
		
		
		
		
		
		
		
		
		
		
		
		
		
		
		
		
		
		
		
		
		
		
		
		
		
		
		
		
		
		
		
		
		
		
		
		
		
		
		
		
		
		
		
		
		
		
		
		
		
		
		
		
		
		
		
		
		
		
		
		
		
		
		
		
		
		
		
		
		
		
		
		
		
		
		
		
		
		
		
		
		
		
		
		
		
		
		
		
		
		
		
		
		
		
		
		
		
		
		
		
		
		
			<linearGradient
   id="SVGID_1_"
   gradientUnits="userSpaceOnUse"
   x1="-6.0145998"
   y1="774.13092"
   x2="-6.0145998"
   y2="817.81641"
   gradientTransform="matrix(0.4509,0,0,0.4509,308.7123,-43.0515)">
			<stop
   offset="0"
   style="stop-color:#757576"
   id="stop213" />
			<stop
   offset="1"
   style="stop-color:#010101"
   id="stop215" />
		</linearGradient>
		
	<linearGradient
   inkscape:collect="always"
   xlink:href="#SVGID_1_"
   id="linearGradient3312"
   gradientUnits="userSpaceOnUse"
   gradientTransform="matrix(0.4509,0,0,0.4509,308.7123,-43.0515)"
   x1="-6.0145998"
   y1="774.13092"
   x2="-6.0145998"
   y2="817.81641" /></defs><sodipodi:namedview
   pagecolor="#ffffff"
   bordercolor="#666666"
   borderopacity="1"
   objecttolerance="10"
   gridtolerance="10"
   guidetolerance="10"
   inkscape:pageopacity="0"
   inkscape:pageshadow="2"
   inkscape:window-width="1600"
   inkscape:window-height="837"
   id="namedview219"
   showgrid="false"
   fit-margin-top="0"
   fit-margin-left="0"
   fit-margin-right="0"
   fit-margin-bottom="0"
   inkscape:zoom="2.3838384"
   inkscape:cx="30.122775"
   inkscape:cy="26.836935"
   inkscape:window-x="-8"
   inkscape:window-y="-8"
   inkscape:window-maximized="1"
   inkscape:current-layer="svg2" />
<g
   id="Grid"
   display="none"
   style="display:none"
   transform="translate(-243.0495,-382.521)">
</g>
<g
   id="Layer_1"
   display="none"
   style="display:none"
   transform="translate(-243.0495,-382.521)">
</g>


<path
   clip-rule="evenodd"
   d="m 38.7005,8.042 c -2.442,0.009 -3.37,2.82 -3.357,4.718 0.012,1.806 0.9,4.611 3.378,4.622 2.402,0.01 3.46,-2.857 3.429,-4.935 -0.032,-2.052 -1.104,-4.411 -3.45,-4.405 l 0,0 z m 6.623,4.538 c 0,4.017 -2.361,7.083 -6.62,7.083 -4.109,0 -6.464,-2.97 -6.464,-6.877 0,-3.859 2.471,-7.05 6.404,-7.073 4.206,-0.025 6.68,2.826 6.68,6.867 l 0,0 z"
   id="path100"
   inkscape:connector-curvature="0"
   style="fill:#070808;fill-rule:evenodd" /><path
   clip-rule="evenodd"
   d="m 13.8245,4.123 c -1.218,-1.025 -3.39,-1.036 -4.813,-0.745 v 6.483 c 2.111,0.358 4.452,0.074 5.369,-1.745 0.633,-1.258 0.55,-3.062 -0.556,-3.993 l 0,0 z m 0.024,7.839 c -1.406,0.474 -3.596,0.61 -4.837,0.315 v 7.101 h -3.019 l 0,-18.237 c 2.345,-0.359 4.877,-0.563 7.275,-0.146 2.748,0.478 4.592,2.405 4.588,5.279 -0.004,2.643 -1.372,4.802 -4.007,5.688 l 0,0 z"
   id="path102"
   inkscape:connector-curvature="0"
   style="fill:#070808;fill-rule:evenodd" /><polygon
   clip-rule="evenodd"
   points="246.42,401.899 243.401,401.899 243.401,388.521 243.401,388.521 246.42,388.521 "
   id="polygon104"
   style="fill:#070808;fill-rule:evenodd"
   transform="translate(-243.0495,-382.521)" /><path
   clip-rule="evenodd"
   d="m 3.3585,3.292 c -0.36,0.458 -0.923,0.703 -1.486,0.717 -0.599,0.014 -1.198,-0.236 -1.55,-0.771 -0.421,-0.639 -0.448,-1.576 0.027,-2.192 0.349,-0.452 0.902,-0.681 1.462,-0.691 0.578,-0.011 1.163,0.21 1.538,0.653 0.533,0.627 0.513,1.643 0.009,2.284 l 0,0 z"
   id="path106"
   inkscape:connector-curvature="0"
   style="fill:#070808;fill-rule:evenodd" /><path
   clip-rule="evenodd"
   d="m 69.0835,11.284 c 0,-0.896 -0.335,-2.112 -1.093,-2.756 -0.995,-0.845 -2.564,-0.768 -3.567,0.053 -0.752,0.615 -1.287,1.711 -1.27,2.703 h 5.93 l 0,0 z m 2.869,2.174 h -8.799 c 0,2.23 1.225,3.657 3.607,3.811 1.241,0.08 2.814,-0.191 4.004,-0.633 l 0.531,2.146 c -1.131,0.63 -3.061,0.862 -4.506,0.859 -4.002,-0.006 -6.699,-2.457 -6.699,-6.761 0,-2.467 0.87,-4.743 2.672,-6.06 1.982,-1.45 5.248,-1.545 7.173,0.062 1.535,1.282 2.107,3.449 2.045,5.567 l -0.028,1.009 0,0 z"
   id="path108"
   inkscape:connector-curvature="0"
   style="fill:#070808;fill-rule:evenodd" /><path
   clip-rule="evenodd"
   d="m 27.6675,11.462 c 0,-1.922 -0.981,-3.196 -2.597,-3.196 -0.94,0 -2.948,0.479 -2.948,3.796 v 7.287 h -2.98 L 19.1035,0 h 3.019 v 7.9 c 0.853,-1.419 2.249,-2.124 3.916,-2.124 3.241,0 4.648,2.221 4.648,5.563 v 8.039 h -3.019 v -7.916 l 0,0 z"
   id="path110"
   inkscape:connector-curvature="0"
   style="fill:#070808;fill-rule:evenodd" /><path
   clip-rule="evenodd"
   d="m 55.5045,11.577 c 0,-1.875 -0.797,-3.311 -2.62,-3.311 -0.806,0 -2.594,0.494 -2.902,3.064 v 8.048 h -3.019 C 46.9475,14.929 46.9605,10.449 46.8455,6 h 2.7 c 0.068,0.674 0.114,1.348 0.139,2.022 0.918,-1.532 2.473,-2.246 4.167,-2.246 2.953,0 4.671,2.048 4.671,5.217 v 8.385 h -3.019 v -7.801 l 10e-4,0 z"
   id="path112"
   inkscape:connector-curvature="0"
   style="fill:#070808;fill-rule:evenodd" /><path
   d="m 83.7275,9.789 c 2.156,0.234 3.927,1.976 3.927,4.332 0,3.83 -3.106,5.511 -6.528,5.511 -2.244,0 -3.617,-0.359 -4.934,-1.164 l 0.747,-2.3 c 1.114,0.646 2.683,1.068 3.575,1.068 2.125,0 4.004,-0.743 4.004,-3.203 0,-2.112 -2.399,-3.048 -4.158,-3.048 h -1.434 V 8.76 h 1.571 c 1.521,0 3.448,-1.018 3.448,-2.562 0,-1.679 -1.313,-2.464 -2.986,-2.464 -1.057,0 -2.521,0.574 -3.381,1.149 l -0.765,-2.214 c 1.233,-0.979 3.403,-1.434 4.883,-1.434 2.591,0 5.33,1.275 5.33,4.44 0.001,2.116 -1.452,3.712 -3.299,4.114 l 0,0 z"
   id="path114"
   inkscape:connector-curvature="0"
   style="fill:#070808" /><path
   d="m 103.4305,1.544 -0.715,2.589 c -1.211,-0.532 -2.615,-0.82 -4.041,-0.789 -1.774,0.038 -3.539,0.52 -4.744,1.649 -1.294,1.214 -1.992,3.033 -1.992,5.266 0,1.918 0.531,3.538 1.529,4.717 1.131,1.337 2.752,2.052 4.877,2.052 0.95,0 1.753,-0.029 2.636,-0.386 v -4.839 h -3.361 V 9.408 h 6.291 v 9.19 c -1.712,0.662 -3.644,0.983 -5.666,1.003 -2.971,0.027 -5.181,-0.688 -6.95,-2.403 -1.627,-1.577 -2.579,-3.89 -2.579,-6.992 0,-3.194 1.308,-5.779 3.346,-7.416 1.784,-1.433 4.052,-2.062 6.472,-2.087 1.653,-0.017 3.44,0.217 4.897,0.841 l 0,0 z"
   id="path116"
   inkscape:connector-curvature="0"
   style="fill:#070808" /><path
   clip-rule="evenodd"
   d="m 112.4995,0.854 h 11.988 c 1.795,0 3.262,1.463 3.262,3.251 v 11.99 c 0,1.788 -1.467,3.251 -3.262,3.251 h -11.988 c -1.793,0 -3.262,-1.463 -3.262,-3.251 V 4.105 c 0,-1.788 1.469,-3.251 3.262,-3.251 l 0,0 z m 0.082,0.618 h 11.824 c 1.498,0 2.725,1.222 2.725,2.715 v 11.826 c 0,1.493 -1.227,2.715 -2.725,2.715 h -11.824 c -1.498,0 -2.724,-1.222 -2.724,-2.715 V 4.187 c 0,-1.493 1.226,-2.715 2.724,-2.715 l 0,0 z"
   id="path118"
   inkscape:connector-curvature="0"
   style="fill:#070808;fill-rule:evenodd" /><path
   d="m 121.6985,4.453 -0.479,1.178 c -1.146,-0.556 -2.858,-0.846 -3.911,0.063 -0.664,0.573 -0.808,1.625 -0.291,2.343 0.488,0.678 1.417,1.006 2.146,1.336 0.748,0.338 1.471,0.695 2.057,1.286 1.38,1.395 1.063,3.954 -0.556,5.012 -1.56,1.019 -4.11,0.807 -5.675,-0.111 l 0.439,-1.213 c 1.32,0.75 3.238,1.157 4.492,0.258 0.965,-0.691 1.044,-2.234 0.205,-3.058 -0.525,-0.517 -1.256,-0.847 -1.933,-1.115 -0.802,-0.319 -1.611,-0.756 -2.177,-1.424 -1.054,-1.247 -0.836,-3.33 0.463,-4.337 1.515,-1.176 3.838,-0.846 5.22,-0.218 l 0,0 z"
   id="path120"
   inkscape:connector-curvature="0"
   style="fill:#070808" />
</svg>