<?xml version="1.0" encoding="UTF-8"?><svg version="1.1" viewBox="0 0 609 74" xmlns="http://www.w3.org/2000/svg"><path d="m0.98438 58h9.7266v-25.352c0-5 3.2812-8.6328 7.9688-8.6328 4.5312 0 7.3438 2.8516 7.3438 7.4609v26.523h9.4531v-25.586c0-4.9609 3.2031-8.3984 7.8906-8.3984 4.7656 0 7.4219 2.8906 7.4219 7.9688v26.016h9.7266v-28.398c0-8.2812-5.3516-13.789-13.516-13.789-5.9766 0-10.898 3.2031-12.891 8.3203h-0.23438c-1.5234-5.3125-5.7031-8.3203-11.562-8.3203-5.625 0-10 3.1641-11.797 7.9688h-0.19531v-7.1875h-9.3359v41.406zm80.822-6.6797c-4.2188 0-7.0312-2.1484-7.0312-5.5469 0-3.2812 2.6953-5.3906 7.3828-5.7031l9.5703-0.58594v3.1641c0 5-4.4141 8.6719-9.9219 8.6719zm-2.9297 7.3438c5.3125 0 10.508-2.7734 12.891-7.2656h0.19531v6.6016h9.375v-28.516c0-8.3203-6.6797-13.75-16.953-13.75-10.547 0-17.148 5.5469-17.578 13.281h9.0234c0.625-3.4375 3.5547-5.6641 8.1641-5.6641 4.8047 0 7.7344 2.5 7.7344 6.8359v2.9688l-10.938 0.625c-10.078 0.625-15.742 5.0391-15.742 12.383 0 7.4609 5.8203 12.5 13.828 12.5zm65.158-27.305c-0.66406-8.7109-7.4219-15.625-18.359-15.625-12.031 0-19.844 8.3203-19.844 21.562 0 13.438 7.8125 21.523 19.922 21.523 10.391 0 17.539-6.0938 18.32-15.352h-9.1797c-0.89844 4.6875-4.1016 7.5-9.0234 7.5-6.1719 0-10.156-5-10.156-13.672 0-8.5156 3.9453-13.672 10.078-13.672 5.1953 0 8.2812 3.3203 9.0625 7.7344h9.1797zm30.041-30.664c-16.445 0-26.758 11.211-26.758 29.141s10.312 29.102 26.758 29.102c16.406 0 26.719-11.172 26.719-29.102s-10.312-29.141-26.719-29.141zm0 8.5938c10.039 0 16.445 7.9688 16.445 20.547 0 12.539-6.4062 20.508-16.445 20.508-10.078 0-16.445-7.9688-16.445-20.508 0-12.578 6.3672-20.547 16.445-20.547zm30.822 32.852c0.42969 10.391 8.9453 16.797 21.914 16.797 13.633 0 22.227-6.7188 22.227-17.422 0-8.3984-4.8438-13.125-16.289-15.742l-6.4844-1.4844c-6.9141-1.6406-9.7656-3.8281-9.7656-7.5781 0-4.6875 4.2969-7.8125 10.664-7.8125 6.4453 0 10.859 3.1641 11.328 8.4375h9.6094c-0.23438-9.9219-8.4375-16.641-20.859-16.641-12.266 0-20.977 6.7578-20.977 16.758 0 8.0469 4.9219 13.047 15.312 15.43l7.3047 1.7188c7.1094 1.6797 10 4.0234 10 8.0859 0 4.6875-4.7266 8.0469-11.523 8.0469-6.875 0-12.07-3.3984-12.695-8.5938h-9.7656zM313.47 58v-56.367h-7.0312v24.375h-30.938v-24.375h-7.0312v56.367h7.0312v-25.664h30.938v25.664h7.0312zm8.2344 0h6.7969v-40.625h-6.7969v40.625zm3.3984-47.461c2.3438 0 4.2578-1.9141 4.2578-4.2188 0-2.3438-1.9141-4.2188-4.2578-4.2188-2.3047 0-4.2188 1.875-4.2188 4.2188 0 2.3047 1.9141 4.2188 4.2188 4.2188zm27.102 41.797c-6.9922 0-11.562-5.7031-11.562-14.805s4.5703-14.883 11.562-14.883c7.0703 0 11.797 5.9375 11.797 14.883s-4.7266 14.805-11.797 14.805zm0.23438 20.977c11.211 0 18.359-6.4453 18.359-16.133v-39.805h-6.4844v6.8359h-0.11719c-2.6953-4.7266-7.4609-7.5391-13.203-7.5391-10.508 0-17.305 8.125-17.305 20.859 0 12.617 6.7969 20.781 17.148 20.781 5.7031 0 10.508-2.8906 13.008-7.3047h0.15625v6.4062c0 6.0547-4.2578 10.117-11.289 10.117-5.0781 0-9.1016-2.4609-10.43-6.1719h-6.9922c1.1328 6.9141 8.2031 11.953 17.148 11.953zm25.539-15.312h6.7969v-23.672c0-7.0312 4.1797-11.641 10.938-11.641 6.3672 0 9.6094 3.8672 9.6094 10.312v25h6.7969v-26.25c0-9.0625-5.3906-15.078-14.297-15.078-6.1719 0-10.625 2.6562-12.891 7.1875h-0.15625v-22.227h-6.7969v56.367zm53.539-15.508c0.66406 9.9609 8.9453 16.445 20.898 16.445 12.969 0 21.094-6.4453 21.094-16.758 0-8.0859-4.7266-12.578-16.406-15.508l-5.8984-1.5625c-7.6562-1.9922-10.781-4.5312-10.781-8.7891 0-5.5078 5.0781-9.2969 12.383-9.2969 7.3438 0 12.227 3.7109 12.852 9.7656h7.0312c-0.3125-9.4531-8.4375-16.094-19.648-16.094-11.719 0-19.922 6.5625-19.922 15.938 0 7.6562 4.6094 12.227 15 14.883l7.2266 1.875c7.5781 1.9531 10.898 4.8828 10.898 9.6484 0 5.5469-5.5469 9.5703-13.164 9.5703-8.0469 0-13.828-4.0234-14.492-10.117h-7.0703zm47.492 15.508h6.7969v-40.625h-6.7969v40.625zm3.3984-47.461c2.3438 0 4.2578-1.9141 4.2578-4.2188 0-2.3438-1.9141-4.2188-4.2578-4.2188-2.3047 0-4.2188 1.875-4.2188 4.2188 0 2.3047 1.9141 4.2188 4.2188 4.2188zm26.867 12.031c6.4062 0 10.664 4.8438 10.82 11.641h-22.07c0.42969-6.7578 4.8828-11.641 11.25-11.641zm10.664 23.789c-1.1328 3.8281-4.9219 6.4453-10.078 6.4453-7.3047 0-11.875-5.1172-11.875-12.891v-0.39062h29.141v-2.5781c0-12.305-6.7578-20.273-17.734-20.273-11.211 0-18.398 8.5547-18.398 21.172 0 12.773 7.0703 20.859 18.711 20.859 8.8672 0 15.742-5.2344 16.914-12.344h-6.6797zm12.023 11.641h6.7969v-25.312c0-5.7422 3.4375-9.5312 8.7109-9.5312 1.6406 0 3.0859 0.19531 3.6328 0.39062v-6.6016c-0.54687-0.078125-1.5625-0.27344-2.7344-0.27344-4.7656 0-8.5156 2.8516-9.8438 7.3438h-0.15625v-6.6406h-6.4062v40.625zm22.648 0h6.7969v-25.312c0-5.7422 3.4375-9.5312 8.7109-9.5312 1.6406 0 3.0859 0.19531 3.6328 0.39062v-6.6016c-0.54688-0.078125-1.5625-0.27344-2.7344-0.27344-4.7656 0-8.5156 2.8516-9.8438 7.3438h-0.15625v-6.6406h-6.4062v40.625zm36.047-5.0781c-4.8828 0-8.125-2.5391-8.125-6.4062 0-3.8281 3.125-6.25 8.5938-6.6016l10.859-0.66406v3.3203c0 5.8594-4.9219 10.352-11.328 10.352zm-1.5234 5.7812c5.4688 0 10.625-3.0469 13.047-7.6953h0.15625v6.9922h6.4453v-28.086c0-8.0859-6.0156-13.242-15.547-13.242-9.6094 0-15.625 5.3906-16.094 12.422h6.5625c0.85938-3.9844 4.1406-6.4453 9.375-6.4453 5.625 0 8.9062 2.9688 8.9062 7.9297v3.3984l-11.641 0.66406c-9.375 0.54688-14.727 4.9219-14.727 11.875 0 7.3047 5.4297 12.188 13.516 12.188z"/></svg>