<?xml version="1.0" encoding="UTF-8" standalone="no"?>
<svg
   xmlns:dc="http://purl.org/dc/elements/1.1/"
   xmlns:cc="http://creativecommons.org/ns#"
   xmlns:rdf="http://www.w3.org/1999/02/22-rdf-syntax-ns#"
   xmlns:svg="http://www.w3.org/2000/svg"
   xmlns="http://www.w3.org/2000/svg"
   xmlns:sodipodi="http://sodipodi.sourceforge.net/DTD/sodipodi-0.dtd"
   xmlns:inkscape="http://www.inkscape.org/namespaces/inkscape"
   inkscape:version="1.0 (4035a4f, 2020-05-01)"
   height="28.395624"
   width="232.62688"
   sodipodi:docname="MacOS_Mojave_wordmark.svg"
   version="1.1"
   viewBox="0 0 232.62688 28.395624"
   data-name="Layer 1"
   id="Layer_1">
  <metadata
     id="metadata69">
    <rdf:RDF>
      <cc:Work
         rdf:about="">
        <dc:format>image/svg+xml</dc:format>
        <dc:type
           rdf:resource="http://purl.org/dc/dcmitype/StillImage" />
      </cc:Work>
    </rdf:RDF>
  </metadata>
  <defs
     id="defs67" />
  <sodipodi:namedview
     inkscape:current-layer="Layer_1"
     inkscape:window-maximized="0"
     inkscape:window-y="23"
     inkscape:window-x="0"
     inkscape:cy="13.037705"
     inkscape:cx="123.86285"
     inkscape:zoom="2.1272366"
     showgrid="false"
     id="namedview65"
     inkscape:window-height="702"
     inkscape:window-width="1138"
     inkscape:pageshadow="2"
     inkscape:pageopacity="0"
     guidetolerance="10"
     gridtolerance="10"
     objecttolerance="10"
     borderopacity="1"
     bordercolor="#666666"
     pagecolor="#ffffff" />
  <title
     id="title40">Mojave Wordmark</title>
  <path
     id="path42"
     d="m 0,6.36 h 3.73 v 2.87 h 0.08 a 4.87,4.87 0 0 1 4.72,-3.18 4.46,4.46 0 0 1 4.63,3.33 h 0.09 a 5.35,5.35 0 0 1 5.16,-3.33 5.14,5.14 0 0 1 5.4,5.51 v 11.36 h -3.89 v -10.4 c 0,-2 -1.06,-3.19 -3,-3.19 a 3.1,3.1 0 0 0 -3.15,3.36 V 22.92 H 10 V 12.31 a 2.75,2.75 0 0 0 -2.94,-3 3.2,3.2 0 0 0 -3.19,3.45 V 22.92 H 0 Z" />
  <path
     id="path44"
     d="m 26.27,18.19 c 0,-2.94 2.26,-4.71 6.29,-5 L 36.94,13 v -1.2 c 0,-1.74 -1.17,-2.74 -3.1,-2.74 -1.93,0 -3,0.89 -3.26,2.27 H 27 C 27.14,8.23 29.78,6 34,6 c 4.22,0 6.78,2.17 6.78,5.5 V 22.9 H 37 v -2.62 0 a 5.84,5.84 0 0 1 -5.15,2.91 c -3.26,0 -5.58,-2.02 -5.58,-5 z m 10.67,-1.41 v -1.26 l -3.83,0.23 c -1.88,0.13 -2.95,1 -2.95,2.28 0,1.28 1.12,2.22 2.81,2.22 a 3.69,3.69 0 0 0 3.97,-3.47 z" />
  <path
     id="path46"
     d="M 54.83,12.27 A 3.51,3.51 0 0 0 51.2,9.17 c -2.45,0 -4,2.06 -4,5.47 0,3.41 1.6,5.47 4.06,5.47 a 3.44,3.44 0 0 0 3.61,-3 h 3.68 c -0.32,3.7 -3.18,6.14 -7.33,6.14 -4.85,0 -8,-3.23 -8,-8.61 0,-5.38 3.12,-8.64 7.94,-8.64 4.37,0 7.07,2.76 7.34,6.25 z" />
  <path
     id="path48"
     d="M 81.84,11.66 C 81.84,18.83 77.72,23.3 71.16,23.3 64.6,23.3 60.45,18.83 60.45,11.66 60.45,4.49 64.58,0 71.16,0 77.74,0 81.84,4.48 81.84,11.66 Z m -17.26,0 c 0,5 2.54,8.2 6.58,8.2 4.04,0 6.57,-3.19 6.57,-8.2 0,-5.01 -2.56,-8.22 -6.57,-8.22 -4.01,0 -6.58,3.18 -6.58,8.22 z" />
  <path
     id="path50"
     d="m 88,16.58 c 0.25,2.08 2.33,3.44 5.08,3.44 2.75,0 4.61,-1.35 4.61,-3.22 0,-1.63 -1.16,-2.57 -4,-3.24 l -2.92,-0.68 c -4.16,-1 -6.13,-3 -6.13,-6.18 0,-4 3.49,-6.7 8.39,-6.7 4.9,0 8.25,2.69 8.35,6.66 h -3.82 c -0.18,-2.11 -2,-3.38 -4.53,-3.38 -2.53,0 -4.26,1.25 -4.26,3.13 0,1.5 1.14,2.37 3.9,3 l 2.6,0.59 c 4.57,1.05 6.51,2.94 6.51,6.3 0,4.28 -3.44,7 -8.89,7 -5.19,0 -8.59,-2.57 -8.77,-6.72 z" />
  <g
     style="font-style:normal;font-variant:normal;font-weight:300;font-stretch:normal;font-size:32px;line-height:0;font-family:'SF Pro Display';-inkscape-font-specification:'SF Pro Display Light';letter-spacing:0px;word-spacing:0px;stroke-width:70888.2"
     id="text81"
     aria-label="Monterey">
    <path
       id="path83"
       style="font-style:normal;font-variant:normal;font-weight:300;font-stretch:normal;font-size:32px;font-family:'SF Pro Display';-inkscape-font-specification:'SF Pro Display Light';stroke-width:70888.2"
       d="m 111.58,22.926874 h 2 V 4.3956242 h 0.10938 l 7.8125,18.5312498 h 1.85937 l 7.82813,-18.5312498 h 0.10937 V 22.926874 h 2 V 0.37999916 h -2.45312 L 122.48625,20.239374 h -0.0937 L 114.03313,0.37999916 H 111.58 Z" />
    <path
       id="path85"
       style="font-style:normal;font-variant:normal;font-weight:300;font-stretch:normal;font-size:32px;font-family:'SF Pro Display';-inkscape-font-specification:'SF Pro Display Light';stroke-width:70888.2"
       d="m 143.78313,23.223749 c 4.42187,0 7.40625,-3.25 7.40625,-8.421875 v -0.03125 c 0,-5.1718748 -3,-8.3906248 -7.40625,-8.3906248 -4.42188,0 -7.40625,3.234375 -7.40625,8.3906248 v 0.03125 c 0,5.15625 2.96875,8.40625 7.40625,8.421875 z m 0.0156,-1.84375 c -3.20312,-0.01563 -5.29687,-2.453125 -5.29687,-6.578125 v -0.03125 c 0,-4.09375 2.10937,-6.5468748 5.28125,-6.5468748 3.17187,0 5.29687,2.4374998 5.29687,6.5468748 v 0.03125 c 0,4.109375 -2.10937,6.578125 -5.28125,6.578125 z" />
    <path
       id="path87"
       style="font-style:normal;font-variant:normal;font-weight:300;font-stretch:normal;font-size:32px;font-family:'SF Pro Display';-inkscape-font-specification:'SF Pro Display Light';stroke-width:70888.2"
       d="m 153.93938,22.926874 h 2.0625 v -9.625 c 0,-3.03125 1.89062,-5.0624998 4.71875,-5.0624998 2.76562,0 4.26562,1.609375 4.26562,4.6249998 v 10.0625 h 2.0625 v -10.40625 c 0,-3.8124998 -2.125,-6.1249998 -5.71875,-6.1249998 -2.625,0 -4.45312,1.296875 -5.26562,3.046875 h -0.0625 v -2.765625 h -2.0625 z" />
    <path
       id="path89"
       style="font-style:normal;font-variant:normal;font-weight:300;font-stretch:normal;font-size:32px;font-family:'SF Pro Display';-inkscape-font-specification:'SF Pro Display Light';stroke-width:70888.2"
       d="m 175.40813,23.223749 c 0.5,0 1.03125,-0.0625 1.35937,-0.125 v -1.6875 c -0.23437,0.03125 -0.5625,0.07813 -0.9375,0.07813 -1.51562,0 -2.28125,-0.609375 -2.28125,-2.40625 V 8.4112492 h 3.21875 v -1.734375 h -3.21875 v -4.390625 h -2.125 v 4.390625 h -2.39062 v 1.734375 h 2.39062 V 19.114374 c 0,2.84375 1.3125,4.109375 3.98438,4.109375 z" />
    <path
       id="path91"
       style="font-style:normal;font-variant:normal;font-weight:300;font-stretch:normal;font-size:32px;font-family:'SF Pro Display';-inkscape-font-specification:'SF Pro Display Light';stroke-width:70888.2"
       d="m 185.705,23.223749 c 3.51563,0 6.10938,-2.015625 6.67188,-4.796875 l 0.0312,-0.15625 h -2.04688 l -0.0312,0.140625 c -0.53125,1.765625 -2.1875,2.96875 -4.57812,2.96875 -3.20313,0 -5.28125,-2.203125 -5.34375,-6.078125 h 12.20312 v -0.8125 c 0,-4.8593748 -2.73437,-8.1093748 -7.07812,-8.1093748 -4.34375,0 -7.21875,3.359375 -7.21875,8.4531248 v 0.01563 c 0,5.140625 2.82812,8.375 7.39062,8.375 z M 185.5175,8.2237492 c 2.78125,0 4.78125,1.8906248 5.01563,5.4374998 h -10.09375 c 0.25,-3.453125 2.3125,-5.4374998 5.07812,-5.4374998 z" />
    <path
       id="path93"
       style="font-style:normal;font-variant:normal;font-weight:300;font-stretch:normal;font-size:32px;font-family:'SF Pro Display';-inkscape-font-specification:'SF Pro Display Light';stroke-width:70888.2"
       d="m 195.37688,22.926874 h 2.0625 v -10.15625 c 0,-2.609375 1.46875,-4.4062498 3.78125,-4.4062498 0.70312,0 1.28125,0.109375 1.54687,0.21875 v -2.015625 c -0.25,-0.078125 -0.73437,-0.1875 -1.28125,-0.1875 -2.01562,0 -3.51562,1.1875 -4.09375,3.125 H 197.33 v -2.828125 h -1.95312 z" />
    <path
       id="path95"
       style="font-style:normal;font-variant:normal;font-weight:300;font-stretch:normal;font-size:32px;font-family:'SF Pro Display';-inkscape-font-specification:'SF Pro Display Light';stroke-width:70888.2"
       d="m 210.6425,23.223749 c 3.51563,0 6.10938,-2.015625 6.67188,-4.796875 l 0.0312,-0.15625 h -2.04688 l -0.0312,0.140625 c -0.53125,1.765625 -2.1875,2.96875 -4.57812,2.96875 -3.20313,0 -5.28125,-2.203125 -5.34375,-6.078125 h 12.20312 v -0.8125 c 0,-4.8593748 -2.73437,-8.1093748 -7.07812,-8.1093748 -4.34375,0 -7.21875,3.359375 -7.21875,8.4531248 v 0.01563 c 0,5.140625 2.82812,8.375 7.39062,8.375 z M 210.455,8.2237492 c 2.78125,0 4.78125,1.8906248 5.01563,5.4374998 h -10.09375 c 0.25,-3.453125 2.3125,-5.4374998 5.07812,-5.4374998 z" />
    <path
       id="path97"
       style="font-style:normal;font-variant:normal;font-weight:300;font-stretch:normal;font-size:32px;font-family:'SF Pro Display';-inkscape-font-specification:'SF Pro Display Light';stroke-width:70888.2"
       d="m 220.92375,28.395624 c 2.78125,0 4.10938,-1.28125 5.1875,-4.171875 l 6.51563,-17.5468748 h -2.1875 l -4.9375,14.1874998 h -0.0625 L 220.5175,6.6768742 h -2.21875 l 6.10938,16.3593748 -0.39063,1.046875 c -0.71875,1.984375 -1.67187,2.578125 -3.5,2.578125 -0.26562,0 -0.53125,-0.03125 -0.73437,-0.0625 v 1.703125 c 0.29687,0.04687 0.73437,0.09375 1.14062,0.09375 z" />
  </g>
</svg>
