<?xml version="1.0" encoding="UTF-8" standalone="no"?>
<!-- Created with Inkscape (http://www.inkscape.org/) -->

<svg
   xmlns:dc="http://purl.org/dc/elements/1.1/"
   xmlns:cc="http://creativecommons.org/ns#"
   xmlns:rdf="http://www.w3.org/1999/02/22-rdf-syntax-ns#"
   xmlns:svg="http://www.w3.org/2000/svg"
   xmlns="http://www.w3.org/2000/svg"
   xmlns:xlink="http://www.w3.org/1999/xlink"
   xmlns:sodipodi="http://sodipodi.sourceforge.net/DTD/sodipodi-0.dtd"
   xmlns:inkscape="http://www.inkscape.org/namespaces/inkscape"
   version="1.1"
   width="500"
   height="121.77239"
   id="svg4393"
   inkscape:version="0.48.2 r9819"
   sodipodi:docname="Lightning_connector.svg">
  <sodipodi:namedview
     pagecolor="#ffffff"
     bordercolor="#666666"
     borderopacity="1"
     objecttolerance="10"
     gridtolerance="10"
     guidetolerance="10"
     inkscape:pageopacity="0"
     inkscape:pageshadow="2"
     inkscape:window-width="1920"
     inkscape:window-height="1028"
     id="namedview81"
     showgrid="false"
     inkscape:zoom="0.644"
     inkscape:cx="714.24184"
     inkscape:cy="-95.732158"
     inkscape:window-x="-8"
     inkscape:window-y="-8"
     inkscape:window-maximized="1"
     inkscape:current-layer="layer1" />
  <defs
     id="defs4395">
    <linearGradient
       x1="-117.91246"
       y1="390.83841"
       x2="-219.33762"
       y2="363.66159"
       id="linearGradient4166"
       xlink:href="#linearGradient3874"
       gradientUnits="userSpaceOnUse"
       gradientTransform="matrix(0.18577131,0,0,0.18577131,322.93283,495.36433)" />
    <linearGradient
       id="linearGradient3874">
      <stop
         id="stop3876"
         style="stop-color:#a89657;stop-opacity:1"
         offset="0" />
      <stop
         id="stop3878"
         style="stop-color:#ead38d;stop-opacity:1"
         offset="1" />
    </linearGradient>
    <linearGradient
       x1="291.60715"
       y1="697.23523"
       x2="291.60715"
       y2="735.77588"
       id="linearGradient3990"
       xlink:href="#linearGradient3976"
       gradientUnits="userSpaceOnUse"
       gradientTransform="translate(82.678582,-354.02879)" />
    <linearGradient
       id="linearGradient3976">
      <stop
         id="stop3978"
         style="stop-color:#808080;stop-opacity:0.30000001"
         offset="0" />
      <stop
         id="stop3980"
         style="stop-color:#808080;stop-opacity:0"
         offset="1" />
    </linearGradient>
    <linearGradient
       x1="371.10236"
       y1="620.01691"
       x2="331.45877"
       y2="620.01691"
       id="linearGradient3817"
       xlink:href="#linearGradient3912"
       gradientUnits="userSpaceOnUse"
       gradientTransform="translate(23.005172,-354.02879)" />
    <linearGradient
       id="linearGradient3912">
      <stop
         id="stop3914"
         style="stop-color:#c9cfcf;stop-opacity:1"
         offset="0" />
      <stop
         id="stop3916"
         style="stop-color:#ffffff;stop-opacity:1"
         offset="0.1141752" />
      <stop
         id="stop3918"
         style="stop-color:#fffeff;stop-opacity:1"
         offset="0.2416551" />
      <stop
         id="stop3920"
         style="stop-color:#dde1e4;stop-opacity:1"
         offset="0.7515747" />
      <stop
         id="stop3922"
         style="stop-color:#acb0b3;stop-opacity:1"
         offset="1" />
    </linearGradient>
    <linearGradient
       x1="291.60712"
       y1="648.32648"
       x2="291.60712"
       y2="664.58063"
       id="linearGradient3982"
       xlink:href="#linearGradient3976"
       gradientUnits="userSpaceOnUse"
       gradientTransform="translate(82.678582,-354.02879)" />
    <linearGradient
       x1="361.46524"
       y1="672.41852"
       x2="341.60092"
       y2="672.41852"
       id="linearGradient3844"
       xlink:href="#linearGradient3799"
       gradientUnits="userSpaceOnUse"
       gradientTransform="matrix(1,0,0,0.92001055,22.752632,-298.01025)" />
    <linearGradient
       id="linearGradient3799">
      <stop
         id="stop3801"
         style="stop-color:#c9cfcf;stop-opacity:1"
         offset="0" />
      <stop
         id="stop3807"
         style="stop-color:#f5f5f5;stop-opacity:1"
         offset="0.1141752" />
      <stop
         id="stop3809"
         style="stop-color:#dde1e4;stop-opacity:1"
         offset="0.7515747" />
      <stop
         id="stop3803"
         style="stop-color:#acb0b3;stop-opacity:1"
         offset="1" />
    </linearGradient>
    <linearGradient
       x1="311.60715"
       y1="589.34943"
       x2="311.60715"
       y2="580.84326"
       id="linearGradient3986"
       xlink:href="#linearGradient3976"
       gradientUnits="userSpaceOnUse"
       gradientTransform="translate(62.678582,-354.02879)" />
    <linearGradient
       x1="298.81979"
       y1="804.20746"
       x2="284.39447"
       y2="804.20746"
       id="linearGradient3972"
       xlink:href="#linearGradient3799"
       gradientUnits="userSpaceOnUse"
       gradientTransform="translate(82.678582,-354.02879)" />
    <linearGradient
       x1="293.75"
       y1="577.54071"
       x2="329.46429"
       y2="577.54071"
       id="linearGradient4292"
       xlink:href="#linearGradient3854"
       gradientUnits="userSpaceOnUse"
       gradientTransform="matrix(5.2927153,0,0,5.2927153,-1817.9296,-2617.8989)" />
    <linearGradient
       id="linearGradient3854">
      <stop
         id="stop3856"
         style="stop-color:#989898;stop-opacity:1"
         offset="0" />
      <stop
         id="stop3862"
         style="stop-color:#cdcdcd;stop-opacity:1"
         offset="0.1" />
      <stop
         id="stop3864"
         style="stop-color:#cccccc;stop-opacity:1"
         offset="0.89999998" />
      <stop
         id="stop3858"
         style="stop-color:#ebebeb;stop-opacity:1"
         offset="1" />
    </linearGradient>
    <linearGradient
       x1="-261.51309"
       y1="398.91016"
       x2="-262.97589"
       y2="398.91016"
       id="linearGradient4294"
       xlink:href="#linearGradient4298"
       gradientUnits="userSpaceOnUse"
       gradientTransform="matrix(-1,0,0,1,-337.36372,0)" />
    <linearGradient
       id="linearGradient4298">
      <stop
         id="stop4300"
         style="stop-color:#9e9e9e;stop-opacity:1"
         offset="0" />
      <stop
         id="stop4302"
         style="stop-color:#d1d1d1;stop-opacity:1"
         offset="0.41788247" />
      <stop
         id="stop4304"
         style="stop-color:#ffffff;stop-opacity:0"
         offset="1" />
    </linearGradient>
    <linearGradient
       id="linearGradient4259">
      <stop
         id="stop4261"
         style="stop-color:#666666;stop-opacity:1"
         offset="0" />
      <stop
         id="stop4263"
         style="stop-color:#989898;stop-opacity:1"
         offset="0.41788247" />
      <stop
         id="stop4265"
         style="stop-color:#ffffff;stop-opacity:0"
         offset="1" />
    </linearGradient>
    <linearGradient
       x1="-261.51309"
       y1="398.91016"
       x2="-262.97589"
       y2="398.91016"
       id="linearGradient4391"
       xlink:href="#linearGradient4259"
       gradientUnits="userSpaceOnUse"
       gradientTransform="translate(0.01116286,0)" />
    <linearGradient
       x1="293.75"
       y1="577.54071"
       x2="329.46429"
       y2="577.54071"
       id="linearGradient4551"
       xlink:href="#linearGradient3854"
       gradientUnits="userSpaceOnUse"
       gradientTransform="matrix(5.2927153,0,0,5.2927153,-1817.9296,-2617.8989)" />
    <linearGradient
       x1="-261.51309"
       y1="398.91016"
       x2="-262.97589"
       y2="398.91016"
       id="linearGradient4553"
       xlink:href="#linearGradient4298"
       gradientUnits="userSpaceOnUse"
       gradientTransform="matrix(-1,0,0,1,-337.36372,0)" />
    <linearGradient
       x1="-261.51309"
       y1="398.91016"
       x2="-262.97589"
       y2="398.91016"
       id="linearGradient4555"
       xlink:href="#linearGradient4259"
       gradientUnits="userSpaceOnUse"
       gradientTransform="translate(0.01116286,0)" />
    <linearGradient
       x1="298.81979"
       y1="804.20746"
       x2="284.39447"
       y2="804.20746"
       id="linearGradient4557"
       xlink:href="#linearGradient3799"
       gradientUnits="userSpaceOnUse"
       gradientTransform="translate(82.678582,-354.02879)" />
    <linearGradient
       x1="311.60715"
       y1="589.34943"
       x2="311.60715"
       y2="580.84326"
       id="linearGradient4559"
       xlink:href="#linearGradient3976"
       gradientUnits="userSpaceOnUse"
       gradientTransform="translate(62.678582,-354.02879)" />
    <linearGradient
       x1="361.46524"
       y1="672.41852"
       x2="341.60092"
       y2="672.41852"
       id="linearGradient4561"
       xlink:href="#linearGradient3799"
       gradientUnits="userSpaceOnUse"
       gradientTransform="matrix(1,0,0,0.92001055,22.752632,-298.01025)" />
    <linearGradient
       x1="291.60712"
       y1="648.32648"
       x2="291.60712"
       y2="664.58063"
       id="linearGradient4563"
       xlink:href="#linearGradient3976"
       gradientUnits="userSpaceOnUse"
       gradientTransform="translate(82.678582,-354.02879)" />
    <linearGradient
       x1="371.10236"
       y1="620.01691"
       x2="331.45877"
       y2="620.01691"
       id="linearGradient4565"
       xlink:href="#linearGradient3912"
       gradientUnits="userSpaceOnUse"
       gradientTransform="translate(23.005172,-354.02879)" />
    <linearGradient
       x1="291.60715"
       y1="697.23523"
       x2="291.60715"
       y2="735.77588"
       id="linearGradient4567"
       xlink:href="#linearGradient3976"
       gradientUnits="userSpaceOnUse"
       gradientTransform="translate(82.678582,-354.02879)" />
    <linearGradient
       x1="-117.91246"
       y1="390.83841"
       x2="-219.33762"
       y2="363.66159"
       id="linearGradient4569"
       xlink:href="#linearGradient3874"
       gradientUnits="userSpaceOnUse"
       gradientTransform="matrix(0.18577131,0,0,0.18577131,322.93283,495.36433)" />
    <linearGradient
       x1="291.60715"
       y1="697.23523"
       x2="291.60715"
       y2="735.77588"
       id="linearGradient4575"
       xlink:href="#linearGradient3976"
       gradientUnits="userSpaceOnUse"
       gradientTransform="matrix(2.8012413,0,0,2.8012413,-867.97434,-1851.8757)" />
    <linearGradient
       x1="371.10236"
       y1="620.01691"
       x2="331.45877"
       y2="620.01691"
       id="linearGradient4578"
       xlink:href="#linearGradient3912"
       gradientUnits="userSpaceOnUse"
       gradientTransform="matrix(2.8012413,0,0,2.8012413,-1035.134,-1851.8757)" />
    <linearGradient
       x1="291.60712"
       y1="648.32648"
       x2="291.60712"
       y2="664.58063"
       id="linearGradient4581"
       xlink:href="#linearGradient3976"
       gradientUnits="userSpaceOnUse"
       gradientTransform="matrix(2.8012413,0,0,2.8012413,-867.97434,-1851.8757)" />
    <linearGradient
       x1="361.46524"
       y1="672.41852"
       x2="341.60092"
       y2="672.41852"
       id="linearGradient4584"
       xlink:href="#linearGradient3799"
       gradientUnits="userSpaceOnUse"
       gradientTransform="matrix(2.8012413,0,0,2.5771715,-1035.8414,-1694.9542)" />
    <linearGradient
       x1="311.60715"
       y1="589.34943"
       x2="311.60715"
       y2="580.84326"
       id="linearGradient4587"
       xlink:href="#linearGradient3976"
       gradientUnits="userSpaceOnUse"
       gradientTransform="matrix(2.8012413,0,0,2.8012413,-923.99917,-1851.8757)" />
    <linearGradient
       x1="298.81979"
       y1="804.20746"
       x2="284.39447"
       y2="804.20746"
       id="linearGradient4590"
       xlink:href="#linearGradient3799"
       gradientUnits="userSpaceOnUse"
       gradientTransform="matrix(2.8012413,0,0,2.8012413,-867.97434,-1851.8757)" />
    <linearGradient
       x1="-117.91246"
       y1="390.83841"
       x2="-219.33762"
       y2="363.66159"
       id="linearGradient4596"
       xlink:href="#linearGradient3874"
       gradientUnits="userSpaceOnUse"
       gradientTransform="matrix(0.18577131,0,0,0.18577131,322.93283,495.36433)" />
    <linearGradient
       x1="-117.91246"
       y1="390.83841"
       x2="-219.33762"
       y2="363.66159"
       id="linearGradient4599"
       xlink:href="#linearGradient3874"
       gradientUnits="userSpaceOnUse"
       gradientTransform="matrix(0,0.52039027,-0.52039027,0,464.24068,36.638471)" />
    <linearGradient
       x1="293.75"
       y1="577.54071"
       x2="329.46429"
       y2="577.54071"
       id="linearGradient4602"
       xlink:href="#linearGradient3854"
       gradientUnits="userSpaceOnUse"
       gradientTransform="matrix(5.2927153,0,0,5.2927153,-1817.9296,-2617.8989)" />
    <linearGradient
       x1="-261.51309"
       y1="398.91016"
       x2="-262.97589"
       y2="398.91016"
       id="linearGradient4604"
       xlink:href="#linearGradient4298"
       gradientUnits="userSpaceOnUse"
       gradientTransform="matrix(-1,0,0,1,-337.36372,0)" />
    <linearGradient
       x1="-261.51309"
       y1="398.91016"
       x2="-262.97589"
       y2="398.91016"
       id="linearGradient4606"
       xlink:href="#linearGradient4259"
       gradientUnits="userSpaceOnUse"
       gradientTransform="translate(0.01116286,0)" />
    <linearGradient
       x1="-261.51309"
       y1="398.91016"
       x2="-262.97589"
       y2="398.91016"
       id="linearGradient4609"
       xlink:href="#linearGradient4259"
       gradientUnits="userSpaceOnUse"
       gradientTransform="matrix(0,0.52782263,-0.52782263,0,465.6846,37.924717)" />
    <linearGradient
       x1="-261.51309"
       y1="398.91016"
       x2="-262.97589"
       y2="398.91016"
       id="linearGradient4612"
       xlink:href="#linearGradient4298"
       gradientUnits="userSpaceOnUse"
       gradientTransform="matrix(0,-0.52782263,-0.52782263,0,465.6846,-140.14938)" />
    <linearGradient
       x1="293.75"
       y1="577.54071"
       x2="329.46429"
       y2="577.54071"
       id="linearGradient4615"
       xlink:href="#linearGradient3854"
       gradientUnits="userSpaceOnUse"
       gradientTransform="matrix(0,2.7936149,-2.7936149,0,1847.4709,-921.62556)" />
  </defs>
  <metadata
     id="metadata4398">
    <rdf:RDF>
      <cc:Work
         rdf:about="">
        <dc:format>image/svg+xml</dc:format>
        <dc:type
           rdf:resource="http://purl.org/dc/dcmitype/StillImage" />
        <dc:title />
      </cc:Work>
    </rdf:RDF>
  </metadata>
  <g
     transform="translate(200.67472,111.99859)"
     id="layer1">
    <path
       d="m 295.90715,-80.230972 c 0,-11.506882 -9.25964,-20.766518 -20.76652,-20.766518 l -5.45966,0 c -0.51709,0.58 -1.25306,0.95668 -2.0948,0.95668 l -24.90663,0 c -0.84175,0 -1.57772,-0.37668 -2.0948,-0.95668 l -47.636,0 c -11.50688,0 -20.76652,9.259636 -20.76652,20.766518 l 0,58.225434 c 0,11.506882 9.25964,20.7830161 20.76652,20.7830161 l 47.61951,0 c 0.51733,-0.5862526 1.26436,-0.9566785 2.11129,-0.9566785 l 24.90663,0 c 0.84693,0 1.59396,0.3704259 2.11129,0.9566785 l 5.44317,0 c 11.50688,0 20.76652,-9.2761341 20.76652,-20.7830161 l 0,-58.225434 z"
       id="path4286"
       style="color:#000000;fill:url(#linearGradient4615);fill-opacity:1;fill-rule:nonzero;stroke:none;stroke-width:0.08;marker:none;visibility:visible;display:inline;overflow:visible;enable-background:accumulate"
       inkscape:connector-curvature="0" />
    <path
       d="m 269.69746,-1.2225219 c -0.51733,-0.5862526 -1.26436,-0.9566785 -2.11129,-0.9566785 l -24.90663,0 c -0.84693,0 -1.59396,0.3704259 -2.11129,0.9566785 l 29.12921,0 z"
       id="path4288"
       style="color:#000000;fill:none;stroke:url(#linearGradient4612);stroke-width:0.26391131;stroke-miterlimit:4;stroke-opacity:1;marker:none;visibility:visible;display:inline;overflow:visible;enable-background:accumulate"
       inkscape:connector-curvature="0" />
    <path
       d="m 269.69746,-101.00214 c -0.51733,0.58625 -1.26436,0.95667 -2.11129,0.95667 l -24.90663,0 c -0.84693,0 -1.59396,-0.37042 -2.11129,-0.95667 l 29.12921,0 z"
       id="path4290"
       style="color:#000000;fill:none;stroke:url(#linearGradient4609);stroke-width:0.26391131;stroke-miterlimit:4;stroke-opacity:1;marker:none;visibility:visible;display:inline;overflow:visible;enable-background:accumulate"
       inkscape:connector-curvature="0" />
    <rect
       width="43.506351"
       height="586.04858"
       rx="0"
       ry="0"
       x="-72.865555"
       y="107.8792"
       transform="matrix(0,1,-1,0,0,0)"
       id="rect3029"
       style="color:#000000;fill:url(#linearGradient4590);fill-opacity:1;fill-rule:nonzero;stroke:none;stroke-width:0.08;marker:none;visibility:visible;display:inline;overflow:visible;enable-background:accumulate" />
    <rect
       width="100.04433"
       height="124.05497"
       rx="20.827248"
       ry="20.827248"
       x="-101.13451"
       y="-296.07214"
       transform="matrix(0,1,-1,0,0,0)"
       id="rect3984"
       style="color:#000000;fill:url(#linearGradient4587);fill-opacity:1;fill-rule:nonzero;stroke:none;stroke-width:0.08;marker:none;visibility:visible;display:inline;overflow:visible;enable-background:accumulate" />
    <rect
       width="59.423302"
       height="143.83434"
       x="-80.824066"
       y="-33.933475"
       transform="matrix(0,1,-1,0,0,0)"
       id="rect3009"
       style="color:#000000;fill:url(#linearGradient4584);fill-opacity:1;fill-rule:nonzero;stroke:none;stroke-width:0.08;marker:none;visibility:visible;display:inline;overflow:visible;enable-background:accumulate" />
    <rect
       width="59.423302"
       height="143.83434"
       x="-80.824066"
       y="-33.933475"
       transform="matrix(0,1,-1,0,0,0)"
       id="rect3974"
       style="color:#000000;fill:url(#linearGradient4581);fill-opacity:1;fill-rule:nonzero;stroke:none;stroke-width:0.08;marker:none;visibility:visible;display:inline;overflow:visible;enable-background:accumulate" />
    <rect
       width="111.77239"
       height="166.95117"
       rx="0"
       ry="0"
       x="-106.99859"
       y="-198.5343"
       transform="matrix(0,1,-1,0,0,0)"
       id="rect3007"
       style="color:#000000;fill:url(#linearGradient4578);fill-opacity:1;fill-rule:nonzero;stroke:none;stroke-width:0.08;marker:none;visibility:visible;display:inline;overflow:visible;enable-background:accumulate" />
    <rect
       width="43.506351"
       height="586.04858"
       rx="0"
       ry="0"
       x="-72.865555"
       y="107.8792"
       transform="matrix(0,1,-1,0,0,0)"
       id="rect3988"
       style="color:#000000;fill:url(#linearGradient4575);fill-opacity:1;fill-rule:nonzero;stroke:none;stroke-width:0.08;marker:none;visibility:visible;display:inline;overflow:visible;enable-background:accumulate" />
    <rect
       width="82.78788"
       height="39.53231"
       rx="11.419523"
       ry="11.419523"
       x="-92.506294"
       y="-287.61389"
       transform="matrix(0,1,-1,0,0,0)"
       id="rect4152"
       style="color:#000000;fill:#ffffff;fill-opacity:1;fill-rule:nonzero;stroke:none;stroke-width:0.08;marker:none;visibility:visible;display:inline;overflow:visible;enable-background:accumulate" />
    <path
       d="m 279.01429,-82.205648 c 0,-1.133018 -0.90259,-2.049052 -2.03278,-2.049052 l -18.1161,0 c -1.13019,0 -2.03278,0.916034 -2.03278,2.049052 0,1.13299 0.90259,2.032776 2.03278,2.032776 l 18.1161,0 c 1.13019,0 2.03278,-0.899786 2.03278,-2.032776 z m 0,8.87915 c 0,-1.13299 -0.90259,-2.049024 -2.03278,-2.049024 l -18.1161,0 c -1.13019,0 -2.03278,0.916034 -2.03278,2.049024 0,1.13299 0.90259,2.049024 2.03278,2.049024 l 18.1161,0 c 1.13019,0 2.03278,-0.916034 2.03278,-2.049024 z m 0,8.879151 c 0,-1.13299 -0.90259,-2.032777 -2.03278,-2.032777 l -18.1161,0 c -1.13019,0 -2.03278,0.899787 -2.03278,2.032777 0,1.133018 0.90259,2.049052 2.03278,2.049052 l 18.1161,0 c 1.13019,0 2.03278,-0.916034 2.03278,-2.049052 z m 0,8.895426 c 0,-1.13299 -0.90259,-2.049024 -2.03278,-2.049024 l -18.1161,0 c -1.13019,0 -2.03278,0.916034 -2.03278,2.049024 0,1.13299 0.90259,2.049052 2.03278,2.049052 l 18.1161,0 c 1.13019,0 2.03278,-0.916062 2.03278,-2.049052 z m 0,8.87915 c 0,-1.13299 -0.90259,-2.049024 -2.03278,-2.049024 l -18.1161,0 c -1.13019,0 -2.03278,0.916034 -2.03278,2.049024 0,1.133018 0.90259,2.049052 2.03278,2.049052 l 18.1161,0 c 1.13019,0 2.03278,-0.916034 2.03278,-2.049052 z m 0,8.895426 c 0,-1.13299 -0.90259,-2.049024 -2.03278,-2.049024 l -18.1161,0 c -1.13019,0 -2.03278,0.916034 -2.03278,2.049024 0,1.133018 0.90259,2.032777 2.03278,2.032777 l 18.1161,0 c 1.13019,0 2.03278,-0.899759 2.03278,-2.032777 z m 0,8.879179 c 0,-1.133018 -0.90259,-2.049052 -2.03278,-2.049052 l -18.1161,0 c -1.13019,0 -2.03278,0.916034 -2.03278,2.049052 0,1.13299 0.90259,2.049024 2.03278,2.049024 l 18.1161,0 c 1.13019,0 2.03278,-0.916034 2.03278,-2.049024 z m 0,8.87915 c 0,-1.13299 -0.90259,-2.032777 -2.03278,-2.032777 l -18.1161,0 c -1.13019,0 -2.03278,0.899787 -2.03278,2.032777 0,1.13299 0.90259,2.049024 2.03278,2.049024 l 18.1161,0 c 1.13019,0 2.03278,-0.916034 2.03278,-2.049024 z"
       id="path4154"
       style="color:#000000;fill:url(#linearGradient4599);fill-opacity:1;fill-rule:nonzero;stroke:none;stroke-width:0.08;marker:none;visibility:visible;display:inline;overflow:visible;enable-background:accumulate"
       inkscape:connector-curvature="0" />
  </g>
</svg>
