<svg xmlns="http://www.w3.org/2000/svg" width="732.777" height="117.08" version="1.1" xml:space="preserve">
    <g fill-opacity="1" fill-rule="nonzero" stroke="none">
        <path fill="#96c4eb" d="M0 15.602v28.45h67.158V.601H15c-8.284 0-15 6.717-15 15zM73.629 117.08h80.54c8.285 0 15-6.716 15-15V71.783H73.63v45.297zM0 102.08c0 8.284 6.716 15 15 15h52.158V50.522H0v51.558zM154.17.602H73.629v65.172h95.54V15.602c0-8.283-6.715-15-15-15"/>
        <path fill="#231f20" d="M364.159 10.376a1.852 1.852 0 0 0-.284-.427c-.101-.109-.189-.164-.261-.164-.16 0-.284.431-.372 1.291-.087.861-.175 2.496-.262 4.904l-.221 5.975c-.015.511-.027 1.044-.034 1.597-.008.555-.01 1.314-.01 2.275 0 1.474.119 2.505.36 3.097.24.591.674 1.082 1.3 1.476.276.176.684.321 1.224.437a.165.165 0 0 0 .065.023h.045c.655.16.983.401.983.72 0 .176-.086.315-.252.416-.168.101-.399.153-.69.153-.118 0-.388-.023-.811-.069a43.546 43.546 0 0 0-4.074-.205c-.585 0-1.191.046-1.819.137a22.89 22.89 0 0 1-1.007.137.728.728 0 0 1-.493-.207c-.154-.138-.23-.293-.23-.468 0-.117.036-.232.11-.348.073-.116.153-.189.24-.217l.131-.045a.7.7 0 0 1 .198-.043c.772-.277 1.291-.547 1.554-.81.262-.262.458-.62.59-1.072.307-.949.61-3.283.908-7.005.3-3.722.45-7.757.45-12.105 0-1.999-.183-3.587-.548-4.76-.365-1.175-.95-2.054-1.752-2.639-.19-.16-.525-.299-1.007-.415a.165.165 0 0 0-.065-.023l-.066-.02c-.525-.163-.788-.398-.788-.707 0-.22.073-.381.219-.485.146-.103.372-.155.679-.155.13 0 .48.026 1.05.079.57.052 1.073.077 1.51.077h.35c.06-.014.133-.025.22-.034.09-.006.228-.01.42-.01 1.026 0 1.708.37 2.047 1.107l.021.043 10.988 23.243c.087.19.182.332.286.426.103.095.203.143.305.143.103 0 .2-.052.295-.153.095-.102.203-.27.32-.504l11.621-23.465c.014-.028.044-.08.088-.155.202-.397.545-.596 1.025-.596h.937c.423 0 .91-.034 1.463-.101.552-.066.889-.1 1.004-.1.29 0 .52.052.688.156.167.103.252.25.252.441 0 .325-.28.57-.83.732h-.023a2.945 2.945 0 0 0-.644.142 1.67 1.67 0 0 0-.468.251c-.467.307-.794.675-.984 1.104-.189.43-.284 1.083-.284 1.956v.57l.459 20.094v.284c.044 2.214.576 3.576 1.597 4.085.203.102.51.212.918.329l.131.043h.023c.537.147.807.35.807.612a.524.524 0 0 1-.262.471c-.174.107-.43.162-.765.162-.334 0-1.023-.03-2.063-.09a45.718 45.718 0 0 0-2.589-.092c-.668 0-1.368.046-2.096.137a34.01 34.01 0 0 1-1.157.137c-.233 0-.403-.04-.513-.12-.11-.08-.164-.2-.164-.362 0-.203.054-.363.164-.48.11-.117.369-.24.776-.372.057-.014.123-.036.195-.065.074-.029.182-.08.328-.154.481-.232.82-.569 1.015-1.005.199-.437.296-1.137.296-2.1 0-.16-.007-.447-.022-.864a28.02 28.02 0 0 1-.022-.972l-.26-14.184c-.03-.789-.09-1.346-.177-1.675-.088-.329-.21-.492-.371-.492-.147 0-.32.125-.525.372-.203.248-.43.628-.677 1.138l-9.506 19.285c-.176.376-.34.641-.494.792-.15.153-.317.229-.49.229-.19 0-.366-.084-.527-.25-.161-.166-.313-.424-.46-.771l-9.236-19.723M412.031 25.991V6.57c0-1.267-.097-2.163-.296-2.688-.198-.524-.546-.969-1.043-1.332-.35-.293-.878-.503-1.578-.634h-.044c-.396-.074-.653-.163-.77-.266-.116-.103-.175-.258-.175-.465 0-.22.065-.377.197-.464.132-.089.364-.134.7-.134.103 0 .653.046 1.654.136.999.093 1.936.138 2.813.138 1.545 0 3.056-.076 4.53-.231.262-.029.416-.043.46-.043.205 0 .37.059.502.176a.537.537 0 0 1 .198.418c0 .175-.06.322-.185.439-.123.117-.418.242-.882.373-.393.118-.698.23-.916.34a3.047 3.047 0 0 0-.587.383 2.57 2.57 0 0 0-.794 1.182c-.154.468-.23 1.36-.23 2.672v19.466c0 1.281.102 2.205.306 2.772a3.01 3.01 0 0 0 1.071 1.42c.382.29.907.495 1.575.61a.346.346 0 0 0 .088.023c.394.059.656.139.786.24a.522.522 0 0 1 .198.437c0 .233-.062.393-.185.48-.125.088-.377.132-.758.132-.451 0-1.21-.045-2.275-.137-1.067-.09-1.921-.137-2.564-.137a39.39 39.39 0 0 0-4.182.229c-.29.03-.466.045-.524.045-.235 0-.414-.05-.537-.152a.498.498 0 0 1-.187-.41c0-.317.287-.592.855-.823a.4.4 0 0 1 .088-.022c.305-.1.579-.217.821-.35a3.97 3.97 0 0 0 .666-.46 3.35 3.35 0 0 0 .93-1.346c.183-.504.274-1.367.274-2.595M460.49 29.079a17.435 17.435 0 0 1-5.323 2.683c-1.94.597-4.08.894-6.417.894-4.718 0-8.44-1.414-11.17-4.245-2.731-2.831-4.096-6.69-4.096-11.577 0-2.467.39-4.743 1.17-6.829a16.287 16.287 0 0 1 3.45-5.536 13.047 13.047 0 0 1 4.732-3.239c1.798-.715 3.84-1.074 6.133-1.074 1.343 0 2.632.133 3.867.396 1.234.264 2.456.673 3.67 1.23.525.233 1.128.584 1.806 1.053.68.469 1.122.702 1.327.702.128 0 .312-.068.546-.208.232-.139.394-.209.481-.209.131 0 .234.074.308.22.073.146.125.372.153.679l.438 4.667a6.194 6.194 0 0 1 .044.899c0 .292-.038.492-.11.602-.074.11-.198.165-.372.165-.35 0-.717-.446-1.096-1.337-.264-.628-.497-1.11-.7-1.446-1.257-1.987-2.781-3.517-4.571-4.59-1.789-1.074-3.709-1.612-5.751-1.612-3.494 0-6.337 1.26-8.527 3.777-2.192 2.517-3.287 5.805-3.287 9.861 0 4.714 1.154 8.574 3.461 11.58 2.31 3.006 5.239 4.509 8.789 4.509 1.606 0 3.194-.313 4.756-.942a12.98 12.98 0 0 0 4.143-2.65c.57-.54 1.113-1.248 1.63-2.125.52-.876.905-1.315 1.153-1.315.115 0 .21.06.284.177a.814.814 0 0 1 .109.437c0 .059-.009.154-.031.285a4.313 4.313 0 0 1-.1.438l-.9 3.68M482.705 3.77v10.882c0 .41.139.687.417.833.278.146.964.219 2.06.219h.44c2.827 0 4.87-.497 6.13-1.489 1.26-.993 1.89-2.591 1.89-4.796 0-2.278-.75-4.058-2.25-5.343-1.502-1.284-3.585-1.927-6.248-1.927-.997 0-1.653.113-1.968.34-.315.226-.471.653-.471 1.281zm-3.478 22.221V6.55c0-1.263-.097-2.154-.295-2.678-.197-.522-.537-.97-1.017-1.348a2.73 2.73 0 0 0-.645-.359 5.502 5.502 0 0 0-.91-.25c-.379-.06-.623-.138-.733-.234-.11-.096-.163-.232-.163-.411 0-.251.053-.421.163-.511.11-.089.332-.134.67-.134.128 0 .68.04 1.65.117.97.08 1.872.118 2.707.118.32 0 1.237-.039 2.748-.118a79.648 79.648 0 0 1 4.022-.117c3.01 0 5.358.671 7.046 2.015C496.156 3.982 497 5.842 497 8.221a7.65 7.65 0 0 1-1.465 4.564c-.979 1.365-2.355 2.44-4.135 3.229l5.141 7.853c.133.204.323.488.572.852 2.116 3.25 3.737 5.157 4.863 5.725.308.161.72.292 1.238.393.52.103.779.27.779.503 0 .307-.157.517-.472.635-.312.115-.98.174-2.002.174-1.445 0-2.7-.374-3.764-1.124-1.065-.75-2.334-2.283-3.809-4.596l-4.68-7.402c-.455-.7-.947-1.182-1.482-1.445-.533-.262-1.501-.395-2.908-.395-.906 0-1.496.11-1.767.33-.271.218-.405.634-.405 1.248v7.27c0 1.295.112 2.222.339 2.784.227.56.625 1.028 1.196 1.407.381.278.957.481 1.734.611a.644.644 0 0 0 .11.023c.436.059.727.139.866.24.14.102.207.247.207.437 0 .233-.058.393-.175.48-.117.088-.342.132-.678.132-.192 0-.84-.045-1.95-.137a37.658 37.658 0 0 0-3.065-.137c-1.548 0-3.052.077-4.512.229a6.36 6.36 0 0 1-.48.045c-.22 0-.392-.05-.516-.152a.498.498 0 0 1-.186-.41c0-.318.3-.592.899-.823l.066-.022c.305-.1.584-.217.83-.35a3.09 3.09 0 0 0 .656-.46c.438-.378.745-.81.921-1.292.173-.481.26-1.364.26-2.649M519.052 15.067c0 1.78.244 3.52.733 5.22a20.622 20.622 0 0 0 2.18 4.957c1.196 2 2.664 3.513 4.399 4.541 1.738 1.03 3.695 1.544 5.87 1.544 3.84 0 6.88-1.24 9.12-3.722 2.242-2.48 3.362-5.857 3.362-10.132 0-1.781-.292-3.594-.876-5.439a19.31 19.31 0 0 0-2.498-5.132c-1.18-1.752-2.61-3.08-4.28-3.984-1.672-.905-3.552-1.358-5.64-1.358-3.722 0-6.713 1.234-8.976 3.7-2.264 2.465-3.394 5.734-3.394 9.805zm-3.36 1.37c0-2.203.407-4.308 1.217-6.315a16.352 16.352 0 0 1 3.537-5.372 15.385 15.385 0 0 1 5.181-3.535C527.575.406 529.66 0 531.882 0c2.44 0 4.645.395 6.625 1.182a14.793 14.793 0 0 1 5.225 3.524c1.402 1.46 2.483 3.17 3.243 5.133.759 1.962 1.14 4.045 1.14 6.248 0 2.13-.351 4.17-1.053 6.118-.7 1.948-1.693 3.659-2.978 5.133-1.577 1.793-3.397 3.162-5.457 4.102-2.057.941-4.277 1.412-6.657 1.412-4.849 0-8.775-1.513-11.775-4.54-3.003-3.028-4.503-6.986-4.503-11.875M563.34 29.49l-.978-5.024a2.142 2.142 0 0 1-.065-.33 4.091 4.091 0 0 1-.02-.482c0-.248.042-.431.13-.548.085-.117.217-.176.39-.176.32 0 .645.461.98 1.383.288.833.57 1.528.847 2.083.7 1.405 1.742 2.513 3.132 3.324 1.386.813 2.949 1.218 4.685 1.218 2.263 0 4.078-.624 5.444-1.874 1.365-1.25 2.049-2.898 2.049-4.945 0-1.696-.508-3.03-1.524-4.001-1.015-.973-2.993-1.89-5.928-2.753-3.486-1.021-5.893-2.2-7.228-3.536-1.334-1.335-2-3.155-2-5.463 0-2.422.908-4.396 2.725-5.921 1.816-1.525 4.19-2.289 7.123-2.289 1.634 0 3.372.364 5.21 1.089.497.19.81.284.94.284.203 0 .44-.079.705-.239.27-.16.43-.24.49-.24.07 0 .135.059.194.175.056.115.094.26.108.435l.625 5.474c.015.074.025.154.032.241.008.088.011.204.011.35 0 .219-.043.38-.13.481-.086.103-.216.154-.39.154-.33 0-.62-.342-.866-1.029-.244-.686-.502-1.24-.779-1.663-.935-1.49-1.952-2.56-3.056-3.208-1.104-.65-2.437-.975-4-.975-1.914 0-3.497.53-4.755 1.589-1.255 1.057-1.882 2.382-1.882 3.974 0 1.43.397 2.55 1.193 3.362.797.81 2.595 1.668 5.4 2.573 2.35.73 3.998 1.317 4.944 1.763.948.445 1.708.93 2.276 1.457.977.89 1.7 1.905 2.165 3.043.467 1.139.702 2.445.702 3.92 0 2.877-.987 5.158-2.955 6.844s-4.658 2.53-8.072 2.53c-2.098 0-3.896-.295-5.39-.882-1.493-.59-2.322-1.31-2.482-2.168M600.561 15.067c0 1.78.244 3.52.733 5.22a20.622 20.622 0 0 0 2.18 4.957c1.196 2 2.663 3.513 4.4 4.541 1.737 1.03 3.693 1.544 5.868 1.544 3.84 0 6.88-1.24 9.122-3.722 2.24-2.48 3.36-5.857 3.36-10.132 0-1.781-.292-3.594-.875-5.439a19.31 19.31 0 0 0-2.498-5.132c-1.181-1.752-2.61-3.08-4.28-3.984-1.672-.905-3.552-1.358-5.64-1.358-3.722 0-6.714 1.234-8.976 3.7-2.264 2.465-3.394 5.734-3.394 9.805zm-3.36 1.37c0-2.203.406-4.308 1.216-6.315a16.352 16.352 0 0 1 3.538-5.372 15.385 15.385 0 0 1 5.181-3.535C609.084.406 611.17 0 613.391 0c2.439 0 4.645.395 6.625 1.182a14.793 14.793 0 0 1 5.225 3.524c1.401 1.46 2.483 3.17 3.243 5.133.758 1.962 1.14 4.045 1.14 6.248 0 2.13-.352 4.17-1.053 6.118-.7 1.948-1.694 3.659-2.979 5.133-1.576 1.793-3.396 3.162-5.456 4.102-2.057.941-4.277 1.412-6.657 1.412-4.85 0-8.775-1.513-11.775-4.54-3.003-3.028-4.503-6.986-4.503-11.875M647.419 25.996V6.562c0-1.265-.1-2.16-.295-2.683-.198-.524-.538-.975-1.02-1.353a3.108 3.108 0 0 0-.665-.36 5.33 5.33 0 0 0-.93-.251c-.382-.059-.628-.136-.745-.233-.117-.096-.173-.232-.173-.41.014-.266.075-.442.185-.53.11-.09.333-.14.666-.156.06 0 .264.014.614.043 2.304.155 4.734.231 7.288.231h2.108c1.84 0 3.778-.068 5.82-.203 2.044-.135 3.168-.202 3.373-.202.305 0 .51.06.612.177.103.118.154.347.154.685 0 .06-.01.155-.025.288-.014.132-.021.25-.021.352l-.345 3.668c-.029.349-.088.592-.173.73a.425.425 0 0 1-.386.207c-.185 0-.322-.068-.407-.207-.085-.138-.128-.338-.128-.6 0-.058.005-.145.02-.263.015-.115.023-.195.023-.238 0-1.093-.392-1.857-1.173-2.294-.781-.436-2.214-.655-4.301-.655h-3.13c-1.48 0-2.428.124-2.845.371-.418.248-.625.721-.625 1.419v9.231c0 .805.091 1.293.274 1.461.183.168.603.253 1.262.253h3.686c1.383 0 2.383-.11 3.002-.33.62-.22 1.11-.594 1.473-1.121.147-.219.305-.618.482-1.197.173-.578.415-.868.72-.868.176 0 .29.062.35.187.057.124.087.406.087.845 0 .249-.03.845-.086 1.79a41.14 41.14 0 0 0-.088 2.449c0 .644.047 1.292.142 1.944.093.651.142.991.142 1.021 0 .262-.064.486-.186.669-.121.183-.271.275-.444.275-.361 0-.594-.359-.696-1.075-.07-.513-.151-.887-.236-1.12a2.288 2.288 0 0 0-1.314-1.328c-.628-.255-1.626-.384-2.998-.384h-4.256c-.556 0-.912.084-1.074.253-.16.169-.242.575-.242 1.217v7.773c0 1.28.105 2.204.317 2.77.213.567.574 1.04 1.088 1.417.38.29.907.495 1.581.61a.359.359 0 0 0 .088.023c.396.059.655.135.78.229.123.096.195.245.208.448 0 .233-.062.393-.187.48-.123.088-.374.132-.754.132-.422 0-1.19-.045-2.297-.137a34.372 34.372 0 0 0-2.692-.137c-1.137 0-2.31.077-3.522.229-.249.03-.403.045-.459.045-.205 0-.361-.054-.471-.163-.11-.107-.164-.255-.164-.442 0-.144.049-.274.151-.39.103-.115.32-.253.655-.412.247-.1.47-.217.664-.35.198-.13.374-.283.534-.458.365-.423.621-.905.775-1.444.151-.54.229-1.37.229-2.494M690.024 26.409V3.775c0-.425-.09-.716-.274-.878-.18-.16-.505-.24-.971-.24h-6.23c-.804 0-1.463.198-1.98.592-.518.393-.982 1.052-1.39 1.972-.103.25-.217.616-.347 1.101-.187.72-.44 1.085-.758 1.1-.174-.015-.29-.058-.345-.132-.06-.074-.088-.228-.088-.464 0-.176.003-.322.01-.44a5.82 5.82 0 0 1 .031-.332l.467-4.515c.043-.389.14-.645.296-.768.154-.124.551-.185 1.194-.185.187 0 .87.046 2.045.136 1.175.093 2.25.138 3.227.138h14.004c1.09 0 2.266-.045 3.536-.138 1.266-.09 1.996-.136 2.185-.136.305 0 .529.061.674.184.146.122.231.321.261.594l.313 4.076v.307c0 .293-.044.508-.13.647-.088.14-.227.208-.415.208-.32 0-.53-.292-.633-.877-.1-.584-.217-.993-.346-1.228-.29-.583-.758-1.037-1.396-1.358-.638-.322-1.38-.483-2.223-.483h-5.815c-.544 0-.91.081-1.101.241-.19.162-.285.47-.285.922v22.766c0 1.359.115 2.262.341 2.707.228.447.676.815 1.353 1.108.337.161.79.299 1.365.416.073.014.13.029.176.044.395.057.651.134.769.227.117.094.175.235.175.422 0 .231-.08.4-.242.508-.16.108-.41.163-.745.163-.366 0-1.117-.051-2.257-.153a33.378 33.378 0 0 0-2.851-.152c-1.012 0-2.072.066-3.182.196-1.11.13-1.718.195-1.82.195-.262 0-.472-.054-.626-.162a.514.514 0 0 1-.23-.444c0-.23.08-.404.239-.519.161-.115.511-.209 1.05-.281.059-.015.13-.03.217-.044.51-.117.89-.227 1.135-.33.628-.276 1.053-.635 1.278-1.072.226-.439.339-1.44.339-3.005M335.702 100.029V53.743c0-3.033-.235-5.178-.705-6.433s-1.296-2.317-2.48-3.19c-.837-.696-2.09-1.202-3.76-1.517h-.105c-.94-.173-1.55-.38-1.828-.625-.28-.243-.418-.608-.418-1.094 0-.52.156-.884.469-1.094.312-.207.869-.312 1.669-.312.242 0 1.555.117 3.935.352 2.38.234 4.613.351 6.7.351 3.685 0 7.28-.197 10.79-.593.626-.073.99-.11 1.096-.11.486 0 .886.14 1.199.42.312.28.47.613.47.997 0 .42-.148.77-.443 1.05-.296.281-.999.578-2.11.893-.937.278-1.667.548-2.187.81-.522.26-.99.565-1.407.912a6.12 6.12 0 0 0-1.9 2.817c-.365 1.114-.547 3.236-.547 6.366v46.39c0 3.082.244 5.307.731 6.673.488 1.365 1.34 2.503 2.559 3.414.906.7 2.16 1.191 3.761 1.471a.842.842 0 0 0 .209.053c.94.138 1.566.326 1.88.569.312.24.47.584.47 1.032 0 .552-.149.93-.445 1.135-.295.208-.896.31-1.799.31-1.08 0-2.889-.105-5.427-.313-2.54-.207-4.575-.312-6.107-.312-3.27 0-6.592.176-9.966.522-.696.07-1.114.103-1.252.103-.558 0-.985-.125-1.28-.369-.295-.246-.443-.584-.443-1.006 0-.776.679-1.445 2.038-2.009a.916.916 0 0 1 .208-.054 11.71 11.71 0 0 0 1.96-.834 9.227 9.227 0 0 0 1.592-1.097c1.045-.937 1.785-2.006 2.22-3.207.435-1.199.653-3.263.653-6.185M368.391 96.65l.886-27.885c.034-.662.06-1.377.078-2.146.017-.767.025-1.866.025-3.296 0-4.883-.358-8.66-1.068-11.328-.712-2.668-1.883-4.822-3.516-6.461-1.189-1.143-2.78-2.018-4.771-2.624-1.993-.608-2.989-1.293-2.989-2.054 0-.45.131-.771.394-.961.261-.191.779-.304 1.549-.339.173 0 .787.043 1.837.126a34.87 34.87 0 0 0 2.783.127h2.865c1.042 0 1.756.086 2.138.256.382.171.782.497 1.2.975l51.082 57.336c.348.349.602.577.758.682.157.104.29.156.394.156.103 0 .18-.15.234-.444.051-.299.079-.76.079-1.388V60.864c0-5.441-.29-9.304-.863-11.589-.576-2.285-1.562-3.88-2.956-4.788-1.186-.726-2.774-1.322-4.761-1.79-1.99-.466-2.983-1.046-2.983-1.74 0-.38.121-.708.366-.986.244-.276.523-.415.837-.415.207 0 1.262.144 3.162.43 1.899.286 3.735.429 5.513.429 1.987 0 4.137-.143 6.455-.429 2.317-.286 3.616-.43 3.893-.43.663.034 1.168.164 1.517.388.348.223.522.525.522.902 0 .379-.095.68-.287.904-.192.225-.635.456-1.334.696l-.105.054c-.871.279-1.533.61-1.985.992-.976.874-1.709 2.155-2.196 3.847-.49 1.692-.733 3.81-.733 6.357v58.875c0 1.15-.096 1.897-.286 2.245-.19.347-.513.521-.964.521-.245 0-.52-.105-.832-.317-.313-.212-.68-.567-1.094-1.06l-47.965-54.3a7.377 7.377 0 0 0-.731-.732c-.245-.21-.384-.314-.418-.314-.174 0-.322.105-.445.314-.122.21-.2.506-.234.889l-.95 37.775c0 .591-.017 1.358-.05 2.298-.037.94-.055 1.601-.055 1.985 0 2.925.305 5.022.915 6.292.612 1.272 1.737 2.324 3.374 3.16.696.348 1.708.59 3.033.73h.105c.8.07 1.333.2 1.595.39.26.192.392.494.392.912 0 .52-.149.877-.444 1.067-.296.19-.967.286-2.012.286-.593 0-2.249-.091-4.965-.273-2.718-.182-5.123-.274-7.211-.274-1.222 0-2.563.092-4.025.274-1.464.182-2.3.273-2.51.273-.522 0-.888-.086-1.097-.257-.21-.172-.313-.431-.313-.776 0-.825.695-1.496 2.083-2.014h.052a.407.407 0 0 1 .156-.051c1.041-.315 1.822-.628 2.344-.943 2.812-1.742 4.322-6.26 4.532-13.55v-.471M452.211 102.984c0 1.29.086 2.26.261 2.905.174.645.453 1.108.835 1.386 1.324 1.011 3.482 1.865 6.475 2.564 2.995.698 6.148 1.045 9.455 1.045 9.575 0 16.957-2.685 22.144-8.056 5.189-5.372 7.784-13.048 7.784-23.023 0-11.44-3.301-20.527-9.898-27.26-6.6-6.731-15.522-10.099-26.767-10.099-4.214 0-6.98.438-8.304 1.309-1.322.872-1.985 2.721-1.985 5.546v53.683zm-8.437-.994V51.76c0-2.608-.254-4.46-.762-5.556-.505-1.097-1.406-2.027-2.697-2.792-.665-.382-1.641-.712-2.933-.99a1.798 1.798 0 0 0-.263-.053c-.943-.174-1.553-.364-1.834-.573-.278-.207-.418-.52-.418-.937 0-.347.208-.652.628-.913.417-.259.957-.39 1.621-.39.034 0 1.228.078 3.581.234 2.354.156 4.68.235 6.98.235 1.778 0 4.698-.079 8.76-.235 4.06-.156 7.224-.234 9.49-.234 12.83 0 22.903 3.234 30.225 9.699 7.32 6.466 10.982 15.381 10.982 26.744 0 11.71-3.732 21.076-11.188 28.1-7.457 7.023-17.46 10.535-30.006 10.535-3.45 0-7.205-.105-11.265-.313-4.06-.207-6.421-.312-7.083-.312-2.126 0-4.252.21-6.38.625-2.126.417-3.205.625-3.238.625-.49 0-.934-.15-1.334-.444-.4-.301-.6-.606-.6-.922 0-.487.172-.89.522-1.206.347-.315 1.028-.63 2.04-.943.138-.07.345-.157.624-.262.976-.416 1.655-.799 2.038-1.147a6.262 6.262 0 0 0 1.933-2.894c.384-1.165.577-2.984.577-5.45M519.411 73.962c0 4.248.584 8.4 1.753 12.455 1.167 4.054 2.903 7.997 5.205 11.826 2.86 4.77 6.367 8.383 10.517 10.837 4.154 2.454 8.829 3.679 14.026 3.679 9.175 0 16.44-2.96 21.795-8.878 5.354-5.917 8.032-13.976 8.032-24.176 0-4.246-.698-8.57-2.094-12.974a46.114 46.114 0 0 0-5.965-12.247c-2.828-4.177-6.235-7.345-10.229-9.503-3.995-2.158-8.486-3.237-13.475-3.237-8.896 0-16.047 2.941-21.455 8.824-5.407 5.884-8.11 13.683-8.11 23.394zm-7.969 3.277c0-5.261.967-10.286 2.903-15.076 1.936-4.79 4.751-9.067 8.447-12.829 3.592-3.693 7.718-6.506 12.373-8.44 4.656-1.934 9.635-2.9 14.935-2.9 5.825 0 11.099.941 15.825 2.822 4.724 1.882 8.884 4.685 12.475 8.413 3.347 3.484 5.929 7.57 7.742 12.255 1.814 4.685 2.722 9.659 2.722 14.917 0 5.088-.837 9.956-2.512 14.608-1.675 4.65-4.046 8.735-7.115 12.252-3.766 4.288-8.107 7.554-13.025 9.8-4.916 2.247-10.218 3.37-15.902 3.37-11.58 0-20.953-3.614-28.118-10.842-7.168-7.23-10.75-16.68-10.75-28.35M615.769 114.712l-26.555-64.16c-.804-1.876-1.64-3.423-2.51-4.638-.872-1.217-1.778-2.119-2.718-2.71-.349-.174-.905-.383-1.672-.627a4.086 4.086 0 0 1-.367-.103l-.053-.052c-1.323-.346-1.985-.867-1.985-1.563 0-.417.163-.729.496-.938.332-.207.881-.33 1.647-.365a12 12 0 0 1 .94.099c2.718.299 5.367.447 7.948.447 1.74 0 3.517-.09 5.331-.272 1.811-.183 2.751-.274 2.823-.274.59 0 1.045.114 1.357.339.315.226.471.547.471.965 0 .312-.715.877-2.143 1.694s-2.144 1.99-2.144 3.518c0 .627.149 1.435.445 2.424.295.992.759 2.216 1.386 3.676l20.01 47.8c.21.523.444.934.705 1.23.261.296.514.443.758.443.243 0 .505-.156.783-.469.278-.315.523-.715.733-1.203l8.364-20.386c.138-.312.243-.634.315-.967a5.263 5.263 0 0 0 .027-1.96 5.982 5.982 0 0 0-.237-.994l-10.405-25.115c-.767-1.84-1.593-3.386-2.48-4.637-.887-1.25-1.8-2.154-2.74-2.71-.94-.52-2.142-.842-3.604-.963-1.463-.122-2.193-.547-2.193-1.277.035-.487.218-.834.548-1.043.332-.207.861-.33 1.594-.365.173 0 1.446.091 3.813.274 2.37.182 4.634.272 6.795.272 1.635 0 3.35-.09 5.144-.272 1.794-.183 2.779-.274 2.954-.274.556 0 .967.088 1.229.261.26.174.39.452.39.834 0 .384-.733.914-2.195 1.59-1.465.679-2.198 1.676-2.198 2.998 0 .765.133 1.626.394 2.58.261.956.776 2.407 1.542 4.353l5.438 12.83c.174.454.339.784.497.994.157.21.287.312.392.312.105 0 .2-.068.287-.207.089-.14.235-.454.445-.942l2.249-5.25c1.566-3.826 2.675-6.8 3.32-8.923.644-2.122.966-3.792.966-5.01 0-1.009-.322-1.817-.966-2.427-.645-.609-1.716-1.07-3.215-1.383-.978-.209-1.649-.426-2.015-.652-.366-.227-.549-.514-.549-.862 0-.382.156-.66.471-.835.313-.173.838-.26 1.57-.26.488 0 1.41.067 2.773.198.14 0 .242.017.312.05.28 0 .768.034 1.465.099 1.71.133 3.053.198 4.03.198 1.464 0 3.14-.115 5.02-.347a5.61 5.61 0 0 0 .733-.1c.14 0 .289-.016.445-.049.156-.032.305-.05.444-.05.56 0 .97.105 1.23.314.262.209.393.539.393.99 0 .661-.532 1.192-1.596 1.592-1.065.402-1.77.74-2.12 1.017-.836.731-1.719 1.922-2.644 3.574-.925 1.653-2.38 4.896-4.37 9.73L637.61 70.7a3.606 3.606 0 0 0-.235.81c-.054.295-.078.6-.078.913 0 .281.034.57.105.864.068.296.173.584.313.862l10.835 25.823c.207.522.444.933.705 1.228.261.297.532.444.81.444.21 0 .437-.147.681-.444.245-.295.469-.706.679-1.228l14.89-36.328c1.67-4.083 2.96-7.695 3.865-10.835.906-3.14 1.357-5.46 1.357-6.961 0-.698-.278-1.353-.835-1.963-.556-.61-1.27-1.02-2.14-1.23a4.568 4.568 0 0 0-.603-.156 3.32 3.32 0 0 0-.602-.054c-1.045-.24-1.713-.48-2.008-.722-.298-.24-.444-.568-.444-.98 0-.413.129-.705.39-.878.261-.172.845-.276 1.75-.31.174 0 .532.018 1.072.05a23.52 23.52 0 0 0 1.384.049c1.045.166 2.046.284 3.004.349.956.066 1.924.098 2.9.098 1.462 0 3.097-.115 4.91-.347.349-.033.61-.065.784-.1.105 0 .233-.016.392-.049.156-.032.34-.05.548-.05.556 0 .966.105 1.227.314.261.209.393.539.393.99 0 .556-.462 1.087-1.384 1.591-.923.506-1.543.896-1.855 1.175-1.36 1.391-3.468 5.495-6.321 12.312l-.315.73-24.5 58.253c-.21.52-.457.902-.734 1.145a1.415 1.415 0 0 1-.948.365c-.245 0-.508-.147-.786-.442-.281-.295-.525-.72-.735-1.277L633.637 84.66c-.21-.49-.366-.811-.47-.968-.106-.156-.228-.236-.367-.236-.139 0-.295.105-.471.315-.174.21-.33.487-.47.835l-12.653 30.316c-.244.52-.505.902-.781 1.145a1.395 1.395 0 0 1-.938.365c-.348 0-.668-.147-.965-.442-.295-.295-.546-.72-.753-1.277M687.595 108.374l-2.344-11.958a5.239 5.239 0 0 1-.156-.784 10.067 10.067 0 0 1-.051-1.15c0-.59.102-1.025.312-1.303.208-.28.523-.42.94-.42.766 0 1.55 1.098 2.351 3.29.695 1.986 1.374 3.638 2.037 4.962 1.67 3.341 4.165 5.982 7.477 7.913 3.31 1.933 7.041 2.897 11.189 2.897 5.402 0 9.731-1.486 12.991-4.465 3.259-2.979 4.89-6.907 4.89-11.782 0-4.04-1.214-7.219-3.635-9.537-2.422-2.316-7.136-4.502-14.141-6.557-8.333-2.439-14.094-5.254-17.283-8.443-3.19-3.19-4.785-7.539-4.785-13.046 0-5.786 2.168-10.5 6.51-14.144 4.34-3.642 10.014-5.463 17.02-5.463 3.904 0 8.052.876 12.444 2.626 1.184.455 1.934.682 2.249.682.486 0 1.05-.19 1.694-.577.645-.385 1.036-.578 1.175-.578.173 0 .33.142.468.42.14.28.228.63.262 1.048l1.51 13.063c.035.174.062.366.078.574.018.21.028.489.028.837 0 .522-.105.906-.315 1.15-.208.244-.52.365-.938.365-.8 0-1.493-.818-2.085-2.455-.59-1.637-1.218-2.961-1.877-3.972-2.231-3.552-4.664-6.103-7.295-7.655-2.631-1.55-5.81-2.325-9.541-2.325-4.565 0-8.348 1.264-11.345 3.79-2.998 2.526-4.495 5.688-4.495 9.486 0 3.414.95 6.09 2.85 8.023 1.898 1.933 6.196 3.98 12.887 6.14 5.613 1.742 9.551 3.146 11.816 4.209 2.267 1.064 4.08 2.224 5.44 3.479 2.334 2.126 4.06 4.549 5.175 7.268 1.117 2.72 1.675 5.842 1.675 9.363 0 6.867-2.352 12.316-7.06 16.342-4.707 4.03-11.14 6.04-19.297 6.04-5.019 0-9.316-.707-12.89-2.126-3.574-1.418-5.553-3.16-5.935-5.227M232.214 111.767L193.277 17.72c-1.175-2.759-2.402-5.033-3.678-6.823-1.278-1.788-2.605-3.117-3.985-3.986-.512-.255-1.33-.561-2.454-.92a7.093 7.093 0 0 1-.535-.154l-.078-.076c-1.94-.51-2.912-1.277-2.912-2.3 0-.612.242-1.072.727-1.379.487-.307 1.29-.486 2.415-.537.154 0 .613.052 1.38.156 3.985.469 7.868.703 11.65.703 2.554 0 5.16-.143 7.818-.429 2.656-.286 4.035-.43 4.137-.43.87 0 1.534.166 1.994.497.459.333.69.807.69 1.42 0 .46-1.047 1.29-3.142 2.49-2.095 1.202-3.143 2.927-3.143 5.175 0 .92.216 2.108.651 3.564.434 1.459 1.11 3.259 2.032 5.405l29.37 70.058c.307.766.652 1.367 1.036 1.801.384.435.754.652 1.112.652.357 0 .74-.23 1.15-.688.408-.462.765-1.05 1.073-1.765l12.257-29.893a7.1 7.1 0 0 0 .613-2.99c0-.358-.039-.792-.115-1.304a8.71 8.71 0 0 0-.344-1.456L237.751 17.72c-1.125-2.708-2.341-4.981-3.645-6.823-1.305-1.84-2.647-3.168-4.027-3.986-1.383-.766-3.148-1.24-5.297-1.419-2.147-.177-3.222-.805-3.222-1.877.051-.715.319-1.226.805-1.533.485-.307 1.264-.486 2.339-.537.255 0 2.12.144 5.596.43 3.476.286 6.799.429 9.967.429 2.403 0 4.92-.143 7.552-.429 2.632-.286 4.076-.43 4.332-.43.818 0 1.419.127 1.801.384.384.256.575.665.575 1.226 0 .562-1.072 1.342-3.217 2.339-2.146.996-3.218 2.466-3.218 4.406 0 1.125.19 2.39.574 3.794.383 1.406 1.136 3.54 2.26 6.402l7.968 18.779c.255.664.498 1.15.727 1.456.23.308.421.46.575.46.153 0 .294-.101.421-.306.128-.205.345-.665.652-1.38l3.295-7.668c2.296-5.62 3.918-9.988 4.863-13.107.945-3.116 1.418-5.569 1.418-7.358 0-1.482-.473-2.67-1.418-3.563-.945-.894-2.516-1.572-4.71-2.033-1.432-.305-2.415-.625-2.95-.956-.537-.333-.805-.755-.805-1.265 0-.561.23-.97.69-1.226.46-.257 1.225-.384 2.3-.384.715 0 2.07.105 4.06.312.204 0 .358.027.46.078.41 0 1.124.052 2.147.156 2.502.209 4.47.313 5.9.313 2.147 0 4.6-.182 7.358-.547.51-.05.868-.103 1.073-.156.205 0 .422-.026.652-.079.23-.05.447-.077.652-.077.816 0 1.417.154 1.8.46.383.306.575.792.575 1.456 0 .971-.78 1.751-2.34 2.338-1.558.588-2.593 1.086-3.103 1.493-1.226 1.075-2.517 2.825-3.872 5.253-1.355 2.426-3.49 7.191-6.402 14.294l-8.656 20.39a5.43 5.43 0 0 0-.345 1.19 7.743 7.743 0 0 0-.115 1.34c0 .409.05.83.153 1.264.102.435.255.857.46 1.265l15.87 37.866c.306.766.65 1.368 1.033 1.801.384.435.78.652 1.19.652.304 0 .637-.217.994-.652.358-.433.69-1.035.998-1.801L306.32 36.88c2.45-5.977 4.339-11.265 5.666-15.864 1.328-4.598 1.991-7.997 1.991-10.193 0-1.023-.408-1.98-1.226-2.874-.816-.894-1.862-1.495-3.139-1.803a6.645 6.645 0 0 0-.88-.228 4.912 4.912 0 0 0-.882-.078c-1.531-.357-2.514-.715-2.948-1.074-.435-.357-.65-.843-.65-1.457 0-.614.19-1.049.574-1.305.383-.255 1.238-.409 2.565-.46.255 0 .779.026 1.57.077a31.37 31.37 0 0 0 2.03.08c1.531.26 3 .442 4.404.545 1.404.106 2.819.157 4.25.157 2.144 0 4.544-.181 7.199-.546.51-.052.892-.104 1.148-.157.153 0 .344-.026.574-.079.229-.05.498-.077.804-.077.817 0 1.416.154 1.8.46.382.307.575.792.575 1.456 0 .818-.678 1.598-2.03 2.339-1.353.741-2.26 1.316-2.719 1.724-1.992 2.045-5.081 8.075-9.266 18.09l-.459 1.072-35.917 85.387c-.308.76-.667 1.318-1.077 1.675-.41.353-.87.532-1.382.532-.359 0-.743-.217-1.153-.648-.41-.43-.768-1.054-1.076-1.864l-18.232-44.073c-.307-.715-.535-1.186-.69-1.416-.154-.23-.332-.346-.535-.346-.205 0-.435.153-.69.461-.255.305-.485.715-.69 1.226l-18.538 44.453c-.359.76-.745 1.318-1.155 1.675-.41.353-.871.532-1.384.532-.512 0-.987-.217-1.423-.648-.437-.43-.808-1.054-1.115-1.864M707.631 25.625h.701c.815 0 1.443-.158 1.883-.471.439-.314.659-.764.659-1.35 0-.51-.19-.918-.572-1.22-.38-.304-.9-.455-1.557-.455-.359 0-.633.065-.825.196a.644.644 0 0 0-.289.569v2.731zm-2.62-3.849h4.051c1.01 0 1.807.186 2.385.558.582.37.872.867.872 1.492 0 .515-.234.935-.705 1.261-.472.327-1.23.59-2.274.79.645.212 1.131.483 1.457.813.325.331.565.791.717 1.381.04.159.085.379.133.661.095.584.295.877.6.877.253 0 .438-.11.558-.329.121-.22.18-.558.18-1.016h.42v.123c0 .592-.136 1.044-.41 1.357-.276.313-.674.47-1.194.47-.31 0-.581-.063-.812-.19a1.06 1.06 0 0 1-.497-.529c-.11-.263-.168-.648-.175-1.154-.005-.507-.037-.85-.09-1.03-.145-.455-.398-.792-.757-1.01-.361-.216-.848-.325-1.458-.325-.04 0-.105.004-.19.01a2.97 2.97 0 0 1-.19.01v2.546c0 .387.1.658.297.813.2.156.55.24 1.05.254v.41h-3.968v-.41c.516-.022.87-.107 1.063-.259.192-.151.288-.421.288-.808v-5.307c0-.386-.096-.654-.288-.801-.193-.149-.547-.23-1.063-.244v-.414zm3.858-2.167a6.2 6.2 0 0 0-2.432.495c-.78.33-1.47.797-2.057 1.402a6.369 6.369 0 0 0-1.866 4.514c0 .859.16 1.675.483 2.449a6.36 6.36 0 0 0 1.402 2.066 6.34 6.34 0 0 0 2.043 1.407 6.096 6.096 0 0 0 2.405.48c.86 0 1.673-.162 2.442-.486a5.96 5.96 0 0 0 2.028-1.401 6.735 6.735 0 0 0 1.39-2.103 6.232 6.232 0 0 0 .483-2.412c0-.838-.166-1.661-.498-2.469a6.37 6.37 0 0 0-1.375-2.087 6.298 6.298 0 0 0-2.05-1.37 6.165 6.165 0 0 0-2.398-.485zm.01-.782c.94 0 1.85.184 2.73.552a7.15 7.15 0 0 1 2.328 1.562 7.032 7.032 0 0 1 1.54 2.326 7.14 7.14 0 0 1 0 5.507 7.205 7.205 0 0 1-1.58 2.346 6.958 6.958 0 0 1-2.323 1.551 7.247 7.247 0 0 1-2.76.531c-.945 0-1.85-.18-2.71-.54a7.28 7.28 0 0 1-2.315-1.563 7.054 7.054 0 0 1-1.573-2.32 7.08 7.08 0 0 1-.541-2.754 7.163 7.163 0 0 1 2.091-5.084 7.194 7.194 0 0 1 5.113-2.114"/>
    </g>
</svg>
