<?xml version="1.0" encoding="UTF-8" standalone="no"?>
<!-- Generator: Adobe Illustrator 12.0.0, SVG Export Plug-In . SVG Version: 6.00 Build 51448)  -->

<svg
   xmlns:dc="http://purl.org/dc/elements/1.1/"
   xmlns:cc="http://creativecommons.org/ns#"
   xmlns:rdf="http://www.w3.org/1999/02/22-rdf-syntax-ns#"
   xmlns:svg="http://www.w3.org/2000/svg"
   xmlns="http://www.w3.org/2000/svg"
   xmlns:sodipodi="http://sodipodi.sourceforge.net/DTD/sodipodi-0.dtd"
   xmlns:inkscape="http://www.inkscape.org/namespaces/inkscape"
   version="1.1"
   id="Layer_1"
   width="857.52942"
   height="1000"
   viewBox="0 0 857.52942 999.99992"
   overflow="visible"
   enable-background="new 0 0 499.524 554.546"
   xml:space="preserve"
   inkscape:version="0.92.3 (2405546, 2018-03-11)"
   sodipodi:docname="Apple_Computer_Logo_rainbow.svg"
   style="overflow:visible"><metadata
   id="metadata25"><rdf:RDF><cc:Work
       rdf:about=""><dc:format>image/svg+xml</dc:format><dc:type
         rdf:resource="http://purl.org/dc/dcmitype/StillImage" /><dc:title /></cc:Work></rdf:RDF></metadata><defs
   id="defs23">
	
		
	
		
	
		
	
		
	
		
	
		
	
	
		
</defs><sodipodi:namedview
   pagecolor="#ffffff"
   bordercolor="#666666"
   borderopacity="1"
   objecttolerance="10"
   gridtolerance="10"
   guidetolerance="10"
   inkscape:pageopacity="0"
   inkscape:pageshadow="2"
   inkscape:window-width="1366"
   inkscape:window-height="705"
   id="namedview21"
   showgrid="false"
   showguides="true"
   inkscape:guide-bbox="true"
   inkscape:zoom="0.35355339"
   inkscape:cx="133.91148"
   inkscape:cy="523.10319"
   inkscape:window-x="-8"
   inkscape:window-y="-8"
   inkscape:window-maximized="1"
   inkscape:current-layer="Layer_1" />
<g
   id="g20"
   transform="matrix(0.85752944,0,0,0.85752944,3.0868567e-8,-2.5012789e-4)"><path
     stroke-miterlimit="2.6131"
     d="m 54.232461,423.0098 c 0.348572,-0.57566 0.718141,-1.14287 1.087711,-1.69954 59.733848,-92.35557 153.959488,-146.41011 242.568088,-146.41011 90.22756,0 146.94605,49.66861 221.52778,49.66861 72.36642,0 116.44394,-49.74031 220.75925,-49.74031 78.81501,0 162.37771,43.09815 221.89737,117.62109 -16.45637,9.05021 -31.30215,19.32551 -44.57099,30.6193 l -863.269209,-0.0589 v 0 z"
     id="path5"
     inkscape:connector-curvature="0"
     style="clip-rule:evenodd;fill:#61bb46;fill-rule:evenodd;stroke:#61bb46;stroke-width:6.28089046;stroke-miterlimit:2.61310005" /><path
     stroke-miterlimit="2.6131"
     d="M 661.04954,191.61588 C 698.91366,142.78229 727.71491,73.83032 717.27665,3.33274 655.36949,7.59427 582.96107,47.17312 540.66841,98.6952 c -38.37648,46.8051 -70.05869,116.22095 -57.7243,183.65049 67.5872,2.11073 137.50311,-38.41488 178.10543,-90.72981 z"
     id="path7"
     inkscape:connector-curvature="0"
     style="clip-rule:evenodd;fill:#61bb46;fill-rule:evenodd;stroke:#61bb46;stroke-width:6.28089046;stroke-miterlimit:2.61310005" /><path
     stroke-miterlimit="2.6131"
     d="M 51.151054,421.64891 C 25.42683,462.11947 7.6276563,520.12542 2.9042342,571.00351 l 834.5498858,-0.0215 c 9.02332,-55.66242 39.02667,-108.84145 86.58225,-149.27157 l -872.885316,-0.0615 h 0.04925 z"
     id="path9"
     style="clip-rule:evenodd;fill:#fdb827;fill-rule:evenodd;stroke:none;stroke-miterlimit:2.61310005"
     inkscape:connector-curvature="0"
     sodipodi:nodetypes="ccccccc" /><path
     stroke-miterlimit="2.6131"
     d="M 10.482518,719.0309 C 2.3729773,667.06601 1.0605842,616.96725 6.1547698,571.00559 l 828.0487802,-0.0213 c -8.09905,49.84363 -1.30189,101.71362 19.18405,148.07802 l -842.905082,-0.0317 v 0 z"
     id="path11"
     inkscape:connector-curvature="0"
     style="clip-rule:evenodd;fill:#f5821f;fill-rule:evenodd;stroke:#f5821f;stroke-width:6.28089046;stroke-miterlimit:2.61310005" /><path
     stroke-miterlimit="2.6131"
     d="M 50.950428,867.04567 C 31.396818,817.31591 18.008307,767.36896 10.482518,719.0309 l 842.905082,0.0317 c 26.09457,59.07939 74.38644,109.27093 142.38522,135.06361 -2.02003,4.51035 -3.96868,8.82458 -5.84383,12.98278 l -938.978562,-0.0632 v 0 z"
     id="path13"
     inkscape:connector-curvature="0"
     style="clip-rule:evenodd;fill:#e03a3e;fill-rule:evenodd;stroke:#e03a3e;stroke-width:6.28089046;stroke-miterlimit:2.61310005" /><path
     stroke-miterlimit="2.6131"
     d="m 989.9269,867.10682 c -23.34591,51.54106 -36.8793,78.29106 -69.18727,127.67077 -4.34665,6.63161 -8.83819,13.41511 -13.51452,20.26181 l -778.04344,0.072 c -2.4925,-3.7281 -4.9619,-7.454 -7.3935,-11.1504 C 92.699233,959.47083 69.149648,913.34471 50.950428,867.04356 l 938.976472,0.0632 v 0 z"
     id="path15"
     inkscape:connector-curvature="0"
     style="clip-rule:evenodd;fill:#963d97;fill-rule:evenodd;stroke:#963d97;stroke-width:6.28089046;stroke-miterlimit:2.61310005" /><path
     stroke-miterlimit="2.6131"
     d="m 907.22511,1015.0394 c -47.59473,70.0126 -111.49253,147.0574 -189.02664,147.7891 -75.65684,0.6895 -95.06557,-49.4409 -197.70942,-48.8758 -102.64386,0.5757 -124.07261,49.7509 -199.72945,49.0403 -80.88753,-0.7507 -143.69762,-76.4165 -191.57793,-147.8819 l 778.04344,-0.072 v 0 z"
     id="path19"
     inkscape:connector-curvature="0"
     style="clip-rule:evenodd;fill:#009ddc;fill-rule:evenodd;stroke:#009ddc;stroke-width:6.28089046;stroke-miterlimit:2.61310005" /></g>
</svg>