<svg xmlns="http://www.w3.org/2000/svg" viewBox="0 0 256 256">
  <path fill="#464545" d="M210.513 10H45.487C25.888 10 10 25.888 10 45.487v165.025C10 230.111 25.888 246 45.487 246h165.025C230.111 246 246 230.111 246 210.513V45.487C246 25.888 230.111 10 210.513 10z"/>
  <linearGradient id="a" gradientUnits="userSpaceOnUse" x1="-1161.385" y1="-114.384" x2="-1213.081" y2="-265.072" gradientTransform="rotate(180 -308.35 -45.836) scale(.5915)">
    <stop offset="0" stop-color="#fff"/>
    <stop offset="1" stop-color="#fff" stop-opacity="0"/>
  </linearGradient>
  <path opacity=".288" fill="url(#a)" d="M183.648 20.089H72.351c-29.46 0-53.178 23.913-53.178 53.615v108.592c.954 23.186 4.622 8.528 11.604-17.147 8.115-29.842 34.542-55.923 66.725-75.469 24.564-14.919 52.061-24.446 102.109-25.352 28.384-.515 25.878-36.842-15.963-44.239z"/>
  <g stroke="#939494" stroke-width="1.528">
    <path fill="#F3F3F3" d="M-346.564-295.437c1.013-3.917-.003-5.3-1.701-5.828-8.943-5.519-14.906-11.715-21.224-20.88-5.088-10.644-7.807-13.963-7.442-28.965-.342-7.23.554-14.461 3.614-21.691 3.606-7.418 6.902-13.662 13.694-17.988l6.507-5.784c1.573-1.186 1.57-3.543.767-5.149-5.672-5.862-10.256-11.88-20.455-17.097-4.133-2.392-10.37-4.244-18.588-4.594-5.802.002-11.431-.168-18.543 1.146-9.087 1.48-17.413 5.637-25.562 9.699-5.206 1.275-9.934.63-14.461-.811l-15.184-6.419c-5.285-1.946-11.471-2.99-18.799-2.892-7.234-.022-14.404.282-20.968 3.616-5.204 2.509-9.937 5.488-14.461 8.677-5.362 5.002-10.451 10.276-14.461 16.629-3.088 3.99-5.276 10.426-7.698 16.418-2.21 5.997-3.223 10.436-4.126 15.863-1.582 10.492-1.394 16.862-1.023 24.837.781 13.654 2.735 18.621 4.17 26.753 5.246 20.96 17.425 40.057 30.368 57.119 4.582 5.062 6.706 8.897 15.439 15.14 5.857 3.659 6.722 4.371 9.866 5.829 2.895.719 5.888 1.341 10.123.722 10.605-2.244 19.848-8.263 30.367-10.846 3.857-.505 7.713-.892 11.569-.722 12.631-.21 23.209 11.052 35.428 10.546 4.786-.658 9.306-2.348 12.759-4.337 13.691-10.027 26.645-25.515 33.684-41.169 2.536-5.521 4.48-11.63 6.341-17.822 1.013-3.917-1.861 6.192 0 0z" transform="matrix(.65168 0 0 .65703 420.324 358.348)"/>
    <path fill="#F9F9F9" d="M-446.726-426.9c.076 2.89 1.896 2.027 2.915 2.403 3.833.435 5.714-.595 8.315-1.084 5.032-1.443 6.973-2.499 9.399-3.616 2.772-1.648 5.543-2.837 8.315-5.422 9.824-7.139 19.283-20.922 21.329-32.898.641-3.054 1.451-6.023 1.448-9.4.202-1.649-.262-2.631-.724-3.615-1.827-1.078-2.768-1.043-4.893-.891-2.491.01-5.676.393-9.207 1.975-11.784 5.416-24.91 15.56-30.155 27.709-2.952 5.641-5.611 12.349-6.742 18.693-.357 2.168-.264 3.674 0 6.146.076 2.89-.264-2.472 0 0z" transform="matrix(.65168 0 0 .65703 420.324 358.348)"/>
  </g>
</svg>
