<?xml version="1.0" encoding="utf-8"?>
<!-- Generator: Adobe Illustrator 17.0.0, SVG Export Plug-In . SVG Version: 6.00 Build 0)  -->
<!DOCTYPE svg PUBLIC "-//W3C//DTD SVG 1.0//EN" "http://www.w3.org/TR/2001/REC-SVG-20010904/DTD/svg10.dtd">
<svg version="1.0" id="Ebene_1" xmlns="http://www.w3.org/2000/svg" xmlns:xlink="http://www.w3.org/1999/xlink" x="0px" y="0px"
	 width="599.925px" height="599.925px" viewBox="0 0 599.925 599.925" enable-background="new 0 0 599.925 599.925"
	 xml:space="preserve">
<rect x="0" y="0" fill="#999999" width="599.925" height="599.925"/>
<path fill="#FFFFFF" d="M396.75,56.5c0,0-36.125,0.875-69.25,34s-27.538,77.75-27.538,77.75s32.791,5.996,67.788-29
	S396.75,56.5,396.75,56.5z"/>
<path fill="#FFFFFF" d="M303.75,196.5c-24.417-0.167-39.416-21.25-81-21.25c-37.417,0-74.926,24.141-90.875,47.5
	C116,246,102.25,271.5,102.25,323.25s24.917,140.75,86.188,201c10.493,10.318,24.383,18.074,40.229,18.554
	c28.5,0.863,46-20.471,82-20.471S357.5,542.804,390,542.804c14.779,0,31.633-6.731,48-24.137
	c21-22.333,47.059-64.868,60.333-105.667c0,0-66.471-25.671-65.667-99.667c0.667-61.333,52.75-91.5,52.75-91.5
	s-30.417-48.5-95.083-48.5C345.667,173.667,325.666,196.65,303.75,196.5z"/>
</svg>
