<svg xmlns="http://www.w3.org/2000/svg" width="135.55" height="55.66" viewBox="0 0 135.55 55.66"><path d="M1.00156,5.91545A4.91214,4.91214,0,0,1,5.98789,1.00139a4.92064,4.92064,0,0,1,5.02246,4.91406,4.93623,4.93623,0,0,1-5.02246,4.87793A4.92772,4.92772,0,0,1,1.00156,5.91545Zm.50586,9.90039h8.99707V54.11662H1.50742Z"/><path d="M39.23008,1.977c10.37012,0,17.56055,7.0459,17.56055,17.45215s-7.40723,17.45215-17.958,17.45215H28.28184V54.11662H18.95957V1.977ZM28.28184,29.36564h8.45508c6.68457,0,10.58691-3.61328,10.58691-9.93652,0-6.251-3.86621-9.82812-10.55078-9.82812H28.28184Z"/><path d="M58.23594,43.13225c0-6.8291,5.27539-10.76758,14.92285-11.3457l9.90039-.61426v-2.71c0-4.01074-2.71-6.21484-7.335-6.21484-3.90234,0-6.68457,2.02344-7.2627,5.05859H60.151c.25293-7.0459,6.75684-12.06836,15.89844-12.06836,9.61133,0,15.89844,4.98633,15.89844,12.61035V54.11662H83.276V48.01018h-.18066c-2.13184,4.083-6.86523,6.64844-11.92383,6.64844C63.65586,54.65861,58.23594,49.96135,58.23594,43.13225Zm24.82324-3.21582V37.0258l-8.63574.542c-4.69727.3252-7.1543,2.13184-7.1543,5.20313,0,3.03516,2.60156,5.09473,6.6123,5.09473C79.04844,47.86564,83.05918,44.46916,83.05918,39.91643Z"/><path d="M97.58457,34.9301c0-11.92383,6.35937-19.54785,15.89844-19.54785,5.49219,0,9.82813,2.6377,11.85156,6.86523h.2168V1.977h8.99707V54.11662H125.732v-6.54h-.14453c-2.0957,4.2998-6.50391,6.97363-12.10449,6.97363C103.94395,54.55021,97.58457,46.89006,97.58457,34.9301Zm9.21387.03613c0,7.44336,3.68555,12.14063,9.39453,12.14063,5.67285,0,9.39453-4.76953,9.39453-12.14062,0-7.335-3.72168-12.17676-9.39453-12.17676C110.484,22.78947,106.79844,27.559,106.79844,34.96623Z"/></svg>