<?xml version="1.0" encoding="utf-8"?>
<!-- Generator: Adobe Illustrator 12.0.1, SVG Export Plug-In . SVG Version: 6.00 Build 51448)  -->
<!DOCTYPE svg PUBLIC "-//W3C//DTD SVG 1.1//EN" "http://www.w3.org/Graphics/SVG/1.1/DTD/svg11.dtd" [
	<!ENTITY ns_svg "http://www.w3.org/2000/svg">
	<!ENTITY ns_xlink "http://www.w3.org/1999/xlink">
]>
<svg  version="1.1" id="Ebene_1" xmlns="&ns_svg;" xmlns:xlink="&ns_xlink;" width="214.771" height="253.887"
	 viewBox="0 0 214.771 253.887" overflow="visible" enable-background="new 0 0 214.771 253.887" xml:space="preserve">
<g>
	<rect x="0.405" y="214.323" fill="#DB2F36" stroke="#000000" stroke-width="0.7266" width="214.002" height="39.2"/>
	<path fill="#DB2F36" stroke="#000000" stroke-width="0.7266" d="M107.401,233.924"/>
	<path fill="#FFFFFF" d="M38.557,245.348l-2.787-2.87c-1.163,0.729-2.99,1.098-4.909,1.098c-6.303,0-10.511-4.521-10.511-10.852
		s4.208-10.87,10.511-10.87s10.515,4.54,10.515,10.87c0,2.87-0.872,5.371-2.413,7.254l2.469,2.527L38.557,245.348z M32.836,233.702
		l1.744,1.771c0.263-0.72,0.406-1.624,0.406-2.75c0-4.623-2.496-5.703-4.125-5.703c-1.624,0-4.12,1.08-4.12,5.703
		c0,4.614,2.496,5.685,4.12,5.685c0.263,0,0.526-0.027,0.844-0.11l-1.744-1.809L32.836,233.702z"/>
	<path fill="#FFFFFF" d="M61.41,243.087h-5.546v-1.92h-0.056c-1.075,1.514-2.616,2.298-4.909,2.298
		c-2.704,0-5.172-1.661-5.172-5.112v-10.335h5.749v7.899c0,1.734,0.203,2.953,1.892,2.953c0.982,0,2.293-0.489,2.293-2.898v-7.954
		h5.749V243.087z"/>
	<path fill="#FFFFFF" d="M66.407,228.018h5.749v15.069h-5.749V228.018z M72.156,226.394h-5.749v-4.042h5.749V226.394z"/>
	<path fill="#FFFFFF" d="M86.906,233.739c-0.064-0.609-0.268-1.107-0.637-1.422c-0.351-0.332-0.849-0.498-1.458-0.498
		c-2.205,0-2.528,1.92-2.528,3.747s0.323,3.709,2.528,3.709c1.255,0,2.123-1.015,2.233-2.196h5.5
		c-0.553,4.088-3.783,6.386-7.843,6.386c-4.54,0-8.162-3.138-8.162-7.898c0-4.762,3.622-7.927,8.162-7.927
		c3.949,0,7.308,1.947,7.659,6.1H86.906z"/>
	<path fill="#FFFFFF" d="M96.771,222.352h5.759v10.021l3.654-4.355h6.515l-5.38,5.685l6.21,9.385h-6.902l-3.082-5.463l-1.015,1.107
		v4.355h-5.759V222.352z"/>
	<path fill="#FFFFFF" d="M121.077,227.667h-5.813v-5.315h18.013v5.315h-5.813v15.42h-6.386V227.667z"/>
	<path fill="#FFFFFF" d="M137.392,228.018h5.759v15.069h-5.759V228.018z M143.15,226.394h-5.759v-4.042h5.759V226.394z"/>
	<path fill="#FFFFFF" d="M148.143,228.018h5.545v1.993h0.056c1.163-1.734,2.852-2.371,4.946-2.371c1.624,0,3.359,0.84,4.061,2.353
		c0.23-0.175,1.393-2.353,5.14-2.353c3.866,0,5.167,2.666,5.167,5.103v10.345h-5.748v-8.167c0-1.421-0.148-2.694-1.883-2.694
		c-1.458,0-1.956,1.126-1.956,2.694v8.167h-5.74v-8.167c0-1.421-0.147-2.694-1.892-2.694c-1.448,0-1.947,1.126-1.947,2.694v8.167
		h-5.748V228.018z"/>
	<path fill="#FFFFFF" d="M182.729,236.84c0.138,1.716,1.135,2.935,2.925,2.935c0.941,0,1.956-0.352,2.417-1.07h5.371
		c-1.162,3.248-4.328,4.761-7.752,4.761c-4.816,0-8.452-2.842-8.452-7.871c0-4.384,3.192-7.954,7.954-7.954
		c5.98,0,8.573,3.331,8.573,9.2H182.729z M188.246,233.85c0-1.394-1.043-2.528-2.528-2.528c-1.707,0-2.704,0.904-2.962,2.528
		H188.246z"/>
	<rect x="0.363" y="0.363" fill="#EC747C" stroke="#000000" stroke-width="0.7266" width="107.001" height="107.001"/>
	<rect x="0.363" y="107.364" fill="#56A567" stroke="#000000" stroke-width="0.7266" width="107.001" height="106.996"/>
	<rect x="107.364" y="0.363" fill="#F6AF6E" stroke="#000000" stroke-width="0.7266" width="106.997" height="107.001"/>
	<rect x="107.346" y="107.364" fill="#666DAC" stroke="#000000" stroke-width="0.7266" width="107.006" height="106.996"/>
	<path fill="none" stroke="#000000" stroke-width="0.7266" d="M107.364,107.364"/>
	<path fill="#FFFFFF" d="M195.14,224.714v0.369h1.052v2.76h0.424v-2.76h1.053v-0.369H195.14z"/>
	<path fill="#FFFFFF" d="M198.056,227.843h0.405v-1.846c0-0.074,0-0.194-0.009-0.342c-0.009-0.166-0.009-0.277-0.009-0.351v-0.102
		l0.904,2.64h0.424l0.896-2.64c0,0.175-0.01,0.323-0.01,0.471s0,0.259,0,0.323v1.846h0.397v-3.129h-0.6l-0.896,2.64l-0.896-2.64
		h-0.608V227.843z"/>
	<path d="M203.149,174.506v28.634h-28.644l-15.281-15.281c-14.949,9.643-32.74,15.244-51.86,15.244
		c-52.866,0-95.734-42.863-95.734-95.738c0-52.875,42.868-95.739,95.734-95.739c52.885,0,95.748,42.863,95.748,95.739
		c0,19.11-5.602,36.902-15.244,51.851L203.149,174.506z M154.869,71.2l-35.435,35.412c0.019,0.249,0.036,0.498,0.036,0.752
		c0,6.681-5.416,12.098-12.106,12.098c-6.672,0-12.088-5.417-12.088-12.098c0-6.681,5.417-12.098,12.088-12.098
		c0.24,0,0.462,0.019,0.683,0.032l35.436-35.481c-10.031-7.627-22.535-12.163-36.118-12.163c-32.966,0-59.699,26.733-59.699,59.709
		c0,32.971,26.733,59.704,59.699,59.704c32.98,0,59.714-26.733,59.714-59.704C167.078,93.767,162.528,81.235,154.869,71.2z"/>
	<g>
		<g>
			<path fill="#FFFFFF" d="M107.364,113.676c3.488,0,6.321-2.828,6.321-6.312c0-3.488-2.833-6.312-6.321-6.312
				c-3.479,0-6.312,2.824-6.312,6.312C101.053,110.848,103.886,113.676,107.364,113.676z"/>
		</g>
		<path fill="#FFFFFF" d="M154.869,71.2c0,0-1.439-2.404-4.982-5.938c-3.784-3.784-6.404-5.444-6.404-5.444l11.461-11.521
			c2.113,1.61,4.161,3.35,6.09,5.273c1.957,1.952,3.673,3.991,5.297,6.127L154.869,71.2z"/>
	</g>
</g>
</svg>
