<?xml version="1.0" encoding="UTF-8" standalone="no"?>
<!-- Created with Inkscape (http://www.inkscape.org/) -->

<svg
   xmlns:svg="http://www.w3.org/2000/svg"
   xmlns="http://www.w3.org/2000/svg"
   version="1.1"
   width="466.72916"
   height="190.78688"
   id="svg2">
  <g
     id="logo">
    <g
       id="Self">
      <path
         d="m 128.61166,175.52755 0,-19.58923 7.34801,0.0647 c 1.87668,12.41753 10.40167,16.3757 19.0708,16.44366 8.84986,0 17.20759,-4.54622 17.20759,-18.00118 0,-13.45496 -15.654,-18.02263 -24.35177,-23.04429 -8.69777,-5.02166 -18.72234,-11.70272 -18.72234,-26.53113 0,-14.828404 14.98432,-23.256334 26.30587,-24.087364 11.32155,-0.83103 13.87104,-0.0332 27.79774,3.00281 l 0,18.996444 -7.44942,0 c -2.27027,-11.175904 -9.39625,-15.489744 -17.62584,-15.489744 -8.22959,0 -15.64055,5.34018 -15.90719,15.201364 -0.26664,9.86118 5.83748,13.53317 18.32018,20.74006 12.4827,7.20689 24.38285,11.75095 24.34812,29.65604 -0.63284,18.82483 -14.01218,26.34351 -29.0963,26.34351 -10.79045,0 -18.02628,-1.23539 -27.24545,-3.70568"
         id="S"
         style="fill:#313131;fill-opacity:1;stroke-width:0" />
      <path
         d="m 209.79575,145.29301 c 1.60201,11.25405 7.28214,25.19362 21.91136,25.16643 14.62922,-0.0272 22.22959,-12.22138 24.10745,-15.47393 l 5.98992,4.51788 c -3.59245,7.2559 -15.00698,21.65166 -34.41121,21.65166 -19.40423,0 -32.78583,-17.9687 -32.78583,-44.15157 0,-12.96903 9.61689,-33.76579 33.27478,-33.76579 23.65788,0 27.74932,23.94628 29.89531,31.44341 z m 31.84364,-14.18722 c -2.65422,-7.91831 -7.01273,-22.28291 -20.06292,-20.32947 -13.05019,1.95344 -14.53883,17.51546 -13.18418,27.62372 z"
         id="e"
         style="fill:#008feb;fill-opacity:1;stroke-width:0" />
      <path
         d="m 288.08977,164.67931 c 0,8.9823 5.28813,8.99631 7.97787,9.71702 l 0,3.79105 -28.12504,0 0,-3.79105 c 2.12802,-0.81389 8.07231,-0.55492 8.07231,-9.71702 l 0,-74.474224 c -0.16565,-3.68722 -0.71962,-8 -9.45736,-8 l 0,-5.30302 21.53222,0"
         id="l"
         style="fill:#313131;fill-opacity:1;stroke-width:0" />
      <path
         d="m 353.86604,90.481426 -7.56237,0 c -0.40779,-0.70632 -0.88631,-7.23871 -8.30828,-7.14036 -7.42197,0.0984 -10.03914,6.90425 -10.03914,17.182494 l 0,9.89353 16.41623,0 0,7.48259 -16.41623,0 0,46.77963 c 0,8.66274 4.89877,9.16432 8.08721,9.71702 l 0,3.79105 -28.73106,0 0,-3.79105 c 3.24395,-0.86921 7.87987,-1.03857 7.87987,-9.71702 l 0,-46.77963 -8.21781,0 0,-3.67847 c 11.32305,-1.80217 5.4467,-4.53776 10.15689,-19.602264 4.71019,-15.06451 17.75274,-17.71688 27.10793,-17.71688 9.35519,0 9.62676,0.50027 9.62676,0.50027 l 0,13.07906"
         id="f"
         style="fill:#313131;fill-opacity:1;stroke-width:0" />
    </g>
    <path
       d="m 74.72126,151.72834 -8.58734,-13.01951 55.12517,19.11375 -48.75392,32.9643 5.54022,-15.51261 C -110.06267,166.24235 76.66263,45.601681 271.05508,11.157775 465.44753,-23.286132 545.15462,25.43691 368.95436,110.32505 l 6.32373,-15.937974 -15.20488,-6.07744 C 527.0743,-0.275107 360.62741,-8.048317 218.56932,28.549898 76.51123,65.148116 -45.38273,140.67843 74.72126,151.72834 z"
       id="circle-arrow"
       style="fill:#008feb;fill-opacity:1;stroke-width:0" />
  </g>
</svg>
