<?xml version="1.0" encoding="UTF-8" standalone="no"?>
<!-- Created with Inkscape (http://www.inkscape.org/) -->

<svg
   xmlns:dc="http://purl.org/dc/elements/1.1/"
   xmlns:cc="http://creativecommons.org/ns#"
   xmlns:rdf="http://www.w3.org/1999/02/22-rdf-syntax-ns#"
   xmlns:svg="http://www.w3.org/2000/svg"
   xmlns="http://www.w3.org/2000/svg"
   xmlns:sodipodi="http://sodipodi.sourceforge.net/DTD/sodipodi-0.dtd"
   xmlns:inkscape="http://www.inkscape.org/namespaces/inkscape"
   width="264.58334mm"
   height="47.805859mm"
   viewBox="0 0 264.58335 47.805859"
   version="1.1"
   id="svg8"
   inkscape:version="0.92.3 (2405546, 2018-03-11)"
   sodipodi:docname="Apple watchOS wordmark 2017.svg">
  <defs
     id="defs2" />
  <sodipodi:namedview
     id="base"
     pagecolor="#ffffff"
     bordercolor="#666666"
     borderopacity="1.0"
     inkscape:pageopacity="0.0"
     inkscape:pageshadow="2"
     inkscape:zoom="0.35"
     inkscape:cx="-176.14397"
     inkscape:cy="-28.10267"
     inkscape:document-units="mm"
     inkscape:current-layer="layer1"
     showgrid="false"
     fit-margin-top="0"
     fit-margin-left="0"
     fit-margin-right="0"
     fit-margin-bottom="0"
     inkscape:window-width="1280"
     inkscape:window-height="705"
     inkscape:window-x="-8"
     inkscape:window-y="-8"
     inkscape:window-maximized="1" />
  <metadata
     id="metadata5">
    <rdf:RDF>
      <cc:Work
         rdf:about="">
        <dc:format>image/svg+xml</dc:format>
        <dc:type
           rdf:resource="http://purl.org/dc/dcmitype/StillImage" />
        <dc:title></dc:title>
      </cc:Work>
    </rdf:RDF>
  </metadata>
  <g
     inkscape:label="Layer 1"
     inkscape:groupmode="layer"
     id="layer1"
     transform="translate(-29.595829,-93.591976)">
    <g
       aria-label="watchOS"
       style="font-style:normal;font-variant:normal;font-weight:600;font-stretch:normal;font-size:10.58333302px;line-height:1.25;font-family:'SF Pro Display';-inkscape-font-specification:'SF Pro Display Semi-Bold';letter-spacing:0px;word-spacing:0px;fill:#000000;fill-opacity:1;stroke:none;stroke-width:0.26458332"
       id="text817"
       transform="matrix(6.2045565,0,0,6.2045565,-154.03317,-735.91299)">
      <path
         d="M 37.440314,135.7961 35.9572,141.2738 H 34.603278 L 33.52324,137.26888 H 33.4974 l -1.07487,4.00492 h -1.343587 l -1.483113,-5.4777 h 1.29191 l 0.925008,4.20646 h 0.02584 l 1.069702,-4.20646 h 1.235066 l 1.069703,4.20646 h 0.03101 l 0.925009,-4.20646 z"
         style="stroke-width:0.26458332"
         id="path819"
         inkscape:connector-curvature="0" />
      <path
         d="m 40.008632,140.39014 q 0.552938,0 0.930176,-0.32556 0.382405,-0.33073 0.382405,-0.82166 v -0.41858 l -1.266072,0.0775 q -0.465088,0.031 -0.72347,0.23254 -0.253215,0.19637 -0.253215,0.52193 0,0.3359 0.253215,0.53744 0.258382,0.19637 0.676961,0.19637 z m -0.387573,0.97151 q -0.800985,0 -1.317749,-0.45992 -0.511597,-0.45992 -0.511597,-1.19372 0,-0.72864 0.537435,-1.15239 0.542603,-0.42374 1.545125,-0.48575 l 1.44694,-0.0827 v -0.39274 q 0,-0.42891 -0.273885,-0.66662 -0.268717,-0.23772 -0.749308,-0.23772 -0.449585,0 -0.733805,0.20154 -0.284221,0.20154 -0.346232,0.54777 h -1.193726 q 0.04134,-0.78031 0.666626,-1.26607 0.630453,-0.49093 1.658814,-0.49093 1.018025,0 1.627807,0.4961 0.61495,0.49609 0.61495,1.32291 v 3.77238 h -1.240235 v -0.87333 h -0.02584 q -0.232544,0.43925 -0.702799,0.7028 -0.470256,0.25838 -1.002523,0.25838 z"
         style="stroke-width:0.26458332"
         id="path821"
         inkscape:connector-curvature="0" />
      <path
         d="m 43.987717,134.51453 h 1.286743 v 1.28157 h 1.033528 v 0.99219 H 45.27446 v 2.84737 q 0,0.3359 0.160197,0.49609 0.160197,0.1602 0.501261,0.1602 0.227376,0 0.366903,-0.0258 v 0.98186 q -0.232544,0.0517 -0.666626,0.0517 -0.888835,0 -1.27124,-0.34106 -0.377238,-0.34107 -0.377238,-1.14205 v -3.02824 h -0.785482 v -0.99219 h 0.785482 z"
         style="stroke-width:0.26458332"
         id="path823"
         inkscape:connector-curvature="0" />
      <path
         d="m 51.909714,137.74947 h -1.214396 q -0.08268,-0.45992 -0.392741,-0.73897 -0.310058,-0.28422 -0.806152,-0.28422 -0.609782,0 -0.971517,0.48576 -0.361735,0.48059 -0.361735,1.32291 0,0.85266 0.361735,1.33325 0.361735,0.47543 0.981852,0.47543 0.485759,0 0.795817,-0.25838 0.310059,-0.26355 0.397909,-0.73381 h 1.214396 q -0.07751,0.91984 -0.738973,1.47795 -0.656291,0.55293 -1.684652,0.55293 -1.209228,0 -1.922363,-0.75964 -0.713135,-0.76481 -0.713135,-2.08773 0,-1.30741 0.713135,-2.07739 0.713135,-0.77515 1.912028,-0.77515 1.054199,0 1.705322,0.58912 0.656291,0.58394 0.72347,1.47794 z"
         style="stroke-width:0.26458332"
         id="path825"
         inkscape:connector-curvature="0" />
      <path
         d="m 52.721034,141.2738 v -7.45691 h 1.27124 v 2.91972 h 0.02584 q 0.222209,-0.50126 0.666626,-0.76998 0.444417,-0.27388 1.064535,-0.27388 0.899169,0 1.405598,0.55294 0.511597,0.54777 0.511597,1.49861 v 3.5295 h -1.286743 v -3.26595 q 0,-0.58394 -0.289388,-0.90433 -0.28422,-0.3204 -0.837158,-0.3204 -0.578776,0 -0.914673,0.3669 -0.330729,0.36691 -0.330729,0.97669 v 3.14709 z"
         style="stroke-width:0.26458332"
         id="path827"
         inkscape:connector-curvature="0" />
      <path
         d="m 62.115809,133.69287 q 1.627808,0 2.578654,1.0387 0.956014,1.03869 0.956014,2.81636 0,1.77767 -0.956014,2.81637 -0.950846,1.03353 -2.578654,1.03353 -1.632975,0 -2.588989,-1.03353 -0.950847,-1.0387 -0.950847,-2.81637 0,-1.77767 0.950847,-2.81636 0.956014,-1.0387 2.588989,-1.0387 z m 1.586466,1.87586 q -0.589111,-0.73898 -1.586466,-0.73898 -0.997355,0 -1.586466,0.73381 -0.589112,0.7338 -0.589112,1.98437 0,1.24541 0.589112,1.97921 0.589111,0.73381 1.586466,0.73381 0.997355,0 1.586466,-0.73381 0.589112,-0.7338 0.589112,-1.97921 0,-1.2454 -0.589112,-1.9792 z"
         style="stroke-width:0.26458332"
         id="path829"
         inkscape:connector-curvature="0" />
      <path
         d="m 66.399785,139.17574 h 1.291911 q 0.06201,0.5116 0.5271,0.82682 0.465088,0.31006 1.152384,0.31006 0.671794,0 1.09554,-0.29972 0.428915,-0.29972 0.428915,-0.76481 0,-0.40308 -0.310059,-0.65113 -0.310058,-0.25321 -1.012858,-0.41857 l -0.966349,-0.22738 q -1.028361,-0.23771 -1.529622,-0.73897 -0.496094,-0.50127 -0.496094,-1.30225 0,-0.98702 0.775146,-1.60197 0.775147,-0.61495 1.999878,-0.61495 1.229899,0 1.979207,0.60978 0.754476,0.60462 0.780315,1.59164 h -1.271241 q -0.04651,-0.52193 -0.449585,-0.81649 -0.403076,-0.29972 -1.049031,-0.29972 -0.630453,0 -1.023193,0.28422 -0.387574,0.28422 -0.387574,0.7493 0,0.37208 0.299724,0.60462 0.304891,0.23254 0.992187,0.39791 l 0.857829,0.19637 q 1.131714,0.25838 1.64331,0.75447 0.511597,0.4961 0.511597,1.32809 0,1.05937 -0.795817,1.68465 -0.790649,0.62012 -2.144572,0.62012 -1.291911,0 -2.077392,-0.59428 -0.780315,-0.59945 -0.821656,-1.62781 z"
         style="stroke-width:0.26458332"
         id="path831"
         inkscape:connector-curvature="0" />
    </g>
  </g>
</svg>
