<?xml version="1.0" encoding="UTF-8" standalone="no"?>
<!-- Created with Inkscape (http://www.inkscape.org/) -->

<svg
   xmlns:dc="http://purl.org/dc/elements/1.1/"
   xmlns:cc="http://creativecommons.org/ns#"
   xmlns:rdf="http://www.w3.org/1999/02/22-rdf-syntax-ns#"
   xmlns:svg="http://www.w3.org/2000/svg"
   xmlns="http://www.w3.org/2000/svg"
   xmlns:sodipodi="http://sodipodi.sourceforge.net/DTD/sodipodi-0.dtd"
   xmlns:inkscape="http://www.inkscape.org/namespaces/inkscape"
   version="1.0"
   width="1000"
   height="1000"
   id="svg2863"
   inkscape:version="0.91 r13725"
   sodipodi:docname="Building_and_ship_comparison_to_the_Pentagon2.svg">
  <metadata
     id="metadata22">
    <rdf:RDF>
      <cc:Work
         rdf:about="">
        <dc:format>image/svg+xml</dc:format>
        <dc:type
           rdf:resource="http://purl.org/dc/dcmitype/StillImage" />
      </cc:Work>
    </rdf:RDF>
  </metadata>
  <sodipodi:namedview
     pagecolor="#ffffff"
     bordercolor="#666666"
     borderopacity="1"
     objecttolerance="10"
     gridtolerance="10"
     guidetolerance="10"
     inkscape:pageopacity="0"
     inkscape:pageshadow="2"
     inkscape:window-width="1920"
     inkscape:window-height="987"
     id="namedview20"
     showgrid="false"
     inkscape:zoom="0.7633125"
     inkscape:cx="388.1004"
     inkscape:cy="506.45183"
     inkscape:window-x="0"
     inkscape:window-y="27"
     inkscape:window-maximized="1"
     inkscape:current-layer="svg2863" />
  <defs
     id="defs2865" />
  <path
     style="opacity:0.7;fill:#8dd35f;fill-opacity:1;stroke:none;stroke-width:0.16500001;stroke-miterlimit:10;stroke-dasharray:none;stroke-dashoffset:0;stroke-opacity:1"
     d="M 497.45512,19.054742 A 487.4559,487.4559 0 0 0 10,506.51182 487.4559,487.4559 0 0 0 497.45512,993.96682 487.4559,487.4559 0 0 0 984.91214,506.51182 487.4559,487.4559 0 0 0 497.45512,19.054742 Z m 0,115.148438 A 372.30682,372.30682 0 0 1 869.76175,506.51182 372.30682,372.30682 0 0 1 497.45512,878.81842 372.30682,372.30682 0 0 1 125.1485,506.51182 372.30682,372.30682 0 0 1 497.45512,134.20318 Z"
     id="circle3378"
     inkscape:connector-curvature="0" />
  <path
     inkscape:connector-curvature="0"
     id="path3491"
     style="opacity:0.7;fill:#2a7fff;fill-opacity:1;fill-rule:evenodd;stroke:none"
     d="m 917.2656,506.78891 -346.55211,476.71773 0,0 0,0 0,0 0,0 L 10,801.6085 10,211.96931 570.71349,29.514921 917.2656,506.78891 Z m -744.83668,176.89175 -20.02549,0 0,14.46285 42.83229,13.90659 6.11888,-18.91295 -28.92568,-9.45649 z m -58.40766,0 -6.67517,0 0,-57.85139 -7.23142,0 0,110.14015 78.98941,26.14438 4.4501,-13.35031 -69.53292,-22.8068 0,-42.27603 z m 50.61996,-161.31637 0,63.97028 -12.23779,0 0,-63.97028 12.23779,0 z m -116.259046,103.46498 15.019111,0 0,136.84079 104.577515,33.93208 -4.4501,14.46285 -115.146526,-37.26965 0,-147.96607 z m 65.639086,-39.4947 -13.90659,0 0,-159.09132 13.90659,0 0,159.09132 z m -50.619975,0 -15.019111,0 0,-159.09132 15.019111,0 0,159.09132 z m 643.596745,144.07222 -12.2378,-8.90022 -60.6327,83.43952 12.23779,8.90021 60.63271,-83.43951 z m -41.71976,-30.59449 -11.12526,-7.78769 -60.63272,83.43951 11.12528,7.78769 60.6327,-83.43951 z m 2.22506,-26.14438 11.12526,7.78769 55.07008,-75.65183 -11.12526,-8.34395 -55.07008,76.20809 z m 40.60723,29.48197 12.23778,8.90021 55.07009,-75.65183 -12.2378,-8.90021 -55.07007,75.65183 z m -85.1083,-33.93206 -16.13164,-11.68154 -60.63272,83.43951 16.13164,11.68152 60.63272,-83.43949 z m -42.83228,-31.15075 -13.35032,-10.01276 -60.63272,83.99578 13.35033,9.45647 60.63271,-83.43949 z m 0,-28.36944 13.35031,10.01273 55.07008,-75.65181 -13.35031,-10.01275 -55.07008,75.65183 z m 40.05096,29.48196 16.13164,11.68152 55.07008,-75.65181 -16.13164,-11.68154 -55.07008,75.65183 z m 35.04459,-132.39069 13.35033,9.45648 7.23142,-9.45648 -7.23142,-10.01274 -13.35033,10.01274 z m 40.05096,28.9257 16.13164,12.23779 30.03823,-41.16349 -30.03823,-41.16349 -16.13164,11.68153 21.13802,29.48196 -21.13802,28.9257 z m 47.28239,34.48833 11.12528,8.34395 52.28875,-71.75798 -52.28875,-71.75797 -11.12528,8.34395 46.16986,63.41402 -46.16986,63.41403 z m 40.60724,29.48196 12.23779,8.90021 73.98302,-101.7962 -73.98302,-101.7962 -12.23779,8.90021 67.86412,92.89599 -67.86412,92.89599 z m -156.86628,241.4183 -12.2378,-8.90021 -63.97028,88.44589 -108.47137,-35.60087 -5.00637,14.46285 119.59664,38.93844 70.08918,-97.3461 z m -41.71976,-30.03821 -11.12526,-8.34395 -42.27603,58.96391 0,0 0,0 0,0 0,0 -73.98302,-24.47559 -4.45012,13.35033 83.43952,27.2569 48.39491,-66.7516 z m -42.27601,-30.59449 -16.13164,-11.68154 -17.24416,23.91933 0,0 -0.55628,0 0,0 0,0 -33.3758,-10.569 -6.1189,18.91295 47.28239,15.57537 26.14439,-36.15711 z m -42.83229,-31.15075 -11.12526,-8.34395 -2.78131,9.45648 10.56899,3.33757 3.33758,-4.4501 z m -250.31853,-92.89599 -5.00636,15.57538 98.45861,32.26327 5.00638,-16.13164 -98.45863,-31.70701 z m -15.0191,47.28239 -6.67516,18.91295 209.15503,67.86414 6.1189,-18.91295 -208.59877,-67.86414 z m -18.3567,55.62634 -4.4501,12.79406 98.45861,32.26328 4.45012,-13.35033 -98.45863,-31.70701 z m -15.57537,47.83865 -4.4501,14.46285 97.90235,31.70701 5.00637,-14.46285 -98.45862,-31.70701 z m 204.14866,81.77072 5.00638,-13.90658 -89.00214,-28.9257 -5.00638,13.90658 89.00214,28.9257 z m 16.13164,-48.95119 4.45011,-13.35031 -89.00214,-28.9257 -4.45011,13.35033 89.00214,28.92568 z m 32.26327,-100.12739 5.56264,-15.57538 -89.00214,-28.9257 -5.56263,15.57537 89.00213,28.92571 z m 53.40129,-438.33556 13.35033,-9.45647 60.63271,83.4395 -13.35032,9.45647 -60.63272,-83.4395 z m 40.05096,-28.9257 16.13164,-12.2378 129.05312,178.00429 -16.13164,11.68154 L 546.2379,272.60202 Z m 47.28239,-34.48832 11.12528,-8.34395 60.6327,83.4395 -11.12526,8.34395 -60.63272,-83.4395 z m 40.60724,-29.48197 12.23779,-8.90021 60.63271,83.4395 -12.2378,8.90023 -60.6327,-83.43952 z m -7.78769,-36.71339 -12.2378,8.90022 -63.97028,-87.889614 -108.47137,35.044594 -4.45011,-14.46285 118.48411,-38.382171 70.64545,96.789821 z m -41.71976,30.59449 -11.12526,7.78769 -42.27603,-58.40765 -73.98302,23.91933 -4.45012,-13.35033 83.43952,-26.70064 48.39491,66.7516 z m -42.27601,30.59449 -16.13164,11.68152 -17.24416,-24.47558 -33.93208,11.12527 -6.1189,-18.91296 47.28239,-15.57538 26.14439,36.15713 z m -42.83229,31.15075 -11.12526,7.78769 -2.78131,-9.45648 10.56899,-3.33758 3.33758,5.00637 z m 275.90665,112.92146 -12.2378,8.90022 -55.07007,-75.65182 12.23778,-8.90021 55.07009,75.65181 z m -41.71976,30.59449 -11.12526,7.78769 -55.07008,-75.65181 11.12526,-8.34395 55.07008,76.20807 z m -85.1083,61.74524 -13.35031,9.45647 -55.07008,-75.65181 13.35031,-9.45649 55.07008,75.65183 z m -399.39712,-112.3652 -5.00636,-16.13164 98.45861,-31.70701 0.55626,2.22505 4.45012,13.35033 -98.45863,32.26327 z m -15.0191,-47.28239 -6.1189,-19.46922 208.59877,-67.30787 6.1189,18.91295 -208.59877,67.86414 z m -70.64545,-107.35884 4.4501,14.46285 -104.577515,33.93207 0,136.8408 -15.019111,0 0,-147.96607 115.146526,-37.26965 z m 15.57538,48.95118 4.4501,13.35032 -69.53292,22.8068 0,42.27602 -6.67517,0 0,57.8514 -7.23142,0 0,-110.14015 78.98941,-26.14439 z m 16.13164,49.50745 6.67514,19.46921 -29.48194,9.45648 -20.02549,0 0,-14.46285 42.83229,-14.46284 z m 99.01487,-140.73464 4.45011,14.46285 -98.45862,31.70701 -4.4501,-14.46285 98.45861,-31.70701 z m 26.14439,7.23142 -5.00638,-14.46285 89.00214,-28.92569 5.00638,14.46284 -89.00214,28.9257 z m -104.57753,86.77709 -3.89383,-13.35032 97.90234,-31.70701 0.55627,2.22505 3.89385,11.12527 -98.45863,31.70701 z m 204.70493,-81.21446 4.45011,13.35033 -89.00214,28.9257 -4.45011,-13.35033 89.00214,-28.9257 z m 32.81954,100.12741 5.00637,16.13164 -89.00214,28.9257 -5.00637,-16.13164 89.00214,-28.9257 z m -288.7007,218.05526 0,-63.97029 -12.23779,0 0,63.97029 12.23779,0 z m 291.48202,-164.65397 3.33758,10.569 17.24416,5.56264 10.56901,-7.78769 113.47773,155.75375 -9.45648,6.67517 0,18.91295 9.45648,6.1189 -112.92147,155.19749 -8.90021,-6.67517 -17.80044,5.56263 -3.33757,11.12527 -182.45439,-59.52019 3.89384,-10.01273 -11.12526,-15.01912 -11.12528,0 0,-191.3546 10.01275,0 11.12526,-15.01911 -3.89383,-11.12528 181.89812,-58.96391 z" />
  <path
     inkscape:connector-curvature="0"
     id="path3493"
     style="opacity:0.7;fill:#000080;fill-opacity:1;fill-rule:evenodd;stroke:none"
     d="m 562.36954,504.56386 c 0.55626,0.55626 0.55626,2.22505 0,2.78131 -4.4501,2.22505 -8.90021,5.56264 -12.23778,10.01274 l -0.55627,13.35033 c 0,3.33757 6.1189,6.67516 6.1189,10.01273 0.55627,3.33759 -1.6688,6.67517 -5.56263,7.23143 -159.64761,-1.66879 -318.73893,-2.78131 -478.386523,-3.89384 -1.112528,-2.22506 -2.225054,-1.6688 -3.337582,0 -2.781316,0 -5.00637,0 -7.787687,0 l 0,-9.45649 -13.350322,0 c -1.112526,0.55626 -2.225052,1.6688 -3.33758,2.22507 0,0.55626 0,1.11252 0,1.66878 0.556264,0 1.112528,0.55627 1.66879,1.11253 0,1.11252 0,2.22505 0,3.33757 -0.556262,0 -1.112526,0.55628 -1.66879,1.11254 -6.118897,0 -11.681531,0 -17.800427,0 -1.112528,-4.45011 -2.225054,-8.90023 -2.781318,-13.35032 4.450108,0 8.900214,0 13.350322,0 0,-0.55627 0,-1.11253 0,-1.66879 -7.787688,-0.55626 -15.575375,-0.55626 -23.363063,-1.11253 -1.66879,0 -2.781317,-1.11254 -2.781317,-2.78132 0,-4.4501 -0.556263,-9.45648 -0.556263,-14.46285 0,-1.11253 0.556263,-1.66879 1.66879,-1.66879 10.569005,0 21.694273,0 32.263276,0 0,-1.66879 0,-2.78131 0,-4.4501 -6.118897,-0.55626 -12.237793,-0.55626 -18.356691,-1.11254 0,-0.55626 0,-1.11252 -0.556264,-2.22505 13.350322,0 26.700643,0.55626 39.4947,0.55626 0,0.55627 0,1.66879 0,2.78133 22.806801,0 46.169859,0 69.532929,0 0,-1.11254 0,-2.22506 0,-2.78133 1.11252,0 2.22505,0 3.33758,0 0,-0.55626 0,-1.11252 0,-1.66878 0,-0.55626 0,-0.55626 0,-0.55626 -9.45648,0 -18.91296,0 -28.9257,0 0,-0.55627 0,-1.66879 0,-2.22505 10.01274,0 20.02548,0 30.59449,0 0,-0.55627 0.55626,-0.55627 0.55626,-1.11253 10.56901,-1.11254 21.13801,-1.6688 31.70702,-2.78133 1.11253,3.33759 2.22505,6.11891 2.78131,9.45648 1.11253,0 1.66879,0 2.78131,0 0,0.55626 0,1.11254 0,2.22506 0.55627,0 1.11253,0 1.66879,0 0,-3.33759 0,-6.1189 0,-8.90021 -0.55626,0 -0.55626,0 -1.11252,0 0,-0.55628 0,-1.11254 0,-1.6688 0.55626,0 0.55626,0 1.11252,0 0,-0.55626 0,-1.66879 0,-2.78131 -3.33757,0 -6.11888,0 -9.45647,0 0,-0.55626 0,-1.11253 0,-1.66879 3.33759,0 6.1189,0 8.90021,0 1.11254,-0.55626 2.22506,-1.11252 3.33759,-1.66879 3.89383,0 7.23142,0 11.12526,0 0,1.66879 0,3.33758 0,5.00636 -0.55626,0 -1.11253,0 -1.66879,0 0,0.55627 0,1.11253 0,1.11253 0.55626,0 0.55626,0 1.11253,0 0,0.55626 0,1.11252 0,1.6688 -0.55627,0 -0.55627,0 -1.11253,0 0,1.11253 0,2.22505 0,3.33758 1.66879,0 3.89385,0 5.56264,0 0,1.11252 0,2.22504 0,3.33757 0.55626,0 1.66879,0 2.22505,0 0,-0.55626 0,-1.11253 0,-2.22505 0,0 0.55626,0 0.55626,0 0,-2.78131 0,-6.1189 0,-8.90021 -0.55626,0 -0.55626,0 -1.11252,0 0,-1.66879 0,-3.33758 0,-4.45012 -1.66879,-0.55626 -3.33758,-1.66878 -5.00638,-2.22504 0,-0.55627 0,-1.66879 0,-2.22505 0.55626,0 1.6688,0 2.78133,0 0,-0.55627 0,-1.11253 0,-1.66879 -1.11253,0 -2.22507,0 -3.33759,0 0,0 0,0 0,-0.55626 1.11252,0 2.22506,0 3.33759,0 0,0 0,0 0,-0.55628 1.66879,0.55628 2.78131,0.55628 4.4501,1.11254 0,0.55626 0,1.11252 0,1.66879 0.55626,0 1.11252,0 2.22506,0 0,-1.11253 0,-2.78133 0,-4.45012 -0.55628,0 -1.11254,0 -1.6688,0 0,-1.11252 0,-2.78131 0,-4.4501 0.55626,0 0.55626,0 1.11252,0 0,-1.11252 0,-1.6688 0,-2.78132 0.55628,-0.55627 1.66881,-0.55627 2.22507,-1.11253 0.55626,0.55626 1.66879,0.55626 2.22505,1.11253 0,1.11252 0,1.6688 0,2.78132 0.55626,0 1.11252,0 1.66878,0 0,1.66879 0,2.78132 0,4.4501 -0.55626,0 -1.11252,0 -1.66878,0 0,0.55626 0,1.66879 0,2.22507 0.55626,0 1.11252,0 1.66878,0 0.55627,0 1.11253,0.55626 1.66879,0.55626 1.6688,0 2.78133,-0.55626 4.45011,-1.11254 0,0.55628 0,0.55628 0,1.11254 0.55627,0 1.11253,0 1.66879,0 0,0 0,0.55626 0,0.55626 -0.55626,0 -1.11252,0 -1.66879,0 0,0.55626 0,0.55626 0,1.11253 0.55627,0 1.11253,0 1.66879,0 0,0.55626 0,1.66878 0,2.22505 -1.66879,0.55626 -3.89383,1.11252 -6.1189,2.22504 0,1.66881 0,3.33759 0,5.00638 0.55628,0 1.11254,0 1.6688,0 0,0.55626 0,1.66879 0,2.22505 1.66879,0 2.78131,0 4.4501,0 0,-1.11253 0,-2.22505 0,-3.33757 1.11253,-0.55627 2.78133,-1.66879 3.89385,-2.22505 0,-4.45012 0,-8.90023 0,-12.79407 0,0 0,0 -0.55626,0 0,-0.55626 0,-1.66878 0,-2.22505 l 0.55626,0 0,-0.55626 -23.91932,-30.59449 1.11252,-0.55626 7.78769,10.01274 8.90021,1.11252 -5.00637,-16.13164 1.11252,-0.55626 11.68154,36.71339 0,0.55626 0.55626,0 c 0,0.55627 0,1.11253 0,2.22505 l 0,0 0,0 3.89384,10.01274 1.6688,0 0,2.22506 2.22505,0 0,-5.00637 c -0.55626,0 -1.66879,0 -2.78131,0 0,-0.55626 0,-1.66879 0,-2.22505 1.11252,0 2.22505,0 2.78131,0 -1.11252,-6.1189 -2.78131,-12.2378 -3.89385,-18.3567 5.56264,-1.11253 11.12528,-2.78131 17.24418,-3.89384 2.78131,7.23143 5.00636,14.46285 7.78768,21.69428 7.23143,0 14.46285,0 21.138,0 0,-0.55628 0,-1.11254 0,-2.22507 -1.66879,-0.55626 -2.78131,-1.66878 -4.4501,-2.78131 0,-0.55626 0,-1.11252 0,-2.22505 1.11253,0 2.22505,0 3.33758,0 0,-2.22506 0,-4.45011 0,-6.67516 -0.55627,0 -1.11253,0 -1.66879,0 0.55626,-0.55626 1.11252,-1.11253 1.66879,-1.66879 0,-2.78133 0,-5.00637 0,-7.23142 -0.55627,0 -1.66879,0 -2.22505,0 0,-1.66881 0,-2.78133 0,-3.89386 1.66878,0 3.33757,0 5.56264,0 0,-0.55626 0,-1.11252 0,-1.11252 -1.11253,0 -1.66881,0 -2.22507,0 0,-1.66879 0,-3.33757 0,-4.45011 2.22507,0 4.45012,0 6.1189,0 0,-0.55627 0,-1.11253 0,-1.66879 -0.55626,0 -1.11252,-0.55626 -1.66878,-0.55626 0,-1.11253 0,-1.66879 0,-2.78131 1.11252,-0.55627 1.66878,-1.11253 2.78131,-1.66879 1.6688,0 2.78132,0 4.45011,0 0.55626,0 0.55626,0.55626 1.11253,1.11252 0,1.11253 0,2.78131 0,3.89384 -0.55627,0 -0.55627,0 -1.11253,0 0,0.55626 0,1.11252 0,1.66879 2.78131,0 5.00638,0 7.78769,0 0,1.11254 0,2.78132 0,4.45011 0,0 0.55626,0 1.11252,0 0,0.55626 -0.55626,0.55626 -0.55626,1.11252 0,2.78132 0,5.00638 0,7.23143 1.11253,0 2.22505,0 3.33757,0 0,1.66879 0,3.33757 0,5.00638 0.55627,0 0.55627,0 1.11253,0 0,5.56262 0,10.569 0,16.13163 1.6688,0 2.78133,0 4.45011,0 0.55627,0.55627 0.55627,1.11253 0.55627,2.22505 0,0.55627 0,1.66879 -0.55627,2.22505 0,5.56264 0,11.12528 0,16.13164 0.55627,0 1.11253,0 1.66879,0 0,1.11254 0,2.22506 0,3.33759 1.11252,0 2.22506,0 3.33759,0 0,-3.33759 0,-7.23143 0,-10.56902 1.11252,0 2.78131,0 4.4501,0 0,-0.55626 0,-1.11252 0,-1.66878 0,0 0.55626,0 1.11252,0 0,-0.55627 0,-1.11253 0,-2.22505 -0.55626,0 -1.11252,0 -1.66879,0 0,0 -0.55626,0 -1.11252,-0.55626 0,-1.11253 0,-2.22505 0,-3.33759 1.11252,-1.11253 1.66879,-1.66879 2.78131,-2.78131 1.11254,0 1.6688,0 2.78133,0 1.11252,1.11252 2.22505,1.66878 3.33757,2.22504 1.11253,0 2.22505,0 3.33759,0 1.11253,0.55627 1.66879,1.11254 2.78131,1.66881 l 0,0.55626 9.45648,0 0,0.55626 -9.45648,0 0,2.22505 c -0.55626,0 -0.55626,0 -1.11252,0 0,0.55626 0,1.11252 0,2.22505 0.55626,-0.55626 0.55626,-0.55626 1.11252,-0.55626 0,3.33759 0,6.1189 0,8.90021 2.22505,0 4.45012,0 6.67517,0 0,1.6688 0,2.78133 0,3.89385 1.66878,0 3.89383,0 5.56263,0 0,-2.22505 0,-3.89385 0,-5.56264 -3.33758,0 -6.67516,0 -10.01275,0 1.66879,-2.78131 2.78133,-5.56264 3.89385,-8.90021 10.569,1.11252 20.58174,2.22505 31.15075,2.78131 0,0.55626 0.55627,1.11254 0.55627,1.6688 10.569,0 20.58173,0 30.59448,0 0,0.55627 0,1.11253 0,2.22505 -10.01275,0 -19.46922,0 -28.9257,0 0.55627,0.55627 1.11253,1.66879 1.66879,2.22505 0,0.55626 0,0.55626 0,1.11253 1.11252,0 1.66879,0 2.22505,0 0,2.22506 0,4.45011 0,6.67516 3.89385,0 8.34396,0 12.79406,0 0,-0.55626 0,-0.55626 0,-1.11252 -1.66878,0 -3.33757,0 -5.00637,0 0.55627,-2.78132 1.11254,-5.56264 2.22506,-8.34395 10.569,1.11252 20.58174,2.22504 31.15075,2.78131 0.55626,0.55626 0.55626,0.55626 1.11253,1.11252 10.01273,0 20.58175,0 30.59448,0 0,0.55628 0,1.11254 0,2.22507 -9.45647,0 -19.46922,0 -29.48196,0 1.11253,0.55626 1.66879,1.66878 2.22505,2.22505 0.55626,0 0.55626,0 1.11252,0 0,1.11252 0,1.66878 0,2.22504 49.50746,-1.66878 99.01489,-3.89383 148.52233,-5.56262 z m -356.56482,-51.17624 5.56263,7.23143 3.33758,-5.00638 -0.55627,-1.11252 -8.34394,-1.11253 z m 8.90021,3.89385 5.00637,13.90658 -7.78768,-9.45648 2.78131,-4.4501 z" />
  <path
     inkscape:connector-curvature="0"
     id="path3495"
     style="opacity:0.7;fill:#666666;fill-opacity:1;fill-rule:evenodd;stroke:none"
     d="m 941.18492,677.56178 -76.20809,0 c 0,0 0,-0.55627 0,-1.66881 0,-1.66878 -2.22505,-3.89383 -3.89385,-3.89383 -1.66879,0 -52.84501,0 -54.51381,0 -2.22505,0 -2.22505,-2.78131 -4.4501,-2.78131 -2.22505,0 -47.83865,0 -49.50744,0 -1.6688,0 -1.6688,-1.66881 -3.33759,-1.66881 -2.22505,0 -18.35668,0 -18.35668,0 l -36.71339,-13.35031 c 0,0 0,-5.56264 0,-7.23142 0,-2.22507 -2.22505,-3.89385 -3.89384,-3.89385 -1.6688,0 -9.45649,0 -9.45649,0 0,0 0,-3.89384 0,-6.1189 0,-1.66879 -1.66879,-3.33758 -3.89383,-3.33758 -1.66879,0 -52.84503,0 -52.84503,0 0,0 0,-3.89383 0,-6.1189 0,-1.66879 -2.22505,-3.33757 -3.89384,-3.33757 -2.22506,0 -61.74523,0 -64.52655,0 -2.78132,0 -3.89385,-6.1189 -6.1189,-6.1189 -1.66878,0 -309.28245,0 -309.28245,0 0,0 0,-7.23143 0,-9.45648 0,-1.66879 -1.66879,-3.89385 -3.89384,-3.89385 -1.66878,0 -68.4204,0 -68.4204,0 0,0 0,-18.91295 0,-20.58174 0,-2.22506 -1.66879,-3.89385 -3.89384,-3.89385 -1.66879,0 -102.352465,0 -102.352465,0 0,0 0,-26.70063 0,-28.36942 0,-2.22507 -1.66879,-3.89385 -3.893843,-3.89385 -1.66879,0 -46.726125,0 -46.726125,0 L 10,680.89935 l 0,1.11252 1.112527,132.94695 c 0,0 45.057335,0 46.726125,0 2.225053,0 3.893843,-1.66878 3.893843,-3.89383 0,-1.6688 0,-28.36944 0,-28.36944 0,0 100.683675,0 102.352465,0 2.22505,0 3.89384,-1.66879 3.89384,-3.89384 0,-1.6688 0,-20.58175 0,-20.58175 0,0 66.75162,0 68.4204,0 2.22505,0 3.89384,-2.22505 3.89384,-3.89385 0,-2.22505 0,-9.45647 0,-9.45647 0,0 307.61367,0 309.28245,0 2.22505,0 3.33758,-5.56264 6.1189,-5.56264 2.78132,0 62.30149,0 64.52655,0 1.66879,0 3.89384,-2.22505 3.89384,-3.89384 0,-2.22505 0,-5.56264 0,-5.56264 0,0 51.17624,0 52.84503,0 2.22504,0 3.89383,-2.22505 3.89383,-3.89383 0,-2.22507 0,-5.56264 0,-5.56264 0,0 7.78769,0 9.45649,0 1.66879,0 3.89384,-2.22505 3.89384,-3.89384 0,-2.22506 0,-7.78768 0,-7.78768 l 36.71339,-13.35033 c 0,0 16.13163,0 18.35668,0 1.66879,0 1.66879,-1.66879 3.33759,-1.66879 1.66879,0 47.28239,0 49.50744,0 2.22505,0 2.22505,-2.22506 4.4501,-2.22506 1.6688,0 52.84502,0 54.51381,0 1.6688,0 3.89385,-2.78131 3.89385,-3.89384 0,-1.66878 0,-1.66878 0,-1.66878 l 76.20809,0 0,-3.89386 0,-1.11252 0,-3.33757 z" />
  <path
     inkscape:connector-curvature="0"
     id="path3497"
     style="opacity:0.7;fill:#ffff00;fill-opacity:1;fill-rule:evenodd;stroke:none"
     d="m 729.24857,297.63387 c -1.11254,10.01274 -5.00638,18.91297 -13.35033,23.36306 -9.45647,5.00638 -14.46285,11.68154 -15.01911,21.13802 l -674.191229,0 -5.562633,-14.46285 -8.900214,-4.45012 c 0.556263,-6.11888 3.33758,-11.68152 8.34395,-16.13163 l -5.00637,-6.11889 -5.562634,0 2.781317,-3.33759 261.443803,0 0,-7.23142 2.22505,0 0,-4.4501 -13.90659,0 -2.22505,-4.45012 7.23142,0 0,-30.03822 1.66879,0 0,-2.78131 -1.11252,0 0,-1.11253 50.61996,0 0,1.11253 -8.34395,0 0,2.22505 -1.11253,0 0,2.78132 2.78131,0 -2.22505,3.89384 0,3.33759 2.22505,0 -2.78131,3.89383 0,14.46285 3.89385,2.22505 2.22505,0 0,-2.22505 3.33758,0 0,2.22505 4.45011,0 -2.78131,3.89386 -18.91296,0 0,12.23778 427.76655,0 z" />
  <path
     inkscape:connector-curvature="0"
     id="path3499"
     style="opacity:0.7;fill:#ff0000;fill-opacity:1;fill-rule:evenodd;stroke:none"
     d="m 150.17838,847.2221 0,0 712.5734,0 c 60.07644,-1.66879 95.12104,-2.78131 106.80256,-11.68152 -5.00636,10.569 -15.01911,17.80042 -16.6879,29.48194 -2.22504,12.23781 20.02549,23.36307 20.02549,32.81956 0,10.569 -11.68154,12.23778 -18.91296,16.13163 l -901.702952,0 0,-4.45011 8.34395,-0.55626 c 0,-9.45648 0,-18.35669 0,-27.2569 -17.800428,-1.6688 -32.819539,-5.56264 -37.269647,-16.68792 l -1.112526,-17.24416 1.112526,0 -6.67516,-11.12526 -4.450107,0 L 10,834.42805 l 55.070075,0 -2.225053,2.22505 -3.893844,0 -6.118896,11.12526 22.806799,0 0,-33.93206 7.787687,0 1.112526,-26.14437 13.350325,0 1.11252,26.14437 17.800431,0 0,-5.56264 c 66.75161,0 -18.356691,0 33.93207,0 l -0.55626,38.93844 z m -125.159269,0.55626 5.006372,0 -2.781318,-11.12526 -8.343951,0 6.118897,11.12526 z m 7.231424,0 4.450108,0 0,-11.12526 -7.231424,0 2.781316,11.12526 z m 6.118898,0 4.450107,0 2.781316,-11.12526 -7.231423,0 0,11.12526 z m 6.675161,0 5.562634,0 6.118897,-11.12526 -8.900215,0 -2.781316,11.12526 z m 1.66879,34.48834 -4.450108,0.55626 0,1.66879 8.900214,0 0,28.36944 -21.138007,0 -1.668792,-3.33759 0,-28.9257 18.356693,0 0,1.6688 z" />
  <path
     inkscape:connector-curvature="0"
     id="path3501"
     style="fill:#000000;fill-opacity:1;fill-rule:evenodd;stroke:none"
     d="m 10,984.61916 210.26757,0 0,10.569 -210.26757,0 0,-10.569 z" />
  <path
     inkscape:connector-curvature="0"
     id="path3503"
     style="fill:#000000;fill-opacity:1;fill-rule:nonzero;stroke:none"
     d="m 48.938438,919.53634 0,48.39493 -13.350321,0 0,-31.70702 c -2.225054,1.66879 -4.450108,2.78131 -6.675162,3.89384 -1.66879,1.11252 -4.450107,1.66879 -7.231424,2.78131 l 0,-10.569 c 4.450108,-1.66879 7.787688,-3.33757 10.569004,-5.56264 2.225054,-1.66878 4.450108,-4.4501 5.562634,-7.23142 l 11.125269,0 z m 14.462847,24.4756 c 0,-9.45649 1.112526,-15.57538 4.450108,-19.46923 3.33758,-3.33757 8.34395,-5.00637 15.019111,-5.00637 3.33758,0 6.118898,0 7.787688,1.11254 2.225054,0.55626 3.893847,1.66878 5.006367,2.78131 1.66879,1.66879 2.22506,2.78131 3.33758,4.45011 0.55627,1.11253 1.112531,2.78131 1.668791,4.4501 1.11253,3.89385 1.11253,7.23143 1.11253,11.12526 0,8.90023 -1.11253,15.01911 -3.893841,18.91297 -3.33758,4.45009 -8.343955,6.1189 -15.575379,6.1189 -3.893843,0 -7.231423,-0.55626 -9.456477,-1.66881 -2.225054,-1.66878 -4.450108,-3.33757 -6.118898,-5.56262 -1.112526,-2.22506 -2.225054,-4.45011 -2.781316,-7.23142 -0.556264,-3.33759 -0.556264,-6.67517 -0.556264,-10.01274 z m 12.794058,0 c 0,6.11889 0.556264,10.01274 1.66879,12.23779 1.112528,2.22504 2.781317,3.33759 4.450107,3.33759 1.66879,0 2.781318,-0.55628 3.893844,-1.66881 0.556264,-0.55626 1.66879,-2.22505 2.225054,-4.4501 0,-1.66878 0.556264,-5.00637 0.556264,-9.45647 0,-6.1189 -0.556264,-10.56901 -1.66879,-12.79406 -1.112528,-2.22505 -2.781318,-2.78132 -5.006372,-2.78132 -2.225053,0 -3.893843,1.11253 -4.450107,2.78132 -1.112526,2.22505 -1.66879,6.67516 -1.66879,12.79406 z m 31.150747,0 c 0,-9.45649 1.66879,-15.57538 5.00637,-19.46923 3.33759,-3.33757 8.34396,-5.00637 15.01912,-5.00637 2.78131,0 5.56263,0 7.78768,1.11254 2.22506,0.55626 3.89385,1.66878 5.00637,2.78131 1.11253,1.66879 2.22506,2.78131 2.78132,4.45011 1.11253,1.11253 1.66879,2.78131 2.22505,4.4501 0.55627,3.89385 1.11253,7.23143 1.11253,11.12526 0,8.90023 -1.66879,15.01911 -4.45011,18.91297 -2.78131,4.45009 -7.78768,6.1189 -15.01911,6.1189 -3.89384,0 -7.23142,-0.55626 -9.45647,-1.66881 -2.78132,-1.66878 -4.45011,-3.33757 -6.1189,-5.56262 -1.11253,-2.22506 -2.22506,-4.45011 -2.78132,-7.23142 -0.55626,-3.33759 -1.11253,-6.67517 -1.11253,-10.01274 z m 13.35033,0 c 0,6.11889 0.55626,10.01274 1.66879,12.23779 1.11252,2.22504 2.22505,3.33759 4.4501,3.33759 1.11253,0 2.22506,-0.55628 3.33758,-1.66881 1.11253,-0.55626 1.66879,-2.22505 2.22506,-4.4501 0.55626,-1.66878 0.55626,-5.00637 0.55626,-9.45647 0,-6.1189 -0.55626,-10.56901 -1.11253,-12.79406 -1.11252,-2.22505 -2.78131,-2.78132 -5.00637,-2.78132 -2.22505,0 -3.89384,1.11253 -5.00637,2.78132 -0.55626,2.22505 -1.11252,6.67516 -1.11252,12.79406 z m 32.26327,-10.56901 12.2378,0 0,5.00637 c 2.22505,-2.22505 3.89384,-3.89385 5.56262,-4.45011 1.66881,-1.11253 3.89385,-1.66879 6.67517,-1.66879 2.78132,0 5.00637,0.55626 6.67516,1.66879 1.11252,1.11252 2.78133,2.22506 3.89385,4.45011 1.66879,-2.22505 3.89384,-3.89385 5.56262,-4.45011 1.66881,-1.11253 3.89386,-1.66879 6.1189,-1.66879 3.89386,0 6.67517,1.11253 8.90022,3.33757 1.6688,2.22507 2.78132,5.56264 2.78132,10.56902 l 0,21.69428 -12.79406,0 0,-20.02549 c 0,-1.11253 -0.55626,-2.78132 -1.11252,-3.33758 -1.11253,-1.11254 -2.22505,-1.6688 -3.33759,-1.6688 -1.66879,0 -2.78132,0.55626 -3.89384,1.6688 -1.11252,1.11253 -1.11252,2.78131 -1.11252,5.56263 l 0,17.80044 -13.35033,0 0,-18.91297 c 0,-1.66879 0,-2.78131 -0.55626,-3.33757 0,-1.11253 -0.55627,-1.66879 -1.11253,-2.22507 -1.11252,-0.55626 -1.66878,-0.55626 -2.78131,-0.55626 -1.11254,0 -2.78133,0.55626 -3.33759,1.6688 -1.11252,1.11253 -1.66879,2.78131 -1.66879,5.56263 l 0,17.80044 -13.35032,0 0,-34.48834 z" />
  <path
     inkscape:connector-curvature="0"
     id="path3505"
     style="fill:#000000;fill-opacity:1;fill-rule:evenodd;stroke:none"
     d="m 10,969.60005 5.006371,0 0,25.58811 -5.006371,0 0,-25.58811 z" />
  <path
     inkscape:connector-curvature="0"
     id="path3507"
     style="fill:#000000;fill-opacity:1;fill-rule:evenodd;stroke:none"
     d="m 215.26119,969.60005 5.00638,0 0,25.58811 -5.00638,0 0,-25.58811 z" />
  <path
     inkscape:connector-curvature="0"
     id="path3509"
     style="fill:#000000;fill-opacity:1;fill-rule:evenodd;stroke:none"
     d="m 10,13.383282 639.14663,0 0,10.569004 -639.14663,0 0,-10.569004 z" />
  <path
     inkscape:connector-curvature="0"
     id="path3511"
     style="fill:#000000;fill-opacity:1;fill-rule:nonzero;stroke:none"
     d="m 48.938438,33.965027 0,48.394916 -13.350321,0 0,-31.707015 c -2.225054,1.668792 -4.450108,2.781318 -6.675162,3.893844 -1.66879,1.112528 -4.450107,1.668792 -7.231424,2.781318 l 0,-10.569004 c 4.450108,-1.668791 7.787688,-3.337581 10.569004,-5.562635 2.225054,-1.66879 4.450108,-4.450106 5.562634,-7.231424 l 11.125269,0 z m 14.462847,24.475589 c 0,-9.456478 1.112526,-15.575374 4.450108,-19.469217 3.33758,-3.337582 8.34395,-5.006372 15.019111,-5.006372 3.33758,0 6.118898,0 7.787688,1.112528 2.225054,0.556262 3.893847,1.66879 5.006367,2.781316 1.66879,1.66879 2.22506,2.781318 3.33758,4.450108 0.55627,1.112526 1.112531,2.781316 1.668791,4.450107 1.11253,3.893842 1.11253,7.231424 1.11253,11.125268 0,8.900213 -1.11253,15.019111 -3.893841,18.912955 -3.33758,4.450106 -8.343955,6.118897 -15.575379,6.118897 -3.893843,0 -7.231423,-0.556263 -9.456477,-1.668791 -2.225054,-1.66879 -4.450108,-3.33758 -6.118898,-5.562634 -1.112526,-2.225052 -2.225054,-4.450106 -2.781316,-7.231424 -0.556264,-3.33758 -0.556264,-6.67516 -0.556264,-10.012741 z m 12.794058,0 c 0,5.562634 0.556264,10.012741 1.66879,12.237795 1.112528,2.225054 2.781317,3.33758 4.450107,3.33758 1.66879,0 2.781318,-0.556262 3.893844,-1.66879 0.556264,-0.556264 1.66879,-2.225054 2.225054,-4.450108 0,-1.668789 0.556264,-5.006369 0.556264,-9.456477 0,-6.118896 -0.556264,-10.569004 -1.66879,-12.794058 -1.112528,-2.225053 -2.781318,-2.781316 -5.006372,-2.781316 -2.225053,0 -3.893843,1.112526 -4.450107,2.781316 -1.112526,2.225054 -1.66879,6.675162 -1.66879,12.794058 z m 31.150747,0 c 0,-9.456478 1.66879,-15.575374 5.00637,-19.469217 3.33759,-3.337582 8.34396,-5.006372 15.01912,-5.006372 2.78131,0 5.56263,0 7.78768,1.112528 2.22506,0.556262 3.89385,1.66879 5.00637,2.781316 1.11253,1.66879 2.22506,2.781318 2.78132,4.450108 1.11253,1.112526 1.66879,2.781316 2.22505,4.450107 0.55627,3.893842 1.11253,7.231424 1.11253,11.125268 0,8.900213 -1.66879,15.019111 -4.45011,18.912955 -2.78131,4.450106 -7.78768,6.118897 -15.01911,6.118897 -3.89384,0 -7.23142,-0.556263 -9.45647,-1.668791 -2.78132,-1.66879 -4.45011,-3.33758 -6.1189,-5.562634 -1.11253,-2.225052 -2.22506,-4.450106 -2.78132,-7.231424 -0.55626,-3.33758 -1.11253,-6.67516 -1.11253,-10.012741 z m 13.35033,0 c 0,5.562634 0.55626,10.012741 1.66879,12.237795 1.11252,2.225054 2.22505,3.33758 4.4501,3.33758 1.11253,0 2.22506,-0.556262 3.33758,-1.66879 1.11253,-0.556264 1.66879,-2.225054 2.22506,-4.450108 0.55626,-1.668789 0.55626,-5.006369 0.55626,-9.456477 0,-6.118896 -0.55626,-10.569004 -1.11253,-12.794058 -1.11252,-2.225053 -2.78131,-2.781316 -5.00637,-2.781316 -2.22505,0 -3.89384,1.112526 -5.00637,2.781316 -0.55626,2.225054 -1.11252,6.675162 -1.11252,12.794058 z m 31.15075,0 c 0,-9.456478 1.66879,-15.575374 5.00637,-19.469217 2.78131,-3.337582 7.78768,-5.006372 14.46285,-5.006372 3.33757,0 6.11889,0 7.78769,1.112528 2.22505,0.556262 3.89383,1.66879 5.00636,2.781316 1.66879,1.66879 2.78133,2.781318 3.33759,4.450108 0.55626,1.112526 1.11252,2.781316 1.66879,4.450107 1.11252,3.893842 1.66878,7.231424 1.66878,11.125268 0,8.900213 -1.66878,15.019111 -4.45011,18.912955 -2.78131,4.450106 -8.34395,6.118897 -15.0191,6.118897 -4.45011,0 -7.23143,-0.556263 -10.01275,-1.668791 -2.22505,-1.66879 -4.4501,-3.33758 -6.11889,-5.562634 -1.11253,-2.225052 -1.66879,-4.450106 -2.22506,-7.231424 -1.11252,-3.33758 -1.11252,-6.67516 -1.11252,-10.012741 z m 12.79405,0 c 0,5.562634 0.55627,10.012741 1.66879,12.237795 1.11253,2.225054 2.78132,3.33758 5.00638,3.33758 1.11253,0 2.22505,-0.556262 3.33757,-1.66879 1.11253,-0.556264 1.66879,-2.225054 2.22505,-4.450108 0.55627,-1.668789 0.55627,-5.006369 0.55627,-9.456477 0,-6.118896 -0.55627,-10.569004 -1.66879,-12.794058 -1.11253,-2.225053 -2.78131,-2.781316 -5.00638,-2.781316 -1.66878,0 -3.33757,1.112526 -4.4501,2.781316 -1.11252,2.225054 -1.66879,6.675162 -1.66879,12.794058 z m 69.53293,-10.569004 6.11889,0 0,9.456478 -6.11889,0 0,25.031853 -13.35032,0 0,-25.031853 -5.00638,0 0,-9.456478 5.00638,0 0,-1.66879 c 0,-1.66879 0,-2.781317 0.55626,-4.450107 0.55626,-1.66879 1.11252,-3.33758 1.66879,-4.450108 1.11252,-1.112526 2.22505,-1.66879 3.33759,-2.781316 1.66878,-0.556264 3.89383,-0.556264 6.67514,-0.556264 2.22507,0 5.56264,0 10.01276,0.556264 l -1.11253,8.343951 c -1.6688,-0.556263 -2.78133,-0.556263 -3.89385,-0.556263 -1.11252,0 -2.22505,0 -2.78131,0.556263 -0.55626,0.556263 -0.55626,1.112526 -1.11253,1.66879 0,0.556263 0,1.66879 0,3.33758 z m 48.39492,20.581745 -26.70066,0 c 0,1.66879 1.11253,3.33758 1.66881,4.450108 1.11252,1.66879 2.78131,2.225054 5.00636,2.225054 1.11252,0 2.78132,0 3.89385,-1.112528 0.55626,0 1.11252,-1.112526 2.22505,-2.225054 l 12.79406,1.668792 c -1.6688,3.33758 -4.45011,5.562634 -7.23142,7.231424 -2.78133,1.66879 -6.67517,2.225053 -11.68154,2.225053 -5.00636,0 -8.34395,-0.556263 -11.12526,-1.668791 -2.22507,-1.66879 -4.45012,-3.33758 -6.1189,-6.118896 -2.22505,-2.781318 -2.78132,-6.118898 -2.78132,-10.012742 0,-5.562633 1.66879,-10.012741 5.00636,-13.350321 3.33759,-3.33758 8.34395,-5.00637 14.46285,-5.00637 5.00638,0 8.90022,1.112526 11.68154,2.225052 2.78132,1.66879 5.00636,3.893844 6.67515,6.675162 1.11254,2.781316 2.22507,6.67516 2.22507,11.125267 l 0,1.66879 z m -13.35033,-6.67516 c -0.55626,-2.225053 -1.11252,-4.450107 -2.22505,-5.562633 -1.11252,-1.112528 -2.78133,-1.668792 -4.45011,-1.668792 -2.22505,0 -3.89384,1.112528 -5.00636,2.781318 -1.11254,1.112526 -1.11254,2.781317 -1.66881,4.450107 l 13.35033,0 z m 57.29512,6.67516 -26.14437,0 c 0,1.66879 0.55626,3.33758 1.66879,4.450108 1.11252,1.66879 2.78132,2.225054 5.00637,2.225054 1.11253,0 2.22505,0 3.33758,-1.112528 1.11252,0 1.66878,-1.112526 2.78132,-2.225054 l 12.79405,1.668792 c -2.22505,3.33758 -4.4501,5.562634 -7.23142,7.231424 -2.78131,1.66879 -6.67517,2.225053 -12.23779,2.225053 -4.45011,0 -7.78769,-0.556263 -10.56901,-1.668791 -2.78131,-1.66879 -5.00636,-3.33758 -6.67515,-6.118896 -1.6688,-2.781318 -2.22507,-6.118898 -2.22507,-10.012742 0,-5.562633 1.66881,-10.012741 5.00638,-13.350321 3.33757,-3.33758 8.34395,-5.00637 14.46285,-5.00637 4.4501,0 8.34395,1.112526 11.68152,2.225052 2.78133,1.66879 5.00638,3.893844 6.11891,6.675162 1.66878,2.781316 2.22504,6.67516 2.22504,11.125267 l 0,1.66879 z m -13.35031,-6.67516 c 0,-2.225053 -1.11254,-4.450107 -2.22506,-5.562633 -1.11253,-1.112528 -2.22505,-1.668792 -3.89384,-1.668792 -2.22505,0 -3.89385,1.112528 -5.56263,2.781318 -0.55627,1.112526 -1.11253,2.781317 -1.11253,4.450107 l 12.79406,0 z m 35.60085,-27.256906 0,13.350321 7.23143,0 0,9.456478 -7.23143,0 0,12.237795 c 0,1.66879 0,2.225052 0.55627,2.781316 0,1.112528 1.11252,1.112528 2.22506,1.112528 0.55626,0 2.22505,0 3.89384,-0.556264 l 1.11252,8.900214 c -3.33757,0.556264 -6.67516,1.112527 -9.45647,1.112527 -3.33758,0 -5.56264,-0.556263 -7.23143,-1.112527 -1.66879,-1.112526 -2.78131,-2.225054 -3.33757,-3.893844 -0.55627,-1.66879 -1.11254,-4.450106 -1.11254,-8.34395 l 0,-12.237795 -5.00636,0 0,-9.456478 5.00636,0 0,-6.675161 13.35032,-6.67516 z" />
  <path
     inkscape:connector-curvature="0"
     id="path3513"
     style="fill:#000000;fill-opacity:1;fill-rule:evenodd;stroke:none"
     d="m 10,13.383282 5.006371,0 0,25.588117 -5.006371,0 0,-25.588117 z" />
  <path
     inkscape:connector-curvature="0"
     id="path3515"
     style="fill:#000000;fill-opacity:1;fill-rule:evenodd;stroke:none"
     d="m 644.14027,13.383282 5.00636,0 0,25.588117 -5.00636,0 0,-25.588117 z" />
  <path
     inkscape:connector-curvature="0"
     id="path3517"
     style="opacity:0.7;fill:#d400aa;fill-opacity:1;fill-rule:evenodd;stroke:none"
     d="m 735.36745,166.91198 c -19.46921,15.0191 -34.48832,29.48195 -41.16348,42.83228 -2.22505,5.00637 -1.11253,6.1189 3.89385,5.56264 l 11.12526,0 c 2.78131,0 5.56264,1.66878 5.56264,3.89383 0.55626,6.67517 -7.78769,11.12528 -20.02549,14.46285 -5.56262,1.66879 -12.79405,1.66879 -18.91295,1.66879 l -605.214571,0 -1.66879,-4.4501 c -1.112526,1.11253 -2.781316,2.22505 -4.450108,2.78131 -0.556262,0 1.112528,-1.66878 1.112528,-2.22505 0,-1.11252 0.556264,-2.22506 0,-2.78132 0,-0.55627 -1.112528,-0.55627 -1.66879,0 -0.556264,0 -1.112527,1.11254 -2.225054,1.11254 -3.893843,0.55626 -9.456477,0.55626 -13.906585,-0.55628 -1.66879,0 -3.893844,-1.11253 -3.893844,-2.78131 0.556264,-1.66879 3.33758,-1.11253 4.450108,-2.22505 0,-0.55626 -0.556264,-1.11253 0,-1.66879 l 7.787688,-6.1189 -22.250537,-1.66879 0,-3.33758 c -8.34395,-0.55627 -13.350321,-5.56263 -15.575374,-13.90659 L 10,169.69329 l 10.012741,0 2.781317,-5.00637 18.912955,0 2.781317,-7.23142 23.363063,0 1.112526,-2.22505 1.66879,0 1.112528,-2.22506 12.237793,0 2.225054,-3.33758 24.475586,0 3.33759,-6.67516 10.569,0 3.33758,-6.1189 10.569,0 3.33758,-5.56263 6.1189,0 5.00637,-8.34395 2.22506,0 0,-1.66879 2.78131,0 0,-1.11253 c -1.11252,-0.55626 -2.22505,-1.66879 -2.22505,-3.33758 0,-2.22505 2.22505,-3.89384 3.89384,-3.89384 2.22506,0 4.45011,1.66879 4.45011,3.89384 0,1.66879 -1.11253,2.78132 -2.22505,3.33758 l 0,1.11253 0,0 0.55626,1.66879 2.78132,0 0,-1.66879 3.89384,-15.01911 5.00637,0 1.66879,-5.00637 3.89385,1.11252 0,20.58175 17.24416,0 0,2.22505 2.78131,0 6.11891,6.1189 41.71974,0 0,-13.90658 10.56902,1.11252 36.71337,-3.89384 6.1189,-22.8068 8.34395,0 1.66879,-6.118898 25.58813,0 1.66878,37.825908 0,0 16.6879,0 0,-2.78131 28.9257,0 0,2.78131 14.46284,0 0.55628,-2.22505 4.4501,0 0,-2.78132 0,0 0,0 c -1.11253,-0.55626 -2.22505,-1.66879 -2.22505,-3.33758 0,-2.22505 1.66878,-4.4501 3.89383,-4.4501 2.78133,0 4.45012,2.22505 4.45012,4.4501 0,1.66879 -1.11253,2.78132 -2.22505,3.33758 l 0,2.78132 94.56477,0 0,-2.78132 c -1.11252,-0.55626 -2.22506,-1.66879 -2.22506,-3.33758 0,-2.22505 2.22506,-4.4501 4.45011,-4.4501 2.22505,0 3.89384,2.22505 3.89384,4.4501 0,1.66879 -0.55626,2.78132 -2.22505,3.33758 l 0,2.78132 38.38217,0 5.00638,-0.55626 0,-3.89385 -1.11252,0 0,-1.66879 c 0,-0.55626 0,-0.55626 0,-0.55626 0,-0.55626 0.55626,-1.66879 1.66878,-1.66879 0.55627,0 1.66879,1.11253 1.66879,1.66879 0,0 0,0 0,0.55626 l 0,1.66879 -1.11252,0 0,3.33758 9.45647,0 5.00638,-1.11252 2.22505,-18.91296 c 2.22504,-1.66879 4.45011,-3.893842 6.1189,-7.231424 l 0,22.806804 13.90657,0.55626 9.45649,1.11253 0,1.66879 10.01274,1.11252 c 4.45011,1.66879 6.67516,3.33758 7.23142,5.56264 l -1.11252,0.55626 0,2.78132 c 0,2.22505 -0.55627,3.33758 -2.22507,3.33758 l 0,2.78131 5.56264,0 0,1.66879 13.90659,22.25054 7.78769,0 c 2.78131,0 3.89383,0.55626 3.89383,2.78132 l 6.67516,0 4.45012,2.78131 38.38217,0 c -2.22506,0.55627 -3.33759,1.66879 -3.33759,4.45011 16.6879,-0.55626 33.37582,-0.55626 47.83865,-2.22505 z M 66.182603,220.31326 c 0,-1.11253 -0.556264,-2.22505 -1.112528,-3.33758 0,0 0,0 -0.556264,0 -0.556262,2.22505 -1.668789,4.45012 -1.112526,7.23143 0,0.55626 1.66879,0.55626 2.225054,1.11252 0.556264,-1.66878 -1.112528,-3.33757 -1.112528,-4.45011 0,-0.55626 1.668792,0 1.668792,-0.55626 z" />
  <path
     inkscape:connector-curvature="0"
     id="path3519"
     style="opacity:0.7;fill:#008000;fill-opacity:1;fill-rule:evenodd;stroke:none"
     d="m 425.52875,433.91841 c 1.11253,1.66879 2.78132,3.33757 6.1189,3.89384 5.00637,0 10.01274,0.55626 15.01912,0.55626 2.22505,0 2.78131,-4.4501 3.33757,-7.78769 42.27601,-7.23142 71.20171,-18.91295 75.09557,-36.15711 -11.68154,-53.40129 -256.43743,-53.40129 -408.8536,-30.59449 l 0,0 c -2.22505,-3.89385 -7.78769,-13.90659 -36.713386,-14.46285 -12.237795,0 -24.47559,-0.55626 -36.15712,-0.55626 -2.225054,0 -2.781318,1.66879 -3.337581,3.89384 -1.112526,10.01275 -2.225054,19.46922 -3.893844,28.9257 l 0.556264,0 C 25.575375,385.52348 16.118897,389.9736 10,394.42371 c 6.118897,3.89384 15.575375,8.34395 26.700643,12.23779 -0.556264,0 2.225054,22.8068 2.781317,24.47558 0,2.78133 1.112526,3.89386 2.781316,3.89386 9.456478,1.66878 21.694273,3.33757 37.269648,3.89383 14.462845,0.55626 29.481956,-0.55626 36.713386,-14.46285 93.45224,13.90659 221.39283,19.46923 309.28244,9.45649 z" />
</svg>
